<?xml version="1.0" standalone="no"?>
<!DOCTYPE svg PUBLIC "-//W3C//DTD SVG 1.1//EN" "http://www.w3.org/Graphics/SVG/1.1/DTD/svg11.dtd" >
<svg xmlns="http://www.w3.org/2000/svg">
<metadata>
This is a custom SVG webfont generated by Font Squirrel.
Copyright   : Digitized data C 2004 Agfa Monotype Corporation Neo SansTM is a trademark of Agfa Monotype Corporation and may be registered in certain jurisdictions  All rights reserved Neo Sans is designed by Sebastian Lester
Foundry     : Digitized data C Agfa Monotype Corporation Neo SansTM is a trademark of Agfa Monotype Corporation and may be registered in certain jurisdictions
</metadata>
<defs>
<font id="webfontABShaS1J" horiz-adv-x="1239" >
<font-face units-per-em="2048" ascent="1638" descent="-410" />
<missing-glyph horiz-adv-x="505" />
<glyph unicode=" "  horiz-adv-x="505" />
<glyph unicode="&#x09;" horiz-adv-x="505" />
<glyph unicode="&#xa0;" horiz-adv-x="505" />
<glyph unicode="!" horiz-adv-x="444" d="M315 1501l-16 -1065q0 -16 -11.5 -27.5t-27.5 -11.5h-74q-16 0 -28.5 12.5t-12.5 26.5l-14 1065q0 16 12.5 27.5t28.5 11.5h102q16 0 28.5 -11.5t12.5 -27.5zM311 39q0 -39 -39 -39h-98q-16 0 -27.5 11.5t-11.5 27.5v192q0 16 11.5 27.5t27.5 11.5h98q16 0 27.5 -11 t11.5 -28v-192z" />
<glyph unicode="&#x22;" horiz-adv-x="741" d="M682 1518q0 -10 -2 -17l-119 -387q-10 -39 -39 -39h-96q-18 0 -18 21q0 12 2 18l94 387q8 39 41 39h114q23 1 23 -22zM334 1518q0 -10 -2 -17l-119 -387q-10 -39 -39 -39h-96q-18 0 -19 21q0 12 2 18l95 387q8 39 41 39h114q23 1 23 -22z" />
<glyph unicode="#" horiz-adv-x="1351" d="M1249 1049v-5l-4 -45q-4 -39 -41 -38h-198l-37 -414h200q33 0 33 -39v-4l-4 -43q-4 -39 -41 -39h-201l-32 -383q-4 -39 -37 -39h-90q-33 0 -33 35v4l33 383h-318l-33 -383q-4 -39 -36 -39h-93q-14 0 -23 10t-9 25v4l32 383h-190q-33 0 -33 39v4l4 43q4 39 41 39h191 l37 414h-193q-33 0 -33 38v5l4 45q4 39 41 38h191l35 396q2 16 13 27.5t26 11.5h92q31 0 30 -35v-4l-34 -396h317l35 396q4 39 39 39h90q31 0 31 -35v-4l-35 -396h201q32 1 32 -38zM846 961h-318l-36 -414h317z" />
<glyph unicode="$" d="M1081 395q0 -152 -86 -262t-288 -139v-193q0 -16 -12.5 -28.5t-28.5 -12.5h-97q-16 0 -28.5 12.5t-12.5 28.5v185q-147 2 -292 28q-25 4 -32 11.5t-7 25.5v84q0 33 34 33h7q213 -18 337 -18q172 0 242 63t70 182q0 76 -51.5 131.5t-194.5 143.5l-199 121 q-147 90 -214.5 177t-67.5 206q0 311 368 356v176q0 16 12.5 28.5t28.5 12.5h97q16 0 28.5 -12.5t12.5 -28.5v-170q164 -6 299 -27q35 -6 34 -34v-89q0 -33 -34 -32h-5q-270 18 -352 18q-162 0 -231.5 -44t-69.5 -154q0 -70 49 -121.5t174 -126.5l189 -113 q178 -104 249.5 -199.5t71.5 -218.5z" />
<glyph unicode="%" horiz-adv-x="1626" d="M1534 317q0 -164 -71.5 -247.5t-203 -83.5t-204 84t-72.5 247v191q0 166 72.5 249t204 83t203 -83t71.5 -249v-191zM1331 1509q0 -6 -10 -26l-856 -1450q-23 -41 -45 -41h-101q-20 0 -20 16q0 14 8 25l856 1450q23 39 47 39h105q16 -1 16 -13zM643 1016 q0 -164 -71.5 -248t-202.5 -84t-204 84t-73 248v190q0 166 72 248t205 82q274 0 274 -330v-190zM1407 317v191q0 215 -147 215q-150 0 -150 -215v-191q0 -215 150 -215q147 0 147 215zM516 1016v190q0 215 -147 215q-150 0 -150 -215v-190q0 -215 150 -215q147 0 147 215z " />
<glyph unicode="&#x26;" horiz-adv-x="1388" d="M1313 23q0 -23 -23 -23h-141q-18 0 -33 14l-102 111q-162 -139 -404 -139q-98 0 -184 20.5t-159.5 62.5t-115.5 116.5t-42 174.5v17q0 125 67.5 213t226.5 190l-14 17q-133 152 -173 235.5t-40 161.5v16q0 160 113.5 243t316.5 83q178 0 293 -85t115 -241v-16 q0 -109 -63.5 -195t-250.5 -211l-57 -38l371 -400q80 141 80 361v28q0 33 32 33h88q35 0 35 -33v-28q0 -281 -129 -471l183 -195q10 -10 10 -22zM844 1194v16q0 188 -238 189q-262 0 -262 -189v-16q0 -63 31 -122.5t143 -184.5l21 -23l69 43q147 90 191.5 145.5t44.5 141.5z M915 231l-407 437q-123 -78 -167 -137.5t-44 -153.5v-17q0 -117 89 -175t224 -58q184 0 305 104z" />
<glyph unicode="'" horiz-adv-x="393" d="M334 1518q0 -10 -2 -17l-119 -387q-10 -39 -39 -39h-96q-18 0 -19 21q0 12 2 18l95 387q8 39 41 39h114q23 1 23 -22z" />
<glyph unicode="(" horiz-adv-x="624" d="M573 -412q0 -16 -20 -16h-96q-29 0 -47 22q-135 164 -211 419t-76 530v26q0 274 75.5 529.5t211.5 419.5q18 23 47 22h96q20 0 20 -16q0 -12 -6 -21q-264 -389 -264 -934v-26q0 -545 264 -934q6 -11 6 -21z" />
<glyph unicode=")" horiz-adv-x="624" d="M530 543q0 -274 -75.5 -529.5t-210.5 -419.5q-18 -23 -47 -22h-97q-20 0 -20 16q0 10 6 21q264 389 264 934v26q0 545 -264 934q-6 8 -6 21q0 16 20 16h97q29 0 47 -22q135 -164 210.5 -419t75.5 -530v-26z" />
<glyph unicode="*" horiz-adv-x="952" d="M858 1225q0 -20 -29 -31l-256 -80l158 -217q10 -14 10 -27q0 -14 -12 -22l-49 -37q-8 -6 -16 -6q-16 0 -31 20l-156 217l-155 -217q-14 -20 -31 -20q-8 0 -17 6l-51 37q-12 8 -12 22q0 12 10 27l160 217l-254 80q-31 12 -31 31q0 2 1 5t1 5l19 59q6 20 26 21q6 0 19 -4 l254 -84v268q0 39 30 39h62q31 0 31 -39l-2 -268l256 84q12 4 18 4q20 0 27 -21l18 -59q2 -4 2 -10z" />
<glyph unicode="+" d="M1085 760q0 -33 -41 -33h-352v-350q0 -41 -33 -41h-81q-33 0 -33 41v350h-350q-41 0 -41 33v82q0 33 41 32h350v353q0 41 33 41h81q33 0 33 -41v-353h352q41 0 41 -32v-82z" />
<glyph unicode="," horiz-adv-x="438" d="M346 242q0 -4 -4 -17l-154 -387q-14 -39 -38 -39h-84q-25 0 -25 25q0 10 2 14l117 387q12 39 41 39h118q27 1 27 -22z" />
<glyph unicode="-" horiz-adv-x="681" d="M584 559q0 -35 -39 -35h-408q-39 0 -39 35v80q0 16 11.5 26.5t27.5 10.5h408q39 0 39 -37v-80z" />
<glyph unicode="." horiz-adv-x="438" d="M307 43q0 -16 -11 -28.5t-28 -12.5h-98q-16 0 -27.5 12.5t-11.5 28.5v190q0 16 11.5 27.5t27.5 11.5h98q16 0 27.5 -11t11.5 -28v-190z" />
<glyph unicode="/" horiz-adv-x="727" d="M682 1493q0 -8 -2 -12l-463 -1440q-12 -41 -37 -41h-104q-29 0 -29 29q0 8 2 12l465 1440q12 41 35 41h104q29 0 29 -29z" />
<glyph unicode="0" d="M1122 623q0 -637 -501 -637q-504 0 -504 637v276q0 637 504 637q502 0 501 -637v-276zM936 623v276q0 479 -315.5 479t-315.5 -479v-276q0 -479 315.5 -479t315.5 479z" />
<glyph unicode="1" d="M764 41q0 -16 -10.5 -28.5t-26.5 -12.5h-113q-37 0 -36 41v1288l-265 -115q-14 -6 -26 -6q-18 0 -19 23v104q0 14 21 27l309 147q25 12 43 13h84q16 0 27.5 -11.5t11.5 -27.5v-1442z" />
<glyph unicode="2" d="M1077 1169q0 -119 -60.5 -208t-205.5 -187l-197 -133q-168 -113 -227 -206t-59 -230v-43h690q41 0 41 -35v-90q0 -37 -41 -37h-813q-16 0 -28.5 11.5t-12.5 27.5v166q0 330 313 538l207 140q129 88 170 142t41 144q0 111 -71.5 161t-235.5 50q-147 0 -363 -30h-8 q-33 0 -33 36v72q0 29 39 37q160 41 365 41q250 0 369.5 -89.5t119.5 -277.5z" />
<glyph unicode="3" d="M1067 424q0 -221 -137 -329.5t-373 -108.5q-168 0 -346 41q-39 8 -39 39v69q0 35 35 35h6q215 -29 344 -29q168 0 244 67.5t76 215.5v43q0 98 -56.5 174t-183.5 76h-373q-39 0 -39 37v71q0 39 39 39h373q133 0 186.5 72t53.5 172v29q0 127 -74 185t-246 58 q-94 0 -344 -30h-6q-35 0 -35 34v72q0 31 39 39q197 41 346 41q246 0 378 -92t132 -307v-29q0 -104 -50 -188t-145 -132q195 -96 195 -321v-43z" />
<glyph unicode="4" d="M1161 442q0 -37 -39 -36h-178v-365q0 -41 -35 -41h-118q-35 0 -35 41v365h-592q-47 0 -65.5 17t-18.5 62v78q0 43 24 76l607 850q20 33 59 33h121q53 0 53 -45v-916h178q39 0 39 -37v-82zM758 561v701q0 12 -8 12h-2q-8 0 -17 -12l-473 -672q-6 -8 -6 -17q0 -12 16 -12 h490z" />
<glyph unicode="5" d="M1081 463q0 -227 -137 -352t-385 -125q-207 0 -360 37q-39 10 -39 40v76q0 31 30 31h11q164 -29 358 -29q334 0 334 322v31q0 152 -99.5 213t-328.5 61h-246q-14 0 -23.5 10t-9.5 25v2l58 682q4 35 41 35h704q41 0 41 -35v-90q0 -33 -41 -33h-588l-32 -442h96 q303 0 459.5 -97.5t156.5 -330.5v-31z" />
<glyph unicode="6" d="M1118 504q0 -248 -126 -383t-374 -135q-236 0 -365.5 144t-129.5 437v359q0 322 133 466t401 144q195 0 353 -35q47 -12 47 -39v-80q0 -37 -37 -36q-2 0 -6 1t-6 1q-168 33 -351 32q-92 0 -157.5 -22.5t-102.5 -58t-57.5 -98t-26.5 -124t-6 -151.5v-23q186 41 309 41 q223 0 362.5 -99.5t139.5 -328.5v-12zM934 504v12q0 154 -89 218.5t-229 64.5q-162 0 -309 -37v-195q0 -240 77 -335t234 -95q152 0 234 85t82 282z" />
<glyph unicode="7" d="M1092 1393q0 -49 -27 -107l-590 -1255q-16 -31 -45 -31h-123q-31 0 -31 31q0 10 7 22l618 1286q2 2 2 9q0 14 -14 14h-699q-41 0 -40 35v86q0 16 12 27.5t28 11.5h748q154 0 154 -129z" />
<glyph unicode="8" d="M1128 424q0 -215 -140 -326.5t-357 -111.5h-21q-217 0 -357 111.5t-140 326.5v39q0 96 52 188t146 144q-94 49 -144 132t-50 187v19q0 203 135 303t358 100h21q223 0 358 -100.5t135 -302.5v-19q0 -104 -50 -187t-144 -132q94 -51 146 -143.5t52 -188.5v-39zM944 1114v19 q0 123 -81 187t-232 64h-21q-152 0 -232.5 -64.5t-80.5 -186.5v-19q0 -104 63.5 -175t196.5 -71h127q133 0 196.5 71t63.5 175zM942 424v39q0 102 -64.5 180t-193.5 78h-127q-129 0 -193.5 -78t-64.5 -180v-39q0 -133 81 -208t230 -75h21q150 0 230.5 75t80.5 208z" />
<glyph unicode="9" d="M1100 596q0 -322 -133 -466t-402 -144q-195 0 -352 34q-49 12 -49 39v80q0 37 37 37q2 0 6 -1t6 -1q168 -33 350 -33q92 0 157.5 22.5t103.5 58.5t58.5 98.5t26.5 124t6 151.5v22q-190 -41 -309 -40q-225 0 -364.5 99t-139.5 329v12q0 248 127 383t373 135 q238 0 368 -144.5t130 -437.5v-358zM913 760l2 194q0 240 -76.5 335t-234.5 95q-154 0 -235.5 -83.5t-81.5 -282.5v-12q0 -154 89 -218.5t228 -64.5q162 0 309 37z" />
<glyph unicode=":" horiz-adv-x="448" d="M313 895q0 -16 -12 -27.5t-29 -11.5h-96q-16 0 -28.5 11.5t-12.5 27.5v190q0 16 12.5 28.5t28.5 12.5h96q16 0 28.5 -12t12.5 -29v-190zM313 39q0 -16 -12 -27.5t-29 -11.5h-96q-16 0 -28.5 11.5t-12.5 27.5v192q0 16 12.5 27.5t28.5 11.5h96q16 0 28.5 -11t12.5 -28 v-192z" />
<glyph unicode=";" horiz-adv-x="448" d="M313 895q0 -39 -39 -39h-100q-16 0 -27.5 11.5t-11.5 27.5v190q0 16 11.5 28.5t27.5 12.5h100q16 0 27.5 -12t11.5 -29v-190zM322 240q0 -4 -5 -17l-153 -387q-8 -23 -15.5 -32t-23.5 -9h-82q-25 0 -25 27q0 10 2 14l117 387q12 39 41 39h117q27 1 27 -22z" />
<glyph unicode="&#x3c;" d="M987 307q0 -20 -24 -20h-119q-31 0 -64 26l-493 418q-37 31 -37 70t37 69l493 418q33 27 64 27h119q25 0 24 -21q0 -16 -20 -34l-537 -459l537 -459q20 -19 20 -35z" />
<glyph unicode="=" d="M1055 987q0 -33 -41 -33h-789q-41 0 -41 33v82q0 33 41 33h789q41 0 41 -33v-82zM1055 535q0 -33 -41 -33h-789q-41 0 -41 33v81q0 33 41 33h789q41 0 41 -33v-81z" />
<glyph unicode="&#x3e;" d="M989 801q0 -39 -37 -70l-493 -418q-33 -27 -64 -26h-119q-25 0 -24 20q0 16 20 35l537 459l-537 459q-20 18 -20 34q0 20 24 21h119q31 0 64 -27l493 -418q37 -30 37 -69z" />
<glyph unicode="?" horiz-adv-x="913" d="M791 1202q0 -78 -38 -151.5t-149 -198.5l-92 -104q-47 -53 -64.5 -76t-31 -57.5t-13.5 -77.5v-101q0 -16 -12 -27.5t-29 -11.5h-90q-16 0 -27.5 11.5t-11.5 27.5v101q0 98 28 159.5t108 149.5l94 104q76 82 101.5 135.5t25.5 116.5v25q0 80 -50.5 113.5t-158.5 33.5 q-111 0 -277 -18h-6q-31 0 -30 35v71q0 41 34 47q137 27 279 27q410 0 410 -309v-25zM406 39q0 -39 -39 -39h-99q-16 0 -28.5 11.5t-12.5 27.5v190q0 16 12.5 28.5t28.5 12.5h99q16 0 27.5 -12t11.5 -29v-190z" />
<glyph unicode="@" horiz-adv-x="1570" d="M1491 750q0 -360 -193 -508q-172 -131 -553 -131q-154 0 -241.5 74.5t-87.5 209.5q0 25 2 37l22 240q16 158 111.5 241.5t261.5 83.5q117 0 262 -30q43 -10 43 -43v-9l-61 -641q178 27 238.5 142.5t60.5 333.5q0 205 -131 340t-373 135q-264 0 -422 -141.5t-180 -378.5 l-31 -312q-4 -45 -4 -65q0 -195 132 -316t384 -121q123 0 295 15h2l19 -15v-65q0 -25 -33 -29q-141 -16 -285 -16q-293 0 -469 150.5t-176 398.5q0 43 2 63l31 320q27 285 223.5 457.5t517.5 172.5q301 0 467 -173.5t166 -419.5zM936 838q-86 12 -139 12q-90 0 -133 -44 t-54 -138l-22 -234q-2 -12 -2 -35q0 -141 168 -141h43q59 0 88 4z" />
<glyph unicode="A" horiz-adv-x="1296" d="M1237 33q0 -33 -35 -33h-121q-27 0 -34 31l-134 471h-530l-131 -471q-8 -31 -37 -31h-121q-35 0 -35 33q0 10 2 14l379 1333q43 156 209 156q164 0 207 -154l379 -1335q2 -4 2 -14zM874 664l-186 673q-10 37 -39 37q-31 0 -41 -37l-186 -673h452z" />
<glyph unicode="B" horiz-adv-x="1261" d="M1159 420q0 -434 -598 -434q-217 0 -334 18q-68 8 -67 76v1364q0 70 65 76q135 16 326 16q600 0 600 -395v-33q0 -113 -57.5 -197t-161.5 -125q106 -37 166.5 -125t60.5 -206v-35zM965 1108v33q0 137 -103.5 187t-310.5 50q-31 0 -203 -6v-508h316q301 0 301 244z M973 420v35q0 260 -309 260h-316v-563q20 0 96 -4.5t117 -4.5q207 0 309.5 59.5t102.5 217.5z" />
<glyph unicode="C" horiz-adv-x="1116" d="M1044 53q0 -33 -40 -41q-139 -27 -340 -26q-102 0 -192.5 30.5t-171.5 98t-129 196.5t-48 307v285q0 180 48 309t130 197t171 97.5t192 29.5q137 0 344 -33q33 -4 32 -26v-105q0 -23 -24 -22h-6q-221 18 -344 18q-356 0 -357 -465v-285q0 -244 96.5 -354t260.5 -110 q141 0 338 16h8q33 0 32 -33v-84z" />
<glyph unicode="D" horiz-adv-x="1312" d="M1196 623q0 -319 -164 -478t-457 -159q-254 0 -372 20q-43 6 -43 51v1407q0 45 43 52q119 20 372 20q295 0 458 -157.5t163 -479.5v-276zM1010 623v276q0 260 -116 368.5t-319 108.5q-125 0 -227 -6v-1220q66 -4 227 -5q435 1 435 478z" />
<glyph unicode="E" horiz-adv-x="1128" d="M1016 25q0 -25 -21 -29q-98 -10 -399 -10q-219 0 -327.5 90t-108.5 291v788q0 201 108.5 291t327.5 90q270 0 399 -12q20 -4 21 -29v-102q0 -25 -23 -25h-395q-156 0 -204 -45t-48 -168v-285h629q16 0 28.5 -12t12.5 -29v-77q0 -16 -12.5 -28.5t-28.5 -12.5h-629v-344 q0 -123 48 -168t204 -45h395q23 0 23 -25v-104z" />
<glyph unicode="F" horiz-adv-x="1128" d="M1016 752q0 -16 -12.5 -28.5t-28.5 -12.5h-629v-670q0 -16 -12 -28.5t-29 -12.5h-104q-16 0 -28.5 12.5t-12.5 28.5v1114q0 201 108.5 291t327.5 90q270 0 399 -12q20 -4 21 -29v-102q0 -25 -23 -25h-395q-156 0 -204 -45t-48 -168v-285h629q16 0 28.5 -12t12.5 -29v-77z " />
<glyph unicode="G" horiz-adv-x="1253" d="M1094 61q0 -39 -37 -45q-188 -31 -408 -30q-100 0 -191 34.5t-169 106.5t-124 200t-46 296v274q0 178 48 308t130 200t173 100.5t198 30.5q207 0 389 -29q35 -4 35 -30v-103q0 -20 -27 -20h-8q-170 14 -389 14q-362 0 -363 -471v-274q0 -240 95.5 -355.5t248.5 -115.5 q111 0 258 12v586q0 41 37 41h111q16 0 27.5 -12.5t11.5 -28.5v-689z" />
<glyph unicode="H" horiz-adv-x="1392" d="M1233 41q0 -16 -12.5 -28.5t-28.5 -12.5h-105q-16 0 -28 12.5t-12 28.5v680h-701v-680q0 -16 -12 -28.5t-29 -12.5h-104q-16 0 -28.5 12.5t-12.5 28.5v1440q0 16 12 28.5t29 12.5h104q16 0 28.5 -12.5t12.5 -28.5v-594h701v594q0 16 12 28.5t28 12.5h105q16 0 28.5 -12.5 t12.5 -28.5v-1440z" />
<glyph unicode="I" horiz-adv-x="546" d="M367 41q0 -16 -10.5 -28.5t-26.5 -12.5h-113q-14 0 -25.5 12.5t-11.5 28.5v1442q0 39 37 39h113q16 0 26.5 -11.5t10.5 -27.5v-1442z" />
<glyph unicode="J" horiz-adv-x="526" d="M367 -76q0 -150 -76 -221.5t-242 -71.5q-76 0 -108 17q-12 6 -13 22v76q0 35 41 35h80q78 0 104.5 31.5t26.5 111.5v1559q0 16 12.5 27.5t26.5 11.5h109q16 0 27.5 -11.5t11.5 -27.5v-1559z" />
<glyph unicode="K" horiz-adv-x="1243" d="M1155 20q0 -20 -27 -20h-159q-27 0 -45 20l-578 703v-682q0 -16 -10 -28.5t-27 -12.5h-112q-14 0 -25.5 12.5t-11.5 28.5v1442q0 16 11 27.5t28 11.5h108q16 0 27.5 -11.5t11.5 -27.5v-662l590 682q18 18 41 19h147q29 0 29 -23q0 -12 -8 -20l-617 -697l617 -737 q10 -11 10 -25z" />
<glyph unicode="L" horiz-adv-x="1052" d="M1016 33q0 -25 -21 -29q-119 -18 -399 -18q-74 0 -130 7t-116.5 30.5t-99.5 63.5t-64.5 110.5t-25.5 169.5v1114q0 16 12 28.5t29 12.5h104q16 0 28.5 -12.5t12.5 -28.5v-1114q0 -123 48 -168t204 -45h395q23 0 23 -25v-96z" />
<glyph unicode="M" horiz-adv-x="1558" d="M1401 41q0 -16 -12.5 -28.5t-28.5 -12.5h-100q-16 0 -28.5 12.5t-12.5 28.5v1214q0 6 -2.5 6.5t-4.5 -4.5l-292 -606q-16 -33 -36 -46t-57 -13h-94q-37 0 -56.5 13t-35.5 46l-293 606q-2 4 -4 4.5t-2 -6.5v-1214q0 -16 -12.5 -28.5t-28.5 -12.5h-100q-16 0 -28.5 12.5 t-12.5 28.5v1421q0 25 17.5 42.5t41.5 17.5h133q49 0 66 -35l338 -703q10 -23 24.5 -22.5t24.5 22.5l338 703q16 35 65 35h133q25 0 42.5 -17.5t17.5 -42.5v-1421z" />
<glyph unicode="N" horiz-adv-x="1392" d="M1233 59q0 -25 -17.5 -42t-41.5 -17h-127q-49 0 -66 33l-633 1202q-4 6 -6 6t-2 -6v-1196q0 -16 -11.5 -27.5t-25.5 -11.5h-106q-37 0 -37 25v1439q0 25 17.5 41.5t41.5 16.5h113q41 0 56 -8.5t28 -32.5l628 -1196l5 -6q2 0 2 6v1198q0 16 11 27.5t25 11.5h109 q37 0 37 -39v-1424z" />
<glyph unicode="O" horiz-adv-x="1353" d="M1231 629q0 -328 -149.5 -485.5t-403.5 -157.5t-404.5 158.5t-150.5 484.5v264q0 326 150.5 484.5t404.5 158.5t403.5 -157.5t149.5 -485.5v-264zM1042 629v264q0 475 -364 475q-367 0 -367 -475v-264q0 -475 367 -475q364 0 364 475z" />
<glyph unicode="P" horiz-adv-x="1214" d="M1122 1065q0 -459 -573 -459q-72 0 -205 10v-575q0 -16 -10 -28.5t-27 -12.5h-110q-14 0 -25.5 12.5t-11.5 28.5v1427q0 45 49 52q141 16 340 16q573 0 573 -444v-27zM936 1065v27q0 154 -93 220t-294 66q-106 0 -205 -8v-600q188 -8 205 -8q209 0 298 70.5t89 232.5z " />
<glyph unicode="Q" horiz-adv-x="1353" d="M1231 629q0 -297 -124 -455t-341 -184v-88q0 -76 23.5 -97.5t103.5 -21.5h121q45 0 45 -33v-69q0 -49 -166 -50q-160 0 -233.5 57.5t-73.5 211.5v92q-215 27 -339 184.5t-124 452.5v264q0 326 150.5 484.5t404.5 158.5t403.5 -157.5t149.5 -485.5v-264zM1042 629v264 q0 475 -364 475q-367 0 -367 -475v-264q0 -475 367 -475q364 0 364 475z" />
<glyph unicode="R" horiz-adv-x="1280" d="M1200 27q0 -27 -26 -27h-132q-37 0 -53 27l-366 610h-19h-35q-61 0 -225 6v-602q0 -16 -10 -28.5t-27 -12.5h-110q-14 0 -25.5 12.5t-11.5 28.5v1434q0 39 49 45q141 16 360 16q573 0 574 -440v-15q0 -166 -87 -270t-235 -143l373 -623q6 -8 6 -18zM958 1081v15 q0 150 -95 211t-294 61q-176 0 -225 -6v-561q180 -4 225 -4q199 0 294 62t95 222z" />
<glyph unicode="S" horiz-adv-x="1126" d="M1024 395q0 -80 -23.5 -147.5t-77 -130t-156.5 -97t-249 -34.5q-160 0 -340 28q-25 4 -32 11.5t-7 25.5v82q0 33 35 33h6q141 -12 338 -12q174 0 242.5 62.5t68.5 178.5q0 76 -51 131.5t-194 143.5l-199 121q-147 90 -215 177t-68 206q0 362 490 362q201 0 356 -25 q35 -6 35 -34v-88q0 -33 -35 -33h-4q-180 12 -352 12q-162 0 -231.5 -42t-69.5 -152q0 -70 49 -121.5t174 -126.5l188 -113q178 -104 250 -199.5t72 -218.5z" />
<glyph unicode="T" horiz-adv-x="1208" d="M1137 1395q0 -33 -39 -33h-400v-1321q0 -16 -10 -28.5t-26 -12.5h-113q-14 0 -25.5 12.5t-11.5 28.5v1321h-399q-41 0 -41 33v90q0 14 12 25.5t29 11.5h985q39 0 39 -37v-90z" />
<glyph unicode="U" horiz-adv-x="1355" d="M1202 553q0 -567 -524 -567t-524 567v930q0 16 11 27.5t28 11.5h110q16 0 27.5 -11.5t11.5 -27.5v-930q0 -207 76 -307.5t260 -100.5t260 99.5t76 308.5v930q0 16 11 27.5t28 11.5h110q16 0 27.5 -11.5t11.5 -27.5v-930z" />
<glyph unicode="V" horiz-adv-x="1316" d="M1247 1487q0 -8 -2 -12l-377 -1334q-45 -156 -208.5 -155.5t-208.5 155.5l-379 1334q-2 4 -2 12q0 35 36 35h119q29 0 37 -31l356 -1305q12 -43 41 -43q27 0 39 43l359 1305q8 31 35 31h120q35 0 35 -35z" />
<glyph unicode="W" horiz-adv-x="1689" d="M1620 1487v-6l-227 -1385q-18 -104 -127 -104h-88q-43 0 -74 27.5t-43 74.5l-201 758q-4 18 -12 18h-2h-2q-8 0 -13 -18l-202 -758q-12 -47 -43 -74.5t-74 -27.5h-86q-109 0 -127 104l-227 1385v6q0 35 34 35h119q29 0 35 -35l199 -1305q6 -31 10 -30q8 0 14 30l201 758 q20 82 96 82h131q76 0 97 -82l200 -758q6 -31 15 -30q4 0 10 30l199 1305q6 35 34 35h119q35 0 35 -35z" />
<glyph unicode="X" horiz-adv-x="1323" d="M1237 29q0 -29 -33 -29h-129q-23 0 -43 31l-375 596l-366 -596q-20 -31 -43 -31h-121q-33 0 -33 31q0 10 6 20l455 723l-451 699q-6 10 -6 20q0 29 31 29h133q25 0 37 -21l369 -583l356 583q14 20 39 21h121q33 0 33 -31q0 -8 -7 -18l-440 -703l461 -719q6 -10 6 -22z " />
<glyph unicode="Y" horiz-adv-x="1193" d="M1124 1493q0 -10 -6 -23l-317 -712q-49 -106 -111 -135v-582q0 -16 -11 -28.5t-26 -12.5h-112q-14 0 -25.5 12.5t-11.5 28.5v582q-59 23 -111 135l-315 712q-6 12 -6 23q0 29 34 29h125q25 0 37 -29l283 -664q23 -53 47.5 -53t46.5 53l285 664q12 29 35 29h125 q34 0 34 -29z" />
<glyph unicode="Z" horiz-adv-x="1222" d="M1114 37q0 -14 -12 -25.5t-29 -11.5h-788q-98 0 -134 28.5t-36 110.5q0 74 30 119l734 1067q6 10 6 16q0 14 -21 15h-680q-41 0 -41 35v96q0 35 41 35h729q92 0 133 -28t41 -108q0 -72 -32 -120l-731 -1067q-6 -10 -7 -19q0 -12 21 -12h735q41 0 41 -35v-96z" />
<glyph unicode="[" horiz-adv-x="669" d="M621 -356q0 -16 -12.5 -28.5t-28.5 -12.5h-381q-14 0 -24.5 11t-10.5 28v1841q0 16 10 27.5t25 11.5h381q16 0 28.5 -12.5t12.5 -28.5v-68q0 -16 -12.5 -28.5t-28.5 -12.5h-234v-1620h234q16 0 28.5 -12t12.5 -29v-67z" />
<glyph unicode="\" horiz-adv-x="727" d="M682 29q0 -29 -29 -29h-104q-25 0 -37 41l-463 1440q-2 4 -2 12q0 29 29 29h104q23 0 35 -41l465 -1440q2 -4 2 -12z" />
<glyph unicode="]" horiz-adv-x="669" d="M506 -358q0 -16 -10.5 -27.5t-24.5 -11.5h-381q-16 0 -28.5 12t-12.5 29v67q0 16 12.5 28.5t28.5 12.5h234v1620h-234q-16 0 -28.5 12.5t-12.5 28.5v68q0 16 12.5 28.5t28.5 12.5h381q14 0 24.5 -11.5t10.5 -27.5v-1841z" />
<glyph unicode="^" d="M1034 1171q0 -18 -22 -18h-123q-27 0 -58 37l-210 246l-211 -246q-31 -37 -58 -37h-123q-23 0 -22 18q0 12 8 23l236 305q29 37 61 37h217q33 0 62 -37l235 -305q8 -11 8 -23z" />
<glyph unicode="_" horiz-adv-x="1011" d="M1075 -184q0 -33 -41 -33h-1054q-41 0 -41 33v51q0 33 41 33h1054q41 0 41 -33v-51z" />
<glyph unicode="`" horiz-adv-x="761" d="M498 1290q0 -14 -19 -14h-110q-20 0 -47 31l-232 258q-8 8 -8 16q0 14 22 14h136q27 0 51 -30l198 -254q9 -9 9 -21z" />
<glyph unicode="a" horiz-adv-x="1062" d="M924 41q0 -16 -12.5 -28.5t-28.5 -12.5h-95q-16 0 -28 12.5t-12 28.5v45q-172 -100 -316 -100q-147 0 -240.5 76.5t-93.5 254.5v25q0 170 114 251t380 81h151v82q0 129 -49 180t-170 51q-150 0 -313 -16h-10q-37 0 -37 33v71q0 33 43 39q156 27 317 27q399 0 400 -385 v-715zM743 215v330h-151q-182 0 -247.5 -44t-65.5 -157v-25q0 -104 46 -145t142 -41q124 0 276 82z" />
<glyph unicode="b" horiz-adv-x="1107" d="M1006 492q0 -238 -112 -372t-335 -134q-197 0 -377 34q-27 4 -35 14.5t-8 33.5v1433q0 39 37 39h105q16 0 27 -11t11 -28v-381q111 20 240 21q221 0 334 -129t113 -373v-147zM825 492v147q0 172 -60 258t-206 86q-162 0 -240 -14v-813q139 -12 240 -13q145 0 205.5 86.5 t60.5 262.5z" />
<glyph unicode="c" horiz-adv-x="925" d="M836 53q0 -37 -41 -45q-123 -23 -256 -22q-207 0 -322 134t-115 363v160q0 229 115 363.5t322 134.5q133 0 256 -23q25 -4 33 -13t8 -32v-74q0 -31 -35 -30h-8q-127 14 -254 14q-256 0 -256 -340v-160q0 -340 256 -340q127 0 254 15h8q35 0 35 -31v-74z" />
<glyph unicode="d" horiz-adv-x="1107" d="M969 68q0 -23 -8.5 -33t-34.5 -15q-180 -35 -377 -34q-223 0 -335 134t-112 372v147q0 244 113 373t334 129q125 0 239 -21v381q0 16 11.5 27.5t27.5 11.5h105q16 0 26.5 -11t10.5 -28v-1433zM788 156v813q-80 14 -239 14q-145 0 -205.5 -86t-60.5 -258v-147 q0 -176 60 -262.5t206 -86.5q100 1 239 13z" />
<glyph unicode="e" horiz-adv-x="1114" d="M1008 551q0 -45 -39 -45h-686v-29q0 -178 69.5 -256t214.5 -78q217 0 365 23h10q33 0 33 -29v-69q0 -39 -41 -48q-180 -35 -367 -34q-94 0 -173 24.5t-146.5 77.5t-106.5 152.5t-39 236.5v185q0 223 119 351t336 128q219 0 335 -128t116 -351v-111zM825 643v19 q0 170 -65.5 245.5t-202.5 75.5q-274 0 -274 -321v-19h542z" />
<glyph unicode="f" horiz-adv-x="780" d="M729 1446q0 -31 -37 -31h-98q-74 0 -99.5 -28.5t-25.5 -112.5v-148h215q16 0 27.5 -10t11.5 -26v-80q0 -35 -39 -35h-215v-934q0 -16 -12.5 -28.5t-26.5 -12.5h-100q-16 0 -28.5 12.5t-12.5 28.5v934l-199 22q-39 4 -39 37v56q0 16 11.5 26t27.5 10h199v148 q0 158 71.5 221.5t214.5 63.5q61 0 115 -13q39 -10 39 -33v-67z" />
<glyph unicode="g" horiz-adv-x="1144" d="M1071 1028q0 -33 -37 -39l-73 -14q70 -74 69 -211v-16q0 -350 -455 -351q-139 0 -237 41q-51 -25 -51 -69q0 -49 63 -66l305 -78q74 -18 120 -32.5t104.5 -40t90 -54t55.5 -73.5t24 -101v-16q0 -317 -467 -318q-238 0 -354.5 85t-116.5 241v18q0 162 129 261l-15 6 q-94 41 -94 159v2q0 100 84 148q-94 88 -94 238v16q0 158 105.5 260t348.5 102h449q18 0 32.5 -13t14.5 -32v-53zM852 748v16q0 102 -61.5 160.5t-215.5 58.5q-158 0 -217 -59.5t-59 -159.5v-16q0 -209 276 -209q156 0 216.5 54.5t60.5 154.5zM868 -92v16q0 57 -53 90 t-197 70l-231 59q-51 -43 -75.5 -89t-24.5 -120v-18q0 -92 66.5 -139t228.5 -47q166 0 226 43t60 135z" />
<glyph unicode="h" horiz-adv-x="1140" d="M1001 41q0 -16 -12 -28.5t-28 -12.5h-99q-16 0 -28.5 12.5t-12.5 28.5v674q0 145 -56 206.5t-163 61.5q-156 0 -283 -57v-885q0 -16 -12 -28.5t-28 -12.5h-101q-16 0 -27.5 12.5t-11.5 28.5v1458q0 16 11.5 28.5t27.5 12.5h103q16 0 27 -12t11 -29v-422q145 63 314 64 q172 0 270 -104.5t98 -321.5v-674z" />
<glyph unicode="i" horiz-adv-x="505" d="M346 1348q0 -16 -12 -28.5t-29 -12.5h-104q-16 0 -28.5 12t-12.5 29v163q0 16 12 28.5t29 12.5h104q16 0 28.5 -12t12.5 -29v-163zM342 41q0 -16 -12.5 -28.5t-28.5 -12.5h-98q-16 0 -28.5 12.5t-12.5 28.5v1044q0 16 12 28.5t29 12.5h98q16 0 28.5 -12t12.5 -29v-1044z " />
<glyph unicode="j" horiz-adv-x="505" d="M346 1346q0 -16 -12 -27.5t-29 -11.5h-104q-16 0 -28.5 11t-12.5 28v165q0 16 12 28.5t29 12.5h104q16 0 28.5 -12t12.5 -29v-165zM342 -131q0 -154 -62.5 -213t-193.5 -59q-55 0 -111 8q-37 6 -36 33v75q0 29 43 29h84q57 0 76.5 24.5t19.5 102.5v1216q0 16 10 28.5 t27 12.5h106q37 0 37 -41v-1216z" />
<glyph unicode="k" horiz-adv-x="1015" d="M944 27q0 -27 -22 -27h-148q-27 0 -47 27l-408 503v-489q0 -16 -12 -28.5t-28 -12.5h-99q-16 0 -28.5 12.5t-12.5 28.5v1458q0 16 12.5 28.5t28.5 12.5h99q16 0 28 -12t12 -29v-852l410 461q16 18 41 18h143q31 0 31 -22q0 -12 -10 -23l-451 -487l455 -549q6 -6 6 -18z " />
<glyph unicode="l" horiz-adv-x="499" d="M340 41q0 -16 -10.5 -28.5t-26.5 -12.5h-106q-14 0 -25.5 12.5t-11.5 28.5v1460q0 39 37 39h106q16 0 26.5 -11t10.5 -28v-1460z" />
<glyph unicode="m" horiz-adv-x="1634" d="M1495 41q0 -16 -12.5 -28.5t-28.5 -12.5h-98q-16 0 -28.5 12.5t-12.5 28.5v725q0 219 -187 219q-96 0 -239 -55q18 -68 18 -160v-729q0 -16 -10 -28.5t-27 -12.5h-108q-35 0 -35 41v729q0 127 -36 171t-122 44q-90 0 -250 -80v-864q0 -16 -10 -28.5t-26 -12.5h-109 q-35 0 -35 41v1044q0 16 11.5 28.5t27.5 12.5h103q16 0 27 -12t11 -29v-38q154 96 299 96q133 0 205 -84q178 84 340 84q332 0 332 -377v-725z" />
<glyph unicode="n" horiz-adv-x="1140" d="M1001 41q0 -16 -12 -28.5t-28 -12.5h-99q-16 0 -28.5 12.5t-12.5 28.5v674q0 152 -52 211t-173 59q-117 0 -277 -80v-864q0 -16 -12 -28.5t-28 -12.5h-101q-16 0 -27.5 12.5t-11.5 28.5v1044q0 16 11.5 28.5t27.5 12.5h103q16 0 27 -12t11 -29v-38q168 94 326 94 q356 0 356 -426v-674z" />
<glyph unicode="o" horiz-adv-x="1116" d="M1014 485q0 -231 -118 -365t-339 -134t-338 134t-117 365v156q0 231 117 365.5t338 134.5t339 -134.5t118 -365.5v-156zM834 485v156q0 342 -277 342q-274 0 -274 -342v-156q0 -342 274 -342q139 0 208 89t69 253z" />
<glyph unicode="p" horiz-adv-x="1107" d="M1006 487q0 -244 -113 -372.5t-334 -128.5q-115 0 -240 22v-370q0 -16 -11 -27.5t-27 -11.5h-105q-16 0 -26.5 11t-10.5 28v1409q0 20 8.5 30t34.5 17q193 47 377 47q223 0 335 -134.5t112 -371.5v-148zM825 487v148q0 172 -60 263t-206 91q-125 0 -240 -20v-811 q113 -20 240 -21q143 0 204.5 88t61.5 262z" />
<glyph unicode="q" horiz-adv-x="1107" d="M969 -362q0 -39 -37 -39h-105q-16 0 -27.5 11t-11.5 28v370q-123 -23 -239 -22q-221 0 -334 129t-113 372v148q0 238 112 372t335 134q184 0 377 -47q27 -6 35 -15.5t8 -31.5v-1409zM788 158v811q-111 20 -239 20q-145 0 -205.5 -90t-60.5 -264v-148q0 -174 61.5 -262 t204.5 -88q126 1 239 21z" />
<glyph unicode="r" horiz-adv-x="700" d="M645 1020q0 -35 -43 -35q-139 0 -283 -86v-858q0 -16 -12 -28.5t-28 -12.5h-101q-16 0 -27.5 12.5t-11.5 28.5v1044q0 16 11.5 28.5t27.5 12.5h96q16 0 27.5 -12t11.5 -29v-43q141 98 289 99q43 0 43 -37v-84z" />
<glyph unicode="s" horiz-adv-x="954" d="M852 283q0 -152 -101.5 -224.5t-281.5 -72.5q-199 0 -324 30q-43 10 -43 41v72q0 31 37 31h8q180 -23 322 -23q104 0 153.5 33t49.5 113q0 45 -33 80.5t-121 89.5l-207 122q-209 127 -209 293q0 272 371 273q164 0 320 -27q39 -6 38 -41v-67q0 -35 -34 -35h-6 q-190 16 -318 16q-98 0 -144 -23.5t-46 -95.5q0 -43 32.5 -76.5t108.5 -78.5l203 -121q125 -74 175 -145.5t50 -163.5z" />
<glyph unicode="t" horiz-adv-x="788" d="M737 31q0 -29 -37 -35q-68 -10 -133 -10q-150 0 -214 56t-64 218v715l-199 22q-39 4 -39 37v56q0 37 39 36h199v201q0 35 37 41l106 16h6q31 0 31 -34v-224h221q16 0 28.5 -12t12.5 -29v-69q0 -16 -12 -28.5t-29 -12.5h-221v-715q0 -82 22.5 -105.5t88.5 -23.5h114 q43 0 43 -29v-71z" />
<glyph unicode="u" horiz-adv-x="1140" d="M1001 41q0 -16 -11 -28.5t-27 -12.5h-103q-16 0 -27.5 12.5t-11.5 28.5v39q-168 -94 -325 -94q-356 0 -357 426v673q0 16 12.5 28.5t28.5 12.5h99q16 0 28 -12t12 -29v-673q0 -152 52.5 -211.5t173.5 -59.5q117 0 276 80v864q0 16 12.5 28.5t28.5 12.5h101q16 0 27 -12 t11 -29v-1044z" />
<glyph unicode="v" horiz-adv-x="1085" d="M1006 1092q0 -8 -2 -15l-277 -975q-33 -117 -184.5 -116.5t-184.5 116.5l-276 975q-2 6 -2 15q0 35 33 34h112q27 0 39 -39l236 -892q14 -59 42.5 -59.5t43.5 59.5l235 892q12 39 39 39h113q33 1 33 -34z" />
<glyph unicode="w" horiz-adv-x="1609" d="M1532 1085v-8l-199 -950q-20 -94 -49 -117.5t-123 -23.5q-82 0 -112.5 26.5t-55.5 120.5l-178 696q-4 14 -10 14.5t-10 -14.5l-179 -696q-23 -90 -55.5 -118.5t-111.5 -28.5q-94 0 -123 23.5t-50 117.5l-198 950v8q0 16 11 28.5t28 12.5h110q31 0 35 -32l170 -934 q4 -25 17 -25q10 0 16 25l201 786q16 61 82 62h114q66 0 82 -62l201 -786q6 -25 16 -25q12 0 17 25l170 934q4 33 34 32h111q16 0 27.5 -12.5t11.5 -28.5z" />
<glyph unicode="x" horiz-adv-x="1120" d="M1047 23q0 -23 -27 -23h-141q-18 0 -29 16l-293 428l-293 -424q-14 -20 -35 -20h-123q-25 0 -24 20q0 14 10 27l369 526l-348 502q-10 16 -11 27q0 25 31 24h133q23 0 41 -28l260 -385l262 385q20 29 43 28h119q27 0 27 -24q0 -10 -10 -27l-344 -489l374 -539 q9 -10 9 -24z" />
<glyph unicode="y" horiz-adv-x="1093" d="M1014 1092q0 -10 -2 -15l-338 -1179q-49 -172 -126 -238t-249 -66q-94 0 -172 19q-43 10 -43 33v75q0 33 39 33h6q135 -12 182 -12q90 0 134 35t69 139l21 84h-29q-55 0 -91 27.5t-61 113.5l-272 936q-2 4 -2 15q0 35 37 34h112q27 0 35 -32l242 -889q10 -45 39 -45h33 l249 936q8 31 39 30h115q33 1 33 -34z" />
<glyph unicode="z" horiz-adv-x="987" d="M885 41q0 -16 -12.5 -28.5t-28.5 -12.5h-619q-61 0 -93 33t-32 80v39q0 72 47 133l529 657q8 12 8 19q0 14 -20 14h-498q-16 0 -28.5 12t-12.5 29v69q0 16 12.5 28.5t28.5 12.5h602q115 0 115 -100v-49q0 -57 -47 -113l-539 -674q-10 -10 -10 -22q0 -16 16 -16h541 q16 0 28.5 -12.5t12.5 -28.5v-70z" />
<glyph unicode="{" horiz-adv-x="677" d="M623 -356q0 -16 -12.5 -28.5t-28.5 -12.5h-105q-186 0 -249.5 59t-63.5 223v361q0 96 -25.5 151.5t-97.5 104.5v119q72 51 97.5 104t25.5 149v365q0 164 63.5 223.5t249.5 59.5h103q16 0 28.5 -12.5t12.5 -28.5v-68q0 -16 -12.5 -28.5t-28.5 -12.5h-93 q-90 0 -115.5 -25.5t-25.5 -107.5v-365q0 -113 -32.5 -186.5t-112.5 -128.5q80 -55 112.5 -129t32.5 -184v-361q0 -82 25.5 -107.5t115.5 -25.5h95q16 0 28.5 -12t12.5 -29v-67z" />
<glyph unicode="|" horiz-adv-x="509" d="M346 -358q0 -16 -11 -27.5t-26 -11.5h-106q-14 0 -26.5 12t-12.5 27v1841q0 16 12 27.5t27 11.5h106q14 0 25.5 -11.5t11.5 -27.5v-1841z" />
<glyph unicode="}" horiz-adv-x="677" d="M637 502q-72 -49 -97.5 -104.5t-25.5 -151.5v-361q0 -164 -63.5 -223t-249.5 -59h-105q-16 0 -28.5 12t-12.5 29v67q0 16 12.5 28.5t28.5 12.5h94q90 0 116 25.5t26 107.5v361q0 111 32.5 184.5t112.5 128.5q-80 55 -112.5 129t-32.5 186v365q0 82 -25.5 107.5 t-116.5 25.5h-92q-16 0 -28.5 12.5t-12.5 28.5v68q0 16 12.5 28.5t28.5 12.5h103q186 0 249.5 -59.5t63.5 -223.5v-365q0 -96 25.5 -149t97.5 -104v-119z" />
<glyph unicode="~" d="M1053 956q0 -131 -52.5 -196.5t-171.5 -65.5q-82 0 -155 58l-150 118q-86 59 -108 64q-53 0 -69.5 -28.5t-16.5 -92.5v-53q0 -16 -12.5 -28.5t-28.5 -12.5h-60q-16 0 -28.5 12t-12.5 29v53q0 131 58.5 198.5t169.5 67.5q82 0 153 -57l174 -139q49 -41 86 -41 q55 0 68.5 23.5t13.5 90.5v58q0 16 12.5 28.5t28.5 12.5h60q16 0 28.5 -12.5t12.5 -28.5v-58z" />
<glyph unicode="&#xa0;" />
<glyph unicode="&#xa1;" horiz-adv-x="444" d="M313 895q0 -16 -11 -27.5t-28 -11.5h-98q-16 0 -27.5 11.5t-11.5 27.5v192q0 39 39 39h98q16 0 27.5 -11t11.5 -28v-192zM276 -416h-104q-16 0 -27.5 11.5t-11.5 27.5l14 1065q0 16 12.5 27.5t28.5 11.5h72q16 0 28.5 -12.5t12.5 -26.5l16 -1065q0 -16 -12.5 -27.5 t-28.5 -11.5z" />
<glyph unicode="&#xa2;" d="M987 53q0 -37 -41 -45q-92 -14 -192 -20v-185q0 -16 -12.5 -28.5t-28.5 -12.5h-84q-16 0 -28.5 12.5t-12.5 28.5v193q-160 33 -247 161t-87 326v160q0 199 87 327t247 160v191q0 16 12 28.5t29 12.5h84q16 0 28.5 -12.5t12.5 -28.5v-182q100 -6 192 -21q25 -4 33 -13 t8 -32v-74q0 -31 -35 -30h-8q-143 16 -254 16q-256 0 -256 -342v-160q0 -342 256 -342q111 0 254 17h8q35 0 35 -31v-74z" />
<glyph unicode="&#xa3;" d="M1096 35q0 -35 -41 -35h-817q-35 0 -35 31v80q0 12 20 47q63 109 64 241v312h-107q-37 0 -37 37v86q0 14 12.5 25t28.5 11h103v134q0 266 100 391t352 125q158 0 318 -27q25 -4 32 -11t7 -24v-84q0 -35 -31 -35h-10q-199 23 -316 23q-158 0 -212 -75t-54 -283v-134h440 q16 0 27.5 -10t11.5 -26v-86q0 -14 -12 -25.5t-29 -11.5h-438v-312q0 -113 -72 -243h654q41 0 41 -31v-90z" />
<glyph unicode="&#xa4;" d="M1135 53q0 -33 -41 -41q-139 -27 -308 -26q-98 0 -188 27.5t-175 88t-141.5 174t-66.5 267.5h-68q-16 0 -28.5 12t-12.5 29v57q0 16 12.5 28.5t28.5 12.5h66v166h-66q-16 0 -28.5 12t-12.5 29v57q0 16 12.5 28.5t28.5 12.5h68q8 125 48 222.5t97.5 157.5t132 99 t146.5 54.5t147 15.5q104 0 312 -33q33 -4 32 -26v-105q0 -23 -24 -22h-6q-221 18 -312 18q-154 0 -260 -90t-125 -291h594q35 0 35 -33v-4l-2 -4l-14 -57q-10 -41 -41 -41h-576v-166h527q31 0 30 -31l-2 -4v-6l-14 -57q-10 -41 -41 -41h-498q16 -203 124 -296t263 -93 q109 0 306 16h8q33 0 33 -33v-84z" />
<glyph unicode="&#xa5;" d="M1165 473q0 -16 -12 -28.5t-29 -12.5h-409v-391q0 -16 -10.5 -28.5t-26.5 -12.5h-117q-35 0 -35 41v391h-411q-16 0 -28.5 12.5t-12.5 28.5v62q0 16 12 28t29 12h411v43l-112 226h-299q-16 0 -28.5 12t-12.5 29v61q0 16 12 28.5t29 12.5h227l-244 483q-6 16 -6 25 q0 27 33 27h129q23 0 35 -29l332 -694l331 694q12 29 35 29h127q35 0 35 -29q0 -10 -6 -23l-244 -483h225q16 0 28.5 -12t12.5 -29v-61q0 -16 -12 -28.5t-29 -12.5h-297l-112 -226v-43h409q16 0 28.5 -12t12.5 -28v-62z" />
<glyph unicode="&#xa6;" horiz-adv-x="509" d="M346 741q0 -16 -11 -28.5t-26 -12.5h-108q-14 0 -25.5 12.5t-11.5 28.5v711q0 16 11 27.5t26 11.5h108q14 0 25.5 -11.5t11.5 -27.5v-711zM346 -391q0 -16 -11 -28.5t-26 -12.5h-108q-14 0 -25.5 12t-11.5 29v710q0 16 11 27.5t26 11.5h108q14 0 25.5 -11t11.5 -28v-710z " />
<glyph unicode="&#xa7;" horiz-adv-x="1120" d="M1022 -35q0 -84 -23.5 -151.5t-77 -128t-156.5 -94t-249 -33.5q-164 0 -344 28q-39 8 -39 39v86q0 35 41 35h4q221 -20 332 -20h6q172 0 239.5 61t67.5 178q0 82 -44 134.5t-177 131.5l-229 138q-160 96 -217.5 180t-57.5 205q0 104 70 215q-70 74 -70 207q0 176 115 268 t375 92q205 0 358 -27q37 -8 37 -39v-88q0 -35 -37 -34h-2q-45 2 -167 10t-189 8q-172 0 -233.5 -44t-61.5 -146q0 -70 42 -119t165 -121l223 -131q174 -102 236.5 -193.5t62.5 -216.5q0 -133 -59 -223q59 -88 59 -207zM834 395q0 80 -42 130t-167 128l-185 113 q-129 82 -147 96q-18 -55 -19 -108q0 -127 183 -234l225 -131q63 -37 137 -88q15 45 15 94z" />
<glyph unicode="&#xa8;" horiz-adv-x="763" d="M643 1352q0 -16 -12.5 -27.5t-28.5 -11.5h-80q-16 0 -28.5 11t-12.5 28v166q0 14 13.5 27.5t27.5 13.5h80q16 0 28.5 -13.5t12.5 -27.5v-166zM285 1352q0 -16 -12.5 -27.5t-28.5 -11.5h-80q-16 0 -28.5 11t-12.5 28v166q0 14 12 27.5t29 13.5h80q14 0 27.5 -13.5 t13.5 -27.5v-166z" />
<glyph unicode="&#xa9;" horiz-adv-x="1536" d="M1434 766q0 -274 -197 -469t-471 -195t-469 195t-195 469q0 276 195 473t469 197t471 -198t197 -472zM1343 766q0 240 -168.5 410t-408.5 170t-408 -170t-168 -410t168 -406.5t408 -166.5t408.5 166.5t168.5 406.5zM975 375q0 -27 -31 -31q-72 -14 -186 -14 q-141 0 -227.5 90t-86.5 285v135q0 195 86 286t228 91q104 0 186 -17q31 -4 31 -29v-57q0 -25 -27 -24h-6q-106 10 -184 10q-186 0 -187 -260v-135q0 -258 187 -259q78 0 184 11h4q29 0 29 -27v-55z" />
<glyph unicode="&#xaa;" horiz-adv-x="618" d="M541 922q0 -29 -21 -33q-92 -27 -201 -27q-137 0 -197.5 48t-60.5 153v14q0 98 71 143.5t220 45.5h66v26q0 72 -24.5 100.5t-86.5 28.5q-53 0 -172 -10h-4q-29 0 -29 27v43q0 25 31 28q100 18 174 19q233 0 234 -236v-370zM420 969v211h-47h-19q-98 -4 -136 -25.5 t-38 -77.5v-14q0 -55 30 -80t109 -25q46 1 101 11z" />
<glyph unicode="&#xab;" horiz-adv-x="1257" d="M1147 162q0 -18 -23 -19h-118q-23 0 -43 21l-347 346q-23 23 -22.5 57.5t22.5 57.5l347 346q20 20 43 20h118q23 0 23 -18q0 -14 -12 -27l-365 -379l365 -379q12 -12 12 -26zM614 162q0 -18 -22 -19h-119q-23 0 -43 21l-346 346q-23 23 -23 57.5t23 57.5l346 346 q20 20 43 20h119q23 0 22 -18q0 -14 -12 -27l-364 -379l364 -379q12 -12 12 -26z" />
<glyph unicode="&#xac;" d="M1055 506q0 -16 -12.5 -28.5t-28.5 -12.5h-66q-16 0 -28.5 12t-12.5 29v448h-682q-41 0 -41 33v82q0 33 41 33h795q35 0 35 -35v-561z" />
<glyph unicode="&#xad;" horiz-adv-x="681" d="M584 559q0 -35 -39 -35h-408q-39 0 -39 35v80q0 16 11.5 26.5t27.5 10.5h408q39 0 39 -37v-80z" />
<glyph unicode="&#xae;" horiz-adv-x="1224" d="M1165 991.5q0 -229.5 -161.5 -389.5t-391 -160t-390.5 160t-161 389.5t161 390t390.5 160.5t391 -160.5t161.5 -390zM1081 991.5q0 192.5 -137 330.5t-332 138q-193 0 -329 -137t-136 -332q0 -193 135.5 -329t330 -136t331.5 136.5t137 329zM870 678q0 -27 -24 -27h-58 q-16 0 -24 17l-166 262l-25 6h-81v-254q0 -12 -8.5 -21.5t-20.5 -9.5h-51q-27 0 -27 31v618q0 43 37 46q45 6 156 6q133 0 200.5 -47.5t67.5 -159.5v-8q0 -145 -137 -185l157 -256q4 -8 4 -18zM743 1137v8q0 61 -36.5 85.5t-122.5 24.5h-66h-29v-229q12 0 49 -1t46 -1 q86 0 122.5 26t36.5 87z" />
<glyph unicode="&#xaf;" horiz-adv-x="763" d="M719 1417q0 -35 -41 -35h-590q-41 0 -41 35v70q0 35 41 35h590q41 0 41 -35v-70z" />
<glyph unicode="&#xb0;" horiz-adv-x="700" d="M643 1245q0 -119 -86 -205t-205 -86q-121 0 -207 86t-86 205t86 205t207 86q119 0 205 -86t86 -205zM532 1245q0 74 -53 127t-126.5 53t-127 -53t-53.5 -127t53.5 -127t127 -53t126.5 53t53 127z" />
<glyph unicode="&#xb1;" d="M1085 760q0 -33 -41 -33h-352v-350q0 -41 -33 -41h-81q-33 0 -33 41v350h-350q-41 0 -41 33v82q0 33 41 32h350v353q0 41 33 41h81q33 0 33 -41v-353h352q41 0 41 -32v-82zM1085 18q0 -33 -41 -32h-849q-41 0 -41 32v68q0 33 41 33h849q41 0 41 -33v-68z" />
<glyph unicode="&#xb2;" horiz-adv-x="698" d="M608 1325q0 -123 -153 -225l-107 -72q-84 -57 -108.5 -103t-24.5 -116v-8h360q27 0 27 -21v-75q0 -20 -27 -21h-460q-25 0 -25 25v79q0 109 40 181.5t142 144.5l113 78q57 39 73.5 64.5t16.5 68.5q0 55 -34.5 75.5t-129.5 20.5q-88 0 -182 -16h-6q-20 0 -21 20v64 q0 14 25 22q102 25 197 25q141 0 212.5 -49t71.5 -162z" />
<glyph unicode="&#xb3;" horiz-adv-x="692" d="M602 1311q0 -125 -100 -185q98 -59 98 -178v-22q0 -242 -299 -242q-106 0 -190 25q-20 8 -21 22v60q0 23 21 22h4q86 -12 151 -12q113 0 159 25.5t46 99.5v22q0 49 -27.5 87t-95.5 38h-205q-25 0 -24 23v63q0 23 24 23h201q127 0 127 118v13q0 63 -48 84.5t-147 21.5h-12 q-47 0 -147 -14h-4q-20 0 -21 22v62q0 18 23 22q90 25 186 25q301 0 301 -211v-14z" />
<glyph unicode="&#xb4;" horiz-adv-x="763" d="M682 1581q0 -8 -8 -16l-232 -258q-29 -31 -47 -31h-110q-18 0 -19 14q0 12 8 21l201 254q25 31 49 30h135q23 0 23 -14z" />
<glyph unicode="&#xb5;" horiz-adv-x="1140" d="M1001 90q0 -35 -38 -47q-156 -57 -379 -57q-162 0 -265 59v-405q0 -16 -12 -28.5t-28 -12.5h-99q-16 0 -28.5 12t-12.5 29v1445q0 16 11.5 28.5t27.5 12.5h103q16 0 27 -12t11 -29v-673q0 -143 63.5 -208t201.5 -65q139 0 237 29v917q0 16 12.5 28.5t28.5 12.5h101 q16 0 27 -12t11 -29v-995z" />
<glyph unicode="&#xb6;" horiz-adv-x="1273" d="M1141 -360q0 -16 -10.5 -27.5t-24.5 -11.5h-47q-14 0 -24.5 11t-10.5 28v1771h-119v-1771q0 -16 -10 -27.5t-25 -11.5h-47q-14 0 -24.5 11t-10.5 28v899h-213q-217 0 -350 119.5t-133 336.5v70q0 217 133 337t350 120h533q33 0 33 -39v-1843z" />
<glyph unicode="&#xb7;" horiz-adv-x="438" d="M307 707q0 -16 -11 -28.5t-28 -12.5h-98q-16 0 -27.5 12t-11.5 29v190q0 16 11.5 27.5t27.5 11.5h98q16 0 27.5 -11.5t11.5 -27.5v-190z" />
<glyph unicode="&#xb8;" horiz-adv-x="749" d="M520 -80q0 -8 -8 -16l-231 -258q-27 -31 -48 -31h-110q-18 0 -19 14q0 12 9 21l198 254q25 31 51 30h136q22 0 22 -14z" />
<glyph unicode="&#xb9;" horiz-adv-x="577" d="M393 707q0 -23 -20 -23h-92q-18 0 -19 23v684l-147 -64q-12 -4 -15 -4q-10 0 -10 12v86q0 12 14 19l150 67q29 14 51 15h66q23 0 22 -21v-794z" />
<glyph unicode="&#xba;" horiz-adv-x="659" d="M596 1159q0 -143 -67.5 -220t-196.5 -77t-197.5 77t-68.5 220v72q0 143 68.5 220t197.5 77t196.5 -77t67.5 -220v-72zM471 1159v72q0 96 -32.5 142t-106.5 46q-143 0 -144 -188v-72q0 -190 144 -190q139 0 139 190z" />
<glyph unicode="&#xbb;" horiz-adv-x="1257" d="M1196 567q0 -35 -22 -57l-347 -346q-20 -20 -43 -21h-118q-23 0 -23 19q0 14 12 26l365 379l-365 379q-12 12 -12 27q0 18 23 18h118q23 0 43 -20l347 -346q22 -23 22 -58zM664 567q0 -35 -23 -57l-346 -346q-20 -20 -43 -21h-119q-23 0 -22 19q0 14 12 26l364 379 l-364 379q-12 12 -12 27q0 18 22 18h119q23 0 43 -20l346 -346q23 -23 23 -58z" />
<glyph unicode="&#xbc;" horiz-adv-x="1527" d="M1438 233q0 -23 -25 -22h-82v-184q0 -27 -22 -27h-86q-23 0 -23 27v184h-317q-25 0 -25 22v89q0 35 12 51l322 452q8 12 16 13h99q25 0 24 -23v-496h82q25 0 25 -22v-64zM1202 1509q0 -6 -10 -26l-856 -1450q-23 -41 -45 -41h-101q-20 0 -20 16q0 14 8 25l856 1450 q23 39 47 39h105q16 -1 16 -13zM393 707q0 -23 -20 -23h-92q-18 0 -19 23v684l-147 -64q-12 -4 -15 -4q-10 0 -10 12v86q0 12 14 19l150 67q29 14 51 15h66q23 0 22 -21v-794zM1200 319v316q0 12 -4 12t-12 -10l-211 -299q-4 -8 -4 -10q0 -8 16 -9h215z" />
<glyph unicode="&#xbd;" horiz-adv-x="1542" d="M1452 635q0 -121 -154 -225l-106 -74q-84 -57 -108.5 -99t-24.5 -110v-10h360q27 0 27 -21v-76q0 -20 -27 -20h-461q-25 0 -24 25v81q0 109 39 178.5t143 139.5l113 76q57 39 73.5 64.5t16.5 70.5q0 55 -34 74.5t-130 19.5q-98 0 -182 -14h-6q-20 0 -21 20v64q0 12 25 20 q102 25 196 25q141 0 213 -49t72 -160zM1202 1509q0 -6 -10 -26l-856 -1450q-23 -41 -45 -41h-101q-20 0 -20 16q0 14 8 25l856 1450q23 39 47 39h105q16 -1 16 -13zM393 707q0 -23 -20 -23h-92q-18 0 -19 23v684l-147 -64q-12 -4 -15 -4q-10 0 -10 12v86q0 12 14 19l150 67 q29 14 51 15h66q23 0 22 -21v-794z" />
<glyph unicode="&#xbe;" horiz-adv-x="1689" d="M1599 233q0 -23 -24 -22h-82v-184q0 -27 -23 -27h-86q-23 0 -22 27v184h-318q-25 0 -24 22v89q0 35 12 51l322 452q8 12 16 13h98q25 0 25 -23v-496h82q25 0 24 -22v-64zM1364 1509q0 -6 -10 -26l-856 -1450q-23 -41 -45 -41h-101q-20 0 -20 16q0 14 8 25l856 1450 q23 39 47 39h105q16 -1 16 -13zM602 1311q0 -125 -100 -185q98 -59 98 -178v-22q0 -242 -299 -242q-106 0 -190 25q-20 8 -21 22v60q0 23 21 22h4q86 -12 151 -12q113 0 159 25.5t46 99.5v22q0 49 -27.5 87t-95.5 38h-205q-25 0 -24 23v63q0 23 24 23h201q127 0 127 118v13 q0 63 -48 84.5t-147 21.5h-12q-47 0 -147 -14h-4q-20 0 -21 22v62q0 18 23 22q90 25 186 25q301 0 301 -211v-14zM1362 319v316q0 12 -4 12t-12 -10l-211 -299l-5 -10q0 -8 17 -9h215z" />
<glyph unicode="&#xbf;" horiz-adv-x="913" d="M672 897q0 -16 -12.5 -28.5t-28.5 -12.5h-99q-16 0 -27 12.5t-11 28.5v190q0 39 38 39h99q16 0 28.5 -11t12.5 -28v-190zM831 -338q0 -41 -34 -47q-137 -27 -279 -27q-410 0 -409 310v24q0 78 37.5 151.5t148.5 198.5l92 105q47 53 64.5 75.5t31 57.5t13.5 78v100 q0 16 12 27.5t29 11.5h90q16 0 27.5 -11t11.5 -28v-100q0 -98 -28 -159.5t-108 -149.5l-94 -105q-76 -82 -101.5 -135t-25.5 -117v-24q0 -80 50.5 -114t158.5 -34q111 0 277 19h6q31 0 30 -35v-72z" />
<glyph unicode="&#xc0;" horiz-adv-x="1296" d="M1237 33q0 -33 -35 -33h-121q-27 0 -34 31l-134 471h-530l-131 -471q-8 -31 -37 -31h-121q-35 0 -35 33q0 10 2 14l379 1333q43 156 209 156q164 0 207 -154l379 -1335q2 -4 2 -14zM874 664l-186 673q-10 37 -39 37q-31 0 -41 -37l-186 -673h452zM788 1640q0 -14 -18 -14 h-111q-20 0 -47 31l-231 258q-8 8 -8 16q0 14 22 15h135q27 0 52 -31l198 -254q8 -9 8 -21z" />
<glyph unicode="&#xc1;" horiz-adv-x="1296" d="M1237 33q0 -33 -35 -33h-121q-27 0 -34 31l-134 471h-530l-131 -471q-8 -31 -37 -31h-121q-35 0 -35 33q0 10 2 14l379 1333q43 156 209 156q164 0 207 -154l379 -1335q2 -4 2 -14zM874 664l-186 673q-10 37 -39 37q-31 0 -41 -37l-186 -673h452zM961 1931q0 -8 -9 -16 l-231 -258q-29 -31 -47 -31h-111q-18 0 -18 14q0 12 8 21l201 254q25 31 49 31h135q23 -1 23 -15z" />
<glyph unicode="&#xc2;" horiz-adv-x="1296" d="M1237 33q0 -33 -35 -33h-121q-27 0 -34 31l-134 471h-530l-131 -471q-8 -31 -37 -31h-121q-35 0 -35 33q0 10 2 14l379 1333q43 156 209 156q164 0 207 -154l379 -1335q2 -4 2 -14zM874 664l-186 673q-10 37 -39 37q-31 0 -41 -37l-186 -673h452zM999 1640q0 -14 -18 -14 h-107q-18 0 -47 31l-168 198l-170 -198q-27 -31 -47 -31h-106q-18 0 -19 14q0 12 9 21l196 254q25 31 49 31h174q27 0 52 -31l194 -254q8 -9 8 -21z" />
<glyph unicode="&#xc3;" horiz-adv-x="1296" d="M1237 33q0 -33 -35 -33h-121q-27 0 -34 31l-134 471h-530l-131 -471q-8 -31 -37 -31h-121q-35 0 -35 33q0 10 2 14l379 1333q43 156 209 156q164 0 207 -154l379 -1335q2 -4 2 -14zM874 664l-186 673q-10 37 -39 37q-31 0 -41 -37l-186 -673h452zM1018 1831 q0 -109 -46 -162t-147 -53q-76 0 -131 43l-125 100q-57 45 -84 45q-63 0 -63 -94v-43q0 -14 -10.5 -24.5t-24.5 -10.5h-63q-14 0 -23.5 10.5t-9.5 24.5v43q0 109 51 166t143 57q59 0 123 -49l146 -115q37 -29 71 -28q33 0 47.5 19.5t14.5 70.5v47q0 14 10 24.5t25 10.5h63 q14 0 23.5 -10.5t9.5 -24.5v-47z" />
<glyph unicode="&#xc4;" horiz-adv-x="1296" d="M1237 33q0 -33 -35 -33h-121q-27 0 -34 31l-134 471h-530l-131 -471q-8 -31 -37 -31h-121q-35 0 -35 33q0 10 2 14l379 1333q43 156 209 156q164 0 207 -154l379 -1335q2 -4 2 -14zM874 664l-186 673q-10 37 -39 37q-31 0 -41 -37l-186 -673h452zM922 1694 q0 -16 -12.5 -27.5t-28.5 -11.5h-80q-16 0 -28.5 11t-12.5 28v166q0 16 13 28.5t28 12.5h80q16 0 28.5 -12.5t12.5 -28.5v-166zM563 1694q0 -16 -12 -27.5t-29 -11.5h-80q-16 0 -28.5 11t-12.5 28v166q0 16 12.5 28.5t28.5 12.5h80q14 0 27.5 -12.5t13.5 -28.5v-166z" />
<glyph unicode="&#xc5;" horiz-adv-x="1296" d="M1237 33q0 -33 -35 -33h-121q-27 0 -34 31l-134 471h-530l-131 -471q-8 -31 -37 -31h-121q-35 0 -35 33q0 10 2 14l379 1333q43 156 209 156q164 0 207 -154l379 -1335q2 -4 2 -14zM874 664l-186 673q-10 37 -39 37q-31 0 -41 -37l-186 -673h452zM854 1798 q0 -86 -60.5 -146.5t-146.5 -60.5t-147.5 60.5t-61.5 146.5t61.5 147.5t147.5 61.5t146.5 -61.5t60.5 -147.5zM756 1800q0 45 -32 76t-77 31t-75.5 -31t-30.5 -76t30.5 -76.5t75.5 -31.5t77 31.5t32 76.5z" />
<glyph unicode="&#xc6;" horiz-adv-x="1759" d="M1647 29q0 -25 -21 -29q-133 -14 -338 -14q-219 0 -327.5 90t-108.5 291v135h-490l-131 -471q-8 -31 -36 -31h-121q-35 0 -35 33q0 10 2 14l379 1321q45 154 209 154h997q20 0 21 -29v-109q0 -25 -23 -24h-586v-490h568q16 0 28.5 -12t12.5 -29v-77q0 -16 -12.5 -28.5 t-28.5 -12.5h-568v-344q0 -123 48.5 -168t203.5 -45h334q23 0 23 -25v-100zM852 664v696h-223q-31 0 -41 -35l-187 -661h451z" />
<glyph unicode="&#xc7;" horiz-adv-x="1116" d="M1044 53q0 -33 -40 -41q-139 -27 -340 -26q-102 0 -192.5 30.5t-171.5 98t-129 196.5t-48 307v285q0 180 48 309t130 197t171 97.5t192 29.5q137 0 344 -33q33 -4 32 -26v-105q0 -23 -24 -22h-6q-221 18 -344 18q-356 0 -357 -465v-285q0 -244 96.5 -354t260.5 -110 q141 0 338 16h8q33 0 32 -33v-84zM780 -80q0 -8 -8 -16l-231 -258q-29 -31 -47 -31h-111q-18 0 -18 14q0 8 8 21l198 254q25 31 52 30h135q22 0 22 -14z" />
<glyph unicode="&#xc8;" horiz-adv-x="1128" d="M1016 25q0 -25 -21 -29q-98 -10 -399 -10q-219 0 -327.5 90t-108.5 291v788q0 201 108.5 291t327.5 90q270 0 399 -12q20 -4 21 -29v-102q0 -25 -23 -25h-395q-156 0 -204 -45t-48 -168v-285h629q16 0 28.5 -12t12.5 -29v-77q0 -16 -12.5 -28.5t-28.5 -12.5h-629v-344 q0 -123 48 -168t204 -45h395q23 0 23 -25v-104zM737 1638q0 -14 -18 -14h-111q-18 0 -47 31l-231 258q-8 8 -8 16q0 14 22 15h135q27 0 51 -31l199 -254q8 -9 8 -21z" />
<glyph unicode="&#xc9;" horiz-adv-x="1128" d="M1016 25q0 -25 -21 -29q-98 -10 -399 -10q-219 0 -327.5 90t-108.5 291v788q0 201 108.5 291t327.5 90q270 0 399 -12q20 -4 21 -29v-102q0 -25 -23 -25h-395q-156 0 -204 -45t-48 -168v-285h629q16 0 28.5 -12t12.5 -29v-77q0 -16 -12.5 -28.5t-28.5 -12.5h-629v-344 q0 -123 48 -168t204 -45h395q23 0 23 -25v-104zM893 1931q0 -8 -8 -16l-232 -258q-27 -31 -47 -31h-110q-18 0 -19 14q0 12 8 21l201 254q25 31 49 31h135q23 -1 23 -15z" />
<glyph unicode="&#xca;" horiz-adv-x="1128" d="M1016 25q0 -25 -21 -29q-98 -10 -399 -10q-219 0 -327.5 90t-108.5 291v788q0 201 108.5 291t327.5 90q270 0 399 -12q20 -4 21 -29v-102q0 -25 -23 -25h-395q-156 0 -204 -45t-48 -168v-285h629q16 0 28.5 -12t12.5 -29v-77q0 -16 -12.5 -28.5t-28.5 -12.5h-629v-344 q0 -123 48 -168t204 -45h395q23 0 23 -25v-104zM934 1640q0 -14 -19 -14h-106q-18 0 -47 31l-168 198l-170 -198q-27 -31 -47 -31h-107q-18 0 -18 14q0 12 8 21l197 254q25 31 49 31h174q27 0 51 -31l195 -254q8 -9 8 -21z" />
<glyph unicode="&#xcb;" horiz-adv-x="1128" d="M1016 25q0 -25 -21 -29q-98 -10 -399 -10q-219 0 -327.5 90t-108.5 291v788q0 201 108.5 291t327.5 90q270 0 399 -12q20 -4 21 -29v-102q0 -25 -23 -25h-395q-156 0 -204 -45t-48 -168v-285h629q16 0 28.5 -12t12.5 -29v-77q0 -16 -12.5 -28.5t-28.5 -12.5h-629v-344 q0 -123 48 -168t204 -45h395q23 0 23 -25v-104zM868 1698q0 -16 -12 -27.5t-29 -11.5h-79q-16 0 -28.5 11t-12.5 28v166q0 16 13 28.5t28 12.5h79q16 0 28.5 -12.5t12.5 -28.5v-166zM510 1698q0 -16 -12.5 -27.5t-28.5 -11.5h-80q-16 0 -28.5 11t-12.5 28v166 q0 16 12.5 28.5t28.5 12.5h80q14 0 27.5 -12.5t13.5 -28.5v-166z" />
<glyph unicode="&#xcc;" horiz-adv-x="546" d="M367 41q0 -16 -10.5 -28.5t-26.5 -12.5h-113q-14 0 -25.5 12.5t-11.5 28.5v1442q0 39 37 39h113q16 0 26.5 -11.5t10.5 -27.5v-1442zM406 1640q0 -14 -19 -14h-111q-18 0 -47 31l-231 258q-8 8 -8 16q0 14 22 15h135q27 0 52 -31l198 -254q9 -9 9 -21z" />
<glyph unicode="&#xcd;" horiz-adv-x="546" d="M367 41q0 -16 -10.5 -28.5t-26.5 -12.5h-113q-14 0 -25.5 12.5t-11.5 28.5v1442q0 39 37 39h113q16 0 26.5 -11.5t10.5 -27.5v-1442zM557 1931q0 -8 -8 -16l-232 -258q-27 -31 -47 -31h-110q-18 0 -19 14q0 12 9 21l200 254q25 31 49 31h136q22 -1 22 -15z" />
<glyph unicode="&#xce;" horiz-adv-x="546" d="M367 41q0 -16 -10.5 -28.5t-26.5 -12.5h-113q-14 0 -25.5 12.5t-11.5 28.5v1442q0 39 37 39h113q16 0 26.5 -11.5t10.5 -27.5v-1442zM606 1640q0 -14 -18 -14h-107q-18 0 -47 31l-168 198l-170 -198q-27 -31 -47 -31h-106q-18 0 -19 14q0 12 8 21l197 254q25 31 49 31 h174q27 0 51 -31l195 -254q8 -9 8 -21z" />
<glyph unicode="&#xcf;" horiz-adv-x="546" d="M367 41q0 -16 -10.5 -28.5t-26.5 -12.5h-113q-14 0 -25.5 12.5t-11.5 28.5v1442q0 39 37 39h113q16 0 26.5 -11.5t10.5 -27.5v-1442zM535 1696q0 -16 -12.5 -27.5t-28.5 -11.5h-80q-16 0 -28.5 11t-12.5 28v166q0 14 12 27.5t29 13.5h80q14 0 27.5 -13.5t13.5 -27.5v-166 zM176 1696q0 -16 -12 -27.5t-29 -11.5h-80q-16 0 -28.5 11t-12.5 28v166q0 14 13.5 27.5t27.5 13.5h80q16 0 28.5 -13.5t12.5 -27.5v-166z" />
<glyph unicode="&#xd0;" horiz-adv-x="1312" d="M1196 623q0 -319 -164 -478t-457 -159q-254 0 -372 20q-43 6 -43 51v654h-78q-16 0 -28.5 12t-12.5 29v77q0 16 12.5 28.5t28.5 12.5h78v594q0 45 43 52q119 20 372 20q295 0 458 -157.5t163 -479.5v-276zM1010 623v276q0 260 -116 368.5t-319 108.5q-125 0 -227 -6v-500 h211q16 0 28.5 -12t12.5 -29v-77q0 -16 -12.5 -28.5t-28.5 -12.5h-211v-561q66 -4 227 -5q435 1 435 478z" />
<glyph unicode="&#xd1;" horiz-adv-x="1392" d="M1233 59q0 -25 -17.5 -42t-41.5 -17h-127q-49 0 -66 33l-633 1202q-4 6 -6 6t-2 -6v-1196q0 -16 -11.5 -27.5t-25.5 -11.5h-106q-37 0 -37 25v1439q0 25 17.5 41.5t41.5 16.5h113q41 0 56 -8.5t28 -32.5l628 -1196l5 -6q2 0 2 6v1198q0 16 11 27.5t25 11.5h109 q37 0 37 -39v-1424zM1040 1827q0 -109 -46 -162t-146 -53q-76 0 -131 43l-125 100q-57 45 -84 45q-63 0 -64 -94v-43q0 -14 -10 -24.5t-24 -10.5h-64q-14 0 -23.5 10.5t-9.5 24.5v43q0 109 51.5 166t143.5 57q59 0 123 -49l145 -115q35 -29 72 -28q33 0 47 19.5t14 70.5v47 q0 14 10.5 24.5t24.5 10.5h64q14 0 23 -10.5t9 -24.5v-47z" />
<glyph unicode="&#xd2;" horiz-adv-x="1353" d="M1231 629q0 -328 -149.5 -485.5t-403.5 -157.5t-404.5 158.5t-150.5 484.5v264q0 326 150.5 484.5t404.5 158.5t403.5 -157.5t149.5 -485.5v-264zM1042 629v264q0 475 -364 475q-367 0 -367 -475v-264q0 -475 367 -475q364 0 364 475zM813 1640q0 -14 -18 -14h-111 q-20 0 -47 31l-231 258q-8 8 -9 16q0 14 23 15h135q27 0 51 -31l199 -254q8 -9 8 -21z" />
<glyph unicode="&#xd3;" horiz-adv-x="1353" d="M1231 629q0 -328 -149.5 -485.5t-403.5 -157.5t-404.5 158.5t-150.5 484.5v264q0 326 150.5 484.5t404.5 158.5t403.5 -157.5t149.5 -485.5v-264zM1042 629v264q0 475 -364 475q-367 0 -367 -475v-264q0 -475 367 -475q364 0 364 475zM936 1931q0 -8 -8 -16l-232 -258 q-29 -31 -47 -31h-110q-18 0 -19 14q0 12 8 21l201 254q25 31 49 31h135q23 -1 23 -15z" />
<glyph unicode="&#xd4;" horiz-adv-x="1353" d="M1231 629q0 -328 -149.5 -485.5t-403.5 -157.5t-404.5 158.5t-150.5 484.5v264q0 326 150.5 484.5t404.5 158.5t403.5 -157.5t149.5 -485.5v-264zM1042 629v264q0 475 -364 475q-367 0 -367 -475v-264q0 -475 367 -475q364 0 364 475zM1018 1642q0 -14 -19 -14h-106 q-20 0 -47 31l-168 199l-170 -199q-29 -31 -47 -31h-107q-18 0 -18 14q0 12 8 21l197 254q25 31 49 31h174q27 0 51 -31l195 -254q8 -9 8 -21z" />
<glyph unicode="&#xd5;" horiz-adv-x="1353" d="M1231 629q0 -328 -149.5 -485.5t-403.5 -157.5t-404.5 158.5t-150.5 484.5v264q0 326 150.5 484.5t404.5 158.5t403.5 -157.5t149.5 -485.5v-264zM1042 629v264q0 475 -364 475q-367 0 -367 -475v-264q0 -475 367 -475q364 0 364 475zM1047 1831q0 -109 -46.5 -162 t-146.5 -53q-76 0 -131 43l-125 100q-57 45 -84 45q-63 0 -63 -94v-43q0 -14 -10.5 -24.5t-24.5 -10.5h-64q-14 0 -23.5 10.5t-9.5 24.5v43q0 109 51.5 166t143.5 57q59 0 123 -49l145 -115q37 -29 72 -28q33 0 47 19.5t14 70.5v47q0 14 10.5 24.5t24.5 10.5h64 q14 0 23.5 -10.5t9.5 -24.5v-47z" />
<glyph unicode="&#xd6;" horiz-adv-x="1353" d="M1231 629q0 -328 -149.5 -485.5t-403.5 -157.5t-404.5 158.5t-150.5 484.5v264q0 326 150.5 484.5t404.5 158.5t403.5 -157.5t149.5 -485.5v-264zM1042 629v264q0 475 -364 475q-367 0 -367 -475v-264q0 -475 367 -475q364 0 364 475zM938 1698q0 -16 -12.5 -27.5 t-28.5 -11.5h-80q-16 0 -28.5 11t-12.5 28v166q0 16 13.5 28.5t27.5 12.5h80q16 0 28.5 -12.5t12.5 -28.5v-166zM580 1698q0 -16 -12.5 -27.5t-28.5 -11.5h-80q-16 0 -28.5 11t-12.5 28v166q0 16 12 28.5t29 12.5h80q14 0 27.5 -12.5t13.5 -28.5v-166z" />
<glyph unicode="&#xd7;" d="M999 498q0 -10 -10 -21l-57 -57q-10 -10 -21 -10q-16 0 -32 16l-271 270l-268 -268q-16 -16 -33 -16q-10 0 -20 10l-58 57q-10 10 -10 21q0 16 17 32l268 269l-268 270q-16 16 -17 31q0 10 10 20l58 58q10 10 22 10q16 0 31 -14l268 -271l271 271q16 16 32 16 q10 0 21 -10l57 -58q10 -10 10 -20q0 -16 -16 -33l-270 -270l270 -271q16 -16 16 -32z" />
<glyph unicode="&#xd8;" horiz-adv-x="1353" d="M1296 1505q0 -6 -6 -16l-145 -201q86 -154 86 -395v-264q0 -328 -149.5 -485.5t-403.5 -157.5q-233 0 -375 129l-63 -90q-29 -39 -52 -39h-108q-23 0 -23 22q0 8 6 17l148 204q-88 152 -88 400v264q0 326 150.5 484.5t404.5 158.5q238 0 377 -131l59 84q29 39 53 39h107 q22 0 22 -23zM946 1255q-92 113 -268 113q-367 0 -367 -475v-264q0 -121 27 -221zM1042 629v264q0 127 -24 217l-608 -848q90 -109 268 -108q364 0 364 475z" />
<glyph unicode="&#xd9;" horiz-adv-x="1355" d="M1202 553q0 -567 -524 -567t-524 567v930q0 16 11 27.5t28 11.5h110q16 0 27.5 -11.5t11.5 -27.5v-930q0 -207 76 -307.5t260 -100.5t260 99.5t76 308.5v930q0 16 11 27.5t28 11.5h110q16 0 27.5 -11.5t11.5 -27.5v-930zM797 1640q0 -14 -19 -14h-110q-20 0 -47 31 l-232 258q-8 8 -8 16q0 14 22 15h136q27 0 51 -31l198 -254q9 -9 9 -21z" />
<glyph unicode="&#xda;" horiz-adv-x="1355" d="M1202 553q0 -567 -524 -567t-524 567v930q0 16 11 27.5t28 11.5h110q16 0 27.5 -11.5t11.5 -27.5v-930q0 -207 76 -307.5t260 -100.5t260 99.5t76 308.5v930q0 16 11 27.5t28 11.5h110q16 0 27.5 -11.5t11.5 -27.5v-930zM981 1931q0 -8 -8 -16l-232 -258q-29 -31 -47 -31 h-110q-18 0 -19 14q0 12 8 21l201 254q25 31 49 31h135q23 -1 23 -15z" />
<glyph unicode="&#xdb;" horiz-adv-x="1355" d="M1202 553q0 -567 -524 -567t-524 567v930q0 16 11 27.5t28 11.5h110q16 0 27.5 -11.5t11.5 -27.5v-930q0 -207 76 -307.5t260 -100.5t260 99.5t76 308.5v930q0 16 11 27.5t28 11.5h110q16 0 27.5 -11.5t11.5 -27.5v-930zM1012 1640q0 -14 -19 -14h-106q-18 0 -47 31 l-168 198l-170 -198q-27 -31 -47 -31h-107q-18 0 -18 14q0 12 8 21l197 254q25 31 49 31h174q27 0 51 -31l195 -254q8 -9 8 -21z" />
<glyph unicode="&#xdc;" horiz-adv-x="1355" d="M1202 553q0 -567 -524 -567t-524 567v930q0 16 11 27.5t28 11.5h110q16 0 27.5 -11.5t11.5 -27.5v-930q0 -207 76 -307.5t260 -100.5t260 99.5t76 308.5v930q0 16 11 27.5t28 11.5h110q16 0 27.5 -11.5t11.5 -27.5v-930zM934 1698q0 -16 -12.5 -27.5t-28.5 -11.5h-80 q-16 0 -28.5 11t-12.5 28v166q0 16 13.5 28.5t27.5 12.5h80q16 0 28.5 -12.5t12.5 -28.5v-166zM575 1698q0 -16 -12 -27.5t-28 -11.5h-80q-16 0 -28.5 11t-12.5 28v166q0 16 12 28.5t29 12.5h80q14 0 27 -12.5t13 -28.5v-166z" />
<glyph unicode="&#xdd;" horiz-adv-x="1193" d="M1124 1493q0 -10 -6 -23l-317 -712q-49 -106 -111 -135v-582q0 -16 -11 -28.5t-26 -12.5h-112q-14 0 -25.5 12.5t-11.5 28.5v582q-59 23 -111 135l-315 712q-6 12 -6 23q0 29 34 29h125q25 0 37 -29l283 -664q23 -53 47.5 -53t46.5 53l285 664q12 29 35 29h125 q34 0 34 -29zM897 1931q0 -8 -8 -16l-232 -258q-27 -31 -47 -31h-110q-18 0 -19 14q0 12 8 21l201 254q25 31 49 31h135q23 -1 23 -15z" />
<glyph unicode="&#xde;" horiz-adv-x="1214" d="M1122 872q0 -463 -575 -462q-117 0 -203 6v-375q0 -41 -33 -41h-114q-14 0 -25.5 12.5t-11.5 28.5v1442q0 16 11 27.5t26 11.5h112q14 0 24.5 -11.5t10.5 -27.5v-142q160 6 199 7q580 0 579 -447v-29zM936 872v29q0 156 -95.5 220.5t-293.5 64.5q-158 0 -203 -4v-607 q141 -6 203 -6q201 0 295 71.5t94 231.5z" />
<glyph unicode="&#xdf;" horiz-adv-x="1189" d="M1079 440q0 -229 -137 -341.5t-348 -112.5q-37 0 -98 6q-41 4 -41 39v84q0 23 22 22q14 0 46 -1t42 -1q160 0 246 67.5t86 237.5v29q0 117 -83 189.5t-234 72.5h-76q-16 0 -28.5 12.5t-12.5 28.5v59q0 16 12 28.5t29 12.5h76q145 0 215.5 72t70.5 178v25q0 248 -268 248 q-143 0 -213 -83t-70 -259v-1010q0 -43 -36 -43h-109q-37 0 -37 43v1010q0 250 123 374.5t342 124.5q205 0 327 -101t122 -304v-25q0 -106 -61.5 -190t-154.5 -125q111 -39 179.5 -129t68.5 -209v-29z" />
<glyph unicode="&#xe0;" horiz-adv-x="1062" d="M924 41q0 -16 -12.5 -28.5t-28.5 -12.5h-95q-16 0 -28 12.5t-12 28.5v45q-172 -100 -316 -100q-147 0 -240.5 76.5t-93.5 254.5v25q0 170 114 251t380 81h151v82q0 129 -49 180t-170 51q-150 0 -313 -16h-10q-37 0 -37 33v71q0 33 43 39q156 27 317 27q399 0 400 -385 v-715zM743 215v330h-151q-182 0 -247.5 -44t-65.5 -157v-25q0 -104 46 -145t142 -41q124 0 276 82zM664 1290q0 -14 -19 -14h-110q-18 0 -48 31l-231 258q-8 8 -8 16q0 14 22 14h136q27 0 51 -30l198 -254q9 -9 9 -21z" />
<glyph unicode="&#xe1;" horiz-adv-x="1062" d="M924 41q0 -16 -12.5 -28.5t-28.5 -12.5h-95q-16 0 -28 12.5t-12 28.5v45q-172 -100 -316 -100q-147 0 -240.5 76.5t-93.5 254.5v25q0 170 114 251t380 81h151v82q0 129 -49 180t-170 51q-150 0 -313 -16h-10q-37 0 -37 33v71q0 33 43 39q156 27 317 27q399 0 400 -385 v-715zM743 215v330h-151q-182 0 -247.5 -44t-65.5 -157v-25q0 -104 46 -145t142 -41q124 0 276 82zM844 1581q0 -8 -8 -16l-232 -258q-27 -31 -47 -31h-111q-18 0 -18 14q0 12 8 21l201 254q25 31 49 30h135q23 0 23 -14z" />
<glyph unicode="&#xe2;" horiz-adv-x="1062" d="M924 41q0 -16 -12.5 -28.5t-28.5 -12.5h-95q-16 0 -28 12.5t-12 28.5v45q-172 -100 -316 -100q-147 0 -240.5 76.5t-93.5 254.5v25q0 170 114 251t380 81h151v82q0 129 -49 180t-170 51q-150 0 -313 -16h-10q-37 0 -37 33v71q0 33 43 39q156 27 317 27q399 0 400 -385 v-715zM743 215v330h-151q-182 0 -247.5 -44t-65.5 -157v-25q0 -104 46 -145t142 -41q124 0 276 82zM870 1290q0 -14 -18 -14h-107q-20 0 -47 31l-168 198l-170 -198q-29 -31 -47 -31h-106q-18 0 -19 14q0 12 9 21l196 254q25 31 49 30h174q27 0 52 -30l194 -254q8 -9 8 -21z " />
<glyph unicode="&#xe3;" horiz-adv-x="1062" d="M924 41q0 -16 -12.5 -28.5t-28.5 -12.5h-95q-16 0 -28 12.5t-12 28.5v45q-172 -100 -316 -100q-147 0 -240.5 76.5t-93.5 254.5v25q0 170 114 251t380 81h151v82q0 129 -49 180t-170 51q-150 0 -313 -16h-10q-37 0 -37 33v71q0 33 43 39q156 27 317 27q399 0 400 -385 v-715zM743 215v330h-151q-182 0 -247.5 -44t-65.5 -157v-25q0 -104 46 -145t142 -41q124 0 276 82zM913 1497q0 -109 -46 -162t-146 -53q-76 0 -131 43l-125 100q-57 45 -84 45q-63 0 -64 -94v-43q0 -14 -10 -24.5t-24 -10.5h-64q-14 0 -23.5 10.5t-9.5 24.5v43 q0 109 51.5 166t143.5 57q59 0 123 -49l145 -114q35 -29 72 -29q33 0 47 19.5t14 70.5v47q0 14 10.5 24.5t24.5 10.5h64q14 0 23 -10t9 -25v-47z" />
<glyph unicode="&#xe4;" horiz-adv-x="1062" d="M924 41q0 -16 -12.5 -28.5t-28.5 -12.5h-95q-16 0 -28 12.5t-12 28.5v45q-172 -100 -316 -100q-147 0 -240.5 76.5t-93.5 254.5v25q0 170 114 251t380 81h151v82q0 129 -49 180t-170 51q-150 0 -313 -16h-10q-37 0 -37 33v71q0 33 43 39q156 27 317 27q399 0 400 -385 v-715zM743 215v330h-151q-182 0 -247.5 -44t-65.5 -157v-25q0 -104 46 -145t142 -41q124 0 276 82zM795 1352q0 -16 -12.5 -27.5t-28.5 -11.5h-80q-16 0 -28.5 11t-12.5 28v166q0 14 13 27.5t28 13.5h80q16 0 28.5 -13.5t12.5 -27.5v-166zM436 1352q0 -16 -12 -27.5 t-29 -11.5h-80q-16 0 -28.5 11t-12.5 28v166q0 14 12.5 27.5t28.5 13.5h80q14 0 27.5 -13.5t13.5 -27.5v-166z" />
<glyph unicode="&#xe5;" horiz-adv-x="1062" d="M924 41q0 -16 -12.5 -28.5t-28.5 -12.5h-95q-16 0 -28 12.5t-12 28.5v45q-172 -100 -316 -100q-147 0 -240.5 76.5t-93.5 254.5v25q0 170 114 251t380 81h151v82q0 129 -49 180t-170 51q-150 0 -313 -16h-10q-37 0 -37 33v71q0 33 43 39q156 27 317 27q399 0 400 -385 v-715zM743 215v330h-151q-182 0 -247.5 -44t-65.5 -157v-25q0 -104 46 -145t142 -41q124 0 276 82zM733 1440q0 -86 -60.5 -146.5t-146.5 -60.5t-147.5 60.5t-61.5 146.5t61.5 147.5t147.5 61.5t146.5 -61.5t60.5 -147.5zM635 1442q0 45 -32 75.5t-77 30.5t-75.5 -30.5 t-30.5 -75.5t30.5 -77t75.5 -32t77 32t32 77z" />
<glyph unicode="&#xe6;" horiz-adv-x="1746" d="M1645 551q0 -45 -39 -45h-682v-66q0 -156 72.5 -229.5t226.5 -73.5q162 0 350 29h4h6q33 0 33 -29v-69q0 -39 -41 -48q-180 -35 -363 -34q-240 0 -354 120q-139 -121 -369 -120q-166 0 -278.5 85t-112.5 253v18q0 172 113 252t381 80h153v82q0 129 -50 180t-171 51 q-150 0 -313 -16h-4h-6q-37 0 -37 33v71q0 33 43 39q156 27 317 27q244 0 340 -144q121 143 334 144q217 0 332 -138.5t115 -365.5v-86zM1466 643v10q0 334 -268 334q-131 0 -202.5 -87t-71.5 -247v-10h542zM745 193v350h-153q-182 0 -246.5 -44t-64.5 -157v-18 q0 -102 64.5 -148.5t168.5 -46.5q147 1 231 64z" />
<glyph unicode="&#xe7;" horiz-adv-x="925" d="M836 53q0 -37 -41 -45q-123 -23 -256 -22q-207 0 -322 134t-115 363v160q0 229 115 363.5t322 134.5q133 0 256 -23q25 -4 33 -13t8 -32v-74q0 -31 -35 -30h-8q-127 14 -254 14q-256 0 -256 -340v-160q0 -340 256 -340q127 0 254 15h8q35 0 35 -31v-74zM659 -80 q0 -8 -8 -16l-231 -258q-27 -31 -47 -31h-111q-18 0 -18 14q0 12 8 21l199 254q25 31 51 30h135q22 0 22 -14z" />
<glyph unicode="&#xe8;" horiz-adv-x="1114" d="M1008 551q0 -45 -39 -45h-686v-29q0 -178 69.5 -256t214.5 -78q217 0 365 23h10q33 0 33 -29v-69q0 -39 -41 -48q-180 -35 -367 -34q-94 0 -173 24.5t-146.5 77.5t-106.5 152.5t-39 236.5v185q0 223 119 351t336 128q219 0 335 -128t116 -351v-111zM825 643v19 q0 170 -65.5 245.5t-202.5 75.5q-274 0 -274 -321v-19h542zM733 1290q0 -14 -18 -14h-111q-18 0 -47 31l-231 258q-8 8 -9 16q0 14 23 14h135q27 0 51 -30l199 -254q8 -9 8 -21z" />
<glyph unicode="&#xe9;" horiz-adv-x="1114" d="M1008 551q0 -45 -39 -45h-686v-29q0 -178 69.5 -256t214.5 -78q217 0 365 23h10q33 0 33 -29v-69q0 -39 -41 -48q-180 -35 -367 -34q-94 0 -173 24.5t-146.5 77.5t-106.5 152.5t-39 236.5v185q0 223 119 351t336 128q219 0 335 -128t116 -351v-111zM825 643v19 q0 170 -65.5 245.5t-202.5 75.5q-274 0 -274 -321v-19h542zM889 1581q0 -8 -8 -16l-232 -258q-27 -31 -47 -31h-110q-18 0 -19 14q0 12 8 21l201 254q25 31 49 30h135q23 0 23 -14z" />
<glyph unicode="&#xea;" horiz-adv-x="1114" d="M1008 551q0 -45 -39 -45h-686v-29q0 -178 69.5 -256t214.5 -78q217 0 365 23h10q33 0 33 -29v-69q0 -39 -41 -48q-180 -35 -367 -34q-94 0 -173 24.5t-146.5 77.5t-106.5 152.5t-39 236.5v185q0 223 119 351t336 128q219 0 335 -128t116 -351v-111zM825 643v19 q0 170 -65.5 245.5t-202.5 75.5q-274 0 -274 -321v-19h542zM899 1290q0 -14 -18 -14h-107q-20 0 -47 31l-168 198l-170 -198q-29 -31 -47 -31h-106q-18 0 -19 14q0 12 8 21l197 254q25 31 49 30h174q27 0 51 -30l195 -254q8 -9 8 -21z" />
<glyph unicode="&#xeb;" horiz-adv-x="1114" d="M1008 551q0 -45 -39 -45h-686v-29q0 -178 69.5 -256t214.5 -78q217 0 365 23h10q33 0 33 -29v-69q0 -39 -41 -48q-180 -35 -367 -34q-94 0 -173 24.5t-146.5 77.5t-106.5 152.5t-39 236.5v185q0 223 119 351t336 128q219 0 335 -128t116 -351v-111zM825 643v19 q0 170 -65.5 245.5t-202.5 75.5q-274 0 -274 -321v-19h542zM825 1352q0 -16 -12 -27.5t-29 -11.5h-79q-16 0 -28.5 11t-12.5 28v166q0 14 12 27.5t29 13.5h79q14 0 27.5 -13.5t13.5 -27.5v-166zM467 1352q0 -16 -12.5 -27.5t-28.5 -11.5h-80q-16 0 -28.5 11t-12.5 28v166 q0 14 13.5 27.5t27.5 13.5h80q16 0 28.5 -13.5t12.5 -27.5v-166z" />
<glyph unicode="&#xec;" horiz-adv-x="505" d="M342 41q0 -16 -12.5 -28.5t-28.5 -12.5h-98q-16 0 -28.5 12.5t-12.5 28.5v1044q0 16 12 28.5t29 12.5h98q16 0 28.5 -12t12.5 -29v-1044zM379 1290q0 -14 -19 -14h-110q-20 0 -47 31l-232 258q-8 8 -8 16q0 14 23 14h135q27 0 51 -30l199 -254q8 -9 8 -21z" />
<glyph unicode="&#xed;" horiz-adv-x="505" d="M342 41q0 -16 -12.5 -28.5t-28.5 -12.5h-98q-16 0 -28.5 12.5t-12.5 28.5v1044q0 16 12 28.5t29 12.5h98q16 0 28.5 -12t12.5 -29v-1044zM555 1581q0 -8 -8 -16l-232 -258q-29 -31 -47 -31h-110q-18 0 -19 14q0 12 8 21l201 254q25 31 49 30h135q23 0 23 -14z" />
<glyph unicode="&#xee;" horiz-adv-x="505" d="M342 41q0 -16 -12.5 -28.5t-28.5 -12.5h-98q-16 0 -28.5 12.5t-12.5 28.5v1044q0 16 12 28.5t29 12.5h98q16 0 28.5 -12t12.5 -29v-1044zM592 1290q0 -14 -19 -14h-106q-20 0 -47 31l-168 198l-170 -198q-29 -31 -47 -31h-107q-18 0 -18 14q0 12 8 21l197 254 q25 31 49 30h174q27 0 51 -30l195 -254q8 -9 8 -21z" />
<glyph unicode="&#xef;" horiz-adv-x="505" d="M342 41q0 -16 -12.5 -28.5t-28.5 -12.5h-98q-16 0 -28.5 12.5t-12.5 28.5v1044q0 16 12 28.5t29 12.5h98q16 0 28.5 -12t12.5 -29v-1044zM512 1352q0 -16 -12.5 -27.5t-28.5 -11.5h-80q-16 0 -28.5 11t-12.5 28v166q0 14 13.5 27.5t27.5 13.5h80q16 0 28.5 -13.5 t12.5 -27.5v-166zM154 1352q0 -16 -12.5 -27.5t-28.5 -11.5h-80q-16 0 -28.5 11t-12.5 28v166q0 14 12 27.5t29 13.5h80q14 0 27.5 -13.5t13.5 -27.5v-166z" />
<glyph unicode="&#xf0;" horiz-adv-x="1116" d="M1014 498q0 -250 -115 -381t-338 -131q-229 0 -344 134t-115 378v112q0 248 118 380t339 132q147 0 229 -73q-66 170 -301 280l-176 -135q-16 -12 -26.5 -12t-22.5 12l-35 39q-6 6 -6 14q0 18 21 35l125 96q-92 31 -162 45q-33 8 -33 31q0 6 2 10l25 70q8 23 28 22 q10 0 17 -2q145 -35 254 -75l192 145q10 8 27 8q14 0 24 -10l35 -37q8 -8 8 -16q0 -12 -20 -29l-150 -115q227 -129 313.5 -313t86.5 -502v-112zM834 498v112q0 358 -274.5 358.5t-274.5 -358.5v-112q0 -356 276 -357q143 0 208 89.5t65 267.5z" />
<glyph unicode="&#xf1;" horiz-adv-x="1140" d="M1001 41q0 -16 -12 -28.5t-28 -12.5h-99q-16 0 -28.5 12.5t-12.5 28.5v674q0 152 -52 211t-173 59q-117 0 -277 -80v-864q0 -16 -12 -28.5t-28 -12.5h-101q-16 0 -27.5 12.5t-11.5 28.5v1044q0 16 11.5 28.5t27.5 12.5h103q16 0 27 -12t11 -29v-38q168 94 326 94 q356 0 356 -426v-674zM942 1497q0 -109 -46 -162t-146 -53q-76 0 -132 43l-124 100q-57 45 -84 45q-63 0 -64 -94v-43q0 -14 -10 -24.5t-25 -10.5h-63q-14 0 -23.5 10.5t-9.5 24.5v43q0 109 51 166t144 57q59 0 122 -49l146 -114q35 -29 72 -29q33 0 47 19.5t14 70.5v47 q0 14 10 24.5t25 10.5h63q14 0 23.5 -10t9.5 -25v-47z" />
<glyph unicode="&#xf2;" horiz-adv-x="1116" d="M1014 485q0 -231 -118 -365t-339 -134t-338 134t-117 365v156q0 231 117 365.5t338 134.5t339 -134.5t118 -365.5v-156zM834 485v156q0 342 -277 342q-274 0 -274 -342v-156q0 -342 274 -342q139 0 208 89t69 253zM676 1290q0 -14 -19 -14h-110q-18 0 -47 31l-232 258 q-8 8 -8 16q0 14 23 14h135q27 0 51 -30l199 -254q8 -9 8 -21z" />
<glyph unicode="&#xf3;" horiz-adv-x="1116" d="M1014 485q0 -231 -118 -365t-339 -134t-338 134t-117 365v156q0 231 117 365.5t338 134.5t339 -134.5t118 -365.5v-156zM834 485v156q0 342 -277 342q-274 0 -274 -342v-156q0 -342 274 -342q139 0 208 89t69 253zM872 1581q0 -8 -8 -16l-231 -258q-27 -31 -47 -31h-111 q-18 0 -18 14q0 12 8 21l201 254q25 31 49 30h135q22 0 22 -14z" />
<glyph unicode="&#xf4;" horiz-adv-x="1116" d="M1014 485q0 -231 -118 -365t-339 -134t-338 134t-117 365v156q0 231 117 365.5t338 134.5t339 -134.5t118 -365.5v-156zM834 485v156q0 342 -277 342q-274 0 -274 -342v-156q0 -342 274 -342q139 0 208 89t69 253zM901 1290q0 -14 -18 -14h-107q-18 0 -47 31l-168 198 l-170 -198q-27 -31 -47 -31h-106q-18 0 -19 14q0 12 8 21l197 254q25 31 49 30h174q27 0 51 -30l195 -254q8 -9 8 -21z" />
<glyph unicode="&#xf5;" horiz-adv-x="1116" d="M1014 485q0 -231 -118 -365t-339 -134t-338 134t-117 365v156q0 231 117 365.5t338 134.5t339 -134.5t118 -365.5v-156zM834 485v156q0 342 -277 342q-274 0 -274 -342v-156q0 -342 274 -342q139 0 208 89t69 253zM934 1497q0 -109 -46 -162t-147 -53q-76 0 -131 43 l-125 100q-57 45 -84 45q-63 0 -63 -94v-43q0 -14 -10.5 -24.5t-24.5 -10.5h-63q-14 0 -23.5 10.5t-9.5 24.5v43q0 109 51 166t143 57q59 0 123 -49l146 -114q35 -29 71 -29q33 0 47.5 19.5t14.5 70.5v47q0 14 10 24.5t25 10.5h63q14 0 23.5 -10t9.5 -25v-47z" />
<glyph unicode="&#xf6;" horiz-adv-x="1116" d="M1014 485q0 -231 -118 -365t-339 -134t-338 134t-117 365v156q0 231 117 365.5t338 134.5t339 -134.5t118 -365.5v-156zM834 485v156q0 342 -277 342q-274 0 -274 -342v-156q0 -342 274 -342q139 0 208 89t69 253zM815 1352q0 -16 -12 -27.5t-29 -11.5h-80 q-16 0 -28.5 11t-12.5 28v166q0 14 13.5 27.5t27.5 13.5h80q16 0 28.5 -13.5t12.5 -27.5v-166zM457 1352q0 -16 -12.5 -27.5t-28.5 -11.5h-80q-16 0 -28.5 11t-12.5 28v166q0 14 12 27.5t29 13.5h80q14 0 27.5 -13.5t13.5 -27.5v-166z" />
<glyph unicode="&#xf7;" d="M707 1079q0 -16 -11.5 -28.5t-27.5 -12.5h-99q-16 0 -28.5 12.5t-12.5 28.5v181q0 14 12.5 26t28.5 12h99q16 0 27.5 -12t11.5 -26v-181zM1055 760q0 -33 -41 -33h-789q-41 0 -41 33v82q0 33 41 32h789q41 0 41 -32v-82zM707 332q0 -16 -11.5 -27.5t-27.5 -11.5h-99 q-16 0 -28.5 11t-12.5 28v182q0 14 12.5 26.5t28.5 12.5h99q16 0 27.5 -12.5t11.5 -26.5v-182z" />
<glyph unicode="&#xf8;" horiz-adv-x="1116" d="M1081 1178q0 -14 -8 -23l-143 -192q84 -127 84 -322v-156q0 -231 -118 -365t-339 -134q-174 0 -285 86l-90 -123q-16 -20 -32 -21h-101q-16 0 -16 17q0 14 8 22l145 197q-84 127 -84 321v156q0 231 117 365.5t338 134.5q176 0 287 -86l86 119q16 20 33 20h102 q16 0 16 -16zM741 920q-70 63 -184 63q-274 0 -274 -342v-156q0 -94 20 -161zM834 485v156q0 86 -23 160l-438 -594q68 -63 184 -64q277 0 277 342z" />
<glyph unicode="&#xf9;" horiz-adv-x="1140" d="M1001 41q0 -16 -11 -28.5t-27 -12.5h-103q-16 0 -27.5 12.5t-11.5 28.5v39q-168 -94 -325 -94q-356 0 -357 426v673q0 16 12.5 28.5t28.5 12.5h99q16 0 28 -12t12 -29v-673q0 -152 52.5 -211.5t173.5 -59.5q117 0 276 80v864q0 16 12.5 28.5t28.5 12.5h101q16 0 27 -12 t11 -29v-1044zM688 1290q0 -14 -18 -14h-111q-18 0 -47 31l-231 258q-8 8 -9 16q0 14 23 14h135q27 0 51 -30l199 -254q8 -9 8 -21z" />
<glyph unicode="&#xfa;" horiz-adv-x="1140" d="M1001 41q0 -16 -11 -28.5t-27 -12.5h-103q-16 0 -27.5 12.5t-11.5 28.5v39q-168 -94 -325 -94q-356 0 -357 426v673q0 16 12.5 28.5t28.5 12.5h99q16 0 28 -12t12 -29v-673q0 -152 52.5 -211.5t173.5 -59.5q117 0 276 80v864q0 16 12.5 28.5t28.5 12.5h101q16 0 27 -12 t11 -29v-1044zM889 1581q0 -8 -8 -16l-232 -258q-27 -31 -47 -31h-110q-18 0 -19 14q0 12 8 21l201 254q25 31 49 30h135q23 0 23 -14z" />
<glyph unicode="&#xfb;" horiz-adv-x="1140" d="M1001 41q0 -16 -11 -28.5t-27 -12.5h-103q-16 0 -27.5 12.5t-11.5 28.5v39q-168 -94 -325 -94q-356 0 -357 426v673q0 16 12.5 28.5t28.5 12.5h99q16 0 28 -12t12 -29v-673q0 -152 52.5 -211.5t173.5 -59.5q117 0 276 80v864q0 16 12.5 28.5t28.5 12.5h101q16 0 27 -12 t11 -29v-1044zM913 1290q0 -14 -18 -14h-107q-18 0 -47 31l-168 198l-170 -198q-27 -31 -47 -31h-106q-18 0 -19 14q0 12 9 21l196 254q25 31 49 30h174q27 0 52 -30l194 -254q8 -9 8 -21z" />
<glyph unicode="&#xfc;" horiz-adv-x="1140" d="M1001 41q0 -16 -11 -28.5t-27 -12.5h-103q-16 0 -27.5 12.5t-11.5 28.5v39q-168 -94 -325 -94q-356 0 -357 426v673q0 16 12.5 28.5t28.5 12.5h99q16 0 28 -12t12 -29v-673q0 -152 52.5 -211.5t173.5 -59.5q117 0 276 80v864q0 16 12.5 28.5t28.5 12.5h101q16 0 27 -12 t11 -29v-1044zM829 1352q0 -16 -12 -27.5t-29 -11.5h-79q-16 0 -28.5 11t-12.5 28v166q0 14 12 27.5t29 13.5h79q14 0 27.5 -13.5t13.5 -27.5v-166zM471 1352q0 -16 -12.5 -27.5t-28.5 -11.5h-80q-16 0 -28.5 11t-12.5 28v166q0 14 13.5 27.5t27.5 13.5h80q16 0 28.5 -13.5 t12.5 -27.5v-166z" />
<glyph unicode="&#xfd;" horiz-adv-x="1093" d="M1014 1092q0 -10 -2 -15l-338 -1179q-49 -172 -126 -238t-249 -66q-94 0 -172 19q-43 10 -43 33v75q0 33 39 33h6q135 -12 182 -12q90 0 134 35t69 139l21 84h-29q-55 0 -91 27.5t-61 113.5l-272 936q-2 4 -2 15q0 35 37 34h112q27 0 35 -32l242 -889q10 -45 39 -45h33 l249 936q8 31 39 30h115q33 1 33 -34zM913 1581q0 -8 -8 -16l-231 -258q-27 -31 -47 -31h-111q-18 0 -18 14q0 12 8 21l201 254q25 31 49 30h135q22 0 22 -14z" />
<glyph unicode="&#xfe;" horiz-adv-x="1107" d="M1006 487q0 -244 -113 -372.5t-334 -128.5q-115 0 -240 22v-370q0 -16 -11 -27.5t-27 -11.5h-105q-16 0 -26.5 11t-10.5 28v1861q0 16 12.5 28.5t28.5 12.5h99q16 0 28 -12t12 -29v-379q133 20 240 21q223 0 335 -134.5t112 -371.5v-148zM825 487v148q0 172 -60 263 t-206 91q-125 0 -240 -20v-811q113 -20 240 -21q143 0 204.5 88t61.5 262z" />
<glyph unicode="&#xff;" horiz-adv-x="1093" d="M1014 1092q0 -10 -2 -15l-338 -1179q-49 -172 -126 -238t-249 -66q-94 0 -172 19q-43 10 -43 33v75q0 33 39 33h6q135 -12 182 -12q90 0 134 35t69 139l21 84h-29q-55 0 -91 27.5t-61 113.5l-272 936q-2 4 -2 15q0 35 37 34h112q27 0 35 -32l242 -889q10 -45 39 -45h33 l249 936q8 31 39 30h115q33 1 33 -34zM827 1352q0 -16 -12 -27.5t-29 -11.5h-79q-16 0 -28.5 11t-12.5 28v166q0 14 13 27.5t28 13.5h79q16 0 28.5 -13.5t12.5 -27.5v-166zM469 1352q0 -16 -12.5 -27.5t-28.5 -11.5h-80q-16 0 -28.5 11t-12.5 28v166q0 14 12.5 27.5 t28.5 13.5h80q14 0 27.5 -13.5t13.5 -27.5v-166z" />
<glyph unicode="&#x152;" horiz-adv-x="2013" d="M1901 31q0 -25 -21 -29q-119 -18 -399 -18q-301 0 -391 170q-143 -168 -412 -168q-254 0 -404.5 158.5t-150.5 484.5v264q0 326 150.5 484.5t404.5 158.5q268 0 412 -168q92 168 391 168q281 0 399 -18q20 -4 21 -29v-96q0 -25 -23 -25h-395q-156 0 -204 -45t-48 -168 v-285h629q16 0 28.5 -12t12.5 -29v-77q0 -16 -12.5 -28.5t-28.5 -12.5h-629v-346q0 -123 48 -168t204 -45h395q23 0 23 -25v-96zM1044 627v274q0 467 -366.5 467t-366.5 -475v-264q0 -475 366.5 -475t366.5 473z" />
<glyph unicode="&#x153;" horiz-adv-x="1841" d="M1739 551q0 -45 -39 -45h-686v-21q0 -170 61.5 -256t222.5 -86q217 0 365 23h10q33 0 33 -29v-69q0 -39 -41 -48q-180 -35 -367 -34q-262 0 -376 168q-119 -168 -365 -168q-221 0 -338 134t-117 365v156q0 231 117 365.5t338 134.5q248 0 367 -168q117 168 364 168 q219 0 335 -128t116 -351v-111zM1556 643v19q0 170 -65.5 245.5t-202.5 75.5q-274 0 -274 -321v-19h542zM834 485v156q0 342 -277 342q-274 0 -274 -342v-156q0 -342 274 -342q139 0 208 89t69 253z" />
<glyph unicode="&#x178;" horiz-adv-x="1193" d="M1124 1493q0 -10 -6 -23l-317 -712q-49 -106 -111 -135v-582q0 -16 -11 -28.5t-26 -12.5h-112q-14 0 -25.5 12.5t-11.5 28.5v582q-59 23 -111 135l-315 712q-6 12 -6 23q0 29 34 29h125q25 0 37 -29l283 -664q23 -53 47.5 -53t46.5 53l285 664q12 29 35 29h125 q34 0 34 -29zM856 1681q0 -16 -12.5 -27.5t-28.5 -11.5h-80q-16 0 -28.5 11.5t-12.5 27.5v166q0 16 13.5 28.5t27.5 12.5h80q16 0 28.5 -12t12.5 -29v-166zM498 1681q0 -16 -12.5 -27.5t-28.5 -11.5h-80q-16 0 -28.5 11.5t-12.5 27.5v166q0 16 12 28.5t29 12.5h80 q14 0 27.5 -12t13.5 -29v-166z" />
<glyph unicode="&#x2c6;" horiz-adv-x="763" d="M723 1290q0 -14 -18 -14h-107q-20 0 -47 31l-168 198l-170 -198q-29 -31 -47 -31h-107q-18 0 -18 14q0 12 8 21l197 254q25 31 49 30h174q27 0 51 -30l195 -254q8 -9 8 -21z" />
<glyph unicode="&#x2dc;" horiz-adv-x="1009" d="M858 1497q0 -109 -46 -162t-146 -53q-76 0 -131 43l-125 100q-57 45 -84 45q-63 0 -64 -94v-43q0 -14 -10 -24.5t-25 -10.5h-63q-14 0 -23.5 10.5t-9.5 24.5v43q0 109 51 166t144 57q59 0 123 -49l145 -114q37 -29 72 -29q33 0 47 19.5t14 70.5v47q0 14 10.5 24.5 t24.5 10.5h63q14 0 23.5 -10t9.5 -25v-47z" />
<glyph unicode="&#x2000;" horiz-adv-x="1003" />
<glyph unicode="&#x2001;" horiz-adv-x="2007" />
<glyph unicode="&#x2002;" horiz-adv-x="1003" />
<glyph unicode="&#x2003;" horiz-adv-x="2007" />
<glyph unicode="&#x2004;" horiz-adv-x="667" />
<glyph unicode="&#x2005;" horiz-adv-x="501" />
<glyph unicode="&#x2006;" horiz-adv-x="333" />
<glyph unicode="&#x2007;" horiz-adv-x="333" />
<glyph unicode="&#x2008;" horiz-adv-x="249" />
<glyph unicode="&#x2009;" horiz-adv-x="401" />
<glyph unicode="&#x200a;" horiz-adv-x="110" />
<glyph unicode="&#x2010;" horiz-adv-x="681" d="M584 559q0 -35 -39 -35h-408q-39 0 -39 35v80q0 16 11.5 26.5t27.5 10.5h408q39 0 39 -37v-80z" />
<glyph unicode="&#x2011;" horiz-adv-x="681" d="M584 559q0 -35 -39 -35h-408q-39 0 -39 35v80q0 16 11.5 26.5t27.5 10.5h408q39 0 39 -37v-80z" />
<glyph unicode="&#x2012;" horiz-adv-x="681" d="M584 559q0 -35 -39 -35h-408q-39 0 -39 35v80q0 16 11.5 26.5t27.5 10.5h408q39 0 39 -37v-80z" />
<glyph unicode="&#x2013;" horiz-adv-x="870" d="M784 539q0 -35 -39 -35h-618q-39 0 -39 35v79q0 16 11.5 26.5t27.5 10.5h618q16 0 27.5 -10t11.5 -27v-79z" />
<glyph unicode="&#x2014;" horiz-adv-x="1138" d="M1051 539q0 -35 -39 -35h-885q-39 0 -39 35v79q0 16 11.5 26.5t27.5 10.5h885q16 0 27.5 -10t11.5 -27v-79z" />
<glyph unicode="&#x2018;" horiz-adv-x="380" d="M322 1520q0 -12 -3 -19l-75 -387q-8 -39 -41 -39h-121q-23 0 -23 23q0 10 2 16l125 387q10 39 39 39h78q19 0 19 -20z" />
<glyph unicode="&#x2019;" horiz-adv-x="380" d="M322 1518q0 -10 -3 -17l-124 -387q-10 -39 -39 -39h-78q-18 0 -19 21q0 12 2 18l76 387q8 39 41 39h121q23 1 23 -22z" />
<glyph unicode="&#x201a;" horiz-adv-x="380" d="M346 242q0 -4 -4 -17l-154 -387q-14 -39 -38 -39h-84q-25 0 -25 25q0 10 2 14l117 387q12 39 41 39h118q27 1 27 -22z" />
<glyph unicode="&#x201c;" horiz-adv-x="688" d="M629 1520q0 -12 -2 -19l-76 -387q-8 -39 -41 -39h-121q-23 0 -22 23q0 10 2 16l125 387q10 39 38 39h78q19 0 19 -20zM322 1520q0 -12 -3 -19l-75 -387q-8 -39 -41 -39h-121q-23 0 -23 23q0 10 2 16l125 387q10 39 39 39h78q19 0 19 -20z" />
<glyph unicode="&#x201d;" horiz-adv-x="688" d="M629 1518q0 -10 -2 -17l-125 -387q-10 -39 -39 -39h-78q-18 0 -18 21q0 12 2 18l75 387q8 39 41 39h121q23 1 23 -22zM322 1518q0 -10 -3 -17l-124 -387q-10 -39 -39 -39h-78q-18 0 -19 21q0 12 2 18l76 387q8 39 41 39h121q23 1 23 -22z" />
<glyph unicode="&#x201e;" horiz-adv-x="688" d="M715 242q0 -4 -4 -17l-154 -387q-14 -39 -39 -39h-84q-25 0 -24 25q0 10 2 14l116 387q12 39 41 39h119q27 1 27 -22zM346 242q0 -4 -4 -17l-154 -387q-14 -39 -38 -39h-84q-25 0 -25 25q0 10 2 14l117 387q12 39 41 39h118q27 1 27 -22z" />
<glyph unicode="&#x2022;" horiz-adv-x="856" d="M754 751.5q0 -135.5 -95.5 -230.5t-230.5 -95t-230.5 95t-95.5 230.5t95.5 230.5t230.5 95t230.5 -95t95.5 -230.5z" />
<glyph unicode="&#x2026;" horiz-adv-x="1241" d="M1122 39q0 -16 -11 -27.5t-28 -11.5h-98q-16 0 -28.5 11.5t-12.5 27.5v192q0 14 12.5 26.5t28.5 12.5h98q14 0 26.5 -12t12.5 -27v-192zM711 39q0 -16 -12.5 -27.5t-28.5 -11.5h-99q-16 0 -27.5 11.5t-11.5 27.5v192q0 14 12.5 26.5t26.5 12.5h99q16 0 28.5 -12t12.5 -27 v-192zM297 39q0 -16 -11.5 -27.5t-27.5 -11.5h-98q-16 0 -28.5 11.5t-12.5 27.5v192q0 14 12 26.5t29 12.5h98q16 0 27.5 -12t11.5 -27v-192z" />
<glyph unicode="&#x202f;" horiz-adv-x="401" />
<glyph unicode="&#x2039;" horiz-adv-x="724" d="M614 162q0 -18 -22 -19h-119q-23 0 -43 21l-346 346q-23 23 -23 57.5t23 57.5l346 346q20 20 43 20h119q23 0 22 -18q0 -14 -12 -27l-364 -379l364 -379q12 -12 12 -26z" />
<glyph unicode="&#x203a;" horiz-adv-x="724" d="M664 567q0 -35 -23 -57l-346 -346q-20 -20 -43 -21h-119q-23 0 -22 19q0 14 12 26l364 379l-364 379q-12 12 -12 27q0 18 22 18h119q23 0 43 -20l346 -346q23 -23 23 -58z" />
<glyph unicode="&#x205f;" horiz-adv-x="501" />
<glyph unicode="&#x20ac;" d="M1135 53q0 -33 -41 -41q-139 -27 -308 -26q-98 0 -188 27.5t-175 88t-141.5 174t-66.5 267.5h-68q-16 0 -28.5 12t-12.5 29v57q0 16 12.5 28.5t28.5 12.5h66v166h-66q-16 0 -28.5 12t-12.5 29v57q0 16 12.5 28.5t28.5 12.5h68q8 125 48 222.5t97.5 157.5t132 99 t146.5 54.5t147 15.5q104 0 312 -33q33 -4 32 -26v-105q0 -23 -24 -22h-6q-221 18 -312 18q-154 0 -260 -90t-125 -291h594q35 0 35 -33v-4l-2 -4l-14 -57q-10 -41 -41 -41h-576v-166h527q31 0 30 -31l-2 -4v-6l-14 -57q-10 -41 -41 -41h-498q16 -203 124 -296t263 -93 q109 0 306 16h8q33 0 33 -33v-84z" />
<glyph unicode="&#x2122;" horiz-adv-x="1617" d="M1530 709q0 -20 -21 -21h-84q-20 0 -20 21v491q0 129 -37 170t-178 41v-702q0 -20 -21 -21h-86q-20 0 -20 21v702q-102 0 -217 -12v-690q0 -20 -19 -21h-84q-20 0 -20 21v759q0 37 31 39q199 20 372 21q225 0 314.5 -64.5t89.5 -263.5v-491zM649 1440q0 -29 -35 -29h-198 v-690q0 -12 -9.5 -22.5t-23.5 -10.5h-66q-31 0 -30 33v690h-203q-33 0 -33 29v51q0 31 33 31h530q12 0 23.5 -9.5t11.5 -21.5v-51z" />
<glyph unicode="&#xe000;" horiz-adv-x="1125" d="M0 1125h1125v-1125h-1125v1125z" />
<glyph unicode="&#xfb01;" horiz-adv-x="1271" d="M1112 1348q0 -16 -12.5 -28.5t-28.5 -12.5h-104q-16 0 -28.5 12t-12.5 29v163q0 16 12 28.5t29 12.5h104q16 0 28.5 -12t12.5 -29v-163zM1108 41q0 -16 -12.5 -28.5t-28.5 -12.5h-98q-16 0 -28.5 12.5t-12.5 28.5v1044q0 16 12 28.5t29 12.5h98q16 0 28.5 -12t12.5 -29 v-1044zM729 1446q0 -31 -37 -31h-98q-74 0 -99.5 -28.5t-25.5 -112.5v-148h215q16 0 27.5 -10t11.5 -26v-80q0 -35 -39 -35h-215v-934q0 -16 -12.5 -28.5t-26.5 -12.5h-100q-16 0 -28.5 12.5t-12.5 28.5v934l-199 22q-39 4 -39 37v56q0 16 11.5 26t27.5 10h199v148 q0 158 71.5 221.5t214.5 63.5q49 0 115 -13q39 -6 39 -33v-67z" />
<glyph unicode="&#xfb02;" horiz-adv-x="1267" d="M1108 41q0 -16 -10.5 -28.5t-26.5 -12.5h-106q-14 0 -25.5 12.5t-11.5 28.5v1460q0 39 37 39h106q16 0 26.5 -11t10.5 -28v-1460zM729 1446q0 -31 -37 -31h-98q-74 0 -99.5 -28.5t-25.5 -112.5v-148h215q16 0 27.5 -10t11.5 -26v-80q0 -35 -39 -35h-215v-934 q0 -16 -12.5 -28.5t-26.5 -12.5h-100q-16 0 -28.5 12.5t-12.5 28.5v934l-199 22q-39 4 -39 37v56q0 16 11.5 26t27.5 10h199v148q0 158 71.5 221.5t214.5 63.5q49 0 115 -13q39 -6 39 -33v-67z" />
<glyph unicode="&#xfb03;" horiz-adv-x="2066" d="M1907 1348q0 -16 -12 -28.5t-29 -12.5h-104q-16 0 -28.5 12t-12.5 29v163q0 16 12 28.5t29 12.5h104q16 0 28.5 -12t12.5 -29v-163zM1903 41q0 -16 -12.5 -28.5t-28.5 -12.5h-98q-16 0 -28.5 12.5t-12.5 28.5v1044q0 16 12 28.5t29 12.5h98q16 0 28.5 -12t12.5 -29v-1044 zM1509 1446q0 -31 -37 -31h-98q-74 0 -99.5 -28.5t-25.5 -112.5v-148h215q16 0 27.5 -10t11.5 -26v-80q0 -35 -39 -35h-215v-934q0 -16 -12.5 -28.5t-26.5 -12.5h-100q-16 0 -28.5 12.5t-12.5 28.5v934l-199 22q-39 4 -39 37v56q0 16 11.5 26t27.5 10h199v148 q0 158 71.5 221.5t214.5 63.5q61 0 115 -13q39 -10 39 -33v-67zM729 1446q0 -31 -37 -31h-98q-74 0 -99.5 -28.5t-25.5 -112.5v-148h215q16 0 27.5 -10t11.5 -26v-80q0 -35 -39 -35h-215v-934q0 -16 -12.5 -28.5t-26.5 -12.5h-100q-16 0 -28.5 12.5t-12.5 28.5v934l-199 22 q-39 4 -39 37v56q0 16 11.5 26t27.5 10h199v148q0 158 71.5 221.5t214.5 63.5q61 0 115 -13q39 -10 39 -33v-67z" />
<glyph unicode="&#xfb04;" horiz-adv-x="2060" d="M1901 41q0 -16 -10.5 -28.5t-26.5 -12.5h-106q-14 0 -25.5 12.5t-11.5 28.5v1460q0 39 37 39h106q16 0 26.5 -11t10.5 -28v-1460zM1509 1446q0 -31 -37 -31h-98q-74 0 -99.5 -28.5t-25.5 -112.5v-148h215q16 0 27.5 -10t11.5 -26v-80q0 -35 -39 -35h-215v-934 q0 -16 -12.5 -28.5t-26.5 -12.5h-100q-16 0 -28.5 12.5t-12.5 28.5v934l-199 22q-39 4 -39 37v56q0 16 11.5 26t27.5 10h199v148q0 158 71.5 221.5t214.5 63.5q61 0 115 -13q39 -10 39 -33v-67zM729 1446q0 -31 -37 -31h-98q-74 0 -99.5 -28.5t-25.5 -112.5v-148h215 q16 0 27.5 -10t11.5 -26v-80q0 -35 -39 -35h-215v-934q0 -16 -12.5 -28.5t-26.5 -12.5h-100q-16 0 -28.5 12.5t-12.5 28.5v934l-199 22q-39 4 -39 37v56q0 16 11.5 26t27.5 10h199v148q0 158 71.5 221.5t214.5 63.5q61 0 115 -13q39 -10 39 -33v-67z" />
</font>
</defs>
</svg>
