<?xml version="1.0" standalone="no"?>
<!DOCTYPE svg PUBLIC "-//W3C//DTD SVG 1.1//EN" "http://www.w3.org/Graphics/SVG/1.1/DTD/svg11.dtd" >
<svg xmlns="http://www.w3.org/2000/svg">
<metadata>
This is a custom SVG webfont generated by Font Squirrel.
Copyright   : Digitized data C 2004 Agfa Monotype Corporation Neo SansTM is a trademark of Agfa Monotype Corporation and may be registered in certain jurisdictions  All rights reserved Neo Sans is designed by Sebastian Lester
Foundry     : Digitized data C Agfa Monotype Corporation Neo SansTM is a trademark of Agfa Monotype Corporation and may be registered in certain jurisdictions
</metadata>
<defs>
<font id="webfontl7KcWL7s" horiz-adv-x="1320" >
<font-face units-per-em="2048" ascent="1638" descent="-410" />
<missing-glyph horiz-adv-x="532" />
<glyph unicode=" "  horiz-adv-x="532" />
<glyph unicode="&#x09;" horiz-adv-x="532" />
<glyph unicode="&#xa0;" horiz-adv-x="532" />
<glyph unicode="!" horiz-adv-x="559" d="M451 1532v-2l-41 -1022q0 -16 -12.5 -29.5t-28.5 -13.5h-174q-16 0 -30.5 13.5t-14.5 29.5l-41 1022v2q0 14 14 26.5t31 12.5h256q16 0 28.5 -11.5t12.5 -27.5zM440 41q0 -16 -11 -28.5t-28 -12.5h-241q-16 0 -28.5 12.5t-12.5 28.5v258q0 16 12 27.5t29 11.5h241 q39 0 39 -39v-258z" />
<glyph unicode="&#x22;" horiz-adv-x="966" d="M920 1548q0 -4 -5 -16l-153 -449q-14 -39 -39 -39h-207q-18 0 -18 21q0 12 2 18l110 449q8 39 41 39h244q25 0 25 -23zM471 1548q0 -4 -4 -16l-154 -449q-14 -39 -39 -39h-206q-18 0 -19 21q0 12 2 18l111 449q8 39 41 39h243q25 0 25 -23z" />
<glyph unicode="#" horiz-adv-x="1431" d="M1333 1104v-4l-24 -156q-4 -23 -31 -22h-174l-31 -330h172q12 0 24.5 -8.5t12.5 -20.5v-4l-22 -145q-2 -10 -12.5 -20.5t-20.5 -10.5h-172l-29 -344q-4 -39 -37 -39h-209q-33 0 -32 35v4l28 344h-231l-31 -344q-4 -39 -37 -39h-211q-14 0 -23.5 10t-9.5 25v4l29 344h-174 q-29 0 -29 27v4l25 153q4 25 29 25h170l28 330h-174q-29 0 -28 24v4l24 158q4 23 33 22h164l30 353q2 16 13.5 27.5t25.5 11.5h211q31 0 31 -35v-4l-31 -353h232l32 353q4 39 39 39h209q31 0 31 -35v-4l-33 -353h178q35 1 35 -26zM825 922h-231l-31 -330h232z" />
<glyph unicode="$" d="M1178 430q0 -152 -92.5 -271.5t-288.5 -160.5v-193q0 -16 -12.5 -28.5t-28.5 -12.5h-226q-16 0 -28.5 12.5t-12.5 28.5v183q-137 8 -260 39q-39 12 -39 41v200q0 16 11.5 27.5t27.5 11.5h4q201 -25 388 -24q102 0 143 34.5t41 108.5q0 45 -27.5 77t-107.5 79l-283 168 q-135 80 -189.5 175t-54.5 216q0 324 346 385v176q0 16 12.5 28.5t28.5 12.5h226q16 0 28.5 -12.5t12.5 -28.5v-168q201 -14 299 -39q39 -12 39 -39v-203q0 -16 -10.5 -26t-26.5 -10h-4q-233 23 -435 22q-84 0 -120.5 -25.5t-36.5 -83.5q0 -39 27.5 -69.5t109.5 -73.5 l260 -141q152 -82 215.5 -183.5t63.5 -232.5z" />
<glyph unicode="%" horiz-adv-x="1718" d="M1640 340q0 -352 -301 -352q-147 0 -225 88t-78 264v154q0 176 78 264t225 88q301 0 301 -352v-154zM1430 1505q0 -14 -9 -24l-852 -1438q-25 -43 -47 -43h-211q-23 0 -22 23q0 8 6 20l852 1438q25 41 51 41h211q21 -1 21 -17zM684 1028q0 -176 -78 -264t-225.5 -88 t-225 88t-77.5 264v154q0 350 303 350t303 -350v-154zM1436 340v154q0 98 -23.5 136t-73 38t-74 -38t-24.5 -136v-154q0 -98 24.5 -136t74 -38t73 38t23.5 136zM477 1028v154q0 98 -23.5 136t-72.5 38t-73.5 -38t-24.5 -136v-154q0 -98 24.5 -137t73.5 -39q47 0 71.5 39 t24.5 137z" />
<glyph unicode="&#x26;" horiz-adv-x="1499" d="M1462 25q0 -25 -24 -25h-291q-18 0 -35 16l-61 66q-162 -100 -381 -100q-258 0 -413 97t-155 304v18q0 125 69 219.5t204 178.5l-17 18q-106 119 -144 197t-38 153v19q0 160 122 257t364 97q223 0 344.5 -97t121.5 -257v-19q0 -129 -69.5 -213t-200.5 -170l-63 -41 l266 -280q35 82 35 254v16q0 41 37 41h190q16 0 27.5 -12t11.5 -29v-16q0 -264 -119 -447l209 -221q10 -10 10 -24zM823 1167v19q0 57 -41 91t-120 34q-88 0 -135.5 -34t-47.5 -91v-19q0 -51 20.5 -94t94.5 -117l16 -16l54 33q94 59 126.5 98t32.5 96zM874 266l-313 334 q-70 -41 -94.5 -88t-24.5 -111v-18q0 -80 61.5 -122t166.5 -42q120 0 204 47z" />
<glyph unicode="'" horiz-adv-x="518" d="M471 1548q0 -4 -4 -16l-154 -449q-14 -39 -39 -39h-206q-18 0 -19 21q0 12 2 18l111 449q8 39 41 39h243q25 0 25 -23z" />
<glyph unicode="(" horiz-adv-x="739" d="M672 -377q0 -20 -25 -20h-205q-49 0 -69 28q-135 190 -202 406.5t-67 505.5v37q0 289 67 506t202 407q20 29 69 29h205q25 0 25 -21q0 -12 -10 -33q-221 -410 -222 -888v-37q0 -477 222 -887q10 -21 10 -33z" />
<glyph unicode=")" horiz-adv-x="739" d="M635 543q0 -289 -66.5 -505t-201.5 -407q-20 -29 -70 -28h-205q-25 0 -24 20q0 12 10 33q221 410 221 887v37q0 479 -221 888q-10 20 -10 33q0 20 24 21h205q49 0 70 -29q135 -190 201.5 -407.5t66.5 -505.5v-37z" />
<glyph unicode="*" horiz-adv-x="980" d="M911 1167q0 -20 -30 -30l-236 -70l148 -201q10 -16 10 -28q0 -16 -12 -25l-107 -78q-8 -6 -18 -6q-18 0 -33 21l-141 204l-142 -204q-14 -20 -33 -21q-10 0 -18 6l-109 78q-14 8 -14 25q0 8 12 28l148 201l-234 70q-33 10 -32 32q0 6 2 11l41 129q6 20 26 20q6 0 23 -4 l235 -78l-6 244q0 43 33 43h135q31 0 31 -43l-2 -244l231 78q16 4 23 4q20 0 26 -20l41 -129q2 -5 2 -13z" />
<glyph unicode="+" d="M1174 709q0 -33 -41 -33h-349v-346q0 -41 -32 -41h-185q-33 0 -32 41v346h-347q-41 0 -41 33v184q0 33 41 33h347v348q0 41 32 41h185q33 0 32 -41v-348h349q41 0 41 -33v-184z" />
<glyph unicode="," horiz-adv-x="561" d="M473 313q0 -6 -4 -14l-197 -459q-18 -41 -39 -41h-180q-14 0 -24.5 9.5t-10.5 21.5q0 2 1 5t1 5l132 459q10 39 41 39h249q31 0 31 -25z" />
<glyph unicode="-" horiz-adv-x="618" d="M549 541q0 -37 -41 -37h-397q-41 0 -41 37v164q0 16 12 27t29 11h397q16 0 28.5 -11t12.5 -27v-164z" />
<glyph unicode="." horiz-adv-x="561" d="M442 41q0 -16 -12 -28.5t-29 -12.5h-239q-16 0 -29.5 12.5t-13.5 28.5v258q0 16 13 27.5t30 11.5h239q16 0 28.5 -11.5t12.5 -27.5v-258z" />
<glyph unicode="/" horiz-adv-x="829" d="M801 1489l-2 -2v-6l-432 -1438q-12 -43 -41 -43h-260q-16 0 -27.5 10t-11.5 25q0 2 1 4t1 4l434 1438q10 41 41 41h260q14 0 25.5 -9.5t11.5 -23.5z" />
<glyph unicode="0" d="M1212 672q0 -690 -553 -690q-551 0 -550 690v176q0 692 550 692q553 0 553 -692v-176zM862 672v176q0 225 -53 313t-149.5 88t-148.5 -88t-52 -313v-176q0 -225 52 -312.5t148.5 -87.5t149.5 87.5t53 312.5z" />
<glyph unicode="1" d="M868 41q0 -16 -11 -28.5t-28 -12.5h-268q-16 0 -28.5 12.5t-12.5 28.5v1130l-229 -94q-16 -6 -25 -6q-23 0 -22 27v233q0 20 20 29l334 153q18 8 47 9h184q39 0 39 -39v-1442z" />
<glyph unicode="2" d="M1167 1149q0 -225 -235 -385l-174 -117q-80 -53 -123 -85t-89 -77t-65.5 -90t-19.5 -96v-8h647q16 0 28.5 -11.5t12.5 -27.5v-211q0 -16 -12.5 -28.5t-28.5 -12.5h-911q-16 0 -28.5 12.5t-12.5 28.5v209q0 162 76.5 297t201.5 223l189 133q156 109 180 139q29 35 28 99 q0 68 -47 95.5t-170 27.5q-133 0 -403 -27h-4q-37 0 -37 41v160q0 27 39 39q209 63 436 63q279 0 400.5 -95t121.5 -296z" />
<glyph unicode="3" d="M1159 434q0 -227 -143.5 -339.5t-390.5 -112.5q-238 0 -424 57q-39 12 -39 39v164q0 37 37 37h4q215 -18 407 -19q203 0 203 174v37q0 176 -166 176h-360q-16 0 -27.5 12.5t-11.5 28.5v174q0 39 39 39h352q92 0 133 50t41 128v29q0 76 -45 115t-158 39q-137 0 -403 -25 h-4q-37 0 -37 37v164q0 27 41 39q207 63 418 63q262 0 398 -98.5t136 -321.5v-28q0 -90 -51 -179.5t-131 -134.5q84 -45 133 -126t49 -181v-37z" />
<glyph unicode="4" d="M1241 383q0 -16 -12 -28.5t-29 -12.5h-135v-301q0 -16 -11.5 -28.5t-27.5 -12.5h-272q-16 0 -27.5 12.5t-11.5 28.5v301h-592q-16 0 -28.5 12.5t-12.5 28.5v199q0 31 22 63l648 848q23 29 53 29h219q16 0 28.5 -12.5t12.5 -28.5v-869h135q16 0 28.5 -12t12.5 -29v-188z M725 612v451q0 12 -8 12q-2 0 -6 -4l-322 -438q-4 -4 -4 -12.5t12 -8.5h328z" />
<glyph unicode="5" d="M1159 483q0 -244 -142.5 -372.5t-410.5 -128.5q-213 0 -403 59q-41 12 -41 45v162q0 37 37 37h4q221 -25 368 -25q137 0 186.5 54.5t49.5 168.5v17q0 104 -61.5 146t-229.5 42h-317q-12 0 -20.5 9.5t-8.5 19.5v2l63 764q2 16 14.5 27.5t26.5 11.5h797q16 0 28.5 -11.5 t12.5 -27.5v-205q0 -16 -12.5 -27.5t-28.5 -11.5h-557l-25 -283h60q139 0 245.5 -21.5t191.5 -72.5t129 -142t44 -220v-17z" />
<glyph unicode="6" d="M1206 502q0 -240 -140 -380t-400 -140q-256 0 -402.5 152.5t-146.5 449.5v313q0 643 569 643q236 0 404 -41q45 -12 45 -45v-178q0 -43 -37 -43h-11q-172 29 -372 29q-137 0 -196.5 -66t-59.5 -233v-15q127 25 241 25q227 0 366.5 -108.5t139.5 -348.5v-14zM864 502v14 q0 213 -219 213q-68 0 -186 -20v-125q0 -195 53 -265.5t154 -70.5q94 0 146 56.5t52 197.5z" />
<glyph unicode="7" d="M1161 1305q0 -25 -33 -95l-538 -1171q-18 -39 -51 -39h-281q-37 0 -37 25q0 10 6 22l557 1170q2 4 2 10q0 12 -14 12h-567q-16 0 -29.5 11.5t-13.5 27.5v205q0 16 13 27.5t30 11.5h887q29 0 49 -20.5t20 -47.5v-149z" />
<glyph unicode="8" d="M1214 436q0 -217 -147 -335.5t-395 -118.5h-23q-248 0 -395.5 118.5t-147.5 335.5v27q0 201 175 328q-166 115 -166 307v22q0 209 142 314.5t392 105.5h23q250 0 393 -105.5t143 -314.5v-22q0 -193 -168 -307q174 -127 174 -328v-27zM879 1087v11q0 186 -207 186h-23 q-207 0 -207 -186v-11q0 -82 47.5 -130t139.5 -48h63q92 0 139.5 48t47.5 130zM877 446v21q0 80 -45.5 138.5t-139.5 58.5h-63q-94 0 -139.5 -58.5t-45.5 -138.5v-21q0 -92 53.5 -149t151.5 -57h23q98 0 151.5 57t53.5 149z" />
<glyph unicode="9" d="M1206 625q0 -643 -569 -643q-236 0 -404 41q-45 10 -45 45v178q0 43 37 43h11q172 -29 372 -29q137 0 196.5 65.5t59.5 233.5v14q-127 -25 -241 -24q-227 0 -366.5 108.5t-139.5 348.5v14q0 238 140 379t400 141q256 0 402.5 -152.5t146.5 -449.5v-313zM864 813v125 q0 195 -53 265.5t-154 70.5q-94 0 -146 -56.5t-52 -197.5v-14q0 -213 219 -213q67 0 186 20z" />
<glyph unicode=":" horiz-adv-x="563" d="M442 823q0 -16 -12 -27.5t-29 -11.5h-239q-16 0 -29.5 11.5t-13.5 27.5v258q0 16 13 28.5t30 12.5h239q16 0 28.5 -12t12.5 -29v-258zM442 41q0 -16 -12 -28.5t-29 -12.5h-239q-16 0 -29.5 12.5t-13.5 28.5v258q0 16 13 27.5t30 11.5h239q16 0 28.5 -11.5t12.5 -27.5 v-258z" />
<glyph unicode=";" horiz-adv-x="563" d="M442 823q0 -16 -13 -27.5t-30 -11.5h-239q-16 0 -28.5 11.5t-12.5 27.5v258q0 16 12 28.5t29 12.5h239q16 0 29.5 -12t13.5 -29v-258zM442 309q0 -6 -4 -14l-194 -459q-18 -41 -41 -41h-180q-14 0 -24.5 9.5t-10.5 21.5q0 2 1 5t1 5l131 459q10 39 41 39h250q30 0 30 -25 z" />
<glyph unicode="&#x3c;" d="M1098 307q0 -27 -25 -26h-285q-23 0 -49 22l-477 424q-41 35 -41 74t41 73l477 424q27 23 49 23h285q25 0 25 -27q0 -12 -13 -24l-530 -469l530 -469q13 -13 13 -25z" />
<glyph unicode="=" d="M1130 971q0 -33 -40 -33h-859q-41 0 -41 33v184q0 33 41 33h859q41 0 40 -33v-184zM1130 446q0 -33 -40 -32h-859q-41 0 -41 32v185q0 33 41 33h859q41 0 40 -33v-185z" />
<glyph unicode="&#x3e;" d="M1098 801q0 -37 -43 -74l-475 -424q-27 -23 -50 -22h-284q-25 0 -25 26q0 12 12 25l531 469l-531 469q-12 12 -12 24q0 27 25 27h284q23 0 50 -23l475 -424q43 -36 43 -73z" />
<glyph unicode="?" horiz-adv-x="980" d="M883 1188q0 -68 -35 -138.5t-123 -183.5l-92 -118q-100 -129 -111 -156q-4 -14 -4 -31v-57q0 -16 -15.5 -27.5t-33.5 -11.5h-205q-16 0 -27.5 12t-11.5 29v55q0 88 15.5 143.5t70.5 126.5l99 130q94 125 94 206v21q0 76 -101 76q-113 0 -292 -23h-7q-35 0 -34 43v182 q0 43 36 54q141 43 328 43q223 0 336 -78t113 -262v-35zM537 39q0 -16 -12.5 -27.5t-28.5 -11.5h-242q-16 0 -28.5 11.5t-12.5 27.5v258q0 16 12.5 28.5t28.5 12.5h242q16 0 28.5 -12.5t12.5 -28.5v-258z" />
<glyph unicode="@" horiz-adv-x="1585" d="M1518 739q0 -348 -200 -496.5t-560 -148.5q-162 0 -259.5 77t-97.5 220q0 6 1 18.5t1 18.5l19 238q14 174 120.5 258t284.5 84q129 0 273 -31q49 -10 49 -55v-9l-57 -612q260 43 260 438q0 199 -124 334t-366 135q-266 0 -417.5 -130t-174.5 -373l-30 -328q-4 -49 -4 -70 q0 -184 129 -294.5t380 -110.5q68 0 170.5 8t131.5 8h2h8q16 0 16 -20v-80q0 -23 -24 -27q-174 -20 -304 -20q-303 0 -489 142t-186 398v6q0 39 2 60l32 338q29 297 227.5 468t532.5 171q211 0 362.5 -89t221.5 -225.5t70 -300.5zM905 803q-57 10 -104 10q-74 0 -104.5 -34 t-41.5 -122l-22 -227q-2 -12 -2 -35q0 -59 31.5 -82.5t109.5 -23.5q59 0 86 2z" />
<glyph unicode="A" horiz-adv-x="1370" d="M1331 33q0 -33 -35 -33h-286q-33 0 -41 37l-74 336h-420l-74 -336q-8 -37 -41 -37h-286q-35 0 -35 33l2 4v6l305 1270q33 133 122 180t218 47t217 -47t121 -180l305 -1270q0 -2 2 -6v-4zM838 653l-125 566q-6 31 -27 30q-23 0 -29 -30l-125 -566h306z" />
<glyph unicode="B" horiz-adv-x="1370" d="M1276 440q0 -459 -645 -458q-238 0 -375 24q-63 10 -88 38t-25 95v1245q0 68 23.5 95.5t85.5 38.5q154 23 366 22q311 0 479.5 -98.5t168.5 -329.5v-37q0 -100 -46 -181t-126 -120q84 -41 133 -120t49 -183v-31zM928 1059v31q0 86 -63.5 124.5t-219.5 38.5 q-127 0 -156 -2v-354h230q209 0 209 162zM936 449v22q0 182 -217 182h-230v-383q16 0 85 -1t83 -1q152 0 215.5 45.5t63.5 135.5z" />
<glyph unicode="C" horiz-adv-x="1148" d="M1065 63q0 -35 -45 -47q-104 -35 -305 -34q-123 0 -227.5 34.5t-191.5 107.5t-137 203t-50 306v258q0 176 50 306t137 203t191.5 106.5t227.5 33.5q201 0 305 -35q45 -12 45 -45v-198q0 -41 -39 -41h-6q-207 16 -303 16q-254 0 -254 -346v-258q0 -346 254 -346 q96 0 303 16h6q39 0 39 -41v-199z" />
<glyph unicode="D" horiz-adv-x="1396" d="M1292 629q0 -319 -171 -483t-482 -164q-256 0 -436 30q-59 10 -60 72v1354q0 61 60 71q180 31 436 31q311 0 482 -164t171 -483v-264zM942 629v264q0 197 -77 273.5t-226 76.5q-88 0 -145 -4v-956q57 -4 145 -4q150 0 226.5 76.5t76.5 273.5z" />
<glyph unicode="E" horiz-adv-x="1187" d="M1073 51q0 -37 -41 -43q-186 -27 -397 -26q-111 0 -192 17t-154.5 62t-112.5 135.5t-39 225.5v680q0 135 39 225t114 134t155.5 61.5t191.5 17.5q209 0 395 -27q41 -6 41 -40v-191q0 -16 -12 -28.5t-29 -12.5h-416q-74 0 -102.5 -29.5t-28.5 -109.5v-187h531 q16 0 28.5 -12t12.5 -29v-194q0 -16 -12.5 -28.5t-28.5 -12.5h-531v-217q0 -80 29 -109.5t102 -29.5h416q16 0 28.5 -12.5t12.5 -28.5v-191z" />
<glyph unicode="F" horiz-adv-x="1189" d="M1073 1280q0 -16 -12 -28.5t-29 -12.5h-416q-74 0 -102.5 -29.5t-28.5 -109.5v-185h531q16 0 28.5 -12t12.5 -29v-194q0 -16 -12.5 -28.5t-28.5 -12.5h-531v-598q0 -16 -12 -28.5t-29 -12.5h-266q-16 0 -28.5 12.5t-12.5 28.5v1059q0 135 39 225t114 134t155.5 61.5 t191.5 17.5q209 0 395 -27q41 -6 41 -41v-190z" />
<glyph unicode="G" d="M1188 1245q0 -27 -31 -26h-6q-393 16 -426 16q-133 0 -200.5 -78t-67.5 -270v-256q0 -190 67.5 -269t161.5 -79q84 0 158 6v471q0 16 11 28.5t28 12.5h262q16 0 28.5 -12.5t12.5 -28.5v-688q0 -39 -41 -47q-211 -43 -459 -43q-76 0 -150.5 17t-154.5 63.5t-140.5 117 t-99.5 187t-39 266.5v254q0 186 54.5 320t147.5 204t196.5 99.5t224.5 29.5q211 0 428 -47q35 -6 35 -31v-217z" />
<glyph unicode="H" horiz-adv-x="1492" d="M1350 41q0 -16 -12.5 -28.5t-28.5 -12.5h-269q-16 0 -28.5 12.5t-12.5 28.5v592h-505v-592q0 -16 -12.5 -28.5t-28.5 -12.5h-269q-16 0 -28.5 12.5t-12.5 28.5v1442q0 16 12.5 27.5t28.5 11.5h269q16 0 28.5 -11.5t12.5 -27.5v-545h505v545q0 16 12.5 27.5t28.5 11.5h269 q16 0 28.5 -11.5t12.5 -27.5v-1442z" />
<glyph unicode="I" horiz-adv-x="636" d="M494 41q0 -16 -11.5 -28.5t-27.5 -12.5h-275q-37 0 -37 41v1442q0 39 37 39h275q39 0 39 -39v-1442z" />
<glyph unicode="J" horiz-adv-x="636" d="M494 -12q0 -195 -97.5 -275t-269.5 -80q-57 0 -131 9q-31 4 -31 34v209q0 29 23 29h102q33 0 43 16.5t10 57.5v1495q0 16 12.5 27.5t28.5 11.5h269q16 0 28.5 -11.5t12.5 -27.5v-1495z" />
<glyph unicode="K" horiz-adv-x="1388" d="M1335 1499q0 -12 -10 -29l-487 -692l489 -735q8 -10 8 -23q0 -20 -28 -20h-353q-27 0 -45 29l-415 676v-664q0 -16 -12.5 -28.5t-28.5 -12.5h-269q-16 0 -28.5 12.5t-12.5 28.5v1442q0 16 12.5 27.5t28.5 11.5h269q16 0 28.5 -11.5t12.5 -27.5v-652l450 666q14 25 45 25 h314q32 0 32 -23z" />
<glyph unicode="L" horiz-adv-x="1062" d="M1018 51q0 -35 -41 -43q-125 -27 -334 -26q-111 0 -191.5 17t-155.5 62t-114 135.5t-39 225.5v1059q0 16 12.5 28.5t28.5 12.5h269q16 0 28.5 -12.5t12.5 -28.5v-1059q0 -80 28.5 -109.5t102.5 -29.5h352q16 0 28.5 -12.5t12.5 -28.5v-191z" />
<glyph unicode="M" horiz-adv-x="1671" d="M1528 29q0 -29 -35 -29h-270q-14 0 -23.5 12.5t-9.5 28.5v854q0 16 -10 16q-8 0 -17 -14l-184 -338q-20 -35 -61 -35h-164q-41 0 -62 35l-184 338q-8 14 -16 14q-10 0 -11 -16v-854q0 -16 -9 -28.5t-23 -12.5h-271q-35 0 -35 29v1423q0 33 20.5 51.5t53.5 18.5h193 q61 0 90 -56l313 -583q14 -27 22.5 -27t22.5 27l313 583q29 55 91 56h192q33 0 53.5 -19.5t20.5 -52.5v-1421z" />
<glyph unicode="N" horiz-adv-x="1492" d="M1350 78q0 -33 -23.5 -55.5t-56.5 -22.5h-201q-70 0 -106 63l-467 807q-10 16 -19 17q-10 0 -10 -17v-829q0 -16 -12.5 -28.5t-28.5 -12.5h-242q-16 0 -28.5 12.5t-12.5 28.5v1403q0 33 22.5 55.5t55.5 22.5h207q49 0 86 -64l485 -844q10 -16 17 -16q10 0 10 18v867 q0 16 12.5 27.5t28.5 11.5h242q16 0 28.5 -11.5t12.5 -27.5v-1405z" />
<glyph unicode="O" horiz-adv-x="1429" d="M1321 639q0 -338 -167 -497.5t-439.5 -159.5t-439 159.5t-166.5 497.5v244q0 338 166.5 497.5t439 159.5t439.5 -159.5t167 -497.5v-244zM969 639v244q0 182 -61.5 266t-192.5 84q-129 0 -190.5 -84t-61.5 -266v-244q0 -182 61.5 -266t190.5 -84q131 0 192.5 84t61.5 266 z" />
<glyph unicode="P" horiz-adv-x="1333" d="M1266 1028q0 -137 -51.5 -237.5t-141.5 -154.5t-192.5 -79t-225.5 -25q-12 0 -166 7v-498q0 -16 -12 -28.5t-28 -12.5h-265q-16 0 -28.5 11.5t-12.5 27.5v1376q0 49 20.5 69.5t72.5 28.5q170 27 415 27q125 0 228.5 -23.5t193.5 -78t141.5 -153.5t51.5 -238v-19z M918 1028v19q0 106 -65 154t-198 48q-92 0 -166 -6v-418q45 -4 166 -4q135 0 199 51.5t64 155.5z" />
<glyph unicode="Q" horiz-adv-x="1429" d="M1321 639q0 -283 -119 -440.5t-321 -200.5v-41q0 -51 51 -51h184q49 0 49 -33v-168q0 -33 -47 -45q-106 -27 -227 -27q-340 0 -340 322v43q-205 43 -323.5 200.5t-118.5 440.5v244q0 338 166.5 497.5t439 159.5t439.5 -159.5t167 -497.5v-244zM969 639v244 q0 182 -61.5 266t-192.5 84q-129 0 -190.5 -84t-61.5 -266v-244q0 -182 61.5 -266t190.5 -84q131 0 192.5 84t61.5 266z" />
<glyph unicode="R" horiz-adv-x="1392" d="M1319 25q0 -25 -31 -25h-313q-20 0 -41 41l-275 518l-22 -2q-23 0 -75 2t-70 2v-520q0 -16 -12.5 -28.5t-28.5 -12.5h-267q-16 0 -28.5 12.5t-12.5 28.5v1374q0 49 20.5 69.5t72.5 28.5q174 27 415 27q616 0 617 -479v-27q0 -156 -73 -259t-191 -150l309 -578 q6 -12 6 -22zM920 1034v27q0 182 -269 182q-86 0 -159 -6v-393q45 -4 145 -4q160 0 221.5 44t61.5 150z" />
<glyph unicode="S" horiz-adv-x="1204" d="M1118 430q0 -86 -29.5 -163t-92 -142.5t-175 -104t-262.5 -38.5q-211 0 -387 45q-41 12 -41 41v200q0 39 37 39h6q252 -25 389 -24q102 0 142 33.5t40 109.5q0 45 -27.5 77t-107.5 79l-282 168q-135 80 -188.5 175t-53.5 216q0 399 524 399q106 0 239.5 -14.5 t194.5 -30.5q31 -8 31 -37v-207q0 -35 -35 -34h-4q-315 23 -434 22q-86 0 -123 -25.5t-37 -83.5q0 -43 27 -70.5t111 -72.5l262 -141q152 -82 214 -182.5t62 -233.5z" />
<glyph unicode="T" horiz-adv-x="1202" d="M1151 1272q0 -16 -13.5 -27.5t-29.5 -11.5h-332v-1192q0 -16 -12 -28.5t-29 -12.5h-268q-16 0 -28.5 12.5t-12.5 28.5v1192h-334q-16 0 -28.5 11t-12.5 28v211q0 16 12.5 27.5t28.5 11.5h1016q16 0 29.5 -11.5t13.5 -27.5v-211z" />
<glyph unicode="U" horiz-adv-x="1456" d="M1319 571q0 -170 -45 -288.5t-130 -182t-185.5 -91t-231.5 -27.5t-231.5 27.5t-184.5 91t-129 182t-45 288.5v912q0 16 12.5 27.5t28.5 11.5h268q16 0 28.5 -11.5t12.5 -27.5v-912q0 -160 52.5 -228.5t187.5 -68.5t188.5 69t53.5 228v912q0 16 12 27.5t29 11.5h266 q16 0 29.5 -11.5t13.5 -27.5v-912z" />
<glyph unicode="V" horiz-adv-x="1404" d="M1348 1489v-4q-2 -4 -2 -6l-306 -1270q-33 -133 -121 -180t-217 -47t-218 47t-122 180l-305 1270q0 2 -1 5t-1 5q0 33 37 33h285q33 0 41 -37l256 -1182q6 -31 28.5 -31t28.5 31l256 1182q8 37 39 37h287q35 0 35 -33z" />
<glyph unicode="W" horiz-adv-x="1820" d="M1786 1495v-4l-191 -1341q-12 -86 -57 -121t-131 -35h-117q-154 0 -188 139l-162 612q-4 16 -18 17q-8 0 -11.5 -2t-5.5 -15l-162 -612q-35 -139 -188 -139h-117q-86 0 -131 34.5t-57 121.5l-191 1341v4q0 27 33 27h279q29 0 32 -39l117 -1098q2 -27 12 -27q8 0 15 27 l147 563q27 98 127 99h203q100 0 127 -99l147 -563q6 -27 15 -27q10 0 12 27l117 1098q4 39 33 39h278q33 0 33 -27z" />
<glyph unicode="X" horiz-adv-x="1439" d="M1374 20q0 -20 -26 -20h-326q-33 0 -53 31l-267 432l-239 -422q-25 -41 -51 -41h-303q-31 0 -31 27q0 6 4 14l428 739l-432 703q-4 8 -4 12q0 27 30 27h330q25 0 51 -39l254 -414l230 414q23 39 51 39h303q31 0 31 -27q0 -4 -4 -12l-422 -723l440 -719q6 -13 6 -21z" />
<glyph unicode="Y" horiz-adv-x="1325" d="M1282 1491q0 -10 -2 -14l-309 -709q-55 -125 -133 -158v-569q0 -16 -12.5 -28.5t-28.5 -12.5h-269q-16 0 -28.5 12.5t-12.5 28.5v569q-82 35 -135 158l-309 709q-2 4 -2 14q0 31 33 31h295q29 0 41 -35l221 -578q12 -31 30.5 -30.5t30.5 30.5l221 578q12 35 41 35h295 q33 0 33 -31z" />
<glyph unicode="Z" horiz-adv-x="1259" d="M1157 41q0 -16 -12 -28.5t-29 -12.5h-930q-84 0 -84 63v164q0 43 31 90l572 865q8 10 8 20q0 16 -23 17h-510q-16 0 -28.5 11t-12.5 27v226q0 16 12.5 27.5t28.5 11.5h883q82 0 82 -58q2 -20 2 -49l-2 -137q0 -27 -17 -53l-577 -885q-10 -14 -10 -23q0 -14 22 -14h553 q41 0 41 -37v-225z" />
<glyph unicode="[" horiz-adv-x="765" d="M705 -356q0 -16 -12.5 -28.5t-28.5 -12.5h-500q-14 0 -24.5 11t-10.5 28v1841q0 16 10.5 27.5t24.5 11.5h498q16 0 28 -12.5t12 -28.5v-178q0 -16 -12 -28.5t-28 -12.5h-197v-1399h199q16 0 28.5 -12.5t12.5 -28.5v-178z" />
<glyph unicode="\" horiz-adv-x="829" d="M803 25q0 -14 -11.5 -24.5t-27.5 -10.5h-260q-27 0 -39 43l-436 1448q0 2 -1 4t-1 4q0 14 11 23.5t28 9.5h258q33 0 43 -41l434 -1448l2 -4v-4z" />
<glyph unicode="]" horiz-adv-x="765" d="M637 -358q0 -16 -10.5 -27.5t-24.5 -11.5h-500q-16 0 -28.5 12t-12.5 29v178q0 16 12.5 28.5t28.5 12.5h199v1399h-197q-16 0 -28.5 12t-12.5 29v178q0 16 12.5 28.5t28.5 12.5h498q14 0 24.5 -11.5t10.5 -27.5v-1841z" />
<glyph unicode="^" d="M1180 1176q0 -18 -25 -19h-266q-35 0 -64 31l-163 182l-164 -182q-29 -31 -64 -31h-266q-25 0 -25 19q0 10 11 24l227 303q29 37 70 37h421q41 0 70 -37l227 -303q11 -14 11 -24z" />
<glyph unicode="_" horiz-adv-x="1107" d="M1174 -211q0 -33 -41 -33h-1156q-41 0 -40 33v98q0 33 40 33h1156q41 0 41 -33v-98z" />
<glyph unicode="`" horiz-adv-x="907" d="M600 1305q0 -14 -18 -15h-220q-25 0 -49 25l-250 250q-8 8 -8 16q0 14 23 14h270q31 0 55 -30l189 -240q8 -10 8 -20z" />
<glyph unicode="a" horiz-adv-x="1150" d="M1028 41q0 -16 -12 -28.5t-29 -12.5h-229q-16 0 -28.5 12.5t-12.5 28.5v33q-129 -92 -285 -92q-152 0 -251 84t-99 268v18q0 180 121 263t383 83h110v74q0 82 -37.5 111.5t-115.5 29.5q-193 0 -340 -14h-10q-37 0 -37 37v166q0 35 39 45q176 43 354 43q479 0 479 -418 v-731zM702 276v226h-116q-102 0 -141 -35t-39 -115v-18q0 -61 29.5 -82t99.5 -21q77 0 167 45z" />
<glyph unicode="b" horiz-adv-x="1222" d="M1137 506q0 -250 -133.5 -387t-380.5 -137q-219 0 -437 53q-39 8 -51 20.5t-12 38.5v1436q0 16 13.5 28.5t29.5 12.5h248q16 0 28.5 -12.5t12.5 -28.5v-354q104 14 168 14q254 0 384 -138.5t130 -385.5v-160zM805 506v160q0 119 -40 184t-142 65q-86 0 -168 -10v-639 q78 -12 168 -12q102 0 142 65.5t40 186.5z" />
<glyph unicode="c" horiz-adv-x="970" d="M885 59q0 -23 -9.5 -32t-33.5 -15q-123 -31 -273 -30q-219 0 -348 136t-129 382v172q0 246 129 382t348 136q150 0 273 -31q25 -6 34 -15t9 -32v-182q0 -14 -11.5 -24.5t-27.5 -10.5h-4q-133 14 -250 14q-168 0 -168 -237v-172q0 -238 168 -238q117 0 250 14h4 q16 0 27.5 -10t11.5 -24v-183z" />
<glyph unicode="d" horiz-adv-x="1222" d="M1100 94q0 -27 -12.5 -39t-51.5 -20q-217 -53 -436 -53q-248 0 -381 137t-133 387v160q0 248 130 386t384 138q63 0 168 -14v354q0 16 12.5 28.5t28.5 12.5h248q16 0 29.5 -12.5t13.5 -28.5v-1436zM768 266v639q-82 10 -168 10q-102 0 -142 -65.5t-40 -183.5v-160 q0 -121 40 -186.5t142 -65.5q90 0 168 12z" />
<glyph unicode="e" horiz-adv-x="1208" d="M1116 532q0 -49 -43 -49h-653v-4q0 -223 211 -223q209 0 393 18h6q39 0 39 -32v-156q0 -45 -43 -55q-197 -49 -420 -49q-98 0 -185 27.5t-164 86t-121 165t-44 247.5v143q0 250 137.5 394.5t381 144.5t374.5 -148.5t131 -390.5v-119zM793 688v8q0 113 -48.5 170.5 t-136.5 57.5q-86 0 -137 -58.5t-51 -169.5v-8h373z" />
<glyph unicode="f" horiz-adv-x="868" d="M807 1372q0 -35 -43 -35h-100q-45 0 -56.5 -16t-11.5 -80v-67h168q16 0 28.5 -12.5t12.5 -28.5v-166q0 -16 -12.5 -28.5t-28.5 -12.5h-168v-885q0 -16 -12.5 -28.5t-28.5 -12.5h-252q-16 0 -28.5 12.5t-12.5 28.5v885l-164 26q-43 8 -43 43v135q0 16 13.5 30t29.5 14h164 v65q0 207 81 278.5t263 71.5q63 0 162 -16q39 -6 39 -41v-160z" />
<glyph unicode="g" horiz-adv-x="1226" d="M1182 1004q0 -33 -37 -46l-64 -20q45 -68 45 -152v-16q0 -383 -505 -383q-137 0 -213 31q-29 -18 -29 -47q0 -25 12 -37t49 -21l232 -51q281 -61 380 -124.5t99 -205.5v-16q0 -334 -537 -334q-254 0 -387 86t-133 248v16q0 135 123 230q-51 29 -77.5 82t-26.5 108 q0 102 90 174q-94 82 -94 244v16q0 180 125.5 284t386.5 104h509q20 0 36 -15.5t16 -38.5v-116zM803 770v16q0 70 -40 109t-142 39q-186 0 -187 -148v-16q0 -143 187 -143q102 0 142 35.5t40 107.5zM813 -84v16q0 33 -41 55.5t-170 51.5l-151 33q-41 -57 -41 -140v-16 q0 -55 45 -79.5t159 -24.5q117 0 158 26.5t41 77.5z" />
<glyph unicode="h" horiz-adv-x="1253" d="M1130 43q0 -16 -13 -29.5t-30 -13.5h-247q-16 0 -28.5 13.5t-12.5 29.5v682q0 111 -30 150.5t-122 39.5q-70 0 -192 -65v-807q0 -16 -12.5 -29.5t-28.5 -13.5h-248q-16 0 -29.5 13.5t-13.5 29.5v1487q0 16 12 28.5t29 12.5h250q16 0 28.5 -12.5t12.5 -28.5v-432 q143 92 313 92q109 0 182.5 -35t111.5 -102.5t53 -145.5t15 -182v-682z" />
<glyph unicode="i" horiz-adv-x="593" d="M471 1348q0 -16 -12.5 -28.5t-28.5 -12.5h-266q-16 0 -28.5 12t-12.5 29v190q0 16 12 28.5t29 12.5h266q16 0 28.5 -12.5t12.5 -28.5v-190zM463 41q0 -16 -12.5 -28.5t-28.5 -12.5h-250q-16 0 -28.5 12.5t-12.5 28.5v1092q0 16 12.5 28.5t28.5 12.5h250q16 0 28.5 -12.5 t12.5 -28.5v-1092z" />
<glyph unicode="j" horiz-adv-x="593" d="M471 1348q0 -16 -13.5 -28.5t-29.5 -12.5h-264q-16 0 -28.5 12t-12.5 29v190q0 16 12 28.5t29 12.5h264q16 0 29.5 -12.5t13.5 -28.5v-190zM463 -66q0 -195 -82 -272.5t-242 -77.5q-80 0 -164 15q-41 6 -41 41v161q0 37 43 37h91q41 0 52 20.5t11 75.5v1196q0 16 11.5 30 t27.5 14h254q16 0 27.5 -13.5t11.5 -30.5v-1196z" />
<glyph unicode="k" horiz-adv-x="1204" d="M1143 1151q0 -10 -8 -21l-381 -518l379 -569q4 -4 4 -16q0 -27 -27 -27h-309q-33 0 -51 29l-295 481v-467q0 -16 -12.5 -29.5t-28.5 -13.5h-248q-16 0 -29.5 13.5t-13.5 29.5v1487q0 16 13.5 28.5t29.5 12.5h248q16 0 28.5 -12.5t12.5 -28.5v-856l311 469q20 31 53 31 h293q31 0 31 -23z" />
<glyph unicode="l" horiz-adv-x="577" d="M455 43q0 -16 -11.5 -29.5t-27.5 -13.5h-250q-16 0 -29.5 13.5t-13.5 29.5v1487q0 16 13.5 28.5t29.5 12.5h250q16 0 27.5 -12.5t11.5 -28.5v-1487z" />
<glyph unicode="m" horiz-adv-x="1792" d="M1669 43q0 -16 -13.5 -29.5t-29.5 -13.5h-248q-16 0 -28.5 13.5t-12.5 29.5v698q0 98 -26.5 134t-98.5 36q-78 0 -157 -37q6 -61 6 -133v-698q0 -16 -12.5 -29.5t-28.5 -13.5h-248q-16 0 -29.5 13.5t-13.5 29.5v698q0 98 -24.5 134t-94.5 36q-53 0 -155 -53v-815 q0 -16 -12.5 -29.5t-28.5 -13.5h-248q-16 0 -29.5 13.5t-13.5 29.5v1090q0 16 12 28.5t29 12.5h233q16 0 28.5 -12.5t12.5 -28.5v-46q154 102 303 103q160 0 242 -100q96 55 168 77.5t166 22.5q193 0 272.5 -116t79.5 -333v-698z" />
<glyph unicode="n" horiz-adv-x="1253" d="M1130 43q0 -16 -13 -29.5t-30 -13.5h-247q-16 0 -28.5 13.5t-12.5 29.5v682q0 111 -30 150.5t-122 39.5q-70 0 -192 -65v-807q0 -16 -12.5 -29.5t-28.5 -13.5h-248q-16 0 -29.5 13.5t-13.5 29.5v1090q0 16 12 28.5t29 12.5h229q16 0 28.5 -12.5t12.5 -28.5v-50 q150 106 334 107q109 0 182.5 -35t111.5 -102.5t53 -145.5t15 -182v-682z" />
<glyph unicode="o" horiz-adv-x="1206" d="M1116 514q0 -248 -133 -390t-379 -142t-380 142t-134 390v143q0 248 134 390.5t380 142.5t379 -142.5t133 -390.5v-143zM786 514v143q0 250 -182 250q-184 0 -184 -250v-143q0 -252 184 -252q182 0 182 252z" />
<glyph unicode="p" horiz-adv-x="1222" d="M1137 506q0 -248 -130 -386t-384 -138q-63 0 -168 14v-354q0 -16 -12.5 -28.5t-28.5 -12.5h-248q-16 0 -29.5 12t-13.5 29v1435q0 27 12 39t51 21q217 53 437 53q248 0 381 -137.5t133 -386.5v-160zM805 506v160q0 121 -40 185t-142.5 64t-167.5 -10v-639q98 -12 168 -12 q102 0 142 66.5t40 185.5z" />
<glyph unicode="q" horiz-adv-x="1222" d="M1100 -358q0 -16 -13.5 -28.5t-29.5 -12.5h-248q-16 0 -28.5 12t-12.5 29v354q-104 -14 -168 -14q-254 0 -384 138t-130 386v160q0 250 133 387t381 137q219 0 436 -53q39 -8 51.5 -20.5t12.5 -39.5v-1435zM768 266v639q-66 10 -168 10t-142 -64.5t-40 -184.5v-160 q0 -119 40 -185.5t142 -66.5q70 0 168 12z" />
<glyph unicode="r" horiz-adv-x="811" d="M766 954q0 -14 -9 -26.5t-22 -12.5h-16q-131 0 -264 -71v-801q0 -16 -12.5 -29.5t-28.5 -13.5h-248q-16 0 -29.5 13.5t-13.5 29.5v1090q0 16 12 28.5t29 12.5h244q16 0 28.5 -12.5t12.5 -28.5v-41q117 98 276 98q16 0 28.5 -12.5t12.5 -28.5v-195z" />
<glyph unicode="s" horiz-adv-x="1030" d="M944 326q0 -152 -111.5 -248t-326.5 -96q-209 0 -373 45q-39 10 -39 47v166q0 39 39 39h8q221 -29 348 -29q70 0 95.5 18.5t25.5 61.5t-75 86l-267 153q-182 104 -182 303q0 317 420 318q180 0 364 -47q39 -10 39 -47v-166q0 -39 -35 -39h-6q-193 27 -340 27 q-61 0 -84.5 -12.5t-23.5 -47.5q0 -33 63 -72l254 -145q207 -118 207 -315z" />
<glyph unicode="t" horiz-adv-x="862" d="M799 39q0 -35 -39 -41q-98 -16 -162 -16q-182 0 -263 71.5t-81 278.5v594l-164 26q-43 8 -43 43v135q0 16 13.5 30t29.5 14h164v167q0 33 41 41l250 43h6q37 0 37 -34v-217h168q16 0 28.5 -12.5t12.5 -28.5v-166q0 -16 -12.5 -28.5t-28.5 -12.5h-168v-596q0 -63 11 -80 t56 -17h101q43 0 43 -34v-160z" />
<glyph unicode="u" horiz-adv-x="1253" d="M1130 41q0 -16 -12 -28.5t-28 -12.5h-230q-16 0 -28.5 12.5t-12.5 28.5v49q-150 -106 -334 -106q-109 0 -182.5 34.5t-111 102t-53 145.5t-15.5 183v681q0 16 13.5 30t29.5 14h248q16 0 28.5 -13.5t12.5 -30.5v-681q0 -111 29.5 -151t121.5 -40q70 0 193 66v806 q0 16 12 30t29 14h247q16 0 29.5 -13.5t13.5 -30.5v-1089z" />
<glyph unicode="v" horiz-adv-x="1198" d="M1155 1139q0 -8 -2 -13l-258 -929q-59 -215 -297 -215q-236 0 -295 215l-256 929q-2 4 -2 13q0 35 33 35h270q33 0 43 -44l176 -802q8 -43 31 -43q25 0 33 43l176 802q10 43 43 44h270q14 0 24.5 -10.5t10.5 -24.5z" />
<glyph unicode="w" horiz-adv-x="1730" d="M1671 1139v-9l-182 -987q-16 -82 -62.5 -112.5t-117.5 -30.5h-125q-137 0 -172 131l-138 535q-2 10 -10 10t-10 -10l-137 -535q-35 -131 -172 -131h-125q-72 0 -118 30.5t-62 112.5l-183 987v9q0 35 31 35h248q39 0 43 -35l121 -779q4 -27 12 -26q10 0 16 26l138 541 q14 53 38.5 72.5t75.5 19.5h168q51 0 76 -19.5t39 -72.5l137 -541q6 -27 17 -26q8 0 12 26l121 779q4 35 43 35h247q31 0 31 -35z" />
<glyph unicode="x" horiz-adv-x="1263" d="M1198 29q0 -10 -8 -19.5t-21 -9.5h-309q-27 0 -53 43l-203 317l-190 -319q-25 -41 -54 -41h-274q-23 0 -23 25q0 10 5 16l358 569l-348 520q-4 8 -4 13q0 12 9 21.5t21 9.5h306q23 0 53 -44l182 -282l168 282q27 43 53 44h275q25 0 24 -27q0 -10 -4 -17l-338 -536 l371 -551q4 -8 4 -14z" />
<glyph unicode="y" horiz-adv-x="1212" d="M1167 1137q0 -2 -1 -5.5t-1 -5.5l-344 -1206q-51 -180 -143 -257t-305 -77q-145 0 -248 33q-43 16 -43 37v166q0 16 12 27.5t29 11.5h4l106 -8q109 -8 150 -9q57 0 87 23.5t48 83.5l19 63h-31q-33 0 -55.5 5.5t-48 22.5t-47 58t-40.5 105l-270 921q-2 6 -2 15q0 33 41 33 h272q31 0 39 -39l185 -770q8 -39 24 -39h2h8h9l190 809q8 39 43 39h272q16 0 27.5 -11.5t11.5 -25.5z" />
<glyph unicode="z" horiz-adv-x="1054" d="M967 41q0 -16 -12.5 -28.5t-28.5 -12.5h-768q-29 0 -49.5 20.5t-20.5 47.5v131q0 37 29 77l444 607q6 10 6 14q0 10 -14 10h-412q-35 0 -35 33v193q0 16 12.5 28.5t28.5 12.5h748q27 0 47.5 -20.5t20.5 -49.5v-152q0 -39 -23 -71l-424 -580q-6 -10 -6 -14q0 -8 14 -8h406 q37 0 37 -33v-205z" />
<glyph unicode="{" horiz-adv-x="833" d="M772 -356q0 -16 -12 -28.5t-29 -12.5h-119q-231 0 -322 80.5t-91 298.5v268q0 135 -117 211v194q115 74 115 211v277q0 217 91 298t322 81h119q16 0 28.5 -12.5t12.5 -28.5v-178q0 -16 -12.5 -28.5t-28.5 -12.5h-119q-49 0 -63.5 -21.5t-14.5 -97.5v-277 q0 -219 -170 -307q170 -88 170 -309v-268q0 -74 15.5 -96.5t64.5 -22.5h119q16 0 28.5 -12.5t12.5 -28.5v-178z" />
<glyph unicode="|" horiz-adv-x="593" d="M465 -354q0 -16 -12.5 -29.5t-28.5 -13.5h-252q-16 0 -29.5 13t-13.5 30v1835q0 16 13.5 28.5t29.5 12.5h252q16 0 28.5 -12.5t12.5 -28.5v-1835z" />
<glyph unicode="}" horiz-adv-x="833" d="M752 461q-117 -76 -117 -211v-268q0 -217 -91 -298t-323 -81h-119q-16 0 -28.5 12t-12.5 29v178q0 16 12.5 28.5t28.5 12.5h119q49 0 64.5 22.5t15.5 96.5v268q0 221 170 309q-170 88 -170 307v277q0 76 -14.5 97.5t-63.5 21.5h-119q-16 0 -28.5 12t-12.5 29v178 q0 16 12.5 28.5t28.5 12.5h119q231 0 322.5 -81t91.5 -298v-277q0 -137 115 -211v-194z" />
<glyph unicode="~" d="M1180 983q0 -160 -72 -234.5t-221 -74.5q-88 0 -187 59l-145 88q-43 27 -88 27q-63 0 -64 -82v-37q0 -41 -36 -41h-183q-41 0 -41 41v37q0 176 76 250t217 74q94 0 150 -35l184 -111q47 -29 88 -29q33 0 46.5 14.5t13.5 53.5v51q0 41 38 41h183q41 0 41 -41v-51z" />
<glyph unicode="&#xa0;" />
<glyph unicode="&#xa1;" horiz-adv-x="559" d="M440 874q0 -16 -12 -27t-29 -11h-241q-39 0 -39 38v259q0 16 11 28.5t28 12.5h241q16 0 28.5 -12.5t12.5 -28.5v-259zM451 -358q0 -14 -14.5 -26.5t-30.5 -12.5h-256q-16 0 -28.5 11t-12.5 28v2l41 1022q4 43 40 43h175q16 0 30.5 -13.5t14.5 -29.5l41 -1022v-2z" />
<glyph unicode="&#xa2;" d="M1057 59q0 -23 -9.5 -32t-33.5 -15q-70 -18 -162 -26v-150q0 -16 -12.5 -28.5t-28.5 -12.5h-207q-16 0 -28.5 12.5t-12.5 28.5v172q-141 49 -220 175t-79 317v172q0 190 79 316t220 175v168q0 16 12.5 28.5t28.5 12.5h207q16 0 28.5 -12t12.5 -29v-145q92 -8 162 -27 q25 -6 34 -15t9 -32v-182q0 -14 -11.5 -24.5t-27.5 -10.5h-4q-133 14 -250 14q-168 0 -168 -237v-172q0 -238 168 -238q117 0 250 14h4q16 0 27.5 -10t11.5 -24v-183z" />
<glyph unicode="&#xa3;" d="M1182 1257q0 -37 -33 -36h-6q-207 25 -338 24q-104 0 -145.5 -32.5t-41.5 -129.5v-172h347q16 0 28.5 -11t12.5 -28v-198q0 -39 -39 -39h-349v-205q0 -84 -40 -156h561q41 0 41 -36v-199q0 -16 -12.5 -27.5t-28.5 -11.5h-906q-39 0 -38 49v144q0 20 18 49q68 86 68 188 v205h-103q-39 0 -39 39v198q0 16 12.5 27.5t28.5 11.5h101v170q0 242 120.5 350.5t403.5 108.5q166 0 338 -39q27 -6 33 -14t6 -27v-203z" />
<glyph unicode="&#xa4;" d="M1184 63q0 -35 -45 -47q-104 -35 -285 -34q-242 0 -416 131t-205 415h-55q-16 0 -28.5 12.5t-12.5 28.5v90q0 16 12.5 28.5t28.5 12.5h49v127h-49q-16 0 -28.5 12.5t-12.5 28.5v90q0 16 12.5 28.5t28.5 12.5h55q16 145 75 253t147 168.5t187 89t212 28.5q180 0 285 -35 q45 -12 45 -45v-198q0 -41 -39 -41h-6q-207 16 -283 16q-223 0 -266 -236h436q35 0 35 -30q0 -6 -2 -11l-25 -90q-12 -41 -41 -41h-411v-127h374q29 0 29 -24v-6l-31 -123q-4 -18 -28 -19h-336q39 -242 266 -241q76 0 283 16h6q39 0 39 -41v-199z" />
<glyph unicode="&#xa5;" d="M1276 1495q0 -12 -4 -18l-228 -459h179q16 0 28.5 -11.5t12.5 -27.5v-152q0 -39 -39 -39h-291l-94 -188l-4 -22h387q41 0 41 -37v-154q0 -37 -39 -37h-389v-309q0 -16 -12.5 -28.5t-28.5 -12.5h-273q-16 0 -27.5 12.5t-11.5 28.5v309h-387q-41 0 -41 37v154q0 37 41 37 h387l-2 22l-92 188h-293q-16 0 -28.5 11.5t-12.5 27.5v152q0 16 12.5 27.5t28.5 11.5h180l-227 459q-4 6 -4 18q0 27 31 27h301q23 0 39 -35l243 -553l246 553q16 35 39 35h301q31 0 31 -27z" />
<glyph unicode="&#xa6;" horiz-adv-x="593" d="M465 743q0 -16 -12.5 -29.5t-28.5 -13.5h-252q-16 0 -29.5 13.5t-13.5 29.5v707q0 16 13.5 28.5t29.5 12.5h252q16 0 28.5 -12.5t12.5 -28.5v-707zM465 -389q0 -16 -12.5 -29.5t-28.5 -13.5h-252q-16 0 -29.5 13t-13.5 30v706q0 16 13.5 28.5t29.5 12.5h252 q16 0 28.5 -12t12.5 -29v-706z" />
<glyph unicode="&#xa7;" horiz-adv-x="1206" d="M1124 2q0 -84 -29.5 -159.5t-91 -141.5t-174 -104.5t-262.5 -38.5q-223 0 -399 45q-41 12 -41 41v206q0 14 12.5 26.5t28.5 12.5h4q301 -29 383 -28h12q106 2 149.5 33.5t43.5 107.5q0 43 -31 76t-115 78l-272 149q-152 82 -206 178.5t-54 241.5q0 41 18.5 106.5 t42.5 104.5q-59 70 -59 194q0 410 522 410q106 0 239.5 -14.5t194.5 -30.5q41 -12 41 -39v-209q0 -29 -26 -28h-2q-291 16 -447 16q-96 0 -133 -20.5t-37 -84.5q0 -37 32 -67.5t116 -75.5l262 -141q154 -82 216 -180.5t62 -229.5q0 -115 -53 -217q53 -86 53 -217zM834 451 q0 66 -39 107.5t-158 107.5l-148 79q-78 43 -100 64q-35 -35 -35 -104q0 -59 32 -95.5t144 -95.5l144 -76q63 -33 135 -90q25 44 25 103z" />
<glyph unicode="&#xa8;" horiz-adv-x="907" d="M817 1348q0 -16 -14.5 -28.5t-30.5 -12.5h-192q-16 0 -29.5 12t-13.5 29v190q0 16 13 28.5t30 12.5h192q16 0 30.5 -12.5t14.5 -28.5v-190zM373 1348q0 -16 -13.5 -28.5t-29.5 -12.5h-193q-16 0 -30.5 12t-14.5 29v190q0 16 14.5 28.5t30.5 12.5h193q16 0 29.5 -12.5 t13.5 -28.5v-190z" />
<glyph unicode="&#xa9;" horiz-adv-x="1536" d="M1450 766q0 -283 -200.5 -481.5t-483.5 -198.5t-481.5 198.5t-198.5 481.5t198.5 484.5t481.5 201.5t483.5 -201.5t200.5 -484.5zM1343 766q0 238 -169.5 409t-407.5 171t-407 -171t-169 -409t169 -405.5t407 -167.5t407.5 167.5t169.5 405.5zM977 375q0 -23 -27 -29 q-63 -18 -168 -18q-168 0 -258 96t-90 291v114q0 387 348 388q86 0 168 -21q27 -6 27 -25v-129q0 -25 -25 -24h-4q-78 10 -166 10q-137 0 -137 -199v-114q0 -201 137 -201q88 0 166 10h6q23 0 23 -22v-127z" />
<glyph unicode="&#xaa;" horiz-adv-x="731" d="M655 856q0 -29 -16 -33q-123 -33 -262 -32q-158 0 -233.5 55t-75.5 172v14q0 203 325 203h45v27q0 55 -17.5 73.5t-68.5 18.5q-102 0 -205 -11h-2q-27 0 -26 29v103q0 25 28 30q102 31 205 31q145 0 224 -62.5t79 -211.5v-406zM438 950v164h-12q-12 2 -20 2q-10 0 -13 -2 q-119 0 -119 -82v-14q0 -41 25 -57.5t78 -16.5q12 0 61 6z" />
<glyph unicode="&#xab;" horiz-adv-x="1470" d="M1403 152q0 -23 -29 -23h-250q-37 0 -59 25l-328 378q-20 23 -20 53.5t20 53.5l328 379q23 25 59 24h250q29 0 29 -22q0 -6 -8 -19l-361 -415l361 -416q8 -12 8 -18zM778 152q0 -23 -28 -23h-248q-39 0 -62 25l-327 378q-20 23 -20.5 53.5t20.5 53.5l327 379q23 25 62 24 h248q29 0 28 -22q0 -6 -8 -19l-360 -415l360 -416q8 -12 8 -18z" />
<glyph unicode="&#xac;" d="M1130 406q0 -16 -11 -28.5t-27 -12.5h-174q-37 0 -37 41v534h-650q-41 0 -41 33v182q0 33 41 33h861q39 0 38 -33v-749z" />
<glyph unicode="&#xad;" horiz-adv-x="618" d="M549 541q0 -37 -41 -37h-397q-41 0 -41 37v164q0 16 12 27t29 11h397q16 0 28.5 -11t12.5 -27v-164z" />
<glyph unicode="&#xae;" horiz-adv-x="1224" d="M1186 991.5q0 -235.5 -168 -403.5t-406 -168q-236 0 -403.5 167t-167.5 404.5t168 404.5t403 167q238 0 406 -168t168 -403.5zM1081 991.5q0 192.5 -137 330.5t-332 138q-193 0 -330 -137t-137 -331.5t137.5 -332t329.5 -137.5q195 0 332 138.5t137 331zM895 676 q0 -20 -21 -21h-137q-12 0 -20 17l-129 227q-2 0 -8.5 6t-8.5 6h-53v-233q0 -23 -22 -23h-123q-23 0 -23 23v602q0 33 11.5 45t39.5 16q78 10 183 11q141 0 213.5 -51.5t72.5 -170.5v-14q0 -129 -120 -178l141 -248q4 -8 4 -14zM709 1116v14q0 80 -111 80h-84v-174 q6 0 43 -1t41 -1q111 0 111 82z" />
<glyph unicode="&#xaf;" horiz-adv-x="907" d="M827 1376q0 -16 -12 -27.5t-29 -11.5h-663q-16 0 -28.5 11.5t-12.5 27.5v148q0 16 12 27.5t29 11.5h663q16 0 28.5 -11.5t12.5 -27.5v-148z" />
<glyph unicode="&#xb0;" horiz-adv-x="739" d="M684 1225q0 -131 -91 -223.5t-222 -92.5q-129 0 -222.5 92.5t-93.5 223.5t93.5 223t222.5 92q131 0 222 -92t91 -223zM518 1225q0 61 -44 105t-103.5 44t-103.5 -44t-44 -105q0 -59 43 -103.5t104.5 -44.5t104.5 44.5t43 103.5z" />
<glyph unicode="&#xb1;" d="M1143 709q0 -33 -41 -33h-318v-316q0 -41 -32 -41h-185q-33 0 -32 41v316h-316q-41 0 -41 33v184q0 33 41 33h316v317q0 41 32 41h185q33 0 32 -41v-317h318q41 0 41 -33v-184zM1143 -8q0 -33 -41 -33h-883q-41 0 -41 33v145q0 33 41 33h883q41 0 41 -33v-145z" />
<glyph unicode="&#xb2;" horiz-adv-x="722" d="M645 1313q0 -125 -125 -209l-96 -66q-90 -61 -117.5 -93t-27.5 -68v-9h327q29 0 29 -26v-131q0 -27 -29 -27h-500q-29 0 -28 29v102q0 115 49 193.5t145 144.5l113 76q31 20 40 36.5t9 43.5q0 33 -23.5 43t-95.5 10q-102 0 -196 -12h-4q-27 0 -27 26v99q0 18 29 26 q119 37 231 37q154 0 225.5 -53t71.5 -172z" />
<glyph unicode="&#xb3;" horiz-adv-x="720" d="M643 1305q0 -117 -98 -183q96 -57 96 -172v-12q0 -121 -81 -187.5t-226 -66.5q-150 0 -236 39q-20 8 -20 25v98q0 27 26 26h2q113 -10 173 -10q88 0 121.5 14.5t33.5 61.5v12q0 49 -17.5 68.5t-66.5 19.5h-196q-29 0 -29 29v107q0 29 29 28h186q94 0 94 70v16 q0 45 -28.5 59.5t-104.5 14.5h-25q-29 0 -163 -12h-2q-27 0 -27 26v101q0 18 27 26q90 37 223 37q309 0 309 -221v-14z" />
<glyph unicode="&#xb4;" horiz-adv-x="907" d="M852 1581q0 -8 -8 -16l-250 -250q-25 -25 -49 -25h-219q-18 0 -19 15q0 10 8 20l191 240q25 31 55 30h268q23 0 23 -14z" />
<glyph unicode="&#xb5;" horiz-adv-x="1253" d="M1130 100q0 -43 -63 -63q-166 -55 -432 -55q-102 0 -182 18v-350q0 -16 -12.5 -28.5t-28.5 -12.5h-250q-16 0 -28.5 12t-12.5 29v1478q0 16 13 31t30 15h248q16 0 29.5 -14.5t13.5 -31.5v-679q0 -104 42 -149.5t138 -45.5q106 0 164 14v860q0 16 12 31t29 15h247 q16 0 29.5 -14.5t13.5 -31.5v-1028z" />
<glyph unicode="&#xb6;" horiz-adv-x="1349" d="M1233 -360q0 -16 -10.5 -27.5t-24.5 -11.5h-88q-14 0 -24.5 11t-10.5 28v1726h-129v-1726q0 -16 -10 -27.5t-25 -11.5h-88q-14 0 -24.5 11t-10.5 28v856h-196q-219 0 -359.5 120.5t-140.5 335.5v113q0 215 140.5 336t359.5 121h608q33 0 33 -39v-1843z" />
<glyph unicode="&#xb7;" horiz-adv-x="561" d="M442 653q0 -16 -12 -28.5t-29 -12.5h-239q-16 0 -29.5 12.5t-13.5 28.5v258q0 16 13 27.5t30 11.5h239q16 0 28.5 -11t12.5 -28v-258z" />
<glyph unicode="&#xb8;" horiz-adv-x="872" d="M664 -86q0 -8 -9 -16l-252 -250q-25 -25 -49 -25h-219q-18 0 -18 15q0 10 8 20l190 240q25 31 56 30h270q23 0 23 -14z" />
<glyph unicode="&#xb9;" horiz-adv-x="663" d="M449 707q0 -23 -21 -23h-174q-20 0 -21 23v606l-131 -53q-12 -4 -14 -5q-10 0 -10 13v149q0 16 16 23l174 73q20 8 25 9h133q23 0 23 -21v-794z" />
<glyph unicode="&#xba;" horiz-adv-x="778" d="M711 1128q0 -168 -83 -252.5t-236.5 -84.5t-237.5 85t-84 252v68q0 168 84 254t237.5 86t236.5 -86t83 -254v-68zM492 1128v68q0 84 -24 120t-77 36q-104 0 -104 -156v-68q0 -156 104 -155q53 0 77 35.5t24 119.5z" />
<glyph unicode="&#xbb;" horiz-adv-x="1470" d="M1399 585.5q0 -26.5 -23 -53.5l-327 -378q-23 -25 -60 -25h-248q-29 0 -28 23q0 6 8 18l360 416l-360 415q-8 12 -8 19q0 23 28 22h248q37 0 60 -24l327 -379q23 -27 23 -53.5zM774 585.5q0 -30.5 -20 -53.5l-328 -378q-23 -25 -61 -25h-248q-29 0 -29 23q0 6 8 18 l361 416l-361 415q-8 12 -8 19q0 23 29 22h248q39 0 61 -24l328 -379q20 -23 20 -53.5z" />
<glyph unicode="&#xbc;" horiz-adv-x="1617" d="M1540 209q0 -29 -31 -29h-59v-149q0 -31 -29 -31h-155q-27 0 -27 31v149h-297q-29 0 -29 23v127q0 27 13 41l338 452q10 14 28 15h117q16 0 28.5 -11.5t12.5 -29.5v-449h59q31 0 31 -26v-113zM1327 1503q0 -10 -6 -22l-856 -1452q-20 -33 -43 -33h-213q-23 0 -23 22 q0 8 7 21l858 1450q20 33 45 33h211q20 -1 20 -19zM1247 348v219q0 14 -4 15q-6 0 -12 -11l-150 -202q-8 -10 -8 -17q0 -4 14 -4h160zM449 707q0 -23 -21 -23h-174q-20 0 -21 23v606l-131 -53q-12 -4 -14 -5q-10 0 -10 13v149q0 16 16 23l174 73q20 8 25 9h133q23 0 23 -21 v-794z" />
<glyph unicode="&#xbd;" horiz-adv-x="1669" d="M1591 621q0 -125 -125 -209l-96 -66q-94 -63 -119.5 -90t-25.5 -63v-9h327q29 0 29 -26v-131q0 -27 -29 -27h-499q-29 0 -29 29v102q0 115 48 188.5t147 141.5l112 76q31 20 40 36.5t9 42.5q0 33 -23.5 43.5t-94.5 10.5q-102 0 -197 -13h-4q-27 0 -27 27v98q0 18 29 27 q119 37 231 37q154 0 225.5 -53t71.5 -172zM1327 1503q0 -10 -6 -22l-856 -1452q-20 -33 -43 -33h-213q-23 0 -23 22q0 8 7 21l858 1450q20 33 45 33h211q20 -1 20 -19zM449 707q0 -23 -21 -23h-174q-20 0 -21 23v606l-131 -53q-12 -4 -14 -5q-10 0 -10 13v149q0 16 16 23 l174 73q20 8 25 9h133q23 0 23 -21v-794z" />
<glyph unicode="&#xbe;" horiz-adv-x="1761" d="M1683 209q0 -29 -30 -29h-60v-149q0 -31 -28 -31h-156q-27 0 -27 31v149h-297q-29 0 -28 23v127q0 27 12 41l338 452q10 14 29 15h116q16 0 28.5 -11.5t12.5 -29.5v-449h60q31 0 30 -26v-113zM1470 1503q0 -10 -6 -22l-854 -1448q-20 -33 -43 -33h-213q-23 0 -22 23 q0 8 6 20l856 1446q20 33 45 33h211q20 -1 20 -19zM643 1305q0 -117 -98 -183q96 -57 96 -172v-12q0 -121 -81 -187.5t-226 -66.5q-150 0 -236 39q-20 8 -20 25v98q0 27 26 26h2q113 -10 173 -10q88 0 121.5 14.5t33.5 61.5v12q0 49 -17.5 68.5t-66.5 19.5h-196 q-29 0 -29 29v107q0 29 29 28h186q94 0 94 70v16q0 45 -28.5 59.5t-104.5 14.5h-25q-29 0 -163 -12h-2q-27 0 -27 26v101q0 18 27 26q90 37 223 37q309 0 309 -221v-14zM1391 348v219q0 14 -5 15q-6 0 -12 -11l-149 -202q-8 -10 -8 -17q0 -4 14 -4h160z" />
<glyph unicode="&#xbf;" horiz-adv-x="980" d="M768 877q0 -16 -12.5 -28.5t-28.5 -12.5h-242q-16 0 -28.5 12t-12.5 29v258q0 16 12.5 27.5t28.5 11.5h242q16 0 28.5 -11.5t12.5 -27.5v-258zM911 -293q0 -43 -37 -53q-141 -43 -327 -43q-223 0 -336 78t-113 262v35q0 68 35 138.5t123 182.5l92 119q100 129 111 156 q4 14 4 30v58q0 16 15.5 27.5t33.5 11.5h205q16 0 27.5 -12.5t11.5 -28.5v-56q0 -88 -15.5 -143t-70.5 -127l-99 -129q-94 -125 -94 -207v-20q0 -76 101 -76q113 0 292 22h7q35 0 34 -43v-182z" />
<glyph unicode="&#xc0;" horiz-adv-x="1370" d="M1331 33q0 -33 -35 -33h-286q-33 0 -41 37l-74 336h-420l-74 -336q-8 -37 -41 -37h-286q-35 0 -35 33l2 4v6l305 1270q33 133 122 180t218 47t217 -47t121 -180l305 -1270q0 -2 2 -6v-4zM838 653l-125 566q-6 31 -27 30q-23 0 -29 -30l-125 -566h306zM928 1640 q0 -14 -19 -14h-219q-25 0 -49 25l-250 250q-8 8 -8 16q0 14 23 14h270q31 0 55 -30l189 -240q8 -11 8 -21z" />
<glyph unicode="&#xc1;" horiz-adv-x="1370" d="M1331 33q0 -33 -35 -33h-286q-33 0 -41 37l-74 336h-420l-74 -336q-8 -37 -41 -37h-286q-35 0 -35 33l2 4v6l305 1270q33 133 122 180t218 47t217 -47t121 -180l305 -1270q0 -2 2 -6v-4zM838 653l-125 566q-6 31 -27 30q-23 0 -29 -30l-125 -566h306zM1018 1917 q0 -8 -8 -16l-250 -250q-25 -25 -49 -25h-219q-18 0 -19 14q0 10 8 21l191 240q25 31 55 30h268q23 0 23 -14z" />
<glyph unicode="&#xc2;" horiz-adv-x="1370" d="M1331 33q0 -33 -35 -33h-286q-33 0 -41 37l-74 336h-420l-74 -336q-8 -37 -41 -37h-286q-35 0 -35 33l2 4v6l305 1270q33 133 122 180t218 47t217 -47t121 -180l305 -1270q0 -2 2 -6v-4zM838 653l-125 566q-6 31 -27 30q-23 0 -29 -30l-125 -566h306zM1094 1642 q0 -14 -19 -14h-211q-27 0 -49 25l-129 143l-131 -143q-23 -25 -49 -25h-211q-18 0 -19 14q0 10 9 21l182 240q25 31 55 30h328q33 0 55 -30l180 -240q9 -11 9 -21z" />
<glyph unicode="&#xc3;" horiz-adv-x="1370" d="M1331 33q0 -33 -35 -33h-286q-33 0 -41 37l-74 336h-420l-74 -336q-8 -37 -41 -37h-286q-35 0 -35 33l2 4v6l305 1270q33 133 122 180t218 47t217 -47t121 -180l305 -1270q0 -2 2 -6v-4zM838 653l-125 566q-6 31 -27 30q-23 0 -29 -30l-125 -566h306zM1096 1858 q0 -246 -250 -246q-78 0 -146 45l-86 59q-53 37 -84 37q-47 0 -47 -55v-39q0 -35 -30 -35h-146q-31 0 -31 35v39q0 244 252 244q78 0 144 -44l88 -57q57 -37 82 -37q47 0 47 56v38q0 33 33 33h143q31 0 31 -33v-40z" />
<glyph unicode="&#xc4;" horiz-adv-x="1370" d="M1331 33q0 -33 -35 -33h-286q-33 0 -41 37l-74 336h-420l-74 -336q-8 -37 -41 -37h-286q-35 0 -35 33l2 4v6l305 1270q33 133 122 180t218 47t217 -47t121 -180l305 -1270q0 -2 2 -6v-4zM838 653l-125 566q-6 31 -27 30q-23 0 -29 -30l-125 -566h306zM1047 1681 q0 -16 -14.5 -28.5t-31.5 -12.5h-192q-16 0 -29.5 12.5t-13.5 28.5v191q0 16 13.5 28.5t29.5 12.5h192q16 0 31 -12.5t15 -28.5v-191zM602 1681q0 -16 -13.5 -28.5t-29.5 -12.5h-192q-16 0 -30.5 12.5t-14.5 28.5v191q0 16 14 28.5t31 12.5h192q16 0 29.5 -12.5t13.5 -28.5 v-191z" />
<glyph unicode="&#xc5;" horiz-adv-x="1370" d="M1331 33q0 -33 -35 -33h-286q-33 0 -41 37l-74 336h-420l-74 -336q-8 -37 -41 -37h-286q-35 0 -35 33l2 4v6l305 1270q33 133 122 180t218 47t217 -47t121 -180l305 -1270q0 -2 2 -6v-4zM838 653l-125 566q-6 31 -27 30q-23 0 -29 -30l-125 -566h306zM924 1833 q0 -100 -70 -170t-170 -70t-170 70t-70 170t70 170t170 70t170 -70t70 -170zM774 1833q0 37 -26.5 63.5t-63.5 26.5t-63.5 -26.5t-26.5 -63.5t26.5 -63.5t63.5 -26.5t63.5 26.5t26.5 63.5z" />
<glyph unicode="&#xc6;" horiz-adv-x="1890" d="M1776 51q0 -37 -41 -43q-186 -27 -346 -26q-104 0 -182.5 15t-151 55t-113.5 121t-49 200h-418l-74 -336q-8 -37 -41 -37h-286q-35 0 -35 33l2 4v6l305 1270q16 70 51 115t86.5 64t94.5 24.5t108 5.5h1049q41 0 41 -41v-199q0 -16 -12.5 -28.5t-28.5 -12.5h-496v-326h479 q16 0 28.5 -12t12.5 -29v-194q0 -16 -12 -28.5t-29 -12.5h-479v-217q0 -80 28.5 -109.5t102.5 -29.5h365q16 0 28.5 -12.5t12.5 -28.5v-191zM891 653v596h-205q-23 0 -29 -30l-125 -566h359z" />
<glyph unicode="&#xc7;" horiz-adv-x="1148" d="M1065 63q0 -35 -45 -47q-104 -35 -305 -34q-123 0 -227.5 34.5t-191.5 107.5t-137 203t-50 306v258q0 176 50 306t137 203t191.5 106.5t227.5 33.5q201 0 305 -35q45 -12 45 -45v-198q0 -41 -39 -41h-6q-207 16 -303 16q-254 0 -254 -346v-258q0 -346 254 -346 q96 0 303 16h6q39 0 39 -41v-199zM881 -86q0 -8 -9 -16l-251 -250q-25 -25 -50 -25h-219q-18 0 -18 15q0 10 8 20l190 240q25 31 56 30h270q23 0 23 -14z" />
<glyph unicode="&#xc8;" horiz-adv-x="1187" d="M1073 51q0 -37 -41 -43q-186 -27 -397 -26q-111 0 -192 17t-154.5 62t-112.5 135.5t-39 225.5v680q0 135 39 225t114 134t155.5 61.5t191.5 17.5q209 0 395 -27q41 -6 41 -40v-191q0 -16 -12 -28.5t-29 -12.5h-416q-74 0 -102.5 -29.5t-28.5 -109.5v-187h531 q16 0 28.5 -12t12.5 -29v-194q0 -16 -12.5 -28.5t-28.5 -12.5h-531v-217q0 -80 29 -109.5t102 -29.5h416q16 0 28.5 -12.5t12.5 -28.5v-191zM807 1642q0 -14 -19 -14h-219q-25 0 -49 25l-250 250q-8 8 -8 16q0 14 23 14h270q31 0 55 -30l189 -240q8 -11 8 -21z" />
<glyph unicode="&#xc9;" horiz-adv-x="1187" d="M1073 51q0 -37 -41 -43q-186 -27 -397 -26q-111 0 -192 17t-154.5 62t-112.5 135.5t-39 225.5v680q0 135 39 225t114 134t155.5 61.5t191.5 17.5q209 0 395 -27q41 -6 41 -40v-191q0 -16 -12 -28.5t-29 -12.5h-416q-74 0 -102.5 -29.5t-28.5 -109.5v-187h531 q16 0 28.5 -12t12.5 -29v-194q0 -16 -12.5 -28.5t-28.5 -12.5h-531v-217q0 -80 29 -109.5t102 -29.5h416q16 0 28.5 -12.5t12.5 -28.5v-191zM977 1919q0 -8 -8 -16l-250 -250q-25 -25 -49 -25h-219q-18 0 -19 14q0 10 8 21l191 240q25 31 55 30h268q23 0 23 -14z" />
<glyph unicode="&#xca;" horiz-adv-x="1187" d="M1073 51q0 -37 -41 -43q-186 -27 -397 -26q-111 0 -192 17t-154.5 62t-112.5 135.5t-39 225.5v680q0 135 39 225t114 134t155.5 61.5t191.5 17.5q209 0 395 -27q41 -6 41 -40v-191q0 -16 -12 -28.5t-29 -12.5h-416q-74 0 -102.5 -29.5t-28.5 -109.5v-187h531 q16 0 28.5 -12t12.5 -29v-194q0 -16 -12.5 -28.5t-28.5 -12.5h-531v-217q0 -80 29 -109.5t102 -29.5h416q16 0 28.5 -12.5t12.5 -28.5v-191zM1042 1642q0 -14 -18 -14h-211q-27 0 -49 25l-129 143l-131 -143q-23 -25 -49 -25h-211q-18 0 -19 14q0 10 8 21l183 240 q25 31 55 30h328q33 0 55 -30l180 -240q8 -11 8 -21z" />
<glyph unicode="&#xcb;" horiz-adv-x="1187" d="M1073 51q0 -37 -41 -43q-186 -27 -397 -26q-111 0 -192 17t-154.5 62t-112.5 135.5t-39 225.5v680q0 135 39 225t114 134t155.5 61.5t191.5 17.5q209 0 395 -27q41 -6 41 -40v-191q0 -16 -12 -28.5t-29 -12.5h-416q-74 0 -102.5 -29.5t-28.5 -109.5v-187h531 q16 0 28.5 -12t12.5 -29v-194q0 -16 -12.5 -28.5t-28.5 -12.5h-531v-217q0 -80 29 -109.5t102 -29.5h416q16 0 28.5 -12.5t12.5 -28.5v-191zM963 1681q0 -16 -14.5 -28.5t-30.5 -12.5h-193q-16 0 -29.5 12.5t-13.5 28.5v191q0 16 13.5 28.5t29.5 12.5h193q16 0 30.5 -12.5 t14.5 -28.5v-191zM518 1681q0 -16 -13 -28.5t-30 -12.5h-192q-16 0 -30.5 12.5t-14.5 28.5v191q0 16 14 28.5t31 12.5h192q16 0 29.5 -12.5t13.5 -28.5v-191z" />
<glyph unicode="&#xcc;" horiz-adv-x="636" d="M494 41q0 -16 -11.5 -28.5t-27.5 -12.5h-275q-37 0 -37 41v1442q0 39 37 39h275q39 0 39 -39v-1442zM520 1642q0 -14 -18 -14h-219q-25 0 -50 25l-249 250q-8 8 -9 16q0 14 23 14h270q31 0 56 -30l188 -240q8 -11 8 -21z" />
<glyph unicode="&#xcd;" horiz-adv-x="636" d="M494 41q0 -16 -11.5 -28.5t-27.5 -12.5h-275q-37 0 -37 41v1442q0 39 37 39h275q39 0 39 -39v-1442zM668 1919q0 -8 -9 -16l-249 -250q-25 -25 -50 -25h-219q-18 0 -18 14q0 10 8 21l191 240q25 31 55 30h268q23 0 23 -14z" />
<glyph unicode="&#xce;" horiz-adv-x="636" d="M494 41q0 -16 -11.5 -28.5t-27.5 -12.5h-275q-37 0 -37 41v1442q0 39 37 39h275q39 0 39 -39v-1442zM729 1640q0 -14 -18 -14h-211q-27 0 -49 25l-129 143l-132 -143q-23 -25 -49 -25h-211q-18 0 -18 14q0 10 8 21l182 240q25 31 56 30h327q33 0 56 -30l180 -240 q8 -11 8 -21z" />
<glyph unicode="&#xcf;" horiz-adv-x="636" d="M494 41q0 -16 -11.5 -28.5t-27.5 -12.5h-275q-37 0 -37 41v1442q0 39 37 39h275q39 0 39 -39v-1442zM680 1681q0 -16 -14.5 -28.5t-30.5 -12.5h-193q-16 0 -29.5 12.5t-13.5 28.5v191q0 16 13.5 28.5t29.5 12.5h193q16 0 30.5 -12.5t14.5 -28.5v-191zM236 1681 q0 -16 -13.5 -28.5t-29.5 -12.5h-193q-16 0 -30.5 12.5t-14.5 28.5v191q0 16 14.5 28.5t30.5 12.5h193q16 0 29.5 -12.5t13.5 -28.5v-191z" />
<glyph unicode="&#xd0;" horiz-adv-x="1396" d="M1292 657q0 -348 -174 -511.5t-479 -163.5q-258 0 -444 32q-59 10 -60 72v553h-112q-39 0 -39 39v199q0 39 39 38h112v521q0 61 60 71q188 33 444 33q307 0 480 -164t173 -512v-207zM936 657v207q0 209 -72.5 291t-224.5 82q-90 0 -152 -4v-318h125q39 0 39 -38v-199 q0 -39 -39 -39h-125v-352q31 -2 152 -2q152 0 224.5 82.5t72.5 289.5z" />
<glyph unicode="&#xd1;" horiz-adv-x="1492" d="M1350 78q0 -33 -23.5 -55.5t-56.5 -22.5h-201q-70 0 -106 63l-467 807q-10 16 -19 17q-10 0 -10 -17v-829q0 -16 -12.5 -28.5t-28.5 -12.5h-242q-16 0 -28.5 12.5t-12.5 28.5v1403q0 33 22.5 55.5t55.5 22.5h207q49 0 86 -64l485 -844q10 -16 17 -16q10 0 10 18v867 q0 16 12.5 27.5t28.5 11.5h242q16 0 28.5 -11.5t12.5 -27.5v-1405zM1143 1858q0 -246 -250 -246q-78 0 -145 45l-86 59q-51 37 -84 37q-47 0 -48 -55v-39q0 -35 -30 -35h-146q-31 0 -30 35v39q0 244 251 244q80 0 144 -44l88 -57q57 -37 82 -37q47 0 47 56v38q0 33 33 33 h143q31 0 31 -33v-40z" />
<glyph unicode="&#xd2;" horiz-adv-x="1429" d="M1321 639q0 -338 -167 -497.5t-439.5 -159.5t-439 159.5t-166.5 497.5v244q0 338 166.5 497.5t439 159.5t439.5 -159.5t167 -497.5v-244zM969 639v244q0 182 -61.5 266t-192.5 84q-129 0 -190.5 -84t-61.5 -266v-244q0 -182 61.5 -266t190.5 -84q131 0 192.5 84t61.5 266 zM897 1640q0 -14 -18 -14h-220q-25 0 -49 25l-250 250q-8 8 -8 16q0 14 23 14h270q31 0 55 -30l189 -240q8 -11 8 -21z" />
<glyph unicode="&#xd3;" horiz-adv-x="1429" d="M1321 639q0 -338 -167 -497.5t-439.5 -159.5t-439 159.5t-166.5 497.5v244q0 338 166.5 497.5t439 159.5t439.5 -159.5t167 -497.5v-244zM969 639v244q0 182 -61.5 266t-192.5 84q-129 0 -190.5 -84t-61.5 -266v-244q0 -182 61.5 -266t190.5 -84q131 0 192.5 84t61.5 266 zM1053 1919q0 -8 -9 -16l-249 -250q-25 -25 -50 -25h-219q-18 0 -18 14q0 10 8 21l191 240q25 31 55 30h268q23 0 23 -14z" />
<glyph unicode="&#xd4;" horiz-adv-x="1429" d="M1321 639q0 -338 -167 -497.5t-439.5 -159.5t-439 159.5t-166.5 497.5v244q0 338 166.5 497.5t439 159.5t439.5 -159.5t167 -497.5v-244zM969 639v244q0 182 -61.5 266t-192.5 84q-129 0 -190.5 -84t-61.5 -266v-244q0 -182 61.5 -266t190.5 -84q131 0 192.5 84t61.5 266 zM1114 1642q0 -14 -18 -14h-211q-27 0 -49 25l-129 143l-132 -143q-23 -25 -49 -25h-211q-18 0 -18 14q0 10 8 21l182 240q25 31 56 30h327q33 0 56 -30l180 -240q8 -11 8 -21z" />
<glyph unicode="&#xd5;" horiz-adv-x="1429" d="M1321 639q0 -338 -167 -497.5t-439.5 -159.5t-439 159.5t-166.5 497.5v244q0 338 166.5 497.5t439 159.5t439.5 -159.5t167 -497.5v-244zM969 639v244q0 182 -61.5 266t-192.5 84q-129 0 -190.5 -84t-61.5 -266v-244q0 -182 61.5 -266t190.5 -84q131 0 192.5 84t61.5 266 zM1133 1860q0 -246 -250 -246q-78 0 -146 45l-86 59q-53 37 -84 37q-47 0 -47 -55v-39q0 -35 -31 -35h-145q-31 0 -31 35v39q0 244 252 244q78 0 144 -43l88 -58q57 -37 82 -37q47 0 47 56v39q0 33 32 32h144q31 0 31 -32v-41z" />
<glyph unicode="&#xd6;" horiz-adv-x="1429" d="M1321 639q0 -338 -167 -497.5t-439.5 -159.5t-439 159.5t-166.5 497.5v244q0 338 166.5 497.5t439 159.5t439.5 -159.5t167 -497.5v-244zM969 639v244q0 182 -61.5 266t-192.5 84q-129 0 -190.5 -84t-61.5 -266v-244q0 -182 61.5 -266t190.5 -84q131 0 192.5 84t61.5 266 zM1077 1681q0 -16 -14 -28.5t-31 -12.5h-192q-16 0 -29.5 12.5t-13.5 28.5v191q0 16 13 28.5t30 12.5h192q16 0 30.5 -12.5t14.5 -28.5v-191zM633 1681q0 -16 -13.5 -28.5t-29.5 -12.5h-193q-16 0 -30.5 12.5t-14.5 28.5v191q0 16 14.5 28.5t30.5 12.5h193q16 0 29.5 -12.5 t13.5 -28.5v-191z" />
<glyph unicode="&#xd7;" d="M1100 522q0 -10 -10 -20l-129 -129q-10 -10 -21 -11q-16 0 -33 17l-245 246l-246 -246q-16 -16 -31 -17q-10 0 -20 11l-132 131q-10 10 -10 20q0 14 17 31l245 246l-245 246q-16 16 -17 30q0 10 10 21l132 131q10 10 20 10q14 0 31 -16l246 -246l245 246q16 16 33 16 q10 0 21 -10l129 -129q10 -10 10 -21q0 -16 -17 -32l-245 -246l245 -246q17 -17 17 -33z" />
<glyph unicode="&#xd8;" horiz-adv-x="1429" d="M1386 1513q0 -6 -6 -16l-153 -211q94 -160 94 -403v-244q0 -338 -167 -497.5t-439 -159.5q-207 0 -357 94l-39 -56q-29 -39 -53 -38h-198q-23 0 -23 22q0 8 6 16l154 213q-96 162 -96 406v244q0 338 166.5 497.5t439.5 159.5q217 0 360 -94l37 51q29 39 53 39h199 q22 0 22 -23zM883 1178q-61 55 -168 55q-129 0 -190.5 -84t-61.5 -266v-244q0 -8 1 -22.5t1 -20.5zM969 909v15l-418 -582q59 -53 164 -53q131 0 192.5 84t61.5 266v244v26z" />
<glyph unicode="&#xd9;" horiz-adv-x="1456" d="M1319 571q0 -170 -45 -288.5t-130 -182t-185.5 -91t-231.5 -27.5t-231.5 27.5t-184.5 91t-129 182t-45 288.5v912q0 16 12.5 27.5t28.5 11.5h268q16 0 28.5 -11.5t12.5 -27.5v-912q0 -160 52.5 -228.5t187.5 -68.5t188.5 69t53.5 228v912q0 16 12 27.5t29 11.5h266 q16 0 29.5 -11.5t13.5 -27.5v-912zM942 1640q0 -14 -18 -14h-219q-25 0 -50 25l-249 250q-8 8 -9 16q0 14 23 14h270q31 0 55 -30l189 -240q8 -11 8 -21z" />
<glyph unicode="&#xda;" horiz-adv-x="1456" d="M1319 571q0 -170 -45 -288.5t-130 -182t-185.5 -91t-231.5 -27.5t-231.5 27.5t-184.5 91t-129 182t-45 288.5v912q0 16 12.5 27.5t28.5 11.5h268q16 0 28.5 -11.5t12.5 -27.5v-912q0 -160 52.5 -228.5t187.5 -68.5t188.5 69t53.5 228v912q0 16 12 27.5t29 11.5h266 q16 0 29.5 -11.5t13.5 -27.5v-912zM1094 1917q0 -8 -9 -16l-249 -250q-25 -25 -50 -25h-219q-18 0 -18 14q0 10 8 21l191 240q25 31 55 30h268q23 0 23 -14z" />
<glyph unicode="&#xdb;" horiz-adv-x="1456" d="M1319 571q0 -170 -45 -288.5t-130 -182t-185.5 -91t-231.5 -27.5t-231.5 27.5t-184.5 91t-129 182t-45 288.5v912q0 16 12.5 27.5t28.5 11.5h268q16 0 28.5 -11.5t12.5 -27.5v-912q0 -160 52.5 -228.5t187.5 -68.5t188.5 69t53.5 228v912q0 16 12 27.5t29 11.5h266 q16 0 29.5 -11.5t13.5 -27.5v-912zM1135 1642q0 -14 -19 -14h-211q-27 0 -49 25l-129 143l-131 -143q-23 -25 -49 -25h-211q-18 0 -19 14q0 10 9 21l182 240q25 31 55 30h328q33 0 55 -30l180 -240q9 -11 9 -21z" />
<glyph unicode="&#xdc;" horiz-adv-x="1456" d="M1319 571q0 -170 -45 -288.5t-130 -182t-185.5 -91t-231.5 -27.5t-231.5 27.5t-184.5 91t-129 182t-45 288.5v912q0 16 12.5 27.5t28.5 11.5h268q16 0 28.5 -11.5t12.5 -27.5v-912q0 -160 52.5 -228.5t187.5 -68.5t188.5 69t53.5 228v912q0 16 12 27.5t29 11.5h266 q16 0 29.5 -11.5t13.5 -27.5v-912zM1090 1681q0 -16 -14.5 -28.5t-31.5 -12.5h-192q-16 0 -29.5 12.5t-13.5 28.5v191q0 16 13.5 28.5t29.5 12.5h192q16 0 31 -12.5t15 -28.5v-191zM645 1681q0 -16 -13.5 -28.5t-29.5 -12.5h-192q-16 0 -30.5 12.5t-14.5 28.5v191 q0 16 14 28.5t31 12.5h192q16 0 29.5 -12.5t13.5 -28.5v-191z" />
<glyph unicode="&#xdd;" horiz-adv-x="1325" d="M1282 1491q0 -10 -2 -14l-309 -709q-55 -125 -133 -158v-569q0 -16 -12.5 -28.5t-28.5 -12.5h-269q-16 0 -28.5 12.5t-12.5 28.5v569q-82 35 -135 158l-309 709q-2 4 -2 14q0 31 33 31h295q29 0 41 -35l221 -578q12 -31 30.5 -30.5t30.5 30.5l221 578q12 35 41 35h295 q33 0 33 -31zM1042 1917q0 -8 -8 -16l-250 -250q-25 -25 -49 -25h-219q-18 0 -18 14q0 10 8 21l190 240q25 31 56 30h268q22 0 22 -14z" />
<glyph unicode="&#xde;" horiz-adv-x="1333" d="M1266 848q0 -141 -52.5 -242.5t-142.5 -156t-194.5 -79t-227.5 -24.5q-45 0 -160 4v-309q0 -16 -11 -28.5t-27 -12.5h-269q-16 0 -27.5 12.5t-11.5 28.5v1442q0 39 39 39h269q39 0 38 -39v-121q23 2 152 2q127 0 232.5 -23.5t196.5 -78t143.5 -153.5t52.5 -239v-22z M915 848v22q0 106 -66.5 152.5t-199.5 46.5q-139 0 -160 -2v-424q20 -2 160 -2q266 0 266 207z" />
<glyph unicode="&#xdf;" horiz-adv-x="1335" d="M1225 461q0 -231 -143.5 -355t-354.5 -124q-59 0 -125 12q-41 8 -41 39v196q0 33 23 33h2q25 -2 76 -2q229 0 229 201v43q0 82 -53.5 131t-165.5 49h-64q-16 0 -28.5 11.5t-12.5 27.5v162q0 16 12.5 27.5t28.5 11.5h64q106 0 153 48t47 122v39q0 76 -48 121.5t-150 45.5 q-125 0 -174 -64.5t-49 -180.5v-1012q0 -16 -11.5 -29.5t-27.5 -13.5h-254q-16 0 -28.5 13.5t-12.5 29.5v1012q0 530 557 530q254 0 392 -117.5t138 -334.5v-39q0 -90 -55 -168t-131 -113q98 -41 152.5 -123t54.5 -186v-43z" />
<glyph unicode="&#xe0;" horiz-adv-x="1150" d="M1028 41q0 -16 -12 -28.5t-29 -12.5h-229q-16 0 -28.5 12.5t-12.5 28.5v33q-129 -92 -285 -92q-152 0 -251 84t-99 268v18q0 180 121 263t383 83h110v74q0 82 -37.5 111.5t-115.5 29.5q-193 0 -340 -14h-10q-37 0 -37 37v166q0 35 39 45q176 43 354 43q479 0 479 -418 v-731zM702 276v226h-116q-102 0 -141 -35t-39 -115v-18q0 -61 29.5 -82t99.5 -21q77 0 167 45zM750 1305q0 -14 -19 -15h-219q-25 0 -49 25l-250 250q-8 8 -8 16q0 14 22 14h271q31 0 55 -30l188 -240q9 -10 9 -20z" />
<glyph unicode="&#xe1;" horiz-adv-x="1150" d="M1028 41q0 -16 -12 -28.5t-29 -12.5h-229q-16 0 -28.5 12.5t-12.5 28.5v33q-129 -92 -285 -92q-152 0 -251 84t-99 268v18q0 180 121 263t383 83h110v74q0 82 -37.5 111.5t-115.5 29.5q-193 0 -340 -14h-10q-37 0 -37 37v166q0 35 39 45q176 43 354 43q479 0 479 -418 v-731zM702 276v226h-116q-102 0 -141 -35t-39 -115v-18q0 -61 29.5 -82t99.5 -21q77 0 167 45zM952 1581q0 -8 -8 -16l-250 -250q-25 -25 -49 -25h-219q-18 0 -18 15q0 10 8 20l190 240q25 31 56 30h268q22 0 22 -14z" />
<glyph unicode="&#xe2;" horiz-adv-x="1150" d="M1028 41q0 -16 -12 -28.5t-29 -12.5h-229q-16 0 -28.5 12.5t-12.5 28.5v33q-129 -92 -285 -92q-152 0 -251 84t-99 268v18q0 180 121 263t383 83h110v74q0 82 -37.5 111.5t-115.5 29.5q-193 0 -340 -14h-10q-37 0 -37 37v166q0 35 39 45q176 43 354 43q479 0 479 -418 v-731zM702 276v226h-116q-102 0 -141 -35t-39 -115v-18q0 -61 29.5 -82t99.5 -21q77 0 167 45zM993 1305q0 -14 -18 -15h-211q-27 0 -49 25l-129 143l-131 -143q-23 -25 -49 -25h-211q-18 0 -19 15q0 10 8 20l183 240q25 31 55 30h328q33 0 55 -30l180 -240q8 -10 8 -20z " />
<glyph unicode="&#xe3;" horiz-adv-x="1150" d="M1028 41q0 -16 -12 -28.5t-29 -12.5h-229q-16 0 -28.5 12.5t-12.5 28.5v33q-129 -92 -285 -92q-152 0 -251 84t-99 268v18q0 180 121 263t383 83h110v74q0 82 -37.5 111.5t-115.5 29.5q-193 0 -340 -14h-10q-37 0 -37 37v166q0 35 39 45q176 43 354 43q479 0 479 -418 v-731zM702 276v226h-116q-102 0 -141 -35t-39 -115v-18q0 -61 29.5 -82t99.5 -21q77 0 167 45zM1001 1528q0 -246 -249 -246q-78 0 -146 45l-86 59q-53 37 -84 37q-47 0 -47 -55v-39q0 -35 -31 -35h-145q-31 0 -31 35v39q0 244 252 244q78 0 144 -43l88 -58q57 -37 82 -36 q47 0 47 55v39q0 33 32 33h144q31 0 30 -33v-41z" />
<glyph unicode="&#xe4;" horiz-adv-x="1150" d="M1028 41q0 -16 -12 -28.5t-29 -12.5h-229q-16 0 -28.5 12.5t-12.5 28.5v33q-129 -92 -285 -92q-152 0 -251 84t-99 268v18q0 180 121 263t383 83h110v74q0 82 -37.5 111.5t-115.5 29.5q-193 0 -340 -14h-10q-37 0 -37 37v166q0 35 39 45q176 43 354 43q479 0 479 -418 v-731zM702 276v226h-116q-102 0 -141 -35t-39 -115v-18q0 -61 29.5 -82t99.5 -21q77 0 167 45zM950 1352q0 -16 -14 -28.5t-31 -12.5h-192q-16 0 -29.5 12t-13.5 29v190q0 16 13 28.5t30 12.5h192q16 0 30.5 -12t14.5 -29v-190zM506 1352q0 -16 -13.5 -28.5t-29.5 -12.5 h-193q-16 0 -30.5 12t-14.5 29v190q0 16 14.5 28.5t30.5 12.5h193q16 0 29.5 -12t13.5 -29v-190z" />
<glyph unicode="&#xe5;" horiz-adv-x="1150" d="M1028 41q0 -16 -12 -28.5t-29 -12.5h-229q-16 0 -28.5 12.5t-12.5 28.5v33q-129 -92 -285 -92q-152 0 -251 84t-99 268v18q0 180 121 263t383 83h110v74q0 82 -37.5 111.5t-115.5 29.5q-193 0 -340 -14h-10q-37 0 -37 37v166q0 35 39 45q176 43 354 43q479 0 479 -418 v-731zM702 276v226h-116q-102 0 -141 -35t-39 -115v-18q0 -61 29.5 -82t99.5 -21q77 0 167 45zM819 1517.5q0 -100.5 -69.5 -170t-170 -69.5t-170 69.5t-69.5 170t69.5 170t170 69.5t170 -69.5t69.5 -170zM670 1517.5q0 36.5 -27 63.5t-63.5 27t-63.5 -27t-27 -63.5 t27 -63.5t63.5 -27t63.5 27t27 63.5z" />
<glyph unicode="&#xe6;" horiz-adv-x="1804" d="M1710 543q0 -16 -13.5 -29.5t-29.5 -13.5h-635v-84q0 -158 238 -158q199 0 354 16h10q33 0 33 -32v-148q0 -41 -39 -53q-174 -59 -405 -59q-178 0 -289 94q-172 -94 -399 -94q-193 0 -321 91t-128 279v23q0 172 135 247.5t395 75.5h86v19q0 113 -35.5 154.5t-123.5 41.5 q-205 0 -334 -14h-6q-35 0 -35 37v162q0 39 41 49q162 43 334 43q225 0 348 -123q129 123 323 123q250 0 373 -139.5t123 -376.5v-131zM1393 680v37q0 217 -180.5 217t-180.5 -217v-37h361zM713 244v274h-97q-111 0 -163 -32.5t-52 -110.5v-23q0 -70 46.5 -102.5 t115.5 -32.5q91 0 150 27z" />
<glyph unicode="&#xe7;" horiz-adv-x="970" d="M885 59q0 -23 -9.5 -32t-33.5 -15q-123 -31 -273 -30q-219 0 -348 136t-129 382v172q0 246 129 382t348 136q150 0 273 -31q25 -6 34 -15t9 -32v-182q0 -14 -11.5 -24.5t-27.5 -10.5h-4q-133 14 -250 14q-168 0 -168 -237v-172q0 -238 168 -238q117 0 250 14h4 q16 0 27.5 -10t11.5 -24v-183zM707 -86q0 -8 -9 -16l-252 -250q-29 -25 -49 -25h-219q-20 0 -20 15q0 6 10 20l190 240q23 31 56 30h270q23 0 23 -14z" />
<glyph unicode="&#xe8;" horiz-adv-x="1208" d="M1116 532q0 -49 -43 -49h-653v-4q0 -223 211 -223q209 0 393 18h6q39 0 39 -32v-156q0 -45 -43 -55q-197 -49 -420 -49q-98 0 -185 27.5t-164 86t-121 165t-44 247.5v143q0 250 137.5 394.5t381 144.5t374.5 -148.5t131 -390.5v-119zM793 688v8q0 113 -48.5 170.5 t-136.5 57.5q-86 0 -137 -58.5t-51 -169.5v-8h373zM834 1305q0 -14 -19 -15h-219q-25 0 -49 25l-250 250q-8 8 -8 16q0 14 22 14h271q31 0 55 -30l188 -240q9 -10 9 -20z" />
<glyph unicode="&#xe9;" horiz-adv-x="1208" d="M1116 532q0 -49 -43 -49h-653v-4q0 -223 211 -223q209 0 393 18h6q39 0 39 -32v-156q0 -45 -43 -55q-197 -49 -420 -49q-98 0 -185 27.5t-164 86t-121 165t-44 247.5v143q0 250 137.5 394.5t381 144.5t374.5 -148.5t131 -390.5v-119zM793 688v8q0 113 -48.5 170.5 t-136.5 57.5q-86 0 -137 -58.5t-51 -169.5v-8h373zM961 1581q0 -8 -9 -16l-250 -250q-25 -25 -49 -25h-219q-18 0 -18 15q0 10 8 20l190 240q25 31 56 30h268q23 0 23 -14z" />
<glyph unicode="&#xea;" horiz-adv-x="1208" d="M1116 532q0 -49 -43 -49h-653v-4q0 -223 211 -223q209 0 393 18h6q39 0 39 -32v-156q0 -45 -43 -55q-197 -49 -420 -49q-98 0 -185 27.5t-164 86t-121 165t-44 247.5v143q0 250 137.5 394.5t381 144.5t374.5 -148.5t131 -390.5v-119zM793 688v8q0 113 -48.5 170.5 t-136.5 57.5q-86 0 -137 -58.5t-51 -169.5v-8h373zM1012 1305q0 -14 -19 -15h-211q-27 0 -49 25l-129 143l-131 -143q-23 -25 -49 -25h-211q-18 0 -18 15q0 10 8 20l182 240q25 31 55 30h328q33 0 55 -30l181 -240q8 -10 8 -20z" />
<glyph unicode="&#xeb;" horiz-adv-x="1208" d="M1116 532q0 -49 -43 -49h-653v-4q0 -223 211 -223q209 0 393 18h6q39 0 39 -32v-156q0 -45 -43 -55q-197 -49 -420 -49q-98 0 -185 27.5t-164 86t-121 165t-44 247.5v143q0 250 137.5 394.5t381 144.5t374.5 -148.5t131 -390.5v-119zM793 688v8q0 113 -48.5 170.5 t-136.5 57.5q-86 0 -137 -58.5t-51 -169.5v-8h373zM963 1348q0 -16 -14.5 -28.5t-30.5 -12.5h-193q-16 0 -29.5 12t-13.5 29v190q0 16 13.5 28.5t29.5 12.5h193q16 0 30.5 -12.5t14.5 -28.5v-190zM518 1348q0 -16 -13 -28.5t-30 -12.5h-192q-16 0 -30.5 12t-14.5 29v190 q0 16 14 28.5t31 12.5h192q16 0 29.5 -12.5t13.5 -28.5v-190z" />
<glyph unicode="&#xec;" horiz-adv-x="593" d="M477 1305q0 -14 -20 -15h-219q-25 0 -50 25l-249 250q-8 8 -9 16q0 14 23 14h270q33 0 56 -30l188 -240q10 -14 10 -20zM463 43q0 -16 -13.5 -29.5t-29.5 -13.5h-246q-16 0 -29.5 13.5t-13.5 29.5v1087q0 16 13.5 30t29.5 14h246q16 0 29.5 -13.5t13.5 -30.5v-1087z" />
<glyph unicode="&#xed;" horiz-adv-x="593" d="M674 1581q0 -8 -8 -16l-250 -250q-25 -25 -49 -25h-220q-20 0 -20 15q0 6 10 20l191 240q23 31 55 30h268q23 0 23 -14zM463 43q0 -16 -13.5 -29.5t-29.5 -13.5h-246q-16 0 -29.5 13.5t-13.5 29.5v1087q0 16 13.5 30t29.5 14h246q16 0 29.5 -13.5t13.5 -30.5v-1087z" />
<glyph unicode="&#xee;" horiz-adv-x="593" d="M463 43q0 -16 -13.5 -29.5t-29.5 -13.5h-246q-16 0 -29.5 13.5t-13.5 29.5v1087q0 16 13.5 30t29.5 14h246q16 0 29.5 -13.5t13.5 -30.5v-1087zM707 1305q0 -14 -19 -15h-211q-27 0 -49 25l-129 143l-131 -143q-23 -25 -49 -25h-211q-18 0 -19 15q0 10 9 20l182 240 q25 31 55 30h328q33 0 55 -30l180 -240q9 -10 9 -20z" />
<glyph unicode="&#xef;" horiz-adv-x="593" d="M463 43q0 -16 -13.5 -29.5t-29.5 -13.5h-246q-16 0 -29.5 13.5t-13.5 29.5v1087q0 16 13.5 30t29.5 14h246q16 0 29.5 -13.5t13.5 -30.5v-1087zM662 1348q0 -16 -14.5 -28.5t-31.5 -12.5h-192q-16 0 -29.5 12t-13.5 29v190q0 16 13.5 28.5t29.5 12.5h192q16 0 31 -12.5 t15 -28.5v-190zM217 1348q0 -16 -13.5 -28.5t-29.5 -12.5h-192q-16 0 -30.5 12t-14.5 29v190q0 16 14 28.5t31 12.5h192q16 0 29.5 -12.5t13.5 -28.5v-190z" />
<glyph unicode="&#xf0;" horiz-adv-x="1206" d="M1116 530q0 -272 -131 -410t-379 -138q-256 0 -386 141t-130 407v64q0 272 132 409.5t382 137.5q68 0 103 -19q-68 86 -230 166l-145 -110q-16 -12 -27 -13q-12 0 -22 13l-56 61q-6 6 -6 16q0 18 21 33l84 64q-90 29 -101 30q-33 8 -32 29q0 8 2 12l51 140q8 23 28 22 q10 0 17 -2q111 -27 237 -76l162 123q10 8 26.5 8t24.5 -10l56 -59q8 -8 8 -17q0 -12 -21 -28l-108 -84q225 -123 332.5 -324t107.5 -522v-64zM786 530v64q0 143 -43 206.5t-139 63.5t-140 -64.5t-44 -205.5v-64q0 -141 45 -205.5t141 -64.5q94 0 137 63.5t43 206.5z" />
<glyph unicode="&#xf1;" horiz-adv-x="1253" d="M1130 43q0 -16 -13 -29.5t-30 -13.5h-247q-16 0 -28.5 13.5t-12.5 29.5v682q0 111 -30 150.5t-122 39.5q-70 0 -192 -65v-807q0 -16 -12.5 -29.5t-28.5 -13.5h-248q-16 0 -29.5 13.5t-13.5 29.5v1090q0 16 12 28.5t29 12.5h229q16 0 28.5 -12.5t12.5 -28.5v-50 q150 106 334 107q109 0 182.5 -35t111.5 -102.5t53 -145.5t15 -182v-682zM1030 1528q0 -246 -250 -246q-78 0 -145 45l-86 59q-53 37 -84 37q-47 0 -47 -55v-39q0 -35 -31 -35h-145q-31 0 -31 35v39q0 244 252 244q78 0 143 -43l88 -58q57 -37 82 -36q47 0 47 55v39 q0 33 33 33h143q31 0 31 -33v-41z" />
<glyph unicode="&#xf2;" horiz-adv-x="1206" d="M1116 514q0 -248 -133 -390t-379 -142t-380 142t-134 390v143q0 248 134 390.5t380 142.5t379 -142.5t133 -390.5v-143zM786 514v143q0 250 -182 250q-184 0 -184 -250v-143q0 -252 184 -252q182 0 182 252zM791 1305q0 -14 -19 -15h-219q-25 0 -49 25l-250 250 q-8 8 -8 16q0 14 22 14h271q31 0 55 -30l188 -240q9 -10 9 -20z" />
<glyph unicode="&#xf3;" horiz-adv-x="1206" d="M1116 514q0 -248 -133 -390t-379 -142t-380 142t-134 390v143q0 248 134 390.5t380 142.5t379 -142.5t133 -390.5v-143zM786 514v143q0 250 -182 250q-184 0 -184 -250v-143q0 -252 184 -252q182 0 182 252zM952 1581q0 -8 -8 -16l-250 -250q-25 -25 -49 -25h-219 q-18 0 -18 15q0 10 8 20l190 240q25 31 56 30h268q22 0 22 -14z" />
<glyph unicode="&#xf4;" horiz-adv-x="1206" d="M1116 514q0 -248 -133 -390t-379 -142t-380 142t-134 390v143q0 248 134 390.5t380 142.5t379 -142.5t133 -390.5v-143zM786 514v143q0 250 -182 250q-184 0 -184 -250v-143q0 -252 184 -252q182 0 182 252zM1010 1305q0 -14 -19 -15h-211q-27 0 -49 25l-129 143 l-131 -143q-23 -25 -49 -25h-211q-18 0 -18 15q0 10 8 20l182 240q25 31 55 30h328q33 0 55 -30l180 -240q9 -10 9 -20z" />
<glyph unicode="&#xf5;" horiz-adv-x="1206" d="M1116 514q0 -248 -133 -390t-379 -142t-380 142t-134 390v143q0 248 134 390.5t380 142.5t379 -142.5t133 -390.5v-143zM786 514v143q0 250 -182 250q-184 0 -184 -250v-143q0 -252 184 -252q182 0 182 252zM1010 1528q0 -246 -250 -246q-78 0 -146 45l-86 59 q-53 37 -84 37q-47 0 -47 -55v-39q0 -35 -30 -35h-146q-31 0 -31 35v39q0 244 252 244q78 0 144 -43l88 -58q57 -37 82 -36q47 0 47 55v39q0 33 33 33h143q31 0 31 -33v-41z" />
<glyph unicode="&#xf6;" horiz-adv-x="1206" d="M1116 514q0 -248 -133 -390t-379 -142t-380 142t-134 390v143q0 248 134 390.5t380 142.5t379 -142.5t133 -390.5v-143zM786 514v143q0 250 -182 250q-184 0 -184 -250v-143q0 -252 184 -252q182 0 182 252zM963 1348q0 -16 -14.5 -28.5t-30.5 -12.5h-193q-16 0 -29.5 12 t-13.5 29v190q0 16 13.5 28.5t29.5 12.5h193q16 0 30.5 -12.5t14.5 -28.5v-190zM518 1348q0 -16 -13 -28.5t-30 -12.5h-192q-16 0 -30.5 12t-14.5 29v190q0 16 14 28.5t31 12.5h192q16 0 29.5 -12.5t13.5 -28.5v-190z" />
<glyph unicode="&#xf7;" d="M821 1130q0 -16 -12 -28t-29 -12h-241q-16 0 -28.5 12t-12.5 28v230q0 16 12 28.5t29 12.5h241q16 0 28.5 -12.5t12.5 -28.5v-230zM1130 709q0 -33 -40 -33h-859q-41 0 -41 33v184q0 33 41 33h859q41 0 40 -33v-184zM821 213q0 -16 -12 -27.5t-29 -11.5h-241 q-16 0 -28.5 11.5t-12.5 27.5v229q0 16 12 28.5t29 12.5h241q16 0 28.5 -12t12.5 -29v-229z" />
<glyph unicode="&#xf8;" horiz-adv-x="1206" d="M1145 1225q0 -14 -8 -23l-133 -178q113 -137 112 -367v-143q0 -248 -133 -390t-379 -142q-184 0 -307 81l-86 -114q-16 -20 -33 -21h-102q-16 0 -17 17q0 12 9 22l135 183q-113 137 -113 364v143q0 248 134 390.5t380 142.5q184 0 307 -82l82 113q16 20 33 20h102 q17 0 17 -16zM727 860q-47 47 -123 47q-184 0 -184 -250v-143q0 -25 4 -65zM786 514v143q0 25 -4 66l-303 -412q45 -49 125 -49q182 0 182 252z" />
<glyph unicode="&#xf9;" horiz-adv-x="1253" d="M1130 41q0 -16 -12 -28.5t-28 -12.5h-230q-16 0 -28.5 12.5t-12.5 28.5v49q-150 -106 -334 -106q-109 0 -182.5 34.5t-111 102t-53 145.5t-15.5 183v681q0 16 13.5 30t29.5 14h248q16 0 28.5 -13.5t12.5 -30.5v-681q0 -111 29.5 -151t121.5 -40q70 0 193 66v806 q0 16 12 30t29 14h247q16 0 29.5 -13.5t13.5 -30.5v-1089zM813 1305q0 -14 -18 -15h-220q-25 0 -49 25l-250 250q-8 8 -8 16q0 14 23 14h270q31 0 55 -30l189 -240q8 -10 8 -20z" />
<glyph unicode="&#xfa;" horiz-adv-x="1253" d="M1130 41q0 -16 -12 -28.5t-28 -12.5h-230q-16 0 -28.5 12.5t-12.5 28.5v49q-150 -106 -334 -106q-109 0 -182.5 34.5t-111 102t-53 145.5t-15.5 183v681q0 16 13.5 30t29.5 14h248q16 0 28.5 -13.5t12.5 -30.5v-681q0 -111 29.5 -151t121.5 -40q70 0 193 66v806 q0 16 12 30t29 14h247q16 0 29.5 -13.5t13.5 -30.5v-1089zM1001 1581q0 -8 -8 -16l-250 -250q-25 -25 -49 -25h-219q-18 0 -18 15q0 10 8 20l190 240q25 31 56 30h268q22 0 22 -14z" />
<glyph unicode="&#xfb;" horiz-adv-x="1253" d="M1130 41q0 -16 -12 -28.5t-28 -12.5h-230q-16 0 -28.5 12.5t-12.5 28.5v49q-150 -106 -334 -106q-109 0 -182.5 34.5t-111 102t-53 145.5t-15.5 183v681q0 16 13.5 30t29.5 14h248q16 0 28.5 -13.5t12.5 -30.5v-681q0 -111 29.5 -151t121.5 -40q70 0 193 66v806 q0 16 12 30t29 14h247q16 0 29.5 -13.5t13.5 -30.5v-1089zM1032 1305q0 -14 -18 -15h-211q-27 0 -49 25l-129 143l-131 -143q-23 -25 -50 -25h-211q-18 0 -18 15q0 10 8 20l183 240q25 31 55 30h327q33 0 56 -30l180 -240q8 -10 8 -20z" />
<glyph unicode="&#xfc;" horiz-adv-x="1253" d="M1130 41q0 -16 -12 -28.5t-28 -12.5h-230q-16 0 -28.5 12.5t-12.5 28.5v49q-150 -106 -334 -106q-109 0 -182.5 34.5t-111 102t-53 145.5t-15.5 183v681q0 16 13.5 30t29.5 14h248q16 0 28.5 -13.5t12.5 -30.5v-681q0 -111 29.5 -151t121.5 -40q70 0 193 66v806 q0 16 12 30t29 14h247q16 0 29.5 -13.5t13.5 -30.5v-1089zM989 1348q0 -16 -14 -28.5t-31 -12.5h-192q-16 0 -29.5 12t-13.5 29v190q0 16 13 28.5t30 12.5h192q16 0 30.5 -12.5t14.5 -28.5v-190zM545 1348q0 -16 -13.5 -28.5t-29.5 -12.5h-193q-16 0 -30.5 12t-14.5 29v190 q0 16 14.5 28.5t30.5 12.5h193q16 0 29.5 -12.5t13.5 -28.5v-190z" />
<glyph unicode="&#xfd;" horiz-adv-x="1212" d="M1167 1137q0 -2 -1 -5.5t-1 -5.5l-344 -1206q-51 -180 -143 -257t-305 -77q-145 0 -248 33q-43 16 -43 37v166q0 16 12 27.5t29 11.5h4l106 -8q109 -8 150 -9q57 0 87 23.5t48 83.5l19 63h-31q-33 0 -55.5 5.5t-48 22.5t-47 58t-40.5 105l-270 921q-2 6 -2 15q0 33 41 33 h272q31 0 39 -39l185 -770q8 -39 24 -39h2h8h9l190 809q8 39 43 39h272q16 0 27.5 -11.5t11.5 -25.5zM1001 1581q0 -8 -8 -16l-250 -250q-25 -25 -49 -25h-219q-18 0 -18 15q0 10 8 20l190 240q25 31 56 30h268q22 0 22 -14z" />
<glyph unicode="&#xfe;" horiz-adv-x="1222" d="M1137 510q0 -250 -130 -389t-382 -139q-80 0 -170 20v-360q0 -16 -11.5 -28.5t-27.5 -12.5h-250q-16 0 -29.5 12t-13.5 29v1888q0 16 11 28.5t28 12.5h254q16 0 27.5 -12.5t11.5 -28.5v-350q86 10 170 10q242 0 377 -138.5t135 -389.5v-152zM805 510v152q0 254 -180 253 q-68 0 -170 -12v-637q94 -12 170 -12q180 0 180 256z" />
<glyph unicode="&#xff;" horiz-adv-x="1212" d="M1167 1137q0 -2 -1 -5.5t-1 -5.5l-344 -1206q-51 -180 -143 -257t-305 -77q-145 0 -248 33q-43 16 -43 37v166q0 16 12 27.5t29 11.5h4l106 -8q109 -8 150 -9q57 0 87 23.5t48 83.5l19 63h-31q-33 0 -55.5 5.5t-48 22.5t-47 58t-40.5 105l-270 921q-2 6 -2 15q0 33 41 33 h272q31 0 39 -39l185 -770q8 -39 24 -39h2h8h9l190 809q8 39 43 39h272q16 0 27.5 -11.5t11.5 -25.5zM975 1348q0 -16 -14.5 -28.5t-30.5 -12.5h-193q-16 0 -29.5 12t-13.5 29v190q0 16 13.5 28.5t29.5 12.5h193q16 0 30.5 -12.5t14.5 -28.5v-190zM530 1348q0 -16 -13 -28.5 t-30 -12.5h-192q-16 0 -30.5 12t-14.5 29v190q0 16 14.5 28.5t30.5 12.5h192q16 0 29.5 -12.5t13.5 -28.5v-190z" />
<glyph unicode="&#x152;" horiz-adv-x="2021" d="M1907 51q0 -37 -41 -43q-186 -27 -398 -26q-264 0 -378 104q-145 -104 -375 -104q-272 0 -439 159.5t-167 497.5v244q0 338 166.5 497.5t439.5 159.5q227 0 375 -106q117 104 380 104q209 0 396 -27q41 -6 41 -41v-190q0 -16 -12.5 -28.5t-28.5 -12.5h-416 q-74 0 -102.5 -29.5t-28.5 -109.5v-148q0 -6 1 -18t1 -19h528q16 0 28.5 -12t12.5 -29v-194q0 -16 -12 -28.5t-29 -12.5h-528q0 -12 -1 -35.5t-1 -34.5v-147q0 -80 28.5 -109.5t102.5 -29.5h416q16 0 28.5 -12.5t12.5 -28.5v-191zM969 639v244q0 182 -61.5 266t-192.5 84 q-129 0 -190.5 -84t-61.5 -266v-244q0 -182 61.5 -266t190.5 -84q131 0 192.5 84t61.5 266z" />
<glyph unicode="&#x153;" horiz-adv-x="1908" d="M1817 532q0 -49 -43 -49h-654v-10v-6q8 -211 211 -211q209 0 393 18h7q39 0 38 -32v-156q0 -45 -43 -55q-197 -49 -420 -49t-350 133q-133 -133 -350 -133q-246 0 -380 142t-134 390v143q0 248 134 390.5t380 142.5q211 0 352 -137q133 137 353 137q244 0 375 -148.5 t131 -390.5v-119zM1493 688v8q0 113 -48 170.5t-136 57.5q-86 0 -137.5 -57.5t-51.5 -164.5v-14h373zM788 514v143q0 250 -182 250t-182 -250v-143q0 -252 182 -252t182 252z" />
<glyph unicode="&#x178;" horiz-adv-x="1325" d="M1282 1491q0 -10 -2 -14l-309 -709q-55 -125 -133 -158v-569q0 -16 -12.5 -28.5t-28.5 -12.5h-269q-16 0 -28.5 12.5t-12.5 28.5v569q-82 35 -135 158l-309 709q-2 4 -2 14q0 31 33 31h295q29 0 41 -35l221 -578q12 -31 30.5 -30.5t30.5 30.5l221 578q12 35 41 35h295 q33 0 33 -31zM1024 1675q0 -16 -14.5 -28.5t-30.5 -12.5h-193q-16 0 -29.5 12.5t-13.5 28.5v191q0 16 13.5 28.5t29.5 12.5h193q16 0 30.5 -12.5t14.5 -28.5v-191zM580 1675q0 -16 -13.5 -28.5t-29.5 -12.5h-193q-16 0 -30.5 12.5t-14.5 28.5v191q0 16 14.5 28.5t30.5 12.5 h193q16 0 29.5 -12.5t13.5 -28.5v-191z" />
<glyph unicode="&#x2c6;" horiz-adv-x="907" d="M862 1305q0 -14 -18 -15h-211q-27 0 -49 25l-129 143l-131 -143q-23 -25 -50 -25h-211q-18 0 -18 15q0 10 8 20l183 240q25 31 55 30h327q33 0 56 -30l180 -240q8 -10 8 -20z" />
<glyph unicode="&#x2dc;" horiz-adv-x="1017" d="M909 1528q0 -246 -250 -246q-78 0 -145 45l-86 59q-51 37 -84 37q-47 0 -47 -55v-39q0 -35 -31 -35h-145q-31 0 -31 35v39q0 244 252 244q80 0 143 -43l88 -58q57 -37 82 -36q47 0 47 55v39q0 33 33 33h144q31 0 30 -33v-41z" />
<glyph unicode="&#x2000;" horiz-adv-x="1036" />
<glyph unicode="&#x2001;" horiz-adv-x="2072" />
<glyph unicode="&#x2002;" horiz-adv-x="1036" />
<glyph unicode="&#x2003;" horiz-adv-x="2072" />
<glyph unicode="&#x2004;" horiz-adv-x="690" />
<glyph unicode="&#x2005;" horiz-adv-x="518" />
<glyph unicode="&#x2006;" horiz-adv-x="344" />
<glyph unicode="&#x2007;" horiz-adv-x="344" />
<glyph unicode="&#x2008;" horiz-adv-x="258" />
<glyph unicode="&#x2009;" horiz-adv-x="413" />
<glyph unicode="&#x200a;" horiz-adv-x="114" />
<glyph unicode="&#x2010;" horiz-adv-x="618" d="M549 541q0 -37 -41 -37h-397q-41 0 -41 37v164q0 16 12 27t29 11h397q16 0 28.5 -11t12.5 -27v-164z" />
<glyph unicode="&#x2011;" horiz-adv-x="618" d="M549 541q0 -37 -41 -37h-397q-41 0 -41 37v164q0 16 12 27t29 11h397q16 0 28.5 -11t12.5 -27v-164z" />
<glyph unicode="&#x2012;" horiz-adv-x="618" d="M549 541q0 -37 -41 -37h-397q-41 0 -41 37v164q0 16 12 27t29 11h397q16 0 28.5 -11t12.5 -27v-164z" />
<glyph unicode="&#x2013;" horiz-adv-x="806" d="M752 514q0 -16 -12.5 -27.5t-28.5 -11.5h-615q-39 0 -39 39v162q0 16 11.5 28.5t27.5 12.5h615q16 0 28.5 -12.5t12.5 -28.5v-162z" />
<glyph unicode="&#x2014;" horiz-adv-x="1075" d="M1020 514q0 -16 -12.5 -27.5t-28.5 -11.5h-883q-39 0 -39 39v162q0 16 11.5 28.5t27.5 12.5h883q16 0 28.5 -12.5t12.5 -28.5v-162z" />
<glyph unicode="&#x2018;" horiz-adv-x="518" d="M469 1550q0 -12 -2 -18l-111 -449q-8 -39 -41 -39h-243q-25 0 -25 23q0 4 4 16l154 449q14 39 39 39h207q18 -1 18 -21z" />
<glyph unicode="&#x2019;" horiz-adv-x="518" d="M471 1548q0 -4 -4 -16l-154 -449q-14 -39 -39 -39h-206q-18 0 -19 21q0 12 2 18l111 449q8 39 41 39h243q25 0 25 -23z" />
<glyph unicode="&#x201a;" horiz-adv-x="518" d="M473 313q0 -6 -4 -14l-197 -459q-18 -41 -39 -41h-180q-14 0 -24.5 9.5t-10.5 21.5q0 2 1 5t1 5l132 459q10 39 41 39h249q31 0 31 -25z" />
<glyph unicode="&#x201c;" horiz-adv-x="968" d="M920 1550q0 -12 -2 -18l-111 -449q-8 -39 -41 -39h-244q-25 0 -24 23q0 4 4 16l151 449q12 39 39 39h209q19 -1 19 -21zM469 1550q0 -12 -2 -18l-111 -449q-8 -39 -41 -39h-243q-25 0 -25 23q0 4 4 16l154 449q14 39 39 39h207q18 -1 18 -21z" />
<glyph unicode="&#x201d;" horiz-adv-x="968" d="M922 1548q0 -4 -4 -16l-154 -449q-14 -39 -39 -39h-207q-18 0 -18 21q0 12 2 18l110 449q8 39 41 39h244q25 0 25 -23zM471 1548q0 -4 -4 -16l-152 -449q-12 -39 -39 -39h-208q-18 0 -19 21q0 12 2 18l113 449q8 39 41 39h241q25 0 25 -23z" />
<glyph unicode="&#x201e;" horiz-adv-x="968" d="M942 313q0 -6 -4 -14l-197 -459q-18 -41 -39 -41h-180q-14 0 -24.5 9.5t-10.5 21.5q0 2 1 5t1 5l132 459q10 39 41 39h249q31 0 31 -25zM473 313q0 -6 -4 -14l-197 -459q-18 -41 -39 -41h-180q-14 0 -24.5 9.5t-10.5 21.5q0 2 1 5t1 5l132 459q10 39 41 39h249 q31 0 31 -25z" />
<glyph unicode="&#x2022;" horiz-adv-x="856" d="M770 751.5q0 -141.5 -100.5 -241.5t-241.5 -100t-241.5 100t-100.5 241.5t100.5 242t241.5 100.5t241.5 -100.5t100.5 -242z" />
<glyph unicode="&#x2026;" horiz-adv-x="1570" d="M1468 41q0 -16 -12 -28.5t-29 -12.5h-241q-16 0 -28.5 12.5t-12.5 28.5v258q0 16 12 27.5t29 11.5h241q16 0 28.5 -11.5t12.5 -27.5v-258zM948 41q0 -16 -12 -28.5t-29 -12.5h-241q-16 0 -28.5 12.5t-12.5 28.5v258q0 16 12 27.5t29 11.5h241q16 0 28.5 -11.5t12.5 -27.5 v-258zM428 41q0 -16 -12.5 -28.5t-28.5 -12.5h-242q-16 0 -28.5 12.5t-12.5 28.5v258q0 16 12.5 27.5t28.5 11.5h242q16 0 28.5 -11.5t12.5 -27.5v-258z" />
<glyph unicode="&#x202f;" horiz-adv-x="413" />
<glyph unicode="&#x2039;" horiz-adv-x="845" d="M758 152q0 -23 -29 -23h-248q-39 0 -61 25l-328 378q-20 23 -20 53.5t20 53.5l328 379q23 25 61 24h248q29 0 29 -22q0 -6 -8 -19l-361 -415l361 -416q8 -12 8 -18z" />
<glyph unicode="&#x203a;" horiz-adv-x="845" d="M774 585.5q0 -30.5 -20 -53.5l-328 -378q-23 -25 -61 -25h-248q-29 0 -29 23q0 6 8 18l361 416l-361 415q-8 12 -8 19q0 23 29 22h248q39 0 61 -24l328 -379q20 -23 20 -53.5z" />
<glyph unicode="&#x205f;" horiz-adv-x="518" />
<glyph unicode="&#x20ac;" d="M1184 63q0 -35 -45 -47q-104 -35 -285 -34q-242 0 -416 131t-205 415h-55q-16 0 -28.5 12.5t-12.5 28.5v90q0 16 12.5 28.5t28.5 12.5h49v127h-49q-16 0 -28.5 12.5t-12.5 28.5v90q0 16 12.5 28.5t28.5 12.5h55q16 145 75 253t147 168.5t187 89t212 28.5q180 0 285 -35 q45 -12 45 -45v-198q0 -41 -39 -41h-6q-207 16 -283 16q-223 0 -266 -236h436q35 0 35 -30q0 -6 -2 -11l-25 -90q-12 -41 -41 -41h-411v-127h374q29 0 29 -24v-6l-31 -123q-4 -18 -28 -19h-336q39 -242 266 -241q76 0 283 16h6q39 0 39 -41v-199z" />
<glyph unicode="&#x2122;" horiz-adv-x="1699" d="M1620 715q0 -20 -23 -21h-159q-23 0 -23 21v495q0 86 -27.5 111t-115.5 25v-631q0 -20 -23 -21h-162q-20 0 -20 21v631q-57 0 -143 -9v-622q0 -20 -21 -21h-160q-23 0 -22 21v727q0 37 12 51t45 18q186 18 389 19q121 0 195 -10.5t138.5 -42t92 -97t27.5 -170.5v-495z M655 1378q0 -27 -26 -26h-168v-631q0 -27 -27 -27h-158q-27 0 -26 27v631h-172q-27 0 -27 26v117q0 27 27 27h551q27 0 26 -27v-117z" />
<glyph unicode="&#xe000;" horiz-adv-x="1175" d="M0 1175h1175v-1175h-1175v1175z" />
<glyph unicode="&#xfb01;" horiz-adv-x="1437" d="M1315 1348q0 -16 -13.5 -28.5t-29.5 -12.5h-260q-16 0 -30.5 12t-14.5 29v190q0 16 14 28.5t31 12.5h260q16 0 29.5 -12.5t13.5 -28.5v-190zM1307 43q0 -16 -12.5 -29.5t-28.5 -13.5h-248q-16 0 -29.5 13.5t-13.5 29.5v1087q0 16 13 30t30 14h248q16 0 28.5 -13.5 t12.5 -30.5v-1087zM807 1372q0 -35 -43 -35h-100q-45 0 -56.5 -16t-11.5 -80v-67h168q16 0 28.5 -12.5t12.5 -28.5v-166q0 -16 -12.5 -28.5t-28.5 -12.5h-168v-885q0 -16 -12.5 -28.5t-28.5 -12.5h-252q-16 0 -28.5 12.5t-12.5 28.5v885l-164 26q-43 8 -43 43v135 q0 16 13.5 30t29.5 14h164v65q0 207 81 278.5t263 71.5q63 0 162 -16q39 -6 39 -41v-160z" />
<glyph unicode="&#xfb02;" horiz-adv-x="1429" d="M1307 43q0 -16 -11.5 -29.5t-27.5 -13.5h-250q-16 0 -29.5 13.5t-13.5 29.5v1487q0 16 13 28.5t30 12.5h250q16 0 27.5 -12.5t11.5 -28.5v-1487zM807 1372q0 -35 -43 -35h-100q-45 0 -56.5 -16t-11.5 -80v-67h168q16 0 28.5 -12.5t12.5 -28.5v-166q0 -16 -12.5 -28.5 t-28.5 -12.5h-168v-885q0 -16 -12.5 -28.5t-28.5 -12.5h-252q-16 0 -28.5 12.5t-12.5 28.5v885l-164 26q-43 8 -43 43v135q0 16 13.5 30t29.5 14h164v65q0 207 81 278.5t263 71.5q63 0 162 -16q39 -6 39 -41v-160z" />
<glyph unicode="&#xfb03;" horiz-adv-x="2330" d="M2208 1348q0 -16 -12.5 -28.5t-28.5 -12.5h-266q-16 0 -28.5 12t-12.5 29v190q0 16 12 28.5t29 12.5h266q16 0 28.5 -12.5t12.5 -28.5v-190zM2200 41q0 -16 -12.5 -28.5t-28.5 -12.5h-250q-16 0 -28.5 12.5t-12.5 28.5v1092q0 16 12.5 28.5t28.5 12.5h250 q16 0 28.5 -12.5t12.5 -28.5v-1092zM1675 1372q0 -35 -43 -35h-100q-45 0 -56.5 -16t-11.5 -80v-67h168q16 0 28.5 -12.5t12.5 -28.5v-166q0 -16 -12.5 -28.5t-28.5 -12.5h-168v-885q0 -16 -12.5 -28.5t-28.5 -12.5h-252q-16 0 -28.5 12.5t-12.5 28.5v885l-164 26 q-43 8 -43 43v135q0 16 13.5 30t29.5 14h164v65q0 207 81 278.5t263 71.5q63 0 162 -16q39 -6 39 -41v-160zM807 1372q0 -35 -43 -35h-100q-45 0 -56.5 -16t-11.5 -80v-67h168q16 0 28.5 -12.5t12.5 -28.5v-166q0 -16 -12.5 -28.5t-28.5 -12.5h-168v-885q0 -16 -12.5 -28.5 t-28.5 -12.5h-252q-16 0 -28.5 12.5t-12.5 28.5v885l-164 26q-43 8 -43 43v135q0 16 13.5 30t29.5 14h164v65q0 207 81 278.5t263 71.5q63 0 162 -16q39 -6 39 -41v-160z" />
<glyph unicode="&#xfb04;" horiz-adv-x="2314" d="M2192 43q0 -16 -11.5 -29.5t-27.5 -13.5h-250q-16 0 -29.5 13.5t-13.5 29.5v1487q0 16 13.5 28.5t29.5 12.5h250q16 0 27.5 -12.5t11.5 -28.5v-1487zM1675 1372q0 -35 -43 -35h-100q-45 0 -56.5 -16t-11.5 -80v-67h168q16 0 28.5 -12.5t12.5 -28.5v-166 q0 -16 -12.5 -28.5t-28.5 -12.5h-168v-885q0 -16 -12.5 -28.5t-28.5 -12.5h-252q-16 0 -28.5 12.5t-12.5 28.5v885l-164 26q-43 8 -43 43v135q0 16 13.5 30t29.5 14h164v65q0 207 81 278.5t263 71.5q63 0 162 -16q39 -6 39 -41v-160zM807 1372q0 -35 -43 -35h-100 q-45 0 -56.5 -16t-11.5 -80v-67h168q16 0 28.5 -12.5t12.5 -28.5v-166q0 -16 -12.5 -28.5t-28.5 -12.5h-168v-885q0 -16 -12.5 -28.5t-28.5 -12.5h-252q-16 0 -28.5 12.5t-12.5 28.5v885l-164 26q-43 8 -43 43v135q0 16 13.5 30t29.5 14h164v65q0 207 81 278.5t263 71.5 q63 0 162 -16q39 -6 39 -41v-160z" />
</font>
</defs>
</svg>
