<?xml version="1.0" standalone="no"?>
<!DOCTYPE svg PUBLIC "-//W3C//DTD SVG 1.1//EN" "http://www.w3.org/Graphics/SVG/1.1/DTD/svg11.dtd" >
<svg xmlns="http://www.w3.org/2000/svg">
<metadata>
This is a custom SVG webfont generated by Font Squirrel.
Copyright   : Digitized data C 2004 Agfa Monotype Corporation Neo SansTM is a trademark of Agfa Monotype Corporation and may be registered in certain jurisdictions  All rights reserved Neo Sans is designed by Sebastian Lester
Foundry     : Digitized data C Agfa Monotype Corporation Neo SansTM is a trademark of Agfa Monotype Corporation and may be registered in certain jurisdictions
</metadata>
<defs>
<font id="webfontqYAhcUzg" horiz-adv-x="1239" >
<font-face units-per-em="2048" ascent="1638" descent="-410" />
<missing-glyph horiz-adv-x="559" />
<glyph unicode=" "  horiz-adv-x="559" />
<glyph unicode="&#x09;" horiz-adv-x="559" />
<glyph unicode="&#xa0;" horiz-adv-x="559" />
<glyph unicode="!" horiz-adv-x="444" d="M580 1507v-6l-203 -1065q-8 -39 -47 -39h-74q-33 0 -33 33v6l172 1065q4 16 18.5 27.5t30.5 11.5h103q33 0 33 -33zM352 238v-7l-35 -192q-6 -39 -45 -39h-98q-33 0 -33 33v6l35 192q8 39 45 39h98q33 1 33 -32z" />
<glyph unicode="&#x22;" horiz-adv-x="741" d="M950 1524q0 -8 -6 -23l-186 -387q-20 -39 -45 -39h-97q-16 0 -16 15q0 12 6 24l162 387q16 39 49 39h115q18 0 18 -16zM602 1524q0 -8 -6 -23l-186 -387q-20 -39 -45 -39h-97q-16 0 -16 15q0 12 6 24l162 387q16 39 49 39h115q18 0 18 -16z" />
<glyph unicode="#" horiz-adv-x="1351" d="M1436 1059q0 -10 -2 -15l-13 -45q-10 -39 -47 -38h-198l-111 -414h201q27 0 26 -29q0 -10 -2 -14l-10 -43q-10 -39 -49 -39h-201l-100 -383q-12 -39 -43 -39h-90q-29 0 -29 29l2 4v6l100 383h-317l-100 -383q-12 -39 -43 -39h-93q-29 0 -28 29q0 2 1 5t1 5l100 383h-190 q-27 0 -27 29q0 10 2 14l12 43q10 39 48 39h190l111 414h-193q-29 0 -29 30q0 8 2 13l13 45q10 39 49 38h190l105 396q12 39 45 39h92q27 0 27 -29l-2 -4v-6l-105 -396h318l104 396q12 39 45 39h90q27 0 27 -27q0 -8 -2 -12l-105 -396h201q27 1 27 -28zM1016 961h-318 l-110 -414h317z" />
<glyph unicode="$" d="M1298 1477v-2l-16 -89q-6 -33 -39 -32h-4q-41 0 -164 9t-186 9q-74 0 -126 -8t-105.5 -30.5t-81 -72t-27.5 -124.5q0 -57 40 -99.5t144 -111.5l168 -113q143 -96 198.5 -179t55.5 -179q0 -190 -128 -312.5t-325 -148.5l-32 -193q-8 -41 -49 -41h-97q-33 0 -32 33v6v2 l32 185q-147 2 -288 28q-35 6 -35 25q0 2 1 6t1 6l16 84q6 33 39 33h4h2q207 -18 336 -18q156 0 257 68.5t101 215.5q0 59 -44 109.5t-156 126.5l-178 121q-219 147 -220 327q0 186 121 287.5t316 124.5l28 176q8 41 49 41h97q33 0 33 -33v-6v-2l-29 -170q164 -6 295 -27 q29 -4 28 -28v-4z" />
<glyph unicode="%" horiz-adv-x="1626" d="M1632 602q0 -51 -8 -94l-35 -191q-31 -174 -113.5 -252.5t-218.5 -78.5q-104 0 -165.5 64.5t-61.5 178.5q0 47 8 88l35 191q59 330 334 330q106 0 165.5 -60.5t59.5 -175.5zM1597 1511q0 -12 -14 -28l-1112 -1450q-33 -41 -53 -41h-101q-16 0 -16 12t12 29l1112 1450 q31 39 54 39h104q14 -1 14 -11zM864 1300q0 -51 -8 -94l-35 -190q-31 -174 -113.5 -253t-218.5 -79q-104 0 -165.5 64.5t-61.5 179.5q0 47 8 88l35 190q59 330 334 330q106 0 165.5 -60.5t59.5 -175.5zM1505 594q0 129 -119 129q-147 0 -186 -215l-35 -191q-8 -43 -8 -86 q0 -129 121 -129q145 0 184 215l35 191q8 43 8 86zM737 1292q0 129 -119 129q-147 0 -186 -215l-35 -190q-8 -43 -8 -86q0 -129 121 -129q145 0 184 215l35 190q8 43 8 86z" />
<glyph unicode="&#x26;" horiz-adv-x="1388" d="M1380 748v-9q-70 -324 -221 -499l154 -205q8 -10 8 -19q0 -16 -25 -16h-143q-20 0 -31 14l-82 111q-188 -139 -432 -139q-205 0 -322.5 78.5t-117.5 240.5q0 158 90 261.5t287 213.5l-21 29q-78 106 -110.5 178t-32.5 160q0 197 120 293t324 96q195 0 300.5 -75 t105.5 -204q0 -143 -87 -242.5t-302 -223.5l-70 -41l299 -398q102 139 154 387q6 33 32 33h93q30 1 30 -24zM1063 1257q0 72 -53.5 108t-184.5 36q-145 0 -210.5 -57.5t-65.5 -196.5q0 -66 25.5 -117t93.5 -141l18 -25l82 45q166 92 209 131q86 80 86 217zM961 231l-332 437 q-139 -78 -208 -153t-69 -204q0 -104 67.5 -144t213.5 -40q191 0 328 104z" />
<glyph unicode="'" horiz-adv-x="393" d="M602 1524q0 -8 -6 -23l-186 -387q-20 -39 -45 -39h-97q-16 0 -16 15q0 12 6 24l162 387q16 39 49 39h115q18 0 18 -16z" />
<glyph unicode="(" horiz-adv-x="624" d="M850 1528q0 -8 -12 -25q-467 -545 -467 -1313q0 -342 123 -581q4 -12 4 -17q0 -20 -25 -20h-86q-27 0 -43 22q-150 227 -149 633q0 354 123.5 707.5t353.5 583.5q23 23 51 22h108q19 0 19 -12z" />
<glyph unicode=")" horiz-adv-x="624" d="M655 885q0 -354 -123.5 -707.5t-353.5 -583.5q-23 -23 -51 -22h-109q-18 0 -18 14q0 8 10 23q469 547 469 1313q0 342 -123 581q-4 8 -4 15q0 23 27 22h84q27 0 43 -22q149 -227 149 -633z" />
<glyph unicode="*" horiz-adv-x="952" d="M1075 1225q0 -20 -28 -31l-256 -80l157 -217q10 -14 10 -27q0 -14 -12 -22l-49 -37q-8 -6 -16 -6q-16 0 -31 20l-156 217l-155 -217q-14 -20 -31 -20q-8 0 -16 6l-52 37q-12 8 -12 22q0 12 10 27l160 217l-254 80q-31 12 -31 31q0 2 1 5t1 5l19 59q6 20 26 21q6 0 19 -4 l256 -84l-2 268q0 39 31 39h61q31 0 31 -39l-2 -268l256 84q12 4 18 4q20 0 27 -21l18 -59q2 -4 2 -10z" />
<glyph unicode="+" horiz-adv-x="1218" d="M1221 760q0 -33 -41 -33h-353v-350q0 -41 -32 -41h-82q-33 0 -33 41v350h-350q-41 0 -41 33v82q0 33 41 32h350v353q0 41 33 41h82q33 0 32 -41v-353h353q41 0 41 -32v-82z" />
<glyph unicode="," horiz-adv-x="438" d="M387 248q0 -10 -6 -23l-221 -387q-20 -39 -45 -39h-84q-23 0 -23 19q0 8 6 20l185 387q18 39 49 39h119q20 0 20 -16z" />
<glyph unicode="-" horiz-adv-x="681" d="M696 645v-6l-14 -80q-6 -35 -45 -35h-408q-33 0 -32 29v6l14 80q8 37 45 37h408q32 0 32 -31z" />
<glyph unicode="." horiz-adv-x="438" d="M348 240v-7l-33 -190q-8 -41 -47 -41h-98q-31 0 -31 33v8l33 190q6 39 45 39h98q33 1 33 -32z" />
<glyph unicode="/" horiz-adv-x="727" d="M944 1499q0 -6 -4 -18l-715 -1440q-20 -41 -45 -41h-104q-23 0 -23 23q0 6 4 18l717 1440q20 41 43 41h105q22 0 22 -23z" />
<glyph unicode="0" d="M1298 1098q0 -90 -18 -199l-47 -276q-57 -338 -211 -487.5t-404 -149.5q-193 0 -301 110.5t-108 333.5q0 88 18 193l47 276q57 338 212 487.5t405 149.5q197 0 302 -109.5t105 -328.5zM1112 1092q0 154 -62.5 220t-185.5 66q-145 0 -252.5 -119.5t-148.5 -359.5l-47 -276 q-18 -115 -19 -197q0 -152 61.5 -217.5t186.5 -65.5q145 0 253 119t149 361l47 276q18 111 18 193z" />
<glyph unicode="1" d="M1008 1489v-6l-254 -1442q-8 -41 -45 -41h-113q-29 0 -29 33v8l226 1288l-283 -115q-14 -6 -27 -6q-16 0 -16 15v8l18 104q2 16 25 27l336 147q27 12 45 13h84q33 0 33 -33z" />
<glyph unicode="2" d="M1292 1243q0 -158 -91 -269.5t-251 -207.5l-221 -133q-186 -111 -258 -201t-96 -227l-8 -43h682q35 0 34 -29v-6l-16 -90q-6 -37 -47 -37h-813q-35 0 -35 33v6l31 166q61 340 407 547l232 139q147 88 190 135q78 80 78 201q0 82 -63.5 117.5t-213 35.5t-368.5 -30h-8 q-27 0 -27 26v10l14 72q6 29 45 37q170 41 371 41q213 0 322.5 -75t109.5 -218z" />
<glyph unicode="3" d="M1276 1227q0 -141 -69.5 -261t-194.5 -178q139 -76 139 -258q0 -274 -156.5 -409t-439.5 -135q-168 0 -340 41q-31 6 -31 32v7l13 69q6 35 41 35h6q211 -29 338 -29q381 0 381 383q0 82 -46.5 137.5t-152.5 55.5h-373q-33 0 -33 31v6l13 71q6 39 45 39h372 q141 0 218 96.5t77 239.5q0 102 -60 141t-216 39q-102 0 -356 -30h-7q-29 0 -28 26v8l12 72q6 31 47 39q205 41 352 41q213 0 331 -76.5t118 -232.5z" />
<glyph unicode="4" d="M1255 530v-6l-14 -82q-6 -37 -45 -36h-178l-64 -365q-8 -41 -43 -41h-118q-27 0 -27 31v10l63 365h-591q-72 0 -72 53q0 16 2 26l12 78q6 39 39 76l756 850q29 33 65 33h121q45 0 45 -35v-10l-162 -916h179q32 0 32 -31zM979 1239q0 8 -6 8h-2q-6 0 -19 -12l-571 -645 q-10 -14 -10 -19q0 -10 14 -10h473l121 674v4z" />
<glyph unicode="5" d="M1292 1493v-6l-16 -90q-6 -33 -47 -33h-588l-111 -442h97q547 0 547 -355q0 -283 -164 -432t-453 -149q-207 0 -354 37q-33 8 -33 32v8l14 76q6 31 39 31h8q160 -29 352.5 -29t296 112t103.5 304q0 123 -87 167t-296 44h-246q-29 0 -28 27q0 2 1 5t1 5l178 682 q10 35 47 35h704q35 0 35 -29z" />
<glyph unicode="6" d="M1296 1468v-6l-14 -80q-6 -37 -43 -36q-2 0 -6 1t-6 1q-160 33 -344 32q-207 0 -298 -113.5t-132 -340.5l-4 -23q197 41 315 41q193 0 313.5 -85t120.5 -257q0 -276 -160.5 -446t-439.5 -170q-406 0 -405 401q0 109 12 180l63 359q59 334 214 472t427 138q195 0 346 -35 q41 -8 41 -33zM1012 590q0 209 -273 209q-160 0 -315 -37l-35 -195q-16 -96 -16 -182q0 -141 61.5 -194.5t190.5 -53.5q180 0 283.5 133.5t103.5 319.5z" />
<glyph unicode="7" d="M1331 1378q0 -51 -31 -98l-806 -1249q-23 -31 -52 -31h-129q-25 0 -24 23q0 14 10 30l844 1286q4 8 4 11q0 12 -12 12h-693q-35 0 -34 29v4v2l16 86q8 39 47 39h686q84 0 129 -41.5t45 -102.5z" />
<glyph unicode="8" d="M1333 1217q0 -135 -71.5 -251t-192.5 -171q145 -88 145 -273q0 -256 -161.5 -396t-423.5 -140h-21q-184 0 -306 98t-122 264q0 141 73 262t198 185q-143 80 -144 249q0 240 164 366t410 126h20q193 0 312.5 -82.5t119.5 -236.5zM1149 1186q0 104 -67.5 151t-207.5 47h-20 q-154 0 -259.5 -87t-105.5 -236q0 -86 53.5 -139.5t168.5 -53.5h127q137 0 224 90.5t87 227.5zM1028 514q0 88 -52 147.5t-165 59.5h-127q-150 0 -232.5 -105.5t-82.5 -257.5q0 -113 65.5 -165t200.5 -52h20q176 0 274.5 100.5t98.5 272.5z" />
<glyph unicode="9" d="M1292 1135q0 -109 -12 -181l-63 -358q-59 -334 -214 -472t-428 -138q-195 0 -346 34q-41 8 -41 33v6l15 80q6 37 43 37q2 0 6 -1t6 -1q160 -33 344 -33q207 0 298 114t132 341l4 22q-197 -41 -315 -40q-193 0 -313.5 85t-120.5 257q0 276 160.5 446t439.5 170 q405 0 405 -401zM1112 1137q0 141 -61.5 194t-190.5 53q-180 0 -283.5 -133t-103.5 -319q0 -209 272 -209q160 0 316 37l35 194q16 97 16 183z" />
<glyph unicode=":" horiz-adv-x="448" d="M504 1092v-7l-33 -190q-6 -39 -47 -39h-96q-14 0 -24.5 9t-10.5 24v6l33 190q8 41 49 41h96q14 0 23.5 -10t9.5 -24zM354 238v-7l-35 -192q-6 -39 -47 -39h-96q-14 0 -24.5 9t-10.5 24v6l35 192q8 39 47 39h96q35 1 35 -32z" />
<glyph unicode=";" horiz-adv-x="448" d="M504 1094v-9l-33 -190q-6 -39 -45 -39h-100q-33 0 -33 33v6l33 190q8 41 47 41h100q31 1 31 -32zM362 246q0 -10 -6 -23l-221 -387q-23 -41 -47 -41h-82q-20 0 -20 19q0 10 6 22l184 387q18 39 49 39h117q20 0 20 -16z" />
<glyph unicode="&#x3c;" horiz-adv-x="1218" d="M1096 307q0 -20 -25 -20h-119q-31 0 -63 26l-494 418q-37 31 -37 70t37 69l494 418q33 27 63 27h119q25 0 25 -21q0 -16 -21 -34l-536 -459l536 -459q21 -19 21 -35z" />
<glyph unicode="=" horiz-adv-x="1218" d="M1208 987q0 -33 -41 -33h-788q-41 0 -41 33v82q0 33 41 33h788q41 0 41 -33v-82zM1208 535q0 -33 -41 -33h-788q-41 0 -41 33v81q0 33 41 33h788q41 0 41 -33v-81z" />
<glyph unicode="&#x3e;" horiz-adv-x="1218" d="M1192 801q0 -39 -37 -70l-493 -418q-33 -27 -64 -26h-119q-25 0 -24 20q0 16 20 35l537 459l-537 459q-20 18 -20 34q0 20 24 21h119q31 0 64 -27l493 -418q37 -30 37 -69z" />
<glyph unicode="?" horiz-adv-x="913" d="M1012 1284q0 -90 -42 -175t-84 -130t-132 -131l-111 -105q-98 -92 -119 -127q-18 -33 -26 -79l-17 -101q-2 -16 -17 -27.5t-32 -11.5h-90q-31 0 -31 31v6v2l17 101q14 96 54 160.5t136 152.5l113 104q102 96 141 155.5t39 154.5q0 61 -44 85.5t-144 24.5q-109 0 -279 -18 h-6q-25 0 -25 24v6v5l13 71q6 41 43 47q143 27 286 27q160 0 258.5 -62.5t98.5 -189.5zM446 236v-7l-34 -190q-6 -39 -45 -39h-99q-35 0 -35 33v6l35 190q4 16 17.5 28.5t29.5 12.5h99q32 1 32 -34z" />
<glyph unicode="@" horiz-adv-x="1570" d="M1575 821q0 -387 -195.5 -548.5t-586.5 -161.5q-338 0 -338 241q0 41 8 80l49 240q37 182 133 253.5t275 71.5q123 0 258 -30q41 -10 41 -39q0 -2 -1 -6t-1 -7l-130 -641q131 20 214 109.5t111 197t28 242.5q0 197 -120 299.5t-339 102.5q-264 0 -434 -134.5t-221 -385.5 l-64 -312q-14 -66 -14 -129q0 -184 122 -278.5t351 -94.5q143 0 295 15h4q16 0 16 -12v-3l-8 -65q-2 -25 -35 -29q-131 -16 -288 -16q-264 0 -426 127t-162 354q0 63 12 131l64 320q61 311 267 470.5t541 159.5q254 0 414 -143t160 -379zM1024 838q-86 12 -137 12 q-90 0 -139.5 -44t-67.5 -138l-47 -234q-8 -39 -8 -76q0 -61 38.5 -80.5t108.5 -19.5h53h2h7q53 0 79 4z" />
<glyph unicode="A" horiz-adv-x="1296" d="M1243 39q0 -39 -35 -39h-123q-25 0 -28 31l-51 471h-531l-213 -471q-12 -31 -43 -31h-125q-29 0 -28 27q0 12 4 20l614 1333q72 156 236 156q162 0 180 -154l143 -1335v-8zM995 664l-67 673q-4 37 -33 37q-31 0 -47 -37l-305 -673h452z" />
<glyph unicode="B" horiz-adv-x="1261" d="M1354 1176q0 -23 -8 -68q-45 -240 -275 -322q82 -33 127 -105.5t45 -164.5q0 -41 -10 -96q-43 -244 -214 -339t-460 -95q-219 0 -332 18q-55 8 -55 53q0 14 2 23l240 1364q12 66 80 76q139 16 327 16q242 0 387.5 -78t145.5 -246v-36zM1167 1171v23q0 106 -93 145 t-279 39q-33 0 -205 -6l-90 -508h315q297 0 344 244q8 43 8 63zM1057 514q0 201 -266 201h-316l-100 -563q20 0 95 -4.5t116 -4.5q135 0 225 22.5t153.5 85t82.5 169.5q10 55 10 94z" />
<glyph unicode="C" horiz-adv-x="1116" d="M1300 1481v-4l-18 -105q-2 -23 -29 -22h-6q-215 18 -340 18q-164 0 -279.5 -109.5t-158.5 -355.5l-51 -285q-14 -80 -15 -151q0 -313 289 -313q145 0 342 16h8q27 0 27 -23v-10l-14 -84q-6 -33 -49 -41q-143 -27 -344 -26q-82 0 -158 25.5t-141.5 77.5t-105.5 146.5 t-40 219.5q0 80 14 163l52 285q115 633 651 633q137 0 338 -33q28 -4 28 -22z" />
<glyph unicode="D" horiz-adv-x="1312" d="M1368 1057q0 -78 -14 -158l-47 -276q-111 -637 -734 -637q-250 0 -368 20q-37 6 -37 39q0 2 1 6t1 6l248 1407q10 45 51 52q123 20 377 20q242 0 382 -121.5t140 -357.5zM1182 1047q0 330 -365 329q-125 0 -227 -6l-215 -1220q66 -4 227 -5q197 0 337 114t181 364l47 276 q15 78 15 148z" />
<glyph unicode="E" horiz-adv-x="1128" d="M1280 1493v-4l-18 -96q-4 -25 -27 -25h-395q-156 0 -213.5 -45t-77.5 -168l-49 -285h628q33 0 33 -34v-7l-12 -77q-8 -41 -49 -41h-629l-59 -344q-10 -55 -11 -84q0 -70 48.5 -99.5t175.5 -29.5h395q18 0 18 -19v-6l-18 -100q-4 -25 -25 -29q-139 -14 -401 -14 q-178 0 -277.5 74.5t-99.5 220.5q0 45 8 86l137 788q39 217 158 299t346 82q297 0 398 -18q16 -2 16 -25z" />
<glyph unicode="F" horiz-adv-x="1128" d="M1280 1497v-8l-18 -96q-4 -25 -27 -25h-395q-156 0 -213.5 -45t-77.5 -168l-49 -285h628q33 0 33 -34v-7l-12 -77q-8 -41 -49 -41h-629l-117 -670q-8 -41 -47 -41h-104q-35 0 -35 35v6l194 1114q39 219 158 300t346 81q291 0 400 -18q14 -3 14 -21z" />
<glyph unicode="G" horiz-adv-x="1253" d="M1352 1483v-6l-19 -103q-2 -20 -28 -20h-9q-166 14 -387 14q-74 0 -139 -22.5t-127.5 -72.5t-110 -146.5t-69.5 -229.5l-47 -274q-16 -98 -17 -162q0 -309 277 -309q113 0 260 12l104 586q8 41 43 41h111q33 0 33 -35v-6l-123 -689q-6 -39 -45 -45q-193 -31 -412 -30 q-180 0 -306 120.5t-126 360.5q0 78 14 156l47 274q111 639 662 639q209 0 385 -29q29 -4 29 -24z" />
<glyph unicode="H" horiz-adv-x="1392" d="M1493 1489v-8l-252 -1440q-8 -41 -49 -41h-105q-33 0 -32 33v8l119 680h-701l-119 -680q-8 -41 -49 -41h-104q-33 0 -33 33v8l252 1440q8 41 49 41h104q33 0 33 -33v-8l-104 -594h700l105 594q8 41 49 41h104q33 0 33 -33z" />
<glyph unicode="I" horiz-adv-x="546" d="M629 1491v-8l-254 -1442q-8 -41 -45 -41h-113q-29 0 -29 33v8l254 1442q8 39 43 39h113q31 0 31 -31z" />
<glyph unicode="J" horiz-adv-x="526" d="M629 1489v-6l-277 -1559q-27 -150 -114.5 -221.5t-253.5 -71.5q-78 0 -105 17q-8 6 -8 16v6l12 76q6 35 47 35h80q78 0 110 31.5t46 111.5l276 1559q8 39 45 39h109q33 0 33 -33z" />
<glyph unicode="K" horiz-adv-x="1243" d="M1415 1501q0 -12 -10 -22l-758 -697l490 -749q4 -8 4 -13q0 -20 -23 -20h-147q-29 0 -41 20l-455 709l-121 -688q-8 -41 -45 -41h-112q-29 0 -29 33v8l254 1442q8 39 45 39h108q33 0 33 -33v-6l-112 -643l688 663q20 18 45 19h160q26 -1 26 -21z" />
<glyph unicode="L" horiz-adv-x="1052" d="M1036 129v-6l-14 -90q-2 -25 -27 -29q-125 -18 -401 -18q-174 0 -274.5 62.5t-100.5 227.5q0 61 10 115l191 1090q8 41 49 41h104q33 0 33 -33v-8l-194 -1114q-10 -55 -11 -91q0 -70 47.5 -96t176.5 -26h385q26 0 26 -25z" />
<glyph unicode="M" horiz-adv-x="1558" d="M1659 1473v-11l-250 -1421q-8 -41 -49 -41h-100q-33 0 -33 33v8l213 1214v2q0 4 -2 5l-4 -5l-400 -606q-39 -59 -102 -59h-94q-37 0 -54.5 13t-27.5 46l-185 606q0 4 -4 4.5t-4 -6.5l-213 -1214q-8 -41 -49 -41h-100q-33 0 -33 33v8l250 1421q4 25 24.5 42.5t44.5 17.5 h127q49 0 60 -35l215 -703q8 -23 20 -22q14 0 29 22l461 703q20 35 71 35h140q20 0 34.5 -13t14.5 -36z" />
<glyph unicode="N" horiz-adv-x="1392" d="M1495 1491v-8l-252 -1424q-4 -25 -24.5 -42t-44.5 -17h-119q-47 0 -60 33l-430 1202l-4 6q-4 0 -4 -6l-211 -1196q-8 -39 -43 -39h-106q-33 0 -33 18v7l254 1439q4 25 24.5 41.5t44.5 16.5h101q41 0 54 -8.5t22 -32.5l430 -1196l2 -6h4l2 6l211 1198q8 39 43 39h108 q31 0 31 -31z" />
<glyph unicode="O" horiz-adv-x="1353" d="M1405 1065q0 -74 -16 -172l-48 -264q-113 -643 -665 -643q-207 0 -333 119.5t-126 351.5q0 74 16 172l48 264q115 643 667 643q209 0 333 -122t124 -349zM1217 1063q0 162 -76 233.5t-221 71.5q-174 0 -291 -116.5t-160 -358.5l-47 -264q-14 -80 -14 -156 q0 -170 75.5 -244.5t221.5 -74.5q172 0 288.5 117.5t159.5 357.5l47 264q17 84 17 170z" />
<glyph unicode="P" horiz-adv-x="1214" d="M1321 1176q0 -37 -6 -84l-4 -27q-20 -133 -78.5 -226.5t-149 -142.5t-193 -69.5t-235.5 -20.5q-74 0 -202 10l-101 -575q-8 -41 -45 -41h-110q-29 0 -29 33v6v2l250 1427q10 45 59 52q143 16 342 16q238 0 370 -89t132 -271zM1135 1163q0 117 -82 166t-260 49 q-109 0 -207 -8l-107 -600q188 -8 205 -8q205 0 310.5 75.5t129.5 227.5l4 27q7 38 7 71z" />
<glyph unicode="Q" horiz-adv-x="1353" d="M1405 1065q0 -74 -16 -172l-48 -264q-104 -590 -577 -639l-14 -88q-6 -33 -7 -56q0 -39 24 -51t87 -12h121q39 0 39 -27v-6l-13 -69q-8 -49 -174 -50q-137 0 -202.5 41t-65.5 146q0 41 8 82l17 92q-168 27 -267.5 143.5t-99.5 321.5q0 74 16 172l48 264q115 643 667 643 q209 0 333 -122t124 -349zM1217 1063q0 162 -76 233.5t-221 71.5q-174 0 -291 -116.5t-160 -358.5l-47 -264q-14 -80 -14 -156q0 -170 75.5 -244.5t221.5 -74.5q172 0 288.5 117.5t159.5 357.5l47 264q17 84 17 170z" />
<glyph unicode="R" horiz-adv-x="1280" d="M1341 1171q0 -37 -6 -75l-2 -15q-25 -174 -129 -278.5t-266 -134.5l266 -629q4 -8 4 -14q0 -25 -30 -25h-134q-14 0 -19 1t-11 7t-10 19l-259 610h-20h-43q-72 0 -225 6l-105 -602q-8 -41 -45 -41h-110q-29 0 -29 33v6v2l252 1434q8 39 57 45q143 16 363 16 q231 0 366 -90.5t135 -274.5zM1157 1163q0 117 -81 161t-265 44q-178 0 -227 -6l-99 -561q102 -4 226 -4q397 0 438 284l2 15q6 36 6 67z" />
<glyph unicode="S" horiz-adv-x="1126" d="M1243 1483v-6l-14 -88q-6 -33 -41 -33h-4q-180 12 -353 12q-72 0 -125 -8t-105 -30.5t-80.5 -72t-28.5 -122.5q0 -53 38.5 -98.5t143.5 -114.5l168 -113q139 -94 198.5 -180t59.5 -191q0 -219 -158 -335.5t-414 -116.5q-172 0 -348 28q-35 6 -35 27l2 4v6l15 82 q6 33 41 33h6q139 -12 336 -12q358 0 358 284q0 59 -42 106.5t-154 125.5l-179 121q-223 152 -223 333q0 147 79 242.5t191.5 132.5t255.5 37q231 0 383 -25q29 -3 29 -28z" />
<glyph unicode="T" horiz-adv-x="1208" d="M1399 1491v-6l-17 -90q-6 -33 -45 -33h-399l-231 -1321q-8 -41 -45 -41h-113q-29 0 -29 33v8l232 1321h-400q-35 0 -35 27v6l17 90q8 37 47 37h985q33 0 33 -31z" />
<glyph unicode="U" horiz-adv-x="1355" d="M1464 1489v-6l-164 -930q-53 -299 -205.5 -433t-418.5 -134q-207 0 -322.5 106.5t-115.5 310.5q0 76 14 150l164 930q8 39 45 39h110q33 0 33 -33v-6l-164 -930q-16 -88 -16 -147q0 -131 66.5 -196t214.5 -65q184 0 277 100.5t130 307.5l164 930q8 39 45 39h111 q32 0 32 -33z" />
<glyph unicode="V" horiz-adv-x="1316" d="M1509 1495q0 -14 -4 -20l-612 -1334q-72 -156 -236 -155q-166 0 -182 155l-143 1334v4q0 18 12 30.5t31 12.5h114q27 0 31 -31l127 -1305q4 -43 33 -43t47 43l588 1305q16 31 41 31h125q28 0 28 -27z" />
<glyph unicode="W" horiz-adv-x="1689" d="M1882 1495q0 -10 -2 -14l-471 -1385q-35 -104 -145 -104h-88q-43 0 -69 27.5t-30 74.5l-67 758q-2 18 -9 18h-2h-2q-8 0 -16 -18l-336 -758q-45 -102 -135 -102h-86q-53 0 -81 21.5t-28 80.5v2l17 1385q0 18 12 29.5t31 11.5h117q29 0 28 -33v-2l-31 -1305v-22q0 -8 5 -8 q6 0 20 30l334 758q37 82 110 82h132q76 0 81 -82l68 -758q4 -31 8 -30q6 0 17 30l428 1305q12 35 41 35h120q29 0 29 -27z" />
<glyph unicode="X" horiz-adv-x="1323" d="M1473 1497q0 -10 -11 -24l-571 -707l336 -715q4 -12 4 -16q0 -35 -39 -35h-102q-23 0 -37 31l-277 590l-477 -590q-25 -31 -49 -31h-123q-29 0 -29 25q0 12 11 26l593 727l-325 695q-4 8 -4 14q0 35 37 35h104q25 0 33 -21l272 -581l475 581q16 20 43 21h107q29 0 29 -25 z" />
<glyph unicode="Y" horiz-adv-x="1193" d="M1386 1497q0 -10 -10 -27l-444 -712q-68 -109 -133 -135l-103 -582q-4 -16 -17 -28.5t-28 -12.5h-112q-29 0 -29 33v8l102 582q-57 25 -88 135l-188 712q-2 6 -2 15q0 37 39 37h119q25 0 32 -29l164 -664q14 -53 39 -53q23 0 55 53l404 664q16 29 39 29h131q30 0 30 -25z " />
<glyph unicode="Z" horiz-adv-x="1222" d="M1321 1370q0 -72 -55 -135l-904 -1038q-8 -8 -8 -17q0 -12 17 -12h731q35 0 35 -29v-6l-17 -96q-8 -37 -47 -37h-733q-80 0 -127 45t-47 111q0 84 59 151l879 1018q8 8 8 18q0 12 -18 13h-670q-35 0 -35 28v7l17 96q6 35 47 35h690q84 0 131 -43t47 -109z" />
<glyph unicode="[" horiz-adv-x="669" d="M881 1489v-8l-11 -68q-8 -41 -49 -41h-233l-285 -1620h234q33 0 32 -33v-8l-12 -67q-8 -41 -47 -41h-381q-29 0 -29 30v9l326 1841q8 39 41 39h381q33 0 33 -33z" />
<glyph unicode="\" horiz-adv-x="727" d="M688 37q0 -14 -10 -25.5t-25 -11.5h-104q-25 0 -29 41l-211 1440v4q0 14 10.5 25.5t24.5 11.5h105q23 0 26 -41l213 -1440v-4z" />
<glyph unicode="]" horiz-adv-x="669" d="M768 1491v-8l-326 -1841q-8 -39 -41 -39h-381q-35 0 -34 35v6l12 67q8 41 49 41h234l284 1620h-233q-33 0 -33 33v8l10 68q8 41 49 41h381q29 0 29 -31z" />
<glyph unicode="^" horiz-adv-x="1218" d="M1184 1171q0 -18 -23 -18h-123q-27 0 -57 37l-211 246l-211 -246q-31 -37 -57 -37h-123q-23 0 -23 18q0 12 9 23l235 305q29 37 62 37h217q33 0 61 -37l236 -305q8 -11 8 -23z" />
<glyph unicode="_" horiz-adv-x="1011" d="M1053 -127v-6l-11 -51q-6 -33 -47 -33h-1054q-35 0 -35 27v6l10 51q6 33 45 33h1055q37 0 37 -27z" />
<glyph unicode="`" horiz-adv-x="761" d="M725 1294q0 -18 -20 -18h-111q-20 0 -43 31l-184 258q-6 8 -7 14q0 16 25 16h135q27 0 47 -30l154 -254q4 -7 4 -17z" />
<glyph unicode="a" horiz-adv-x="1079" d="M1128 1063q0 -10 -2 -16l-176 -1006q-8 -41 -47 -41h-82q-31 0 -30 33v8v4l10 64q-96 -70 -164 -96.5t-166 -26.5q-139 0 -229 91t-90 271q0 57 12 123l37 203q84 467 532 467q174 0 359 -47q36 -8 36 -31zM932 969q-111 20 -199 20q-297 0 -356 -334l-37 -211 q-8 -41 -8 -94q0 -213 178 -213q121 0 297 119z" />
<glyph unicode="b" horiz-adv-x="1107" d="M1130 774q0 -66 -12 -135l-26 -147q-92 -506 -535 -506q-197 0 -371 34q-37 8 -36 31q0 2 1 7t1 10l251 1433q8 39 46 39h104q31 0 31 -31v-6v-2l-68 -381q117 20 244 21q182 0 276 -96.5t94 -270.5zM952 778q0 106 -51 155.5t-168 49.5q-162 0 -244 -14l-143 -813 q135 -12 238 -13q264 0 327 349l27 147q14 73 14 139z" />
<glyph unicode="c" horiz-adv-x="925" d="M1026 1087q0 -2 -1 -6t-1 -8l-12 -74q-6 -31 -43 -30h-6q-123 14 -250 14q-123 0 -207 -91t-111 -249l-26 -160q-12 -70 -13 -123q0 -217 207 -217q131 0 258 15h6q31 0 31 -25v-6l-12 -74q-2 -20 -13.5 -30.5t-35.5 -14.5q-125 -23 -260 -22q-174 0 -266.5 106.5 t-92.5 278.5q0 47 10 112l27 160q41 246 176 372t348 126q131 0 252 -23q35 -6 35 -31z" />
<glyph unicode="d" horiz-adv-x="1107" d="M1233 1503v-2l-252 -1433q-6 -39 -51 -48q-186 -35 -383 -34q-182 0 -276.5 101t-94.5 275q0 61 12 130l27 147q47 262 177 382t358 120q127 0 235 -21l68 381q8 39 47 39h104q29 0 29 -31v-6zM958 969q-76 14 -235 14q-264 0 -328 -344l-26 -147q-14 -86 -15 -134 q0 -106 52.5 -160.5t166.5 -54.5q98 0 242 13z" />
<glyph unicode="e" horiz-adv-x="1114" d="M1137 760q0 -59 -13 -123l-16 -86q-10 -45 -45 -45h-686l-6 -25q-16 -63 -17 -125q0 -219 256 -219q162 0 355 29h4h8q27 0 27 -21v-6v-2l-13 -69q-4 -23 -14 -33t-35 -15q-186 -35 -358 -34q-170 0 -287 93t-117 286q0 59 13 127l26 143q47 246 186.5 376t356.5 130 q182 0 278.5 -105.5t96.5 -275.5zM956 766q0 217 -221 217q-129 0 -217 -91t-117 -239l-2 -10h543l2 10q12 62 12 113z" />
<glyph unicode="f" horiz-adv-x="757" d="M969 1520v-7l-13 -67q-6 -31 -41 -31h-98q-78 0 -108.5 -25.5t-46.5 -115.5l-27 -148h221q33 0 33 -30v-6l-12 -72q-6 -35 -48 -35h-219l-182 -1032q-31 -170 -113 -227.5t-223 -57.5q-66 0 -121 10q-33 6 -32 27v6l12 68q6 31 43 30h96q74 0 108.5 31t49.5 113l182 1032 l-190 14q-33 4 -33 29v6l10 58q8 37 45 36h193l26 148q31 176 108 230.5t228 54.5q53 0 119 -13q33 -6 33 -26z" />
<glyph unicode="g" horiz-adv-x="1107" d="M1155 1061q0 -2 -1 -6t-1 -8l-184 -1045q-41 -231 -150.5 -318t-337.5 -87q-217 0 -342 36q-35 10 -35 33q0 2 1 5t1 5l11 60q6 33 43 33h4h2q209 -25 342 -25q137 0 196.5 53t81.5 193l5 24q-125 -29 -234 -28q-174 0 -277.5 90t-103.5 276q0 63 12 137l27 150 q49 270 179 386t366 116q166 0 358 -47q37 -8 37 -33zM958 967q-121 23 -225 22q-143 0 -224 -85t-114 -265l-26 -150q-14 -78 -15 -145q0 -115 54.5 -161t175.5 -46q131 0 233 23z" />
<glyph unicode="h" horiz-adv-x="1140" d="M1139 813q0 -27 -9 -84l-120 -688q-8 -41 -49 -41h-99q-33 0 -33 33v6v2l121 688q8 41 8 82q0 94 -54 135t-175 41q-133 0 -242 -31l-159 -915q-8 -41 -49 -41h-99q-33 0 -33 33v6v2l256 1460q8 39 46 39h104q31 0 31 -31v-6v-2l-68 -389q125 29 240 29 q190 0 286.5 -91.5t96.5 -236.5z" />
<glyph unicode="i" horiz-adv-x="505" d="M612 1520v-9l-28 -163q-8 -41 -49 -41h-105q-33 0 -33 32v9l29 163q8 41 49 41h105q32 1 32 -32zM532 1094v-9l-182 -1044q-8 -41 -49 -41h-98q-33 0 -33 33v8l182 1044q8 41 49 41h99q32 1 32 -32z" />
<glyph unicode="j" horiz-adv-x="505" d="M612 1520v-7l-28 -165q-8 -41 -49 -41h-107q-31 0 -31 32v9l29 165q6 39 47 39h107q32 1 32 -32zM532 1094v-9l-213 -1216q-27 -152 -101.5 -212t-205.5 -60q-57 0 -108 8q-31 6 -31 24v9l12 75q6 29 49 29h86q57 0 81 24.5t38 102.5l213 1216q8 41 49 41h99q32 1 32 -32 z" />
<glyph unicode="k" horiz-adv-x="1015" d="M1118 1106q0 -14 -12 -27l-531 -487l371 -545q6 -10 6 -18q0 -29 -28 -29h-119q-35 0 -55 31l-336 504l-86 -494q-8 -41 -39 -41h-109q-33 0 -33 33v8l256 1458q8 41 50 41h98q33 0 33 -33v-8l-148 -831l471 440q18 18 45 18h140q26 0 26 -20z" />
<glyph unicode="l" horiz-adv-x="499" d="M604 1509v-8l-256 -1460q-8 -41 -45 -41h-106q-29 0 -29 33v8l256 1460q6 39 45 39h106q29 0 29 -31z" />
<glyph unicode="m" horiz-adv-x="1632" d="M1638 844q0 -33 -10 -88l-125 -715q-8 -41 -49 -41h-98q-33 0 -33 33v8l125 715q8 43 8 86q0 78 -39 109.5t-123 31.5q-133 0 -250 -59q4 -14 5 -56q0 -59 -9 -108l-125 -719q-8 -41 -45 -41h-108q-27 0 -27 33v8l125 719q14 80 14 110q0 113 -122 113q-104 0 -273 -78 l-151 -864q-8 -41 -45 -41h-109q-27 0 -27 31v10l183 1044q8 41 47 41h98q31 0 31 -32v-9l-6 -38q158 94 299 94q66 0 121 -25.5t84 -66.5q166 92 335 92q147 0 223 -83t76 -214z" />
<glyph unicode="n" horiz-adv-x="1140" d="M1139 825q0 -53 -11 -110l-118 -674q-8 -41 -49 -41h-99q-33 0 -33 33v8l119 674q10 66 10 112q0 78 -42 117t-148 39q-123 0 -289 -78l-151 -864q-4 -16 -18.5 -28.5t-30.5 -12.5h-101q-31 0 -31 33v8l183 1044q8 41 47 41h100q31 0 31 -32v-9l-6 -43q174 98 329.5 98.5 t231.5 -87t76 -228.5z" />
<glyph unicode="o" horiz-adv-x="1116" d="M1137 756q0 -49 -11 -115l-26 -156q-86 -500 -545 -499q-180 0 -278.5 105.5t-98.5 281.5q0 47 10 112l27 156q86 500 543 500q184 0 281.5 -105.5t97.5 -279.5zM956 758q0 225 -225 225q-133 0 -221 -92t-115 -250l-26 -156q-12 -68 -13 -120q0 -111 54.5 -166.5 t171.5 -55.5q133 0 222 94.5t116 247.5l26 156q10 54 10 117z" />
<glyph unicode="p" horiz-adv-x="1107" d="M1130 766q0 -63 -12 -131l-26 -148q-47 -262 -174 -381.5t-361 -119.5q-117 0 -235 22l-66 -370q-8 -39 -47 -39h-105q-29 0 -28 30v6v3l248 1409q4 23 14 31.5t37 15.5q199 47 385 47q182 0 276 -101.5t94 -273.5zM952 776q0 109 -51 161t-168 52q-129 0 -244 -20 l-141 -811q109 -20 236 -21q262 0 327 350l27 148q14 73 14 141z" />
<glyph unicode="q" horiz-adv-x="1107" d="M1155 1061q0 -2 -1 -6t-1 -8l-248 -1409q-6 -39 -45 -39h-104q-31 0 -31 30v6v3l66 370q-129 -23 -244 -22q-178 0 -274.5 98t-96.5 272q0 61 12 131l27 148q45 256 173 381t362 125q184 0 368 -47q37 -8 37 -33zM958 969q-111 20 -235 20q-135 0 -217 -96t-111 -258 l-26 -148q-16 -88 -17 -145q0 -106 52.5 -155.5t168.5 -49.5q127 0 244 21z" />
<glyph unicode="r" horiz-adv-x="700" d="M840 1112v-8l-15 -86q-6 -35 -49 -35h-6q-160 0 -293 -84l-149 -858q-8 -41 -49 -41h-101q-31 0 -31 33v8l183 1044q8 41 47 41h96q31 0 31 -32v-9l-8 -47q131 102 303 103h4q37 0 37 -29z" />
<glyph unicode="s" horiz-adv-x="954" d="M1006 1081v-8l-11 -67q-6 -35 -41 -35h-6q-139 16 -301 16q-215 0 -215 -145q0 -63 111 -135l182 -121q102 -68 142 -127.5t40 -128.5q0 -180 -125 -262t-315 -82q-197 0 -320 30q-35 8 -34 35v6l12 72q6 31 39 31h12q176 -23 318 -23q100 0 165.5 41t65.5 133 q0 37 -25.5 69t-93.5 77l-184 121q-172 113 -172 247q0 168 122 242t302 74q174 0 301 -27q31 -6 31 -33z" />
<glyph unicode="t" horiz-adv-x="768" d="M901 1094v-9l-12 -69q-8 -41 -47 -41h-221l-127 -719q-6 -37 -7 -59q0 -41 20.5 -53.5t74.5 -12.5h125q29 0 28 -20v-9l-12 -71q-6 -29 -43 -35q-68 -10 -129 -10q-246 0 -246 194q0 37 8 80l127 715l-194 22q-33 4 -33 31v6l10 56q8 37 45 36h199l33 201q6 35 45 41 l108 16h6q25 0 25 -28v-6l-37 -224h221q33 1 33 -32z" />
<glyph unicode="u" horiz-adv-x="1140" d="M1192 1094v-9l-182 -1044q-8 -41 -47 -41h-97q-31 0 -30 33v8l6 37q-178 -92 -340 -92q-137 0 -218 83t-81 240q0 57 12 125l115 651q8 41 49 41h98q33 0 33 -32v-9l-119 -673q-12 -68 -12 -117q0 -84 44 -118t146 -34q127 0 291 76l152 866q8 41 49 41h100q31 1 31 -32z " />
<glyph unicode="v" horiz-adv-x="1085" d="M1200 1102q0 -12 -6 -25l-426 -930q-74 -162 -227 -161q-152 0 -170 161l-99 930v6q0 43 39 43h105q31 0 33 -39l71 -888q4 -63 39 -64q31 0 59 64l388 888q18 39 45 39h123q26 1 26 -24z" />
<glyph unicode="w" horiz-adv-x="1609" d="M1724 1092q0 -10 -2 -15l-366 -950q-53 -141 -197 -141q-59 0 -96 40t-43 113l-59 690q-2 14 -7 15q-8 0 -14 -15l-301 -690q-70 -154 -193 -153q-141 0 -147 141l-31 952q0 16 14.5 31.5t32.5 15.5h107q29 0 29 -32l6 -928q0 -25 12 -25q10 0 20 25l338 780q29 61 95 62 h114q63 0 70 -62l63 -780q2 -25 13 -25q12 0 20 25l334 928q12 33 41 32h115q32 1 32 -34z" />
<glyph unicode="x" horiz-adv-x="1120" d="M1217 1106q0 -14 -15 -31l-438 -497l274 -531q6 -10 6 -20q0 -27 -32 -27h-115q-27 0 -41 29l-213 411l-371 -420q-18 -20 -39 -20h-129q-23 0 -22 16q0 10 16 31l471 537l-254 491q-6 12 -6 21q0 31 35 30h113q20 0 37 -28l196 -379l332 379q27 29 47 28h125 q23 0 23 -20z" />
<glyph unicode="y" horiz-adv-x="1093" d="M1212 1100q0 -10 -6 -23l-547 -1179q-80 -172 -168 -238t-260 -66q-94 0 -168 19q-39 12 -38 29v4l14 75q6 33 45 33h6q129 -12 180 -12q90 0 140.5 35t93.5 139l35 84h-23q-55 0 -89 33t-46 127l-105 917v6q0 43 43 43h107q25 0 29 -32l86 -889q4 -45 30 -45h33l414 936 q12 31 45 30h121q28 1 28 -26z" />
<glyph unicode="z" horiz-adv-x="954" d="M1010 985q0 -72 -56 -129l-641 -666q-14 -14 -14 -24q0 -14 20 -14h523q33 0 32 -33v-8l-12 -70q-8 -41 -47 -41h-518q-88 0 -133 41t-45 102q0 74 47 121l653 678q12 12 12 21q0 12 -20 12h-504q-33 0 -33 35v6l13 69q8 41 47 41h512q82 0 123 -40t41 -101z" />
<glyph unicode="{" horiz-adv-x="677" d="M881 1487v-6l-11 -68q-8 -41 -49 -41h-92q-88 0 -118.5 -25.5t-45.5 -107.5l-65 -365q-20 -113 -65.5 -186.5t-135.5 -128.5q98 -86 98 -227q0 -47 -8 -86l-63 -361q-6 -33 -7 -59q0 -43 27 -58.5t98 -15.5h95q33 0 32 -33v-8l-12 -67q-8 -41 -47 -41h-86 q-291 0 -291 196q0 45 8 86l64 361q10 57 10 90q0 96 -88 166l21 119q80 49 115.5 103t51.5 150l66 365q31 174 105.5 228.5t265.5 54.5h94q33 0 33 -35z" />
<glyph unicode="|" horiz-adv-x="509" d="M504 -358q0 -16 -11.5 -27.5t-25.5 -11.5h-107q-16 0 -27 12t-11 27v1841q0 16 11 27.5t27 11.5h107q14 0 25.5 -11.5t11.5 -27.5v-1841z" />
<glyph unicode="}" horiz-adv-x="677" d="M745 621l-20 -119q-80 -49 -116 -104.5t-52 -151.5l-63 -361q-31 -172 -100.5 -227t-262.5 -55h-104q-14 0 -24.5 10t-10.5 25v4v2l12 67q8 41 49 41h94q90 0 120 25.5t44 107.5l64 361q18 111 64 184.5t136 128.5q-100 94 -100 221q0 37 10 94l66 365q6 35 6 59 q0 43 -26.5 58.5t-98.5 15.5h-92q-33 0 -33 35v6l10 68q8 41 50 41h102q145 0 208.5 -47.5t63.5 -147.5q0 -45 -8 -88l-65 -365q-10 -57 -11 -90q0 -93 88 -163z" />
<glyph unicode="~" horiz-adv-x="1218" d="M1190 956q0 -131 -52.5 -196.5t-170.5 -65.5q-82 0 -156 58l-149 118q-86 59 -109 64q-53 0 -69.5 -28.5t-16.5 -92.5v-53q0 -16 -12.5 -28.5t-28.5 -12.5h-59q-16 0 -28.5 12t-12.5 29v53q0 131 58 198.5t169 67.5q82 0 154 -57l174 -139q49 -41 86 -41q55 0 68.5 23.5 t13.5 90.5v58q0 16 12 28.5t29 12.5h59q16 0 28.5 -12.5t12.5 -28.5v-58z" />
<glyph unicode="&#xa0;" />
<glyph unicode="&#xa1;" horiz-adv-x="444" d="M506 1094v-7l-35 -192q-8 -39 -45 -39h-98q-33 0 -33 33v6l35 192q6 39 45 39h98q33 1 33 -32zM424 696v-6l-172 -1065q-4 -16 -18.5 -27.5t-30.5 -11.5h-103q-33 0 -32 33v6l202 1065q8 39 47 39h74q33 0 33 -33z" />
<glyph unicode="&#xa2;" d="M1118 1087q0 -2 -1 -6t-1 -8l-12 -74q-6 -31 -43 -30h-6q-141 16 -250 16q-125 0 -207 -86t-111 -256l-26 -160q-10 -68 -10 -114q0 -227 204 -228q115 0 258 17h9q29 0 28 -25v-6l-12 -74q-2 -20 -13.5 -30.5t-35.5 -14.5q-96 -14 -197 -20l-33 -185q-8 -41 -47 -41h-84 q-35 0 -34 35v6l34 193q-125 25 -191.5 127t-66.5 250q0 45 11 110l26 160q37 227 150.5 347t269.5 140l35 191q8 41 47 41h84q35 0 35 -35v-6l-33 -182q100 -6 188 -21q35 -6 35 -31z" />
<glyph unicode="&#xa3;" d="M1360 1468q0 -2 -1 -5t-1 -5l-17 -84q-6 -35 -38 -35h-9q-195 23 -311 23q-158 0 -226.5 -75t-103.5 -283l-22 -134h440q33 0 33 -30v-6l-17 -86q-8 -37 -47 -37h-438l-55 -312q-20 -117 -115 -243h653q37 0 37 -25v-6l-16 -90q-6 -35 -47 -35h-817q-29 0 -29 25v6l14 80 q2 10 29 47q47 59 68.5 110t35.5 131l56 312h-107q-31 0 -30 28v9l16 86q8 37 47 36h102l23 134q45 274 167 395t378 121q158 0 313 -27q35 -7 35 -25z" />
<glyph unicode="&#xa4;" d="M1253 1176q0 -16 -14 -31l-168 -168q68 -96 68 -213q0 -121 -70 -217l168 -168q14 -14 14 -31q0 -14 -10 -24l-55 -56q-10 -10 -23 -10q-16 0 -30 14l-172 172q-96 -68 -209 -67q-117 0 -213 67l-168 -168q-16 -16 -33 -16q-10 0 -21 10l-55 58q-10 14 -10 22q0 16 14 31 l166 166q-70 94 -70 217q0 119 66 211l-166 166q-14 14 -14 30.5t10 24.5l57 55q10 10 23 11q14 0 31 -17l163 -164q96 70 218 70q119 0 217 -70l168 168q14 14 30 15q12 0 23 -11l55 -55q10 -10 10 -22zM993 764q0 100 -71.5 172t-174 72t-174 -72t-71.5 -172t72.5 -173 t173 -73t173 73t72.5 173z" />
<glyph unicode="&#xa5;" d="M1421 1499q0 -16 -10 -29l-330 -483h226q33 0 32 -33v-8l-10 -61q-8 -41 -47 -41h-297l-154 -226l-6 -43h410q33 0 33 -32v-8l-11 -62q-8 -41 -49 -41h-409l-68 -391q-8 -41 -45 -41h-117q-27 0 -26 31v10l67 391h-411q-33 0 -33 33v8l10 62q8 41 49 40h412l6 43l-72 226 h-299q-35 0 -34 35v6l10 61q8 41 49 41h227l-157 483q-4 12 -5 19q0 33 39 33h121q23 0 31 -29l209 -694l455 694q16 29 38 29h136q30 0 30 -23z" />
<glyph unicode="&#xa6;" horiz-adv-x="509" d="M479 741q0 -16 -11 -28.5t-26 -12.5h-108q-14 0 -25.5 12.5t-11.5 28.5v711q0 16 11 27.5t26 11.5h108q14 0 25.5 -11.5t11.5 -27.5v-711zM479 -391q0 -16 -11 -28.5t-26 -12.5h-108q-14 0 -25.5 12t-11.5 29v710q0 16 11 27.5t26 11.5h108q14 0 25.5 -11t11.5 -28v-710z " />
<glyph unicode="&#xa7;" horiz-adv-x="1120" d="M1243 1477v-7l-16 -88q-6 -35 -43 -34h-2q-45 2 -165 10t-188 8q-72 0 -124 -8t-104 -30.5t-78.5 -71t-26.5 -119.5q0 -51 36.5 -94.5t133.5 -106.5l198 -131q129 -84 181.5 -161t52.5 -167q0 -168 -109 -303q35 -70 35 -143q0 -166 -84 -275.5t-211 -153.5t-291 -44 t-340 28q-31 4 -30 33v6l14 86q6 35 47 35h4q276 -20 328 -20q360 0 360 288q0 57 -38 102.5t-140 114.5l-205 138q-213 143 -213 319q0 139 115 279q-39 74 -39 153q0 416 557 416q205 0 354 -27q31 -7 31 -32zM907 442q0 57 -36.5 101.5t-131.5 109.5l-164 113 q-106 76 -131 96q-41 -82 -41 -143q0 -102 146 -199l203 -135q63 -43 120 -88q35 69 35 145z" />
<glyph unicode="&#xa8;" horiz-adv-x="763" d="M911 1524v-6l-30 -166q-2 -16 -16.5 -27.5t-30.5 -11.5h-80q-35 0 -35 33v6l31 166q4 16 18 28.5t29 12.5h80q14 0 24 -10.5t10 -24.5zM553 1524v-6l-31 -166q-2 -16 -16 -27.5t-31 -11.5h-80q-35 0 -35 33v6l31 166q4 16 18.5 28.5t28.5 12.5h80q14 0 24.5 -10.5 t10.5 -24.5z" />
<glyph unicode="&#xa9;" horiz-adv-x="1536" d="M1577 766q0 -274 -196.5 -469t-471 -195t-469 195t-194.5 469q0 276 194.5 473t469 197t471 -198t196.5 -472zM1487 766q0 240 -169 410t-408.5 170t-407.5 -170t-168 -410t168 -406.5t407.5 -166.5t408.5 166.5t169 406.5zM1118 375q0 -27 -31 -31q-72 -14 -186 -14 q-141 0 -227 90t-86 285v135q0 195 86 286t227 91q104 0 186 -17q31 -4 31 -29v-57q0 -25 -26 -24h-7q-106 10 -184 10q-186 0 -186 -260v-135q0 -258 186 -259q78 0 184 11h5q29 0 28 -27v-55z" />
<glyph unicode="&#xaa;" horiz-adv-x="618" d="M774 1362q0 -33 -6 -70l-66 -370q-4 -27 -24 -33q-111 -27 -207 -27q-117 0 -171 36t-54 114q0 14 4 51l2 14q14 98 93 143.5t230 45.5h66l4 26q4 37 4 49q0 43 -21.5 61.5t-70.5 18.5q-57 0 -174 -10h-4q-23 0 -23 21v6l6 43q2 25 37 28q100 18 179 19q196 0 196 -166z M629 1180h-47h-19q-100 -4 -142 -25.5t-50 -77.5l-2 -14q-4 -25 -4 -33q0 -72 124 -72q43 0 101 11z" />
<glyph unicode="&#xab;" horiz-adv-x="1257" d="M1321 977q0 -18 -16 -31l-431 -379l285 -379q8 -12 8 -22q0 -23 -24 -23h-109q-20 0 -39 21l-284 346q-16 18 -17 51q0 43 25 64l407 346q25 20 52 20h125q18 0 18 -14zM788 977q0 -18 -16 -31l-430 -379l285 -379q8 -12 8 -22q0 -23 -25 -23h-108q-20 0 -39 21l-285 346 q-16 18 -16 51q0 43 24 64l408 346q25 20 51 20h125q18 0 18 -14z" />
<glyph unicode="&#xac;" horiz-adv-x="1218" d="M1198 506q0 -16 -12 -28.5t-29 -12.5h-65q-16 0 -28.5 12t-12.5 29v448h-682q-41 0 -41 33v82q0 33 41 33h794q35 0 35 -35v-561z" />
<glyph unicode="&#xad;" horiz-adv-x="681" d="M696 645v-6l-14 -80q-6 -35 -45 -35h-408q-33 0 -32 29v6l14 80q8 37 45 37h408q32 0 32 -31z" />
<glyph unicode="&#xae;" horiz-adv-x="1224" d="M1341 991.5q0 -229.5 -161.5 -389.5t-391 -160t-390 160t-160.5 389.5t160.5 390t390 160.5t391 -160.5t161.5 -390zM1257 991.5q0 192.5 -137 330.5t-332 138q-193 0 -328.5 -137t-135.5 -332q0 -193 135 -329t329.5 -136t331.5 136.5t137 329zM1047 678q0 -27 -25 -27 h-57q-16 0 -25 17l-166 262l-20 6h-86v-254q0 -12 -8.5 -21.5t-20.5 -9.5h-51q-27 0 -27 31v618q0 43 37 46q45 6 156 6q133 0 200.5 -47.5t67.5 -159.5v-8q0 -145 -137 -185l157 -256q5 -8 5 -18zM920 1137v8q0 61 -37 85.5t-123 24.5h-66h-28v-229q12 0 49 -1t45 -1 q86 0 123 26t37 87z" />
<glyph unicode="&#xaf;" horiz-adv-x="763" d="M981 1493v-6l-12 -70q-6 -35 -47 -35h-590q-35 0 -35 29v6l12 70q6 35 47 35h590q35 0 35 -29z" />
<glyph unicode="&#xb0;" horiz-adv-x="700" d="M864 1245q0 -119 -86 -205t-205 -86q-121 0 -206.5 86t-85.5 205t86 205t206 86q119 0 205 -86t86 -205zM754 1245q0 74 -53.5 127t-127 53t-127 -53t-53.5 -127t53.5 -127t127 -53t127 53t53.5 127z" />
<glyph unicode="&#xb1;" horiz-adv-x="1218" d="M1176 760q0 -33 -41 -33h-353v-350q0 -41 -32 -41h-82q-33 0 -33 41v350h-350q-41 0 -41 33v82q0 33 41 32h350v353q0 41 33 41h82q33 0 32 -41v-353h353q41 0 41 -32v-82zM1176 18q0 -33 -41 -32h-850q-41 0 -41 32v68q0 33 41 33h850q41 0 41 -33v-68z" />
<glyph unicode="&#xb2;" horiz-adv-x="698" d="M846 1366q0 -90 -49 -149.5t-144 -118.5l-118 -74q-94 -59 -124 -101t-44 -112q0 -2 -1 -5t-1 -5h354q23 0 22 -17v-4l-12 -75q0 -8 -12 -17q-6 -4 -19 -4h-460q-8 0 -14.5 6t-6.5 15v4l7 41l7 41q18 111 70.5 186.5t165.5 142.5l125 76q82 51 102 80q20 33 21 76 q0 39 -34 54t-118 15q-98 0 -184 -14h-6q-4 0 -13 4q-6 2 -6 12v4l13 64q2 12 28 20q106 25 199 25q119 0 185.5 -44t66.5 -126z" />
<glyph unicode="&#xb3;" horiz-adv-x="692" d="M838 1358q0 -158 -140 -232q72 -45 72 -145q0 -152 -93 -224.5t-251 -72.5q-113 0 -190 25q-16 4 -17 18v4q2 10 5 29.5t5 30.5q4 12 9 16q6 6 16 6h4q6 -2 17.5 -3t17.5 -1q78 -8 125 -8q111 0 167 34.5t56 141.5q0 96 -104 96h-205q-8 0 -14.5 6t-6.5 13v4l13 63 q2 12 10 17q10 6 18 6h41h160q72 0 112 44t40 115q0 49 -39 63.5t-138 14.5q-63 0 -163 -14h-5q-8 0 -12 6q-4 8 -4 12v4q2 10 5 31t5 31q2 6 11 14q4 4 16 8q94 25 186 25q129 0 200 -46t71 -132z" />
<glyph unicode="&#xb4;" horiz-adv-x="763" d="M961 1583q0 -8 -11 -18l-278 -258q-33 -31 -51 -31h-111q-16 0 -16 12q0 10 12 23l246 254q31 31 53 30h135q21 0 21 -12z" />
<glyph unicode="&#xb5;" horiz-adv-x="1140" d="M1192 1094v-9l-174 -995q-6 -35 -47 -47q-166 -57 -389 -57q-160 0 -254 59l-72 -405q-8 -41 -49 -41h-98q-33 0 -33 32v9l254 1445q8 41 47 41h102q31 0 31 -32v-9l-119 -673q-8 -41 -8 -86q0 -186 225 -187q139 0 242 29l162 917q4 16 18 28.5t31 12.5h100q31 1 31 -32 z" />
<glyph unicode="&#xb6;" horiz-adv-x="1273" d="M1405 1497q0 -2 -1 -7t-1 -7l-326 -1843q-8 -39 -41 -39h-47q-29 0 -28 30v9l311 1771h-119l-311 -1771q-8 -39 -41 -39h-47q-29 0 -29 30v9l158 899h-201q-190 0 -306 100t-116 268q0 47 8 88l13 70q37 217 191.5 337t371.5 120h532q29 0 29 -25z" />
<glyph unicode="&#xb7;" horiz-adv-x="438" d="M465 905v-8l-33 -190q-8 -41 -47 -41h-98q-31 0 -31 32v9l33 190q6 39 47 39h98q31 0 31 -31z" />
<glyph unicode="&#xb8;" horiz-adv-x="749" d="M506 -78q0 -8 -10 -18l-279 -258q-33 -31 -51 -31h-111q-16 0 -16 12q0 10 12 23l244 254q31 31 55 30h135q21 0 21 -12z" />
<glyph unicode="&#xb9;" horiz-adv-x="577" d="M657 1505v-4l-139 -794q0 -8 -8 -17q-6 -6 -16 -6h-93q-8 0 -10 6q-4 8 -4 10v7l121 684q-12 -4 -119 -48q-8 -4 -20.5 -8t-20.5 -8q-12 -4 -14 -4q-8 0 -8 8v4q2 14 7 43t7 43l6 13q2 4 12 6l162 67q27 10 31 13q8 2 22 2h66q18 -1 18 -17z" />
<glyph unicode="&#xba;" horiz-adv-x="659" d="M821 1317q0 -45 -8 -86l-12 -72q-25 -143 -107 -220t-211 -77q-221 0 -221 213q0 43 8 84l13 72q25 143 106.5 220t212.5 77q219 0 219 -211zM694 1300q0 119 -112 119q-145 0 -176 -188l-13 -72q-6 -37 -6 -67q0 -123 115 -123q143 0 174 190l12 72q6 38 6 69z" />
<glyph unicode="&#xbb;" horiz-adv-x="1257" d="M1300 573q0 -43 -24 -63l-408 -346q-25 -20 -51 -21h-125q-18 0 -18 15q0 18 16 30l430 379l-284 379q-8 12 -9 23q0 23 25 22h109q20 0 38 -20l285 -346q16 -19 16 -52zM768 573q0 -43 -25 -63l-407 -346q-25 -20 -51 -21h-125q-18 0 -19 15q0 18 17 30l430 379 l-285 379q-8 12 -8 23q0 23 24 22h109q20 0 39 -20l285 -346q16 -19 16 -52z" />
<glyph unicode="&#xbc;" horiz-adv-x="1527" d="M1468 1511q0 -12 -14 -28l-1112 -1450q-33 -41 -53 -41h-101q-16 0 -16 12t12 29l1112 1450q31 39 54 39h104q14 -1 14 -11zM1491 301v-4l-12 -64q0 -10 -11 -16q-10 -6 -18 -6h-82q-4 -31 -16.5 -92.5t-16.5 -91.5q0 -2 -10 -19q-6 -8 -16 -8h-86q-8 0 -15 6q-4 4 -4 17 v4q4 31 16.5 92t16.5 92h-279h-38q-20 0 -21 14v8q2 14 8 44t8 45q10 39 21 51l401 452q12 12 19 13h98q20 0 21 -17v-2v-4l-86 -496h81q21 0 21 -18zM657 1505v-4l-139 -794q0 -8 -8 -17q-6 -6 -16 -6h-93q-8 0 -10 6q-4 8 -4 10v7l121 684q-12 -4 -119 -48q-8 -4 -20.5 -8 t-20.5 -8q-12 -4 -14 -4q-8 0 -8 8v4q2 14 7 43t7 43l6 13q2 4 12 6l162 67q27 10 31 13q8 2 22 2h66q18 -1 18 -17zM1257 319l52 299v7q0 6 -2 6q-6 0 -15 -10l-250 -283q-6 -6 -6 -10q0 -8 17 -9h204z" />
<glyph unicode="&#xbd;" horiz-adv-x="1542" d="M1567 674q0 -90 -49.5 -149.5t-143.5 -118.5l-119 -74q-94 -59 -124.5 -98t-43.5 -107q0 -2 -1 -5t-1 -5h355q23 0 22 -17v-4l-12 -76q0 -8 -12 -16q-6 -4 -19 -4h-461q-8 0 -14 6t-6 14v5l7 41l7 40q18 109 69.5 180.5t166.5 141.5l125 76q82 51 102 80q20 33 21 75 q0 39 -34 54.5t-118 15.5q-98 0 -184 -14h-6q-4 0 -13 4q-6 2 -6 12v4l12 64q2 12 29 20q106 25 199 25q119 0 185.5 -44t66.5 -126zM657 1505v-2v-2l-139 -794q0 -8 -8 -17q-6 -6 -16 -6h-93q-14 0 -14 16v5v2l121 684l-160 -64q-12 -4 -14 -4q-8 0 -8 8v2v2q2 14 7 43 t7 43l6 13q2 4 12 6l162 67q27 10 31 13q8 2 22 2h66q18 -1 18 -17zM1468 1511q0 -12 -14 -28l-1112 -1450q-33 -41 -53 -41h-101q-16 0 -16 12t12 29l1112 1450q31 39 54 39h104q14 -1 14 -11z" />
<glyph unicode="&#xbe;" horiz-adv-x="1689" d="M1630 1511q0 -12 -14 -28l-1112 -1450q-33 -41 -53 -41h-101q-16 0 -16 12t12 29l1112 1450q31 39 53 39h105q14 -1 14 -11zM1655 301v-4l-13 -64q0 -10 -10 -16t-18 -6h-41h-41q-4 -31 -16.5 -92.5t-16.5 -91.5q0 -2 -10 -19q-6 -8 -16 -8h-87q-8 0 -14 6q-4 4 -4 17v4 q4 31 16.5 92t16.5 92h-279h-39q-20 0 -20 14v8q2 14 8 44t8 45q10 39 21 51l401 452q12 12 19 13h98q20 0 20 -17v-6l-86 -496h82q21 0 21 -18zM838 1358q0 -158 -140 -232q72 -45 72 -145q0 -152 -93 -224.5t-251 -72.5q-113 0 -190 25q-16 4 -17 18v4q2 10 5 29.5t5 30.5 q4 12 9 16q6 6 16 6h4q6 -2 17.5 -3t17.5 -1q78 -8 125 -8q111 0 167 34.5t56 141.5q0 96 -104 96h-205q-8 0 -14.5 6t-6.5 13v4l13 63q2 12 10 17q10 6 18 6h41h160q72 0 112 44t40 115q0 49 -39 63.5t-138 14.5q-63 0 -163 -14h-5q-8 0 -12 6q-4 8 -4 12v4q2 10 5 31t5 31 q2 6 11 14q4 4 16 8q94 25 186 25q129 0 200 -46t71 -132zM1421 319l52 299v7q0 6 -3 6q-6 0 -14 -10l-250 -283q-6 -6 -6 -10q0 -8 17 -9h204z" />
<glyph unicode="&#xbf;" horiz-adv-x="913" d="M864 1094v-7l-35 -190q-4 -16 -17 -28.5t-30 -12.5h-98q-33 0 -33 35v6l35 190q6 39 45 39h98q35 1 35 -32zM786 692v-2l-16 -100q-14 -96 -54 -160.5t-136 -153.5l-113 -104q-102 -96 -141 -155.5t-39 -153.5q0 -61 44 -86t144 -25q109 0 279 19h6q25 0 24 -25v-6v-4 l-12 -72q-6 -41 -43 -47q-143 -27 -287 -27q-160 0 -258 62.5t-98 189.5q0 90 42 175t84 130.5t132 131.5l111 104q98 92 118 127q18 33 27 80l16 100q2 16 17.5 27.5t32.5 11.5h90q31 0 30 -31v-6z" />
<glyph unicode="&#xc0;" horiz-adv-x="1296" d="M1243 39q0 -39 -35 -39h-123q-25 0 -28 31l-51 471h-531l-213 -471q-12 -31 -43 -31h-125q-29 0 -28 27q0 12 4 20l614 1333q72 156 236 156q162 0 180 -154l143 -1335v-8zM995 664l-67 673q-4 37 -33 37q-31 0 -47 -37l-305 -673h452zM1077 1645q0 -18 -20 -19h-111 q-20 0 -43 31l-184 258q-6 10 -6 14q0 16 24 17h135q27 0 48 -31l153 -254q4 -6 4 -16z" />
<glyph unicode="&#xc1;" horiz-adv-x="1296" d="M1243 39q0 -39 -35 -39h-123q-25 0 -28 31l-51 471h-531l-213 -471q-12 -31 -43 -31h-125q-29 0 -28 27q0 12 4 20l614 1333q72 156 236 156q162 0 180 -154l143 -1335v-8zM995 664l-67 673q-4 37 -33 37q-31 0 -47 -37l-305 -673h452zM1300 1933q0 -8 -10 -18l-278 -258 q-33 -31 -51 -31h-111q-16 0 -16 12q0 10 12 23l246 254q31 31 53 31h135q20 -1 20 -13z" />
<glyph unicode="&#xc2;" horiz-adv-x="1296" d="M1243 39q0 -39 -35 -39h-123q-25 0 -28 31l-51 471h-531l-213 -471q-12 -31 -43 -31h-125q-29 0 -28 27q0 12 4 20l614 1333q72 156 236 156q162 0 180 -154l143 -1335v-8zM995 664l-67 673q-4 37 -33 37q-31 0 -47 -37l-305 -673h452zM1290 1645q0 -18 -20 -19h-101 q-23 0 -43 31l-131 198l-207 -198q-31 -31 -51 -31h-112q-16 0 -17 12q0 10 13 23l241 254q31 31 53 31h175q27 0 47 -31l149 -254q4 -6 4 -16z" />
<glyph unicode="&#xc3;" horiz-adv-x="1296" d="M1243 39q0 -39 -35 -39h-123q-25 0 -28 31l-51 471h-531l-213 -471q-12 -31 -43 -31h-125q-29 0 -28 27q0 12 4 20l614 1333q72 156 236 156q162 0 180 -154l143 -1335v-8zM995 664l-67 673q-4 37 -33 37q-31 0 -47 -37l-305 -673h452zM1352 1884v-6l-9 -47 q-18 -111 -66 -163t-142 -52q-100 0 -156 53l-96 90q-47 45 -76 45q-70 0 -82 -94l-6 -43q-4 -35 -35 -35h-70q-27 0 -26 29v6l6 43q31 223 213 223q80 0 151 -63l111 -101q33 -29 65.5 -28.5t51 20t26.5 70.5l9 47q8 35 34 35h70q27 0 27 -29z" />
<glyph unicode="&#xc4;" horiz-adv-x="1296" d="M1243 39q0 -39 -35 -39h-123q-25 0 -28 31l-51 471h-531l-213 -471q-12 -31 -43 -31h-125q-29 0 -28 27q0 12 4 20l614 1333q72 156 236 156q162 0 180 -154l143 -1335v-8zM995 664l-67 673q-4 37 -33 37q-31 0 -47 -37l-305 -673h452zM1251 1866v-6l-30 -166 q-2 -16 -16.5 -27.5t-30.5 -11.5h-80q-35 0 -35 33v6l31 166q4 16 18 28.5t29 12.5h80q14 0 24 -10.5t10 -24.5zM893 1866v-6l-31 -166q-2 -16 -16.5 -27.5t-30.5 -11.5h-80q-35 0 -35 33v6l31 166q4 16 18.5 28.5t28.5 12.5h80q14 0 24.5 -10.5t10.5 -24.5z" />
<glyph unicode="&#xc5;" horiz-adv-x="1296" d="M1243 39q0 -39 -35 -39h-123q-25 0 -28 31l-51 471h-531l-213 -471q-12 -31 -43 -31h-125q-29 0 -28 27q0 12 4 20l614 1333q72 156 236 156q162 0 180 -154l143 -1335v-8zM995 664l-67 673q-4 37 -33 37q-31 0 -47 -37l-305 -673h452zM1161 1798q0 -86 -60.5 -146.5 t-146.5 -60.5t-147.5 60.5t-61.5 146.5t61.5 147.5t147.5 61.5t146.5 -61.5t60.5 -147.5zM1063 1800q0 45 -32 76t-77 31t-75.5 -31t-30.5 -76t30.5 -76.5t75.5 -31.5t77 31.5t32 76.5z" />
<glyph unicode="&#xc6;" horiz-adv-x="1759" d="M1911 1499v-6l-19 -109q-4 -25 -26 -24h-586l-88 -490h567q33 0 33 -32v-9l-12 -77q-8 -41 -49 -41h-568l-59 -344q-10 -61 -10 -93q0 -70 47 -95t176 -25h334q18 0 18 -19v-6l-18 -100q-4 -25 -25 -29q-139 -14 -340 -14q-379 0 -379 286q0 39 11 95l22 135h-489 l-213 -471q-12 -31 -43 -31h-121q-29 0 -29 27q0 14 4 20l613 1321q41 90 97 122t140 32h997q15 0 15 -23zM1094 1360h-228q-31 0 -47 -35l-301 -661h451z" />
<glyph unicode="&#xc7;" horiz-adv-x="1116" d="M1300 1481v-4l-18 -105q-2 -23 -29 -22h-6q-215 18 -340 18q-164 0 -279.5 -109.5t-158.5 -355.5l-51 -285q-14 -80 -15 -151q0 -313 289 -313q145 0 342 16h8q27 0 27 -23v-10l-14 -84q-6 -33 -49 -41q-143 -27 -344 -26q-82 0 -158 25.5t-141.5 77.5t-105.5 146.5 t-40 219.5q0 80 14 163l52 285q115 633 651 633q137 0 338 -33q28 -4 28 -22zM768 -78q0 -6 -12 -18l-279 -258q-31 -31 -51 -31h-111q-16 0 -16 12q0 10 12 23l244 254q31 31 55 30h135q23 0 23 -12z" />
<glyph unicode="&#xc8;" horiz-adv-x="1128" d="M1280 1493v-4l-18 -96q-4 -25 -27 -25h-395q-156 0 -213.5 -45t-77.5 -168l-49 -285h628q33 0 33 -34v-7l-12 -77q-8 -41 -49 -41h-629l-59 -344q-10 -55 -11 -84q0 -70 48.5 -99.5t175.5 -29.5h395q18 0 18 -19v-6l-18 -100q-4 -25 -25 -29q-139 -14 -401 -14 q-178 0 -277.5 74.5t-99.5 220.5q0 45 8 86l137 788q39 217 158 299t346 82q297 0 398 -18q16 -2 16 -25zM1026 1642q0 -18 -20 -18h-111q-23 0 -43 31l-184 258q-6 8 -6 14q0 16 24 17h135q27 0 47 -31l154 -254q4 -7 4 -17z" />
<glyph unicode="&#xc9;" horiz-adv-x="1128" d="M1280 1493v-4l-18 -96q-4 -25 -27 -25h-395q-156 0 -213.5 -45t-77.5 -168l-49 -285h628q33 0 33 -34v-7l-12 -77q-8 -41 -49 -41h-629l-59 -344q-10 -55 -11 -84q0 -70 48.5 -99.5t175.5 -29.5h395q18 0 18 -19v-6l-18 -100q-4 -25 -25 -29q-139 -14 -401 -14 q-178 0 -277.5 74.5t-99.5 220.5q0 45 8 86l137 788q39 217 158 299t346 82q297 0 398 -18q16 -2 16 -25zM1253 1933q0 -8 -10 -18l-278 -258q-35 -31 -52 -31h-110q-16 0 -17 12q0 10 13 23l245 254q31 31 54 31h135q20 -1 20 -13z" />
<glyph unicode="&#xca;" horiz-adv-x="1128" d="M1280 1493v-4l-18 -96q-4 -25 -27 -25h-395q-156 0 -213.5 -45t-77.5 -168l-49 -285h628q33 0 33 -34v-7l-12 -77q-8 -41 -49 -41h-629l-59 -344q-10 -55 -11 -84q0 -70 48.5 -99.5t175.5 -29.5h395q18 0 18 -19v-6l-18 -100q-4 -25 -25 -29q-139 -14 -401 -14 q-178 0 -277.5 74.5t-99.5 220.5q0 45 8 86l137 788q39 217 158 299t346 82q297 0 398 -18q16 -2 16 -25zM1225 1645q0 -18 -21 -19h-100q-23 0 -43 31l-131 198l-207 -198q-31 -31 -51 -31h-113q-16 0 -16 12q0 10 12 23l242 254q31 31 53 31h174q27 0 47 -31l150 -254 q4 -6 4 -16z" />
<glyph unicode="&#xcb;" horiz-adv-x="1128" d="M1280 1493v-4l-18 -96q-4 -25 -27 -25h-395q-156 0 -213.5 -45t-77.5 -168l-49 -285h628q33 0 33 -34v-7l-12 -77q-8 -41 -49 -41h-629l-59 -344q-10 -55 -11 -84q0 -70 48.5 -99.5t175.5 -29.5h395q18 0 18 -19v-6l-18 -100q-4 -25 -25 -29q-139 -14 -401 -14 q-178 0 -277.5 74.5t-99.5 220.5q0 45 8 86l137 788q39 217 158 299t346 82q297 0 398 -18q16 -2 16 -25zM1198 1870v-6l-31 -166q-2 -16 -16 -27.5t-31 -11.5h-80q-35 0 -34 33v6l30 166q4 16 18.5 28.5t28.5 12.5h80q14 0 24.5 -10.5t10.5 -24.5zM840 1870v-6l-31 -166 q-2 -16 -16.5 -27.5t-30.5 -11.5h-80q-35 0 -35 33v6l31 166q4 16 18.5 28.5t28.5 12.5h80q14 0 24.5 -10.5t10.5 -24.5z" />
<glyph unicode="&#xcc;" horiz-adv-x="546" d="M629 1491v-8l-254 -1442q-8 -41 -45 -41h-113q-29 0 -29 33v8l254 1442q8 39 43 39h113q31 0 31 -31zM688 1645q0 -18 -20 -19h-111q-20 0 -43 31l-184 258q-6 10 -6 14q0 16 24 17h135q27 0 47 -31l154 -254q4 -6 4 -16z" />
<glyph unicode="&#xcd;" horiz-adv-x="546" d="M629 1491v-8l-254 -1442q-8 -41 -45 -41h-113q-29 0 -29 33v8l254 1442q8 39 43 39h113q31 0 31 -31zM885 1933q0 -8 -11 -18l-278 -258q-35 -31 -51 -31h-111q-16 0 -16 12q0 10 12 23l246 254q31 31 53 31h135q21 -1 21 -13z" />
<glyph unicode="&#xce;" horiz-adv-x="546" d="M629 1491v-8l-254 -1442q-8 -41 -45 -41h-113q-29 0 -29 33v8l254 1442q8 39 43 39h113q31 0 31 -31zM897 1645q0 -18 -20 -19h-101q-23 0 -43 31l-131 198l-207 -198q-31 -31 -51 -31h-113q-16 0 -16 12q0 10 12 23l242 254q31 31 53 31h174q27 0 47 -31l150 -254 q4 -6 4 -16z" />
<glyph unicode="&#xcf;" horiz-adv-x="546" d="M629 1491v-8l-254 -1442q-8 -41 -45 -41h-113q-29 0 -29 33v8l254 1442q8 39 43 39h113q31 0 31 -31zM854 1868v-6l-31 -166q-2 -16 -16 -27.5t-31 -11.5h-80q-35 0 -34 33v6l30 166q4 16 18.5 28.5t28.5 12.5h80q14 0 24.5 -10.5t10.5 -24.5zM496 1868v-6l-31 -166 q-2 -16 -16.5 -27.5t-30.5 -11.5h-80q-35 0 -35 33v6l31 166q4 16 18.5 28.5t28.5 12.5h80q14 0 24.5 -10.5t10.5 -24.5z" />
<glyph unicode="&#xd0;" horiz-adv-x="1312" d="M1368 1071q0 -74 -16 -172l-47 -276q-55 -319 -248 -478t-486 -159q-250 0 -368 20q-14 2 -27 14q-10 10 -10 25q0 2 1 6t1 6l115 654h-78q-33 0 -33 34v5v2l12 77q8 41 49 41h78l105 594q10 45 51 52q123 20 377 20q252 0 388 -114.5t136 -350.5zM1180 1047 q0 330 -365 329q-127 0 -227 -6l-88 -500h211q33 0 32 -34v-7l-12 -77q-8 -41 -49 -41h-211l-98 -561q66 -4 227 -5q436 0 518 478l47 276q15 78 15 148z" />
<glyph unicode="&#xd1;" horiz-adv-x="1392" d="M1495 1491v-8l-252 -1424q-4 -25 -24.5 -42t-44.5 -17h-119q-47 0 -60 33l-430 1202l-4 6q-4 0 -4 -6l-211 -1196q-8 -39 -43 -39h-106q-33 0 -33 18v7l254 1439q4 25 24.5 41.5t44.5 16.5h101q41 0 54 -8.5t22 -32.5l430 -1196l2 -6h4l2 6l211 1198q8 39 43 39h108 q31 0 31 -31zM1372 1880v-6l-8 -47q-18 -111 -66.5 -163t-142.5 -52q-100 0 -156 53l-96 90q-47 45 -76 45q-70 0 -82 -94l-6 -43q-4 -35 -34 -35h-70q-27 0 -27 29v6l6 43q31 223 213 223q80 0 152 -63l111 -101q33 -29 65.5 -28.5t51 20t26.5 70.5l8 47q8 35 35 35h70 q26 0 26 -29z" />
<glyph unicode="&#xd2;" horiz-adv-x="1353" d="M1405 1065q0 -74 -16 -172l-48 -264q-113 -643 -665 -643q-207 0 -333 119.5t-126 351.5q0 74 16 172l48 264q115 643 667 643q209 0 333 -122t124 -349zM1217 1063q0 162 -76 233.5t-221 71.5q-174 0 -291 -116.5t-160 -358.5l-47 -264q-14 -80 -14 -156 q0 -170 75.5 -244.5t221.5 -74.5q172 0 288.5 117.5t159.5 357.5l47 264q17 84 17 170zM1102 1645q0 -18 -21 -19h-110q-20 0 -43 31l-185 258q-6 10 -6 14q0 16 25 17h135q27 0 47 -31l154 -254q4 -6 4 -16z" />
<glyph unicode="&#xd3;" horiz-adv-x="1353" d="M1405 1065q0 -74 -16 -172l-48 -264q-113 -643 -665 -643q-207 0 -333 119.5t-126 351.5q0 74 16 172l48 264q115 643 667 643q209 0 333 -122t124 -349zM1217 1063q0 162 -76 233.5t-221 71.5q-174 0 -291 -116.5t-160 -358.5l-47 -264q-14 -80 -14 -156 q0 -170 75.5 -244.5t221.5 -74.5q172 0 288.5 117.5t159.5 357.5l47 264q17 84 17 170zM1276 1933q0 -8 -10 -18l-279 -258q-33 -31 -51 -31h-111q-16 0 -16 12q0 10 12 23l246 254q31 31 53 31h135q21 -1 21 -13z" />
<glyph unicode="&#xd4;" horiz-adv-x="1353" d="M1405 1065q0 -74 -16 -172l-48 -264q-113 -643 -665 -643q-207 0 -333 119.5t-126 351.5q0 74 16 172l48 264q115 643 667 643q209 0 333 -122t124 -349zM1217 1063q0 162 -76 233.5t-221 71.5q-174 0 -291 -116.5t-160 -358.5l-47 -264q-14 -80 -14 -156 q0 -170 75.5 -244.5t221.5 -74.5q172 0 288.5 117.5t159.5 357.5l47 264q17 84 17 170zM1309 1647q0 -18 -21 -19h-100q-20 0 -43 31l-131 199l-207 -199q-31 -31 -51 -31h-113q-16 0 -16 12q0 10 12 23l242 254q31 31 53 31h174q27 0 47 -31l150 -254q4 -6 4 -16z" />
<glyph unicode="&#xd5;" horiz-adv-x="1353" d="M1405 1065q0 -74 -16 -172l-48 -264q-113 -643 -665 -643q-207 0 -333 119.5t-126 351.5q0 74 16 172l48 264q115 643 667 643q209 0 333 -122t124 -349zM1217 1063q0 162 -76 233.5t-221 71.5q-174 0 -291 -116.5t-160 -358.5l-47 -264q-14 -80 -14 -156 q0 -170 75.5 -244.5t221.5 -74.5q172 0 288.5 117.5t159.5 357.5l47 264q17 84 17 170zM1378 1884v-6l-8 -47q-18 -111 -66.5 -163t-142.5 -52q-100 0 -155 53l-97 90q-47 45 -75 45q-70 0 -82 -94l-7 -43q-4 -35 -34 -35h-70q-27 0 -27 29v6l7 43q31 223 213 223 q80 0 151 -63l111 -101q33 -29 65.5 -28.5t51 20t26.5 70.5l8 47q8 35 35 35h70q26 0 26 -29z" />
<glyph unicode="&#xd6;" horiz-adv-x="1353" d="M1405 1065q0 -74 -16 -172l-48 -264q-113 -643 -665 -643q-207 0 -333 119.5t-126 351.5q0 74 16 172l48 264q115 643 667 643q209 0 333 -122t124 -349zM1217 1063q0 162 -76 233.5t-221 71.5q-174 0 -291 -116.5t-160 -358.5l-47 -264q-14 -80 -14 -156 q0 -170 75.5 -244.5t221.5 -74.5q172 0 288.5 117.5t159.5 357.5l47 264q17 84 17 170zM1268 1870v-6l-31 -166q-2 -16 -16.5 -27.5t-30.5 -11.5h-80q-35 0 -35 33v6l31 166q4 16 18.5 28.5t28.5 12.5h80q14 0 24.5 -10.5t10.5 -24.5zM909 1870v-6l-30 -166 q-2 -16 -16.5 -27.5t-31.5 -11.5h-79q-35 0 -35 33v6l31 166q4 16 18 28.5t29 12.5h79q14 0 24.5 -10.5t10.5 -24.5z" />
<glyph unicode="&#xd7;" horiz-adv-x="1218" d="M1163 498q0 -10 -10 -21l-57 -57q-10 -10 -21 -10q-16 0 -33 16l-30 31l-240 239l-268 -268q-16 -16 -33 -16q-10 0 -20 10l-58 57q-10 10 -10 21q0 16 16 32l269 269l-269 270q-16 16 -16 31q0 10 10 20l58 58q10 10 22 10q16 0 31 -14l268 -271l270 271q16 16 33 16 q10 0 21 -10l57 -58q10 -10 10 -20q0 -16 -16 -33l-270 -270l270 -271q16 -16 16 -32z" />
<glyph unicode="&#xd8;" horiz-adv-x="1353" d="M1569 1520q0 -12 -10 -23l-193 -215q39 -98 39 -217q0 -74 -16 -172l-48 -264q-113 -643 -665 -643q-225 0 -346 133l-103 -113q-18 -20 -41 -20h-108q-18 0 -19 18q0 12 9 21l188 211q-39 96 -39 221q0 74 16 172l48 264q115 643 667 643q225 0 346 -137l105 117 q18 20 45 20h106q19 0 19 -16zM1169 1260q-68 109 -249 108q-174 0 -291 -116.5t-160 -358.5l-47 -264q-14 -80 -14 -156q0 -23 4 -63zM1217 1063q0 33 -3 49l-757 -850q68 -109 248 -108q172 0 288.5 117.5t159.5 357.5l47 264q17 84 17 170z" />
<glyph unicode="&#xd9;" horiz-adv-x="1355" d="M1464 1489v-6l-164 -930q-53 -299 -205.5 -433t-418.5 -134q-207 0 -322.5 106.5t-115.5 310.5q0 76 14 150l164 930q8 39 45 39h110q33 0 33 -33v-6l-164 -930q-16 -88 -16 -147q0 -131 66.5 -196t214.5 -65q184 0 277 100.5t130 307.5l164 930q8 39 45 39h111 q32 0 32 -33zM1087 1645q0 -18 -20 -19h-111q-23 0 -43 31l-184 258q-6 10 -6 14q0 16 25 17h135q27 0 47 -31l153 -254q4 -6 4 -16z" />
<glyph unicode="&#xda;" horiz-adv-x="1355" d="M1464 1489v-6l-164 -930q-53 -299 -205.5 -433t-418.5 -134q-207 0 -322.5 106.5t-115.5 310.5q0 76 14 150l164 930q8 39 45 39h110q33 0 33 -33v-6l-164 -930q-16 -88 -16 -147q0 -131 66.5 -196t214.5 -65q184 0 277 100.5t130 307.5l164 930q8 39 45 39h111 q32 0 32 -33zM1311 1933q0 -8 -11 -18l-278 -258q-35 -31 -51 -31h-111q-16 0 -16 12q0 10 12 23l246 254q31 31 53 31h135q21 -1 21 -13z" />
<glyph unicode="&#xdb;" horiz-adv-x="1355" d="M1464 1489v-6l-164 -930q-53 -299 -205.5 -433t-418.5 -134q-207 0 -322.5 106.5t-115.5 310.5q0 76 14 150l164 930q8 39 45 39h110q33 0 33 -33v-6l-164 -930q-16 -88 -16 -147q0 -131 66.5 -196t214.5 -65q184 0 277 100.5t130 307.5l164 930q8 39 45 39h111 q32 0 32 -33zM1296 1645q0 -18 -20 -19h-100q-20 0 -43 31l-132 198l-206 -198q-31 -31 -52 -31h-112q-16 0 -17 12q0 10 13 23l241 254q31 31 54 31h174q27 0 47 -31l149 -254q4 -6 4 -16z" />
<glyph unicode="&#xdc;" horiz-adv-x="1355" d="M1464 1489v-6l-164 -930q-53 -299 -205.5 -433t-418.5 -134q-207 0 -322.5 106.5t-115.5 310.5q0 76 14 150l164 930q8 39 45 39h110q33 0 33 -33v-6l-164 -930q-16 -88 -16 -147q0 -131 66.5 -196t214.5 -65q184 0 277 100.5t130 307.5l164 930q8 39 45 39h111 q32 0 32 -33zM1253 1870v-6l-30 -166q-2 -16 -16.5 -27.5t-30.5 -11.5h-80q-35 0 -35 33v6l31 166q4 16 18 28.5t29 12.5h80q14 0 24 -10.5t10 -24.5zM895 1870v-6l-31 -166q-2 -16 -16 -27.5t-31 -11.5h-80q-35 0 -35 33v6l31 166q4 16 18.5 28.5t28.5 12.5h80 q14 0 24.5 -10.5t10.5 -24.5z" />
<glyph unicode="&#xdd;" horiz-adv-x="1193" d="M1386 1497q0 -10 -10 -27l-444 -712q-68 -109 -133 -135l-103 -582q-4 -16 -17 -28.5t-28 -12.5h-112q-29 0 -29 33v8l102 582q-57 25 -88 135l-188 712q-2 6 -2 15q0 37 39 37h119q25 0 32 -29l164 -664q14 -53 39 -53q23 0 55 53l404 664q16 29 39 29h131q30 0 30 -25z M1237 1933q0 -8 -10 -18l-279 -258q-35 -31 -51 -31h-111q-16 0 -16 12q0 10 12 23l246 254q31 31 53 31h136q20 -1 20 -13z" />
<glyph unicode="&#xde;" horiz-adv-x="1214" d="M1288 1004q0 -68 -8 -103q-2 -4 -4 -14t-2 -15q-51 -246 -206 -354t-452 -108q-117 0 -202 6l-66 -375q-4 -16 -16.5 -28.5t-26.5 -12.5h-115q-29 0 -28 33v6v2l254 1442q8 39 43 39h114q29 0 29 -31v-6v-2q-4 -25 -13 -72t-14 -70q154 6 199 7q238 0 376 -84t138 -260z M1098 981q0 113 -86 159t-262 46q-156 0 -201 -4l-107 -607q141 -6 203 -6q377 0 440 303q0 4 2.5 14.5t4.5 14.5q6 29 6 78v2z" />
<glyph unicode="&#xdf;" horiz-adv-x="1189" d="M1255 1227q0 -307 -282 -420q90 -37 141 -118t51 -175q0 -248 -160.5 -388t-412.5 -140q-37 0 -98 6q-33 4 -33 33v4v2l14 84q2 23 27 22q14 0 46 -1t42 -1q190 0 291.5 95.5t101.5 285.5q0 100 -69.5 157.5t-204.5 57.5h-76q-35 0 -35 33v8l12 59q8 41 47 41h76 q160 0 251 91.5t91 248.5q0 182 -231 183q-143 0 -227.5 -83t-114.5 -259l-178 -1010q-8 -43 -45 -43h-109q-29 0 -29 35v8l178 1010q47 262 185.5 380.5t367.5 118.5q172 0 277.5 -84.5t105.5 -240.5z" />
<glyph unicode="&#xe0;" horiz-adv-x="1079" d="M1128 1063q0 -10 -2 -16l-176 -1006q-8 -41 -47 -41h-82q-31 0 -30 33v8v4l10 64q-96 -70 -164 -96.5t-166 -26.5q-139 0 -229 91t-90 271q0 57 12 123l37 203q84 467 532 467q174 0 359 -47q36 -8 36 -31zM932 969q-111 20 -199 20q-297 0 -356 -334l-37 -211 q-8 -41 -8 -94q0 -213 178 -213q121 0 297 119zM922 1294q0 -18 -21 -18h-110q-20 0 -43 31l-185 258q-6 8 -6 14q0 16 25 16h135q27 0 47 -30l154 -254q4 -7 4 -17z" />
<glyph unicode="&#xe1;" horiz-adv-x="1079" d="M1128 1063q0 -10 -2 -16l-176 -1006q-8 -41 -47 -41h-82q-31 0 -30 33v8v4l10 64q-96 -70 -164 -96.5t-166 -26.5q-139 0 -229 91t-90 271q0 57 12 123l37 203q84 467 532 467q174 0 359 -47q36 -8 36 -31zM932 969q-111 20 -199 20q-297 0 -356 -334l-37 -211 q-8 -41 -8 -94q0 -213 178 -213q121 0 297 119zM1143 1583q0 -8 -10 -18l-279 -258q-35 -31 -51 -31h-111q-16 0 -16 12q0 10 12 23l246 254q31 31 53 30h135q21 0 21 -12z" />
<glyph unicode="&#xe2;" horiz-adv-x="1079" d="M1128 1063q0 -10 -2 -16l-176 -1006q-8 -41 -47 -41h-82q-31 0 -30 33v8v4l10 64q-96 -70 -164 -96.5t-166 -26.5q-139 0 -229 91t-90 271q0 57 12 123l37 203q84 467 532 467q174 0 359 -47q36 -8 36 -31zM932 969q-111 20 -199 20q-297 0 -356 -334l-37 -211 q-8 -41 -8 -94q0 -213 178 -213q121 0 297 119zM1128 1294q0 -18 -20 -18h-100q-20 0 -43 31l-131 198l-207 -198q-31 -31 -52 -31h-112q-16 0 -17 12q0 10 13 23l241 254q31 31 54 30h174q27 0 47 -30l149 -254q4 -7 4 -17z" />
<glyph unicode="&#xe3;" horiz-adv-x="1079" d="M1128 1063q0 -10 -2 -16l-176 -1006q-8 -41 -47 -41h-82q-31 0 -30 33v8v4l10 64q-96 -70 -164 -96.5t-166 -26.5q-139 0 -229 91t-90 271q0 57 12 123l37 203q84 467 532 467q174 0 359 -47q36 -8 36 -31zM932 969q-111 20 -199 20q-297 0 -356 -334l-37 -211 q-8 -41 -8 -94q0 -213 178 -213q121 0 297 119zM1186 1550v-6l-8 -47q-18 -111 -66.5 -163t-142.5 -52q-100 0 -156 53l-96 90q-47 45 -76 45q-70 0 -82 -94l-6 -43q-4 -35 -35 -35h-69q-27 0 -27 29v6l6 43q31 223 213 223q80 0 152 -63l110 -100q33 -29 65.5 -29t51 19.5 t27.5 70.5l8 47q8 35 35 35h69q27 0 27 -29z" />
<glyph unicode="&#xe4;" horiz-adv-x="1079" d="M1128 1063q0 -10 -2 -16l-176 -1006q-8 -41 -47 -41h-82q-31 0 -30 33v8v4l10 64q-96 -70 -164 -96.5t-166 -26.5q-139 0 -229 91t-90 271q0 57 12 123l37 203q84 467 532 467q174 0 359 -47q36 -8 36 -31zM932 969q-111 20 -199 20q-297 0 -356 -334l-37 -211 q-8 -41 -8 -94q0 -213 178 -213q121 0 297 119zM1083 1524v-6l-30 -166q-2 -16 -16.5 -27.5t-30.5 -11.5h-80q-35 0 -35 33v6l31 166q4 16 18 28.5t29 12.5h80q14 0 24 -10.5t10 -24.5zM725 1524v-6l-31 -166q-2 -16 -16 -27.5t-31 -11.5h-80q-35 0 -35 33v6l31 166 q4 16 18.5 28.5t28.5 12.5h80q14 0 24.5 -10.5t10.5 -24.5z" />
<glyph unicode="&#xe5;" horiz-adv-x="1079" d="M1128 1063q0 -10 -2 -16l-176 -1006q-8 -41 -47 -41h-82q-31 0 -30 33v8v4l10 64q-96 -70 -164 -96.5t-166 -26.5q-139 0 -229 91t-90 271q0 57 12 123l37 203q84 467 532 467q174 0 359 -47q36 -8 36 -31zM932 969q-111 20 -199 20q-297 0 -356 -334l-37 -211 q-8 -41 -8 -94q0 -213 178 -213q121 0 297 119zM1030 1440q0 -86 -60.5 -146.5t-146.5 -60.5t-147.5 60.5t-61.5 146.5t61.5 147.5t147.5 61.5t146.5 -61.5t60.5 -147.5zM932 1442q0 45 -32 75.5t-77 30.5t-75.5 -30.5t-30.5 -75.5t30.5 -77t75.5 -32t77 32t32 77z" />
<glyph unicode="&#xe6;" horiz-adv-x="1746" d="M1765 754q0 -113 -26 -203q-14 -45 -43 -45h-682l-13 -66q-10 -61 -10 -100q0 -117 61.5 -160t194.5 -43q162 0 355 29h4h6q29 0 28 -23v-4v-2l-12 -69q-4 -23 -14 -33t-35 -15q-186 -35 -369 -34q-221 0 -319 123q-76 -53 -186.5 -88t-219.5 -35q-137 0 -234 71.5 t-97 212.5v23q0 20 2 31l2 18q20 176 145 254t397 78h164l15 82q8 43 8 88q0 82 -42 112.5t-147 30.5q-147 0 -315 -16h-8q-35 0 -35 24v9l14 71q6 33 49 39q160 27 322 27q231 0 303 -146q74 80 161 113t210 33q180 0 273 -107.5t93 -279.5zM1593 770q0 219 -221 219 q-131 0 -217 -88t-117 -248l-2 -10h545q12 57 12 127zM842 543h-154q-184 0 -260 -45t-88 -156l-2 -18q-2 -10 -2 -29v-21q0 -145 192 -145q156 0 252 64z" />
<glyph unicode="&#xe7;" horiz-adv-x="925" d="M1020 1087q0 -2 -1 -6t-1 -8l-12 -74q-6 -31 -43 -30h-7q-123 14 -249 14q-123 0 -207 -91t-111 -249l-27 -160q-12 -70 -12 -123q0 -217 207 -217q131 0 258 15h6q31 0 31 -25v-6l-12 -74q-2 -20 -13.5 -30.5t-35.5 -14.5q-127 -23 -261 -22q-174 0 -266 106.5 t-92 278.5q0 47 10 112l27 160q41 246 177 372t347 126q131 0 252 -23q35 -6 35 -31zM639 -78q0 -8 -10 -18l-279 -258q-35 -31 -51 -31h-111q-16 0 -16 12q0 10 12 23l244 254q31 31 55 30h135q21 0 21 -12z" />
<glyph unicode="&#xe8;" horiz-adv-x="1114" d="M1137 760q0 -59 -13 -123l-16 -86q-10 -45 -45 -45h-686l-6 -25q-16 -63 -17 -125q0 -219 256 -219q162 0 355 29h4h8q27 0 27 -21v-6v-2l-13 -69q-4 -23 -14 -33t-35 -15q-186 -35 -358 -34q-170 0 -287 93t-117 286q0 59 13 127l26 143q47 246 186.5 376t356.5 130 q182 0 278.5 -105.5t96.5 -275.5zM956 766q0 217 -221 217q-129 0 -217 -91t-117 -239l-2 -10h543l2 10q12 62 12 113zM879 1294q0 -18 -21 -18h-110q-23 0 -43 31l-185 258q-6 8 -6 14q0 16 25 16h135q27 0 47 -30l153 -254q5 -7 5 -17z" />
<glyph unicode="&#xe9;" horiz-adv-x="1114" d="M1137 760q0 -59 -13 -123l-16 -86q-10 -45 -45 -45h-686l-6 -25q-16 -63 -17 -125q0 -219 256 -219q162 0 355 29h4h8q27 0 27 -21v-6v-2l-13 -69q-4 -23 -14 -33t-35 -15q-186 -35 -358 -34q-170 0 -287 93t-117 286q0 59 13 127l26 143q47 246 186.5 376t356.5 130 q182 0 278.5 -105.5t96.5 -275.5zM956 766q0 217 -221 217q-129 0 -217 -91t-117 -239l-2 -10h543l2 10q12 62 12 113zM1167 1583q0 -8 -10 -18l-278 -258q-35 -31 -52 -31h-110q-16 0 -17 12q0 10 13 23l245 254q31 31 54 30h135q20 0 20 -12z" />
<glyph unicode="&#xea;" horiz-adv-x="1114" d="M1137 760q0 -59 -13 -123l-16 -86q-10 -45 -45 -45h-686l-6 -25q-16 -63 -17 -125q0 -219 256 -219q162 0 355 29h4h8q27 0 27 -21v-6v-2l-13 -69q-4 -23 -14 -33t-35 -15q-186 -35 -358 -34q-170 0 -287 93t-117 286q0 59 13 127l26 143q47 246 186.5 376t356.5 130 q182 0 278.5 -105.5t96.5 -275.5zM956 766q0 217 -221 217q-129 0 -217 -91t-117 -239l-2 -10h543l2 10q12 62 12 113zM1128 1294q0 -18 -20 -18h-100q-20 0 -43 31l-131 198l-207 -198q-31 -31 -52 -31h-112q-16 0 -17 12q0 10 13 23l241 254q31 31 54 30h174q27 0 47 -30 l149 -254q4 -7 4 -17z" />
<glyph unicode="&#xeb;" horiz-adv-x="1114" d="M1137 760q0 -59 -13 -123l-16 -86q-10 -45 -45 -45h-686l-6 -25q-16 -63 -17 -125q0 -219 256 -219q162 0 355 29h4h8q27 0 27 -21v-6v-2l-13 -69q-4 -23 -14 -33t-35 -15q-186 -35 -358 -34q-170 0 -287 93t-117 286q0 59 13 127l26 143q47 246 186.5 376t356.5 130 q182 0 278.5 -105.5t96.5 -275.5zM956 766q0 217 -221 217q-129 0 -217 -91t-117 -239l-2 -10h543l2 10q12 62 12 113zM1094 1524v-6l-31 -166q-2 -16 -16.5 -27.5t-30.5 -11.5h-80q-35 0 -35 33v6l31 166q4 16 18.5 28.5t28.5 12.5h80q14 0 24.5 -10.5t10.5 -24.5z M735 1524v-6l-30 -166q-2 -16 -16.5 -27.5t-31.5 -11.5h-79q-35 0 -35 33v6l30 166q4 16 18.5 28.5t29.5 12.5h79q14 0 24.5 -10.5t10.5 -24.5z" />
<glyph unicode="&#xec;" horiz-adv-x="505" d="M532 1094v-9l-182 -1044q-8 -41 -49 -41h-98q-33 0 -33 33v8l182 1044q8 41 49 41h99q32 1 32 -32zM606 1294q0 -18 -20 -18h-111q-20 0 -43 31l-184 258q-6 8 -6 14q0 16 24 16h135q27 0 48 -30l153 -254q4 -7 4 -17z" />
<glyph unicode="&#xed;" horiz-adv-x="505" d="M532 1094v-9l-182 -1044q-8 -41 -49 -41h-98q-33 0 -33 33v8l182 1044q8 41 49 41h99q32 1 32 -32zM834 1583q0 -8 -11 -18l-278 -258q-33 -31 -51 -31h-111q-16 0 -16 12q0 10 12 23l246 254q31 31 53 30h135q21 0 21 -12z" />
<glyph unicode="&#xee;" horiz-adv-x="505" d="M532 1094v-9l-182 -1044q-8 -41 -49 -41h-98q-33 0 -33 33v8l182 1044q8 41 49 41h99q32 1 32 -32zM819 1294q0 -18 -20 -18h-101q-23 0 -43 31l-131 198l-207 -198q-31 -31 -51 -31h-112q-16 0 -17 12q0 10 13 23l241 254q31 31 53 30h174q27 0 48 -30l149 -254 q4 -7 4 -17z" />
<glyph unicode="&#xef;" horiz-adv-x="505" d="M532 1094v-9l-182 -1044q-8 -41 -49 -41h-98q-33 0 -33 33v8l182 1044q8 41 49 41h99q32 1 32 -32zM780 1524v-6l-30 -166q-2 -16 -16.5 -27.5t-31.5 -11.5h-79q-35 0 -35 33v6l30 166q4 16 18.5 28.5t29.5 12.5h79q14 0 24.5 -10.5t10.5 -24.5zM422 1524v-6l-31 -166 q-2 -16 -16.5 -27.5t-30.5 -11.5h-80q-35 0 -35 33v6l31 166q4 16 18.5 28.5t28.5 12.5h80q14 0 24.5 -10.5t10.5 -24.5z" />
<glyph unicode="&#xf0;" horiz-adv-x="1116" d="M1149 885q0 -143 -25 -275q-2 -18 -10 -56t-10 -56q-45 -252 -177 -382t-368 -130q-186 0 -283.5 103.5t-97.5 279.5q0 61 12 129q2 18 10.5 56t10.5 56q49 266 184 389t363 123q143 0 219 -80q-39 182 -252 291l-203 -139q-20 -12 -28 -12q-10 0 -21 12q-6 6 -14 19.5 t-15 19.5q-4 8 -4 12q0 16 27 37l147 100q-88 31 -155 45q-29 6 -29 27q0 2 4 14q4 10 16.5 30t16.5 30q12 25 27 24q6 0 22 -4q150 -37 238 -73l223 149q14 10 28.5 10t22.5 -12q4 -6 13.5 -18.5t13.5 -18.5q6 -6 6 -14q0 -14 -25 -31l-174 -119q154 -96 220.5 -225 t66.5 -311zM958 748q0 115 -55 168t-174 53q-137 0 -222 -97.5t-114 -261.5q-4 -18 -10 -56t-10 -56q-14 -74 -15 -142q0 -111 53.5 -163t174.5 -52q270 0 338 357q2 18 10 56t10 56q14 72 14 138z" />
<glyph unicode="&#xf1;" horiz-adv-x="1140" d="M1139 825q0 -53 -11 -110l-118 -674q-8 -41 -49 -41h-99q-33 0 -33 33v8l119 674q10 66 10 112q0 78 -42 117t-148 39q-123 0 -289 -78l-151 -864q-4 -16 -18.5 -28.5t-30.5 -12.5h-101q-31 0 -31 33v8l183 1044q8 41 47 41h100q31 0 31 -32v-9l-6 -43q174 98 329.5 98.5 t231.5 -87t76 -228.5zM1217 1550v-6l-9 -47q-18 -111 -66 -163t-143 -52q-100 0 -155 53l-96 90q-47 45 -76 45q-70 0 -82 -94l-6 -43q-4 -35 -35 -35h-70q-27 0 -26 29v6l6 43q31 223 213 223q80 0 151 -63l111 -100q33 -29 65.5 -29t51 19.5t26.5 70.5l8 47q8 35 35 35h70 q27 0 27 -29z" />
<glyph unicode="&#xf2;" horiz-adv-x="1116" d="M1137 756q0 -49 -11 -115l-26 -156q-86 -500 -545 -499q-180 0 -278.5 105.5t-98.5 281.5q0 47 10 112l27 156q86 500 543 500q184 0 281.5 -105.5t97.5 -279.5zM956 758q0 225 -225 225q-133 0 -221 -92t-115 -250l-26 -156q-12 -68 -13 -120q0 -111 54.5 -166.5 t171.5 -55.5q133 0 222 94.5t116 247.5l26 156q10 54 10 117zM903 1294q0 -18 -20 -18h-111q-23 0 -43 31l-184 258q-6 8 -6 14q0 16 24 16h135q27 0 47 -30l154 -254q4 -7 4 -17z" />
<glyph unicode="&#xf3;" horiz-adv-x="1116" d="M1137 756q0 -49 -11 -115l-26 -156q-86 -500 -545 -499q-180 0 -278.5 105.5t-98.5 281.5q0 47 10 112l27 156q86 500 543 500q184 0 281.5 -105.5t97.5 -279.5zM956 758q0 225 -225 225q-133 0 -221 -92t-115 -250l-26 -156q-12 -68 -13 -120q0 -111 54.5 -166.5 t171.5 -55.5q133 0 222 94.5t116 247.5l26 156q10 54 10 117zM1151 1583q0 -8 -10 -18l-279 -258q-35 -31 -51 -31h-111q-16 0 -16 12q0 10 12 23l246 254q31 31 53 30h135q21 0 21 -12z" />
<glyph unicode="&#xf4;" horiz-adv-x="1116" d="M1137 756q0 -49 -11 -115l-26 -156q-86 -500 -545 -499q-180 0 -278.5 105.5t-98.5 281.5q0 47 10 112l27 156q86 500 543 500q184 0 281.5 -105.5t97.5 -279.5zM956 758q0 225 -225 225q-133 0 -221 -92t-115 -250l-26 -156q-12 -68 -13 -120q0 -111 54.5 -166.5 t171.5 -55.5q133 0 222 94.5t116 247.5l26 156q10 54 10 117zM1128 1294q0 -18 -20 -18h-100q-20 0 -43 31l-131 198l-207 -198q-31 -31 -52 -31h-112q-16 0 -17 12q0 10 13 23l241 254q31 31 54 30h174q27 0 47 -30l149 -254q4 -7 4 -17z" />
<glyph unicode="&#xf5;" horiz-adv-x="1116" d="M1137 756q0 -49 -11 -115l-26 -156q-86 -500 -545 -499q-180 0 -278.5 105.5t-98.5 281.5q0 47 10 112l27 156q86 500 543 500q184 0 281.5 -105.5t97.5 -279.5zM956 758q0 225 -225 225q-133 0 -221 -92t-115 -250l-26 -156q-12 -68 -13 -120q0 -111 54.5 -166.5 t171.5 -55.5q133 0 222 94.5t116 247.5l26 156q10 54 10 117zM1206 1550v-6l-8 -47q-18 -111 -66.5 -163t-142.5 -52q-100 0 -155 53l-97 90q-47 45 -75 45q-70 0 -82 -94l-7 -43q-4 -35 -34 -35h-70q-27 0 -27 29v6l7 43q31 223 213 223q80 0 151 -63l111 -100 q33 -29 65.5 -29t51 19.5t26.5 70.5l8 47q8 35 35 35h70q26 0 26 -29z" />
<glyph unicode="&#xf6;" horiz-adv-x="1116" d="M1137 756q0 -49 -11 -115l-26 -156q-86 -500 -545 -499q-180 0 -278.5 105.5t-98.5 281.5q0 47 10 112l27 156q86 500 543 500q184 0 281.5 -105.5t97.5 -279.5zM956 758q0 225 -225 225q-133 0 -221 -92t-115 -250l-26 -156q-12 -68 -13 -120q0 -111 54.5 -166.5 t171.5 -55.5q133 0 222 94.5t116 247.5l26 156q10 54 10 117zM1090 1524v-6l-31 -166q-2 -16 -16.5 -27.5t-30.5 -11.5h-80q-35 0 -35 33v6l31 166q4 16 18.5 28.5t28.5 12.5h80q14 0 24.5 -10.5t10.5 -24.5zM731 1524v-6l-31 -166q-2 -16 -16 -27.5t-31 -11.5h-80 q-35 0 -34 33v6l30 166q4 16 18.5 28.5t28.5 12.5h80q14 0 24.5 -10.5t10.5 -24.5z" />
<glyph unicode="&#xf7;" horiz-adv-x="1218" d="M846 1079q0 -16 -11.5 -28.5t-27.5 -12.5h-98q-16 0 -28.5 12.5t-12.5 28.5v181q0 14 12 26t29 12h98q16 0 27.5 -12t11.5 -26v-181zM1194 760q0 -33 -41 -33h-788q-41 0 -41 33v82q0 33 41 32h788q41 0 41 -32v-82zM846 332q0 -16 -11.5 -27.5t-27.5 -11.5h-98 q-16 0 -28.5 11t-12.5 28v182q0 14 12 26.5t29 12.5h98q16 0 27.5 -12.5t11.5 -26.5v-182z" />
<glyph unicode="&#xf8;" horiz-adv-x="1116" d="M1290 1181.5q0 -12.5 -14 -26.5l-176 -192q39 -78 39 -191q0 -59 -13 -131l-26 -156q-39 -231 -181.5 -365t-363.5 -134q-172 0 -270 86l-111 -123q-18 -20 -37 -21h-100q-14 0 -14 13q0 14 12 26l180 197q-39 78 -39 190q0 59 12 131l27 156q39 231 180.5 365.5 t362.5 134.5q174 0 272 -86l107 119q18 20 37 20h102q14 0 14 -12.5zM903 920q-57 63 -172 63q-276 0 -336 -342l-26 -156q-10 -68 -11 -112q0 -35 2 -49zM956 745q0 18 -4 56l-542 -594q57 -63 172 -64q279 0 338 342l26 156q10 61 10 104z" />
<glyph unicode="&#xf9;" horiz-adv-x="1140" d="M1192 1094v-9l-182 -1044q-8 -41 -47 -41h-97q-31 0 -30 33v8l6 37q-178 -92 -340 -92q-137 0 -218 83t-81 240q0 57 12 125l115 651q8 41 49 41h98q33 0 33 -32v-9l-119 -673q-12 -68 -12 -117q0 -84 44 -118t146 -34q127 0 291 76l152 866q8 41 49 41h100q31 1 31 -32z M915 1294q0 -18 -20 -18h-111q-23 0 -43 31l-184 258q-6 8 -6 14q0 16 24 16h136q27 0 47 -30l153 -254q4 -7 4 -17z" />
<glyph unicode="&#xfa;" horiz-adv-x="1140" d="M1192 1094v-9l-182 -1044q-8 -41 -47 -41h-97q-31 0 -30 33v8l6 37q-178 -92 -340 -92q-137 0 -218 83t-81 240q0 57 12 125l115 651q8 41 49 41h98q33 0 33 -32v-9l-119 -673q-12 -68 -12 -117q0 -84 44 -118t146 -34q127 0 291 76l152 866q8 41 49 41h100q31 1 31 -32z M1167 1583q0 -8 -10 -18l-278 -258q-35 -31 -52 -31h-110q-16 0 -17 12q0 10 13 23l245 254q31 31 54 30h135q20 0 20 -12z" />
<glyph unicode="&#xfb;" horiz-adv-x="1140" d="M1192 1094v-9l-182 -1044q-8 -41 -47 -41h-97q-31 0 -30 33v8l6 37q-178 -92 -340 -92q-137 0 -218 83t-81 240q0 57 12 125l115 651q8 41 49 41h98q33 0 33 -32v-9l-119 -673q-12 -68 -12 -117q0 -84 44 -118t146 -34q127 0 291 76l152 866q8 41 49 41h100q31 1 31 -32z M1137 1294q0 -18 -21 -18h-100q-20 0 -43 31l-131 198l-207 -198q-31 -31 -51 -31h-113q-16 0 -16 12q0 10 12 23l242 254q31 31 53 30h174q27 0 47 -30l150 -254q4 -7 4 -17z" />
<glyph unicode="&#xfc;" horiz-adv-x="1140" d="M1192 1094v-9l-182 -1044q-8 -41 -47 -41h-97q-31 0 -30 33v8l6 37q-178 -92 -340 -92q-137 0 -218 83t-81 240q0 57 12 125l115 651q8 41 49 41h98q33 0 33 -32v-9l-119 -673q-12 -68 -12 -117q0 -84 44 -118t146 -34q127 0 291 76l152 866q8 41 49 41h100q31 1 31 -32z M1100 1524v-6l-31 -166q-2 -16 -16.5 -27.5t-30.5 -11.5h-80q-35 0 -35 33v6l31 166q4 16 18.5 28.5t28.5 12.5h80q14 0 24.5 -10.5t10.5 -24.5zM741 1524v-6l-30 -166q-2 -16 -16.5 -27.5t-30.5 -11.5h-80q-35 0 -35 33v6l31 166q4 16 18 28.5t29 12.5h80q14 0 24 -10.5 t10 -24.5z" />
<glyph unicode="&#xfd;" horiz-adv-x="1093" d="M1212 1100q0 -10 -6 -23l-547 -1179q-80 -172 -168 -238t-260 -66q-94 0 -168 19q-39 12 -38 29v4l14 75q6 33 45 33h6q129 -12 180 -12q90 0 140.5 35t93.5 139l35 84h-23q-55 0 -89 33t-46 127l-105 917v6q0 43 43 43h107q25 0 29 -32l86 -889q4 -45 30 -45h33l414 936 q12 31 45 30h121q28 1 28 -26zM1171 1583q0 -8 -10 -18l-278 -258q-35 -31 -52 -31h-110q-16 0 -16 12q0 10 12 23l246 254q31 31 53 30h135q20 0 20 -12z" />
<glyph unicode="&#xfe;" horiz-adv-x="1107" d="M1130 770q0 -66 -12 -135q-4 -25 -13 -74t-13 -74q-45 -256 -172 -378.5t-363 -122.5q-117 0 -235 22l-66 -370q-8 -39 -47 -39h-51h-54q-29 0 -28 30v6v3l327 1861q8 41 50 41h98q33 0 33 -33v-6v-2l-68 -379q137 20 244 21q184 0 277 -99.5t93 -271.5zM952 772 q0 109 -52 163t-167 54q-129 0 -244 -20q-2 -14 -8 -45t-8 -45l-125 -721q109 -20 236 -21q264 0 327 350q4 25 13.5 74t13.5 74q14 71 14 137z" />
<glyph unicode="&#xff;" horiz-adv-x="1093" d="M1212 1100q0 -10 -6 -23l-547 -1179q-80 -172 -168 -238t-260 -66q-94 0 -168 19q-39 12 -38 29v4l14 75q6 33 45 33h6q129 -12 180 -12q90 0 140.5 35t93.5 139l35 84h-23q-55 0 -89 33t-46 127l-105 917v6q0 43 43 43h107q25 0 29 -32l86 -889q4 -45 30 -45h33l414 936 q12 31 45 30h121q28 1 28 -26zM1096 1524v-6l-31 -166q-2 -16 -16.5 -27.5t-30.5 -11.5h-80q-35 0 -35 33v6l31 166q4 16 18.5 28.5t28.5 12.5h80q14 0 24.5 -10.5t10.5 -24.5zM737 1524v-6l-30 -166q-2 -16 -16.5 -27.5t-31.5 -11.5h-79q-35 0 -35 33v6l30 166 q4 16 18.5 28.5t29.5 12.5h79q14 0 24.5 -10.5t10.5 -24.5z" />
<glyph unicode="&#x152;" horiz-adv-x="2013" d="M2163 1495v-6l-17 -96q-4 -25 -26 -25h-396q-156 0 -213 -45t-77 -168l-50 -285h629q33 0 33 -34v-7l-12 -77q-8 -41 -49 -41h-629l-62 -346q-8 -43 -8 -84q0 -70 48 -99.5t175 -29.5h396q18 0 18 -19v-6l-16 -96q-4 -25 -27 -29q-125 -18 -401 -18q-145 0 -229.5 39.5 t-125.5 130.5q-90 -88 -195.5 -128t-252.5 -40q-207 0 -333 121.5t-126 353.5q0 70 16 168l48 264q117 643 667 643q246 0 367 -168q70 94 172 131t264 37q283 0 397 -18q15 -3 15 -23zM1221 1061q0 307 -301 307q-367 0 -451 -475l-47 -264q-16 -84 -16 -170 q0 -162 75.5 -233.5t223.5 -71.5q367 0 450 473l49 274q17 88 17 160z" />
<glyph unicode="&#x153;" horiz-adv-x="1845" d="M1864 756q0 -10 -17 -119l-14 -86q-6 -45 -45 -45h-686q-18 -96 -19 -144q0 -225 258 -225q162 0 355 29h10q29 0 29 -23v-6l-13 -69q-4 -23 -14 -33t-35 -15q-186 -35 -358 -34q-137 0 -224 38.5t-143 133.5q-147 -172 -389 -172q-182 0 -279.5 105.5t-97.5 277.5 q0 51 11 116l26 156q84 500 543 500q123 0 196.5 -43t131.5 -133q143 176 395 176q182 0 280.5 -107.5t98.5 -277.5zM1688 766q0 221 -222 221q-143 0 -225 -95t-113 -249h545l2 10q13 62 13 113zM963 745q0 238 -228 238q-139 0 -224 -91t-112 -251l-26 -156 q-10 -53 -11 -116q0 -225 224 -226q141 0 226 90.5t114 251.5l26 156q11 61 11 104z" />
<glyph unicode="&#x178;" horiz-adv-x="1193" d="M1386 1497q0 -10 -10 -27l-444 -712q-68 -109 -133 -135l-103 -582q-4 -16 -17 -28.5t-28 -12.5h-112q-29 0 -29 33v8l102 582q-57 25 -88 135l-188 712q-2 6 -2 15q0 37 39 37h119q25 0 32 -29l164 -664q14 -53 39 -53q23 0 55 53l404 664q16 29 39 29h131q30 0 30 -25z M1196 1853v-6l-31 -166q-2 -16 -16 -27.5t-31 -11.5h-80q-35 0 -34 33v6l30 166q4 16 18.5 28.5t28.5 12.5h80q14 0 24.5 -10.5t10.5 -24.5zM838 1853v-6l-31 -166q-2 -16 -16.5 -27.5t-30.5 -11.5h-80q-35 0 -35 33v6l31 166q4 16 18.5 28.5t28.5 12.5h80q14 0 24.5 -10.5 t10.5 -24.5z" />
<glyph unicode="&#x2c6;" horiz-adv-x="763" d="M950 1294q0 -18 -20 -18h-101q-23 0 -43 31l-131 198l-206 -198q-31 -31 -52 -31h-112q-16 0 -17 12q0 10 13 23l241 254q31 31 53 30h175q27 0 47 -30l149 -254q4 -7 4 -17z" />
<glyph unicode="&#x2dc;" horiz-adv-x="1009" d="M1130 1550v-6l-8 -47q-18 -111 -66 -163t-143 -52q-100 0 -155 53l-96 90q-47 45 -76 45q-70 0 -82 -94l-6 -43q-4 -35 -35 -35h-70q-27 0 -26 29v6l6 43q31 223 213 223q80 0 151 -63l111 -100q33 -29 65.5 -29t51 19.5t26.5 70.5l8 47q8 35 35 35h70q26 0 26 -29z" />
<glyph unicode="&#x2000;" horiz-adv-x="1003" />
<glyph unicode="&#x2001;" horiz-adv-x="2007" />
<glyph unicode="&#x2002;" horiz-adv-x="1003" />
<glyph unicode="&#x2003;" horiz-adv-x="2007" />
<glyph unicode="&#x2004;" horiz-adv-x="667" />
<glyph unicode="&#x2005;" horiz-adv-x="501" />
<glyph unicode="&#x2006;" horiz-adv-x="333" />
<glyph unicode="&#x2007;" horiz-adv-x="333" />
<glyph unicode="&#x2008;" horiz-adv-x="249" />
<glyph unicode="&#x2009;" horiz-adv-x="401" />
<glyph unicode="&#x200a;" horiz-adv-x="110" />
<glyph unicode="&#x2010;" horiz-adv-x="681" d="M696 645v-6l-14 -80q-6 -35 -45 -35h-408q-33 0 -32 29v6l14 80q8 37 45 37h408q32 0 32 -31z" />
<glyph unicode="&#x2011;" horiz-adv-x="681" d="M696 645v-6l-14 -80q-6 -35 -45 -35h-408q-33 0 -32 29v6l14 80q8 37 45 37h408q32 0 32 -31z" />
<glyph unicode="&#x2012;" horiz-adv-x="681" d="M696 645v-6l-14 -80q-6 -35 -45 -35h-408q-33 0 -32 29v6l14 80q8 37 45 37h408q32 0 32 -31z" />
<glyph unicode="&#x2013;" horiz-adv-x="870" d="M893 625v-7l-14 -79q-6 -35 -45 -35h-619q-33 0 -33 28v7l15 79q8 37 45 37h618q33 1 33 -30z" />
<glyph unicode="&#x2014;" horiz-adv-x="1138" d="M1159 625v-7l-14 -79q-6 -35 -45 -35h-885q-33 0 -33 28v7l15 79q8 37 45 37h884q33 1 33 -30z" />
<glyph unicode="&#x2018;" horiz-adv-x="380" d="M590 1528q0 -12 -6 -27l-144 -387q-14 -39 -47 -39h-121q-20 0 -20 17q0 10 6 22l193 387q20 39 47 39h77q15 0 15 -12z" />
<glyph unicode="&#x2019;" horiz-adv-x="380" d="M590 1524q0 -10 -6 -23l-193 -387q-18 -39 -45 -39h-78q-16 0 -16 15q0 8 6 24l143 387q14 39 50 39h120q19 0 19 -16z" />
<glyph unicode="&#x201a;" horiz-adv-x="380" d="M387 248q0 -10 -6 -23l-221 -387q-20 -39 -45 -39h-84q-23 0 -23 19q0 8 6 20l185 387q18 39 49 39h119q20 0 20 -16z" />
<glyph unicode="&#x201c;" horiz-adv-x="688" d="M897 1528q0 -12 -6 -27l-143 -387q-14 -39 -48 -39h-120q-20 0 -21 17q0 10 6 22l193 387q20 39 47 39h78q14 0 14 -12zM590 1528q0 -12 -6 -27l-144 -387q-14 -39 -47 -39h-121q-20 0 -20 17q0 10 6 22l193 387q20 39 47 39h77q15 0 15 -12z" />
<glyph unicode="&#x201d;" horiz-adv-x="688" d="M897 1526q0 -10 -6 -23l-193 -387q-18 -39 -45 -39h-78q-16 0 -16 15q0 10 6 24l144 387q14 39 49 39h121q18 0 18 -16zM590 1526q0 -10 -6 -23l-193 -387q-18 -39 -45 -39h-78q-16 0 -16 15q0 10 6 24l143 387q14 39 50 39h120q19 0 19 -16z" />
<glyph unicode="&#x201e;" horiz-adv-x="688" d="M727 248q0 -10 -6 -23l-221 -387q-20 -39 -45 -39h-84q-23 0 -23 19q0 8 6 20l185 387q18 39 49 39h119q20 0 20 -16zM358 248q0 -10 -6 -23l-221 -387q-20 -39 -45 -39h-84q-23 0 -22 19q0 8 6 20l184 387q18 39 49 39h119q20 0 20 -16z" />
<glyph unicode="&#x2022;" horiz-adv-x="856" d="M897 751.5q0 -135.5 -95 -230.5t-230.5 -95t-230.5 95t-95 230.5t95 230.5t230.5 95t230.5 -95t95 -230.5z" />
<glyph unicode="&#x2026;" horiz-adv-x="1241" d="M1163 238v-7l-35 -192q-2 -16 -15 -27.5t-30 -11.5h-98q-14 0 -24.5 9t-10.5 24v6l35 192q2 14 16.5 26.5t30.5 12.5h98q33 1 33 -32zM752 238v-7l-35 -192q-2 -16 -16.5 -27.5t-30.5 -11.5h-99q-33 0 -32 33v6l34 192q8 39 45 39h99q14 0 24.5 -9t10.5 -23zM338 238v-7 l-35 -192q-2 -16 -15.5 -27.5t-29.5 -11.5h-98q-14 0 -24.5 9t-10.5 24v6l35 192q2 14 16 26.5t31 12.5h98q33 1 33 -32z" />
<glyph unicode="&#x202f;" horiz-adv-x="401" />
<glyph unicode="&#x2039;" horiz-adv-x="724" d="M797 977q0 -18 -17 -31l-430 -379l285 -379q8 -12 8 -22q0 -23 -25 -23h-108q-20 0 -39 21l-285 346q-16 18 -16 51q0 43 25 64l407 346q25 20 51 20h125q19 0 19 -14z" />
<glyph unicode="&#x203a;" horiz-adv-x="724" d="M764 573q0 -43 -25 -63l-407 -346q-25 -20 -51 -21h-125q-18 0 -19 15q0 18 17 30l430 379l-285 379q-8 12 -8 23q0 23 24 22h109q20 0 39 -20l285 -346q16 -19 16 -52z" />
<glyph unicode="&#x205f;" horiz-adv-x="501" />
<glyph unicode="&#x20ac;" d="M1386 1481v-4l-18 -105q0 -10 -10 -16t-19 -6h-6q-8 0 -38 3l-48 5q-109 10 -221 10q-154 0 -275.5 -91t-177.5 -296h582q14 0 25.5 -9t11.5 -22q0 -6 -2 -10q-2 -8 -10.5 -25.5t-10.5 -25.5q-14 -41 -49 -41h-577q-6 -29 -14.5 -84t-14.5 -82h524q29 0 29 -27 q0 -2 -4 -14q-2 -8 -10.5 -25.5t-10.5 -25.5q-14 -41 -49 -41h-499q-4 -49 -5 -68q0 -172 88.5 -249.5t233.5 -77.5q113 0 309 16h8q27 0 27 -23v-10q-2 -14 -7 -41.5t-7 -42.5q-6 -33 -49 -41q-143 -27 -308 -26q-84 0 -164.5 25.5t-153.5 78.5t-117 149.5t-44 223.5 q0 55 4 86h-82q-33 0 -32 35v4v2q2 8 4 25.5t4 25.5q8 41 49 41h72q4 27 14 82t14 84h-71q-14 0 -25 10q-8 8 -8 25v4v2q2 8 4 25.5t4 25.5q8 41 47 41h76q41 158 114.5 271.5t168 173t189.5 85t202 25.5q104 0 215 -18q16 -2 47 -8l43 -7q28 -4 28 -22z" />
<glyph unicode="&#x2122;" horiz-adv-x="1617" d="M1718 709q0 -20 -20 -21h-84q-20 0 -21 21v491q0 129 -36.5 170t-178.5 41v-702q0 -20 -20 -21h-86q-20 0 -21 21v702q-102 0 -217 -12v-690q0 -20 -18 -21h-84q-20 0 -21 21v759q0 37 31 39q199 20 373 21q225 0 314 -64.5t89 -263.5v-491zM838 1440q0 -29 -35 -29h-199 v-690q0 -12 -9 -22.5t-24 -10.5h-65q-31 0 -31 33v690h-203q-33 0 -32 29v51q0 31 32 31h531q12 0 23.5 -9.5t11.5 -21.5v-51z" />
<glyph unicode="&#xe000;" horiz-adv-x="1125" d="M0 1125h1125v-1125h-1125v1125z" />
<glyph unicode="&#xfb01;" horiz-adv-x="1245" d="M1352 1520v-9l-29 -163q-8 -41 -49 -41h-105q-33 0 -32 32v9l28 163q8 41 49 41h105q33 1 33 -32zM1272 1094v-9l-182 -1044q-8 -41 -50 -41h-98q-33 0 -33 33v8l183 1044q8 41 49 41h98q33 1 33 -32zM969 1520v-7l-13 -67q-6 -31 -41 -31h-98q-78 0 -108.5 -25.5 t-46.5 -115.5l-27 -148h221q33 0 33 -30v-6l-12 -72q-6 -35 -48 -35h-219l-182 -1032q-31 -170 -113 -227.5t-223 -57.5q-66 0 -121 10q-33 6 -32 27v6l12 68q6 31 43 30h96q74 0 108.5 31t49.5 113l182 1032l-190 14q-33 4 -33 29v6l10 58q8 37 45 36h193l26 148 q31 176 108 230.5t228 54.5q53 0 119 -13q33 -6 33 -26z" />
<glyph unicode="&#xfb02;" horiz-adv-x="1241" d="M1346 1509v-8l-256 -1460q-8 -41 -46 -41h-106q-29 0 -29 33v8l256 1460q8 39 45 39h107q29 0 29 -31zM969 1520v-7l-13 -67q-6 -31 -41 -31h-98q-78 0 -108.5 -25.5t-46.5 -115.5l-27 -148h221q33 0 33 -30v-6l-12 -72q-6 -35 -48 -35h-219l-182 -1032 q-31 -170 -113 -227.5t-223 -57.5q-66 0 -121 10q-33 6 -32 27v6l12 68q6 31 43 30h96q74 0 108.5 31t49.5 113l182 1032l-190 14q-33 4 -33 29v6l10 58q8 37 45 36h193l26 148q31 176 108 230.5t228 54.5q53 0 119 -13q33 -6 33 -26z" />
<glyph unicode="&#xfb03;" horiz-adv-x="2021" d="M2128 1520v-9l-28 -163q-8 -41 -49 -41h-105q-33 0 -33 32v9l29 163q8 41 49 41h105q32 1 32 -32zM2048 1094v-9l-182 -1044q-8 -41 -49 -41h-98q-33 0 -33 33v8l182 1044q8 41 49 41h99q32 1 32 -32zM1727 1520v-7l-13 -67q-6 -31 -41 -31h-98q-78 0 -108.5 -25.5 t-46.5 -115.5l-27 -148h221q33 0 33 -30v-6l-12 -72q-6 -35 -48 -35h-219l-182 -1032q-31 -170 -113 -227.5t-223 -57.5q-66 0 -121 10q-33 6 -32 27v6l12 68q6 31 43 30h96q74 0 108.5 31t49.5 113l182 1032l-190 14q-33 4 -33 29v6l10 58q8 37 45 36h193l26 148 q31 176 108 230.5t228 54.5q53 0 119 -13q33 -6 33 -26zM969 1520v-7l-13 -67q-6 -31 -41 -31h-98q-78 0 -108.5 -25.5t-46.5 -115.5l-27 -148h221q33 0 33 -30v-6l-12 -72q-6 -35 -48 -35h-219l-182 -1032q-31 -170 -113 -227.5t-223 -57.5q-66 0 -121 10q-33 6 -32 27v6 l12 68q6 31 43 30h96q74 0 108.5 31t49.5 113l182 1032l-190 14q-33 4 -33 29v6l10 58q8 37 45 36h193l26 148q31 176 108 230.5t228 54.5q53 0 119 -13q33 -6 33 -26z" />
<glyph unicode="&#xfb04;" horiz-adv-x="2015" d="M2120 1509v-8l-256 -1460q-8 -41 -45 -41h-106q-29 0 -29 33v8l256 1460q6 39 45 39h106q29 0 29 -31zM1727 1520v-7l-13 -67q-6 -31 -41 -31h-98q-78 0 -108.5 -25.5t-46.5 -115.5l-27 -148h221q33 0 33 -30v-6l-12 -72q-6 -35 -48 -35h-219l-182 -1032 q-31 -170 -113 -227.5t-223 -57.5q-66 0 -121 10q-33 6 -32 27v6l12 68q6 31 43 30h96q74 0 108.5 31t49.5 113l182 1032l-190 14q-33 4 -33 29v6l10 58q8 37 45 36h193l26 148q31 176 108 230.5t228 54.5q53 0 119 -13q33 -6 33 -26zM969 1520v-7l-13 -67q-6 -31 -41 -31 h-98q-78 0 -108.5 -25.5t-46.5 -115.5l-27 -148h221q33 0 33 -30v-6l-12 -72q-6 -35 -48 -35h-219l-182 -1032q-31 -170 -113 -227.5t-223 -57.5q-66 0 -121 10q-33 6 -32 27v6l12 68q6 31 43 30h96q74 0 108.5 31t49.5 113l182 1032l-190 14q-33 4 -33 29v6l10 58 q8 37 45 36h193l26 148q31 176 108 230.5t228 54.5q53 0 119 -13q33 -6 33 -26z" />
</font>
</defs>
</svg>
